<?xml version="1.0" encoding="UTF-8"?>
<svg width="200px" height="200px" viewBox="0 0 200 200" version="1.1" xmlns="http://www.w3.org/2000/svg" xmlns:xlink="http://www.w3.org/1999/xlink">
    <!-- Generator: Sketch 52.5 (67469) - http://www.bohemiancoding.com/sketch -->
    <title>icon_403</title>
    <desc>Created with Sketch.</desc>
    <defs>
        <rect id="path-1" x="0" y="0" width="180" height="160"></rect>
        <path d="M42.6220096,85.05 C67.89234,85.05 88.3779904,68.205567 88.3779904,44.0680453 C88.3779904,19.9305235 74.3897719,-1.26 42.6220096,-1.26 C10.8542473,-1.26 -3.13397129,19.9305235 -3.13397129,44.0680453 C-3.13397129,68.205567 17.3516791,85.05 42.6220096,85.05 Z" id="path-3"></path>
        <path d="M27.5738415,24.57 L64.6753807,24.57 C76.305409,24.57 85.7334099,33.9980008 85.7334099,45.6280292 C85.7334099,46.3803043 85.6930986,47.132039 85.6126494,47.88 L85.2234988,51.4980533 C84.0187906,62.6985977 74.5650939,71.19 63.2999479,71.19 L28.9492743,71.19 C17.6841283,71.19 8.23043158,62.6985977 7.02572341,51.4980533 L6.63657282,47.88 C5.39284369,36.3166658 13.7585365,25.9344896 25.3218707,24.6907605 C26.0698318,24.6103113 26.8215665,24.57 27.5738415,24.57 Z" id="path-5"></path>
        <filter x="-3.2%" y="-5.4%" width="106.3%" height="110.7%" filterUnits="objectBoundingBox" id="filter-6">
            <feOffset dx="0" dy="5" in="SourceAlpha" result="shadowOffsetInner1"></feOffset>
            <feComposite in="shadowOffsetInner1" in2="SourceAlpha" operator="arithmetic" k2="-1" k3="1" result="shadowInnerInner1"></feComposite>
            <feColorMatrix values="0 0 0 0 0.880632926   0 0 0 0 0.645169577   0 0 0 0 0  0 0 0 0.452387456 0" type="matrix" in="shadowInnerInner1"></feColorMatrix>
        </filter>
        <ellipse id="path-7" cx="11.5956938" cy="12.6" rx="11.5956938" ry="12.6"></ellipse>
        <path d="M11.0124223,0.615477361 C10.1154041,0.974879024 9.48044648,1.8653771 9.48044648,2.90699358 C9.48044648,4.26637182 10.5619046,5.36836563 11.8959508,5.36836563 C13.0550931,5.36836563 14.0235381,4.53638939 14.2575547,3.42649277 C15.1463628,4.79182274 15.6728574,6.48344444 15.6846055,8.34124448 C15.7152773,13.19156 12.2257215,17.3378637 7.89046441,17.6022731 C3.55520733,17.8666824 0.0159226945,14.149071 -0.0147490903,9.29875552 C-0.045420875,4.44844004 3.44413498,0.30213632 7.77939205,0.0377269474 C8.9300496,-0.0324521991 10.0246333,0.177890055 11.0124223,0.615477361 Z" id="path-9"></path>
        <ellipse id="path-11" cx="11.5956938" cy="12.6" rx="11.5956938" ry="12.6"></ellipse>
        <path d="M1.42373654,4.02764993 C1.86488656,4.63523797 2.57572725,5.02954865 3.37750459,5.02954865 C4.7159805,5.02954865 5.80102961,3.93066401 5.80102961,2.5751211 C5.80102961,1.84985208 5.49041554,1.19805591 4.99656227,0.748731643 C5.72701591,0.40007454 6.51254094,0.166939394 7.33580564,0.0721231195 C11.6634814,-0.426299916 15.3952206,3.08620627 15.6708784,7.91752526 C15.9465361,12.7488443 12.6617266,17.0694538 8.33405082,17.5678769 C4.00637507,18.0662999 0.274635899,14.5537937 -0.00102189551,9.72247474 C-0.119773609,7.64117169 0.422238451,5.65464785 1.42373654,4.02764993 Z" id="path-13"></path>
        <path d="M0.940321559,4.99918084 C1.69414673,4.02473313 2.33307277,2.35833951 2.85709967,0 C3.60612644,2.45526578 4.2350154,4.01006366 4.74376655,4.66439364 L4.74378156,4.66438197 C5.02998016,5.03247613 5.2072983,5.47340724 5.25562304,5.93716113 C5.64950802,9.71712341 4.85000023,11.6071046 2.85709967,11.6071046 C0.852657812,11.6071046 0.0447798635,9.82323328 0.433465819,6.25549075 L0.433468653,6.25549105 C0.483311145,5.79798757 0.658729901,5.36318613 0.940321559,4.99918084 Z" id="path-15"></path>
        <ellipse id="path-17" cx="2.82057416" cy="8.19" rx="6.58133971" ry="5.67"></ellipse>
        <path d="M35.0878029,4.19753798 C34.7122567,5.71576942 26.0572699,6.93 17.8636364,6.93 C9.67000285,6.93 1.01501604,5.71576942 0.63946985,4.19753798 C0.241745074,3.75199815 -3.65193744e-16,3.16423037 -4.4408921e-16,2.52 L0,0 L35.7272727,0 L35.7272727,2.52 C35.7272727,3.16423037 35.4855277,3.75199815 35.0878029,4.19753798 Z" id="path-19"></path>
        <path d="M0,41.7969353 C0.244104138,14.0769353 15.6195521,0.216935266 46.1263437,0.216935266 C76.6331354,0.216935266 92.1795376,14.0769353 92.7655502,41.7969353 C90.562934,27.3956894 74.9127673,20.1950664 45.8150499,20.1950664 C16.7173326,20.1950664 1.4456493,27.3956894 0,41.7969353 Z" id="path-21"></path>
        <filter x="-0.5%" y="-1.2%" width="101.1%" height="102.4%" filterUnits="objectBoundingBox" id="filter-23">
            <feOffset dx="0" dy="-1" in="SourceAlpha" result="shadowOffsetInner1"></feOffset>
            <feComposite in="shadowOffsetInner1" in2="SourceAlpha" operator="arithmetic" k2="-1" k3="1" result="shadowInnerInner1"></feComposite>
            <feColorMatrix values="0 0 0 0 0.219233504   0 0 0 0 0.528402335   0 0 0 0 0.857138813  0 0 0 1 0" type="matrix" in="shadowInnerInner1"></feColorMatrix>
        </filter>
        <path d="M2.58734501,13.3942499 L1.58999309,11.3790059 C-0.240741324,7.67983354 1.27392688,3.1969584 4.9730992,1.36622399 C5.44194445,1.1341907 5.93385671,0.952025909 6.44074597,0.822725519 L6.44074597,0.822725519 C11.8336611,-0.552932013 17.5178548,1.52430268 20.753069,6.05302829 L20.8431239,6.17908916 C23.3629825,9.70644391 22.5462456,14.608679 19.0188908,17.1285376 C18.639713,17.3994132 18.2371663,17.635984 17.8160203,17.8354469 L16.7797104,18.3262633 C11.4955979,20.8289212 5.18073029,18.6344306 2.58734501,13.3942499 Z" id="path-24"></path>
        <path d="M2.94774483,18.0775605 L0.737736369,12.582071 C-1.09449913,8.02596585 1.11363352,2.84719252 5.66973869,1.01495702 C5.88474783,0.928491196 6.10305514,0.850464133 6.32416051,0.781054578 L6.32416051,0.781054578 C11.688175,-0.902820695 17.5029956,1.35476934 20.3254864,6.21703558 L21.0940653,7.54105578 C24.1861779,12.8677957 22.3811884,19.6923625 17.0599304,22.7938995 L16.9269596,22.8714025 C12.2668959,25.5875573 6.28728932,24.0117077 3.57113457,19.3516439 C3.33273193,18.9426203 3.12438602,18.5168031 2.94774483,18.0775605 Z" id="path-26"></path>
        <rect id="path-28" x="0" y="1.42108547e-14" width="48" height="48" rx="24"></rect>
    </defs>
    <g id="页面-1" stroke="none" stroke-width="1" fill="none" fill-rule="evenodd">
        <g id="Result-结果反馈" transform="translate(-1020.000000, -2508.000000)">
            <g id="分组-8" transform="translate(440.000000, 2464.000000)">
                <g id="分组-9" transform="translate(499.000000, 44.000000)">
                    <g id="分组-46" transform="translate(81.000000, 0.000000)">
                        <g id="分组-16">
                            <g id="狮子-+-Group-36-+-Group-Copy-3-+-椭圆形备份-2-蒙版" transform="translate(0.000000, 20.000000)">
                                <mask id="mask-2" fill="white">
                                    <use xlink:href="#path-1"></use>
                                </mask>
                                <g id="蒙版"></g>
                                <g id="编组-30" mask="url(#mask-2)">
                                    <g transform="translate(99.500000, 65.000000) rotate(-11.000000) translate(-99.500000, -65.000000) translate(34.000000, 2.000000)">
                                        <g id="编组-12">
                                            <g id="编组-6">
                                                <path d="M126.524499,59.22 L126.61244,59.22 C126.489627,59.3941077 126.372471,59.5682153 126.260972,59.742323 C126.025778,60.195557 125.777378,60.6411584 125.516265,61.0786453 C124.913871,62.3490968 124.612674,63.6195484 124.612674,64.89 C124.612674,66.3735475 125.023386,67.857095 125.84481,69.3406424 C129.085662,73.6462302 131,78.9617538 131,84.7135922 C131,98.2741727 120.359506,109.409577 106.781547,110.602888 C102.371321,119.01691 93.4000694,124.776699 83.0502392,124.776699 C79.858519,124.776699 76.7979024,124.22894 73.9617225,123.224499 L73.9617225,123.48 C71.4545455,122.140004 68.9473684,121.470006 66.4401914,121.470006 C63.9330144,121.470006 61.4258373,122.140004 58.9186603,123.48 L58.9186603,123.414587 C55.4131388,125.071158 51.4792097,126 47.3229665,126 C36.4213264,126 27.0491835,119.609662 22.9256313,110.458223 C9.97110929,108.695202 0,97.8407024 0,84.7135922 C0,78.8725431 1.97418087,73.4814482 5.30694174,69.1410351 C6.02719775,67.8290234 6.38732576,66.5170117 6.38732576,65.205 C6.38732576,63.42 5.72073711,61.635 4.38755981,59.85 L4.79522793,59.85 C2.93174724,56.3001261 1.88038278,52.2771578 1.88038278,48.0145631 C1.88038278,33.7595831 13.6385178,22.1845111 28.2067772,22.0211678 L28.2057416,22.0194175 C28.2115301,22.0199451 28.2173164,22.0204691 28.2231006,22.0209896 C28.3216525,22.0199424 28.4203328,22.0194175 28.5191388,22.0194175 C29.0370387,22.0194175 29.5514867,22.0338397 30.0620841,22.062295 C31.5773139,21.9850114 32.9202867,21.6165783 34.0910024,20.9569958 C35.506237,20.159651 36.6697439,18.9368353 37.5815232,17.2885485 C37.7032747,17.0427847 37.8282969,16.7988523 37.9565347,16.5568052 C37.9632047,16.5427513 37.9698589,16.5286706 37.9764971,16.5145631 L37.9777929,16.5167532 C43.1954844,6.7040431 53.7021503,0 65.8133971,0 C78.7924822,0 89.9287933,7.69922916 94.6878067,18.6727209 C95.4291176,19.6404084 96.2924616,20.4018329 97.2778393,20.9569958 C98.40363,21.5912675 99.6887111,21.9563062 101.133083,22.0521118 C101.579536,22.0304018 102.028884,22.0194175 102.480861,22.0194175 C102.68389,22.0194175 102.886389,22.0216339 103.088333,22.0260434 C103.113216,22.0239014 103.138138,22.0216927 103.1631,22.0194175 L103.158225,22.0276575 C117.557374,22.3783506 129.119617,33.8788266 129.119617,48.0145631 C129.119617,52.026934 128.188065,55.826986 126.524499,59.22 Z M78.1848175,58.6898878 C74.3894437,60.2827786 70.207004,61.1650485 65.8133971,61.1650485 C61.2166584,61.1650485 56.8510642,60.1993119 52.918056,58.4644131 C51.3976638,61.8400032 49.1632078,64.8400468 46.4012929,67.2824514 C48.3053983,69.3368957 49.8778067,71.6896314 51.0360912,74.2602232 C56.1233348,74.9525619 60.750496,77.0469291 64.4944023,80.1303763 C68.7488153,76.0990248 74.3779855,73.4417155 80.629936,72.8922573 C81.699659,70.8513932 83.0377208,68.9666856 84.5987071,67.2824514 C81.8984404,64.8945632 79.7023487,61.9736521 78.1848158,58.6898885 Z" id="形状结合" fill="#FF8224" transform="translate(65.500000, 63.000000) rotate(-360.000000) translate(-65.500000, -63.000000) "></path>
                                                <path d="M108.435407,62.6850014 L108.435407,62.6850014 C111.588928,62.6850014 114.322203,64.8685061 115.018717,67.9441469 C115.6442,70.7060974 115.956938,73.4680494 115.956938,76.2300014 C115.956938,78.9919535 115.6442,81.7539055 115.018724,84.5158576 L115.018717,84.515856 C114.322203,87.5914967 111.588928,89.7750014 108.435407,89.7750014 L108.435407,89.7750014 C105.281885,89.7750014 102.54861,87.5914967 101.852096,84.515856 C101.226613,81.7539055 100.913876,78.9919535 100.913876,76.2300014 C100.913876,73.4680494 101.226613,70.7060974 101.852089,67.9441453 L101.852096,67.9441469 C102.54861,64.8685061 105.281885,62.6850014 108.435407,62.6850014 Z" id="矩形复制-25" fill="#F1F6FF"></path>
                                                <path d="M106.555024,60.4800017 L106.555024,60.4800017 C109.636988,60.4800017 112.299919,62.6335288 112.944625,65.6473063 C113.699248,69.1748703 114.076555,72.702436 114.076555,76.2300017 C114.076555,79.7575674 113.699248,83.2851331 112.944633,86.8126988 L112.944625,86.8126971 C112.299919,89.8264746 109.636988,91.9800017 106.555024,91.9800017 L106.555024,91.9800017 C103.47306,91.9800017 100.810129,89.8264746 100.165423,86.8126971 C99.4108003,83.2851331 99.0334928,79.7575674 99.0334928,76.2300017 C99.0334928,72.702436 99.4108003,69.1748703 100.165415,65.6473045 L100.165423,65.6473063 C100.810129,62.6335288 103.47306,60.4800017 106.555024,60.4800017 Z" id="矩形复制-28" fill="#4B9AEE"></path>
                                                <path d="M22.5645933,62.6850014 L22.5645933,62.6850014 C25.7181148,62.6850014 28.4513895,64.8685061 29.1479037,67.9441469 C29.7733865,70.7060974 30.0861244,73.4680494 30.0861244,76.2300014 C30.0861244,78.9919535 29.7733865,81.7539055 29.1479107,84.5158576 L29.1479037,84.515856 C28.4513895,87.5914967 25.7181148,89.7750014 22.5645933,89.7750014 L22.5645933,89.7750014 C19.4110718,89.7750014 16.6777971,87.5914967 15.9812829,84.515856 C15.3558001,81.7539055 15.0430622,78.9919535 15.0430622,76.2300014 C15.0430622,73.4680494 15.3558001,70.7060974 15.9812759,67.9441453 L15.9812829,67.9441469 C16.6777971,64.8685061 19.4110718,62.6850014 22.5645933,62.6850014 Z" id="矩形复制-26" fill="#F1F6FF"></path>
                                                <path d="M25.0717703,60.4800017 L25.0717703,60.4800017 C28.153734,60.4800017 30.8166656,62.6335288 31.4613711,65.6473063 C32.215994,69.1748703 32.5933014,72.702436 32.5933014,76.2300017 C32.5933014,79.7575674 32.215994,83.2851331 31.4613791,86.8126988 L31.4613711,86.8126971 C30.8166656,89.8264746 28.153734,91.9800017 25.0717703,91.9800017 L25.0717703,91.9800017 C21.9898067,91.9800017 19.3268751,89.8264746 18.6821695,86.8126971 C17.9275467,83.2851331 17.5502392,79.7575674 17.5502392,76.2300017 C17.5502392,72.702436 17.9275467,69.1748703 18.6821615,65.6473045 L18.6821695,65.6473063 C19.3268751,62.6335288 21.9898067,60.4800017 25.0717703,60.4800017 Z" id="矩形复制-27" fill="#4B9AEE"></path>
                                                <path d="M16.923445,26.46 L113.449761,26.46 L113.449761,26.46 C113.449761,50.8157575 93.7055182,70.56 69.3497608,70.56 L61.023445,70.56 C36.6676875,70.56 16.923445,50.8157575 16.923445,26.46 Z" id="矩形" transform="translate(65.186603, 48.510000) rotate(-180.000000) translate(-65.186603, -48.510000) "></path>
                                                <g id="编组-24复制-3" transform="translate(40.194985, 43.021270) rotate(-30.000000) translate(-40.194985, -43.021270) translate(16.063406, 21.916270)">
                                                    <g id="矩形-+-矩形蒙版" transform="translate(-0.000000, 0.000000)">
                                                        <path d="M33.2267472,9.40410859 L44.2186443,20.5070308 L4.02570916,37.0366734 L6.93499397,17.9575073 C8.22314734,9.5097636 16.1156513,3.70576889 24.563395,4.99392227 C27.8499854,5.49507769 30.8877563,7.04149244 33.2267472,9.40410859 Z" id="矩形" fill="#F1F6FF" transform="translate(24.122177, 20.925818) rotate(-345.000000) translate(-24.122177, -20.925818) "></path>
                                                        <path d="M29.0894326,13.250271 L35.8992135,19.7973212 L10.4363054,29.187215 L12.1609542,18.8568292 C13.0776774,13.3657961 18.2721902,9.65758514 23.7632233,10.5743083 C25.7677923,10.9089693 27.6243867,11.8417485 29.0894326,13.250271 Z" id="矩形" fill="#4B9AEE" transform="translate(23.167759, 19.811171) rotate(-345.000000) translate(-23.167759, -19.811171) "></path>
                                                    </g>
                                                </g>
                                                <g id="编组-24复制-4" transform="translate(89.689230, 43.021270) scale(-1, 1) rotate(-30.000000) translate(-89.689230, -43.021270) translate(65.557651, 21.916270)">
                                                    <g id="矩形-+-矩形蒙版" transform="translate(-0.000000, 0.000000)">
                                                        <path d="M33.2267472,9.40410859 L44.2186443,20.5070308 L4.02570916,37.0366734 L6.93499397,17.9575073 C8.22314734,9.5097636 16.1156513,3.70576889 24.563395,4.99392227 C27.8499854,5.49507769 30.8877563,7.04149244 33.2267472,9.40410859 Z" id="矩形" fill="#F1F6FF" transform="translate(24.122177, 20.925818) rotate(-345.000000) translate(-24.122177, -20.925818) "></path>
                                                        <path d="M29.0894326,13.250271 L35.8992135,19.7973212 L10.4363054,29.187215 L12.1609542,18.8568292 C13.0776774,13.3657961 18.2721902,9.65758514 23.7632233,10.5743083 C25.7677923,10.9089693 27.6243867,11.8417485 29.0894326,13.250271 Z" id="矩形" fill="#4B9AEE" transform="translate(23.167759, 19.811171) rotate(-345.000000) translate(-23.167759, -19.811171) "></path>
                                                    </g>
                                                </g>
                                                <g id="形状结合" transform="translate(23.191388, 33.390000)">
                                                    <mask id="mask-4" fill="white">
                                                        <use xlink:href="#path-3"></use>
                                                    </mask>
                                                    <use id="椭圆形" fill="#FFDC59" xlink:href="#path-3"></use>
                                                    <path d="M-13.8133939,70.6757714 C-26.695314,22.7185905 -7.88048562,-1.26 42.6310913,-1.26 C93.1426683,-1.26 112.40068,22.7185905 100.405128,70.6757714 L95.821344,70.6757723 C93.3857678,70.6757723 91.4113431,68.7013476 91.4113431,66.2657714 C91.4113431,66.0388197 91.4288625,65.8122066 91.4637451,65.5879516 C93.6413347,51.5885653 91.406338,37.2859148 84.7587551,22.68 C81.1273749,14.7012159 60.7990431,9.63126967 42.5135484,9.63126967 C24.2280537,9.63126967 5.03621282,15.94758 1.0675053,22.68 C-7.34748521,36.9549876 -10.1540912,51.1992817 -7.35231274,65.4128824 L-7.35230898,65.4128817 C-6.88127308,67.8024768 -8.43657261,70.1214764 -10.8261677,70.5925123 C-11.1070861,70.6478868 -11.3927296,70.6757714 -11.6790536,70.6757714 L-13.8133939,70.6757714 Z" id="路径-7" fill="#F1F6FF" mask="url(#mask-4)"></path>
                                                    <g id="编组-27" mask="url(#mask-4)">
                                                        <g transform="translate(-3.502602, -1.890000)">
                                                            <path d="M29.6107196,10.71 L63.0809778,10.71 C79.4341293,10.71 92.6909778,23.9668486 92.6909778,40.32 C92.6909778,40.9391331 92.6715591,41.5581139 92.6327503,42.1760295 L91.3377692,62.7947673 C90.3578864,78.3964996 77.4184701,90.5487379 61.7859968,90.5487379 L30.9057007,90.5487379 C15.2732274,90.5487379 2.33381108,78.3964996 1.35392824,62.7947673 L0.0589471927,42.1760295 C-0.966109579,25.8550362 11.4336969,11.7932843 27.7546902,10.7682276 C28.3726057,10.7294187 28.9915865,10.71 29.6107196,10.71 Z M28.516886,24.57 C27.8441222,24.57 27.1717108,24.6007899 26.5017623,24.662273 C14.3748445,25.7751951 5.44623691,36.508206 6.55915902,48.6351237 L7.52632929,59.1738616 C8.56789581,70.5232556 18.0869687,79.2087379 29.4840563,79.2087379 L63.2076411,79.2087379 C74.6047287,79.2087379 84.1238017,70.5232556 85.1653682,59.1738616 L86.1325385,48.6351237 C86.1940216,47.9651752 86.2248114,47.2927638 86.2248114,46.62 C86.2248114,34.4421213 76.3526902,24.57 64.1748114,24.57 L28.516886,24.57 Z" id="形状结合" fill="#FFFFFF" fill-rule="evenodd"></path>
                                                            <g id="编组复制-2" style="mix-blend-mode: multiply;" stroke-width="1" fill="none" fill-rule="evenodd" transform="translate(45.811214, 12.600000) rotate(-270.000000) translate(-45.811214, -12.600000) translate(33.588726, 1.260000)">
                                                                <path d="M-4.61852778e-14,-4.9471538e-13 L24.1315789,-4.9471538e-13 L24.1315789,4.40500669 L-4.61852778e-14,4.40500669 L-4.61852778e-14,-4.9471538e-13 Z M0,7.56570664 L24.1315789,7.56570664 L24.1315789,15.1142934 L0,15.1142934 L0,7.56570664 Z M0,18.2749933 L24.1315789,18.2749933 L24.1315789,22.68 L0,22.68 L0,18.2749933 Z" id="形状结合" fill="#4B9AEE"></path>
                                                            </g>
                                                            <g id="矩形" fill="none" fill-opacity="1">
                                                                <use fill="black" filter="url(#filter-6)" xlink:href="#path-5"></use>
                                                            </g>
                                                        </g>
                                                    </g>
                                                    <path d="M17.4104785,145.015771 C11.6999366,97.0585905 20.0405306,73.08 42.4322606,73.08 C64.8239906,73.08 73.3610475,97.0585905 68.0434315,145.015771 L68.0434315,145.015771 C65.8181898,145.015771 64.0142751,143.211857 64.0142751,140.986615 C64.0142751,140.887294 64.0179476,140.788006 64.025285,140.688957 C65.0803258,126.446997 64.1076953,111.890678 61.1074105,97.02 C59.4976234,89.0412159 50.4860949,83.9712697 42.3801539,83.9712697 C34.274213,83.9712697 25.7664897,90.28758 24.0071658,97.02 C20.1114852,111.927634 18.9272476,126.801794 20.4544529,141.642479 L20.4544508,141.642479 C20.6274513,143.323619 19.404863,144.826696 17.7237235,144.999696 C17.6196519,145.010406 17.5150996,145.015771 17.4104785,145.015771 Z" id="路径-7复制-2" fill="#FFFFFF" mask="url(#mask-4)"></path>
                                                    <ellipse id="椭圆形" fill="#FF9AA4" opacity="0.800000012" mask="url(#mask-4)" cx="67.6496977" cy="60.2161557" rx="7.5215311" ry="3.78"></ellipse>
                                                    <ellipse id="椭圆形复制-3" fill="#FF9AA4" opacity="0.800000012" mask="url(#mask-4)" cx="16.0772435" cy="57.6961557" rx="7.5215311" ry="3.78"></ellipse>
                                                    <g id="编组-31" mask="url(#mask-4)">
                                                        <g transform="translate(9.135228, 30.045605)" id="编组">
                                                            <g transform="translate(-0.000000, 0.000000)">
                                                                <g id="椭圆形复制-7" transform="translate(53.570489, 18.313840) rotate(-8.000000) translate(-53.570489, -18.313840) translate(41.974795, 5.713840)">
                                                                    <mask id="mask-8" fill="white">
                                                                        <use xlink:href="#path-7"></use>
                                                                    </mask>
                                                                    <use id="椭圆形复制" fill="#FFFFFF" xlink:href="#path-7"></use>
                                                                    <g mask="url(#mask-8)">
                                                                        <g transform="translate(5.322805, 1.155643)">
                                                                            <mask id="mask-10" fill="white">
                                                                                <use xlink:href="#path-9"></use>
                                                                            </mask>
                                                                            <use id="形状结合" stroke="none" fill="#4C160E" fill-rule="evenodd" xlink:href="#path-9"></use>
                                                                        </g>
                                                                    </g>
                                                                </g>
                                                                <g id="椭圆形复制-11" transform="translate(13.449557, 18.313840) scale(-1, 1) rotate(-8.000000) translate(-13.449557, -18.313840) translate(1.853863, 5.713840)">
                                                                    <mask id="mask-12" fill="white">
                                                                        <use xlink:href="#path-11"></use>
                                                                    </mask>
                                                                    <use id="椭圆形" fill="#FFFFFF" xlink:href="#path-11"></use>
                                                                    <g id="椭圆形复制-7" mask="url(#mask-12)">
                                                                        <g transform="translate(2.940987, 0.287265)">
                                                                            <mask id="mask-14" fill="white">
                                                                                <use xlink:href="#path-13"></use>
                                                                            </mask>
                                                                            <use id="形状结合" stroke="none" fill="#4C160E" fill-rule="evenodd" xlink:href="#path-13"></use>
                                                                        </g>
                                                                    </g>
                                                                </g>
                                                                <path d="M45.1291866,3.48111499 C45.9586817,2.18620233 47.0903636,1.20645257 48.5242321,0.541865713 C49.9581006,-0.122721142 51.629552,-0.175981689 53.5385862,0.382084072" id="直线-3复制-3" stroke="#DC9C30" stroke-width="1.26" opacity="0.800000012" stroke-linecap="round"></path>
                                                                <path d="M13.7894737,3.56924928 C14.6189688,2.27433662 15.7506506,1.29458685 17.1845192,0.63 C18.6183877,-0.0345868549 20.2898391,-0.0878474021 22.1988732,0.470218358" id="直线-3复制-4" stroke="#DC9C30" stroke-width="1.26" opacity="0.800000012" stroke-linecap="round" transform="translate(17.994173, 1.828692) scale(-1, 1) translate(-17.994173, -1.828692) "></path>
                                                                <path d="M38.8140682,38.43 C36.4111971,38.0162687 34.5237917,36.7562687 33.1518519,34.65 C31.9038806,36.8129235 30.0801216,38.0729235 27.6805749,38.43 L23.8470335,38.43 C20.715579,38.43 18.1770335,35.8914545 18.1770335,32.76 C18.1770335,29.6285455 20.715579,27.09 23.8470335,27.09 L42.5931579,27.09 C45.7246124,27.09 48.2631579,29.6285455 48.2631579,32.76 C48.2631579,35.8914545 45.7246124,38.43 42.5931579,38.43 L38.8140682,38.43 Z" id="形状结合"></path>
                                                                <g id="矩形" transform="translate(30.712919, 26.460000)">
                                                                    <mask id="mask-16" fill="white">
                                                                        <use xlink:href="#path-15"></use>
                                                                    </mask>
                                                                    <g id="蒙版"></g>
                                                                    <mask id="mask-18" fill="white">
                                                                        <use xlink:href="#path-17"></use>
                                                                    </mask>
                                                                    <use id="椭圆形" fill="#D1341D" xlink:href="#path-17"></use>
                                                                    <rect fill="#EC606E" mask="url(#mask-18)" x="-7.78747614" y="8.19" width="20.0574163" height="23.94" rx="10.0287081"></rect>
                                                                </g>
                                                                <g id="编组-39" transform="translate(29.164368, 22.599066)" fill="#4C160E">
                                                                    <path d="M4.3441512,4.41 C5.19502237,4.41 8.77511962,2.31887221 8.77511962,1.28251477 C8.77511962,0.246157325 5.33767696,-0.0178786263 4.3441512,0.000919842493 C3.35062544,0.0197183113 0,0.246157325 0,1.28251477 C0,2.31887221 3.49328003,4.41 4.3441512,4.41 Z" id="椭圆形"></path>
                                                                </g>
                                                            </g>
                                                        </g>
                                                    </g>
                                                </g>
                                            </g>
                                        </g>
                                        <g id="编组-36复制" transform="translate(47.636364, 112.770000)">
                                            <mask id="mask-20" fill="white">
                                                <use xlink:href="#path-19"></use>
                                            </mask>
                                            <use id="形状结合" fill="#FFFFFF" xlink:href="#path-19"></use>
                                            <path d="M-8.77511962,-1.54850466 C0.10446571,-0.436739949 8.98405104,0.119142404 17.8636364,0.119142404 C26.7432217,0.119142404 35.622807,-0.436739949 44.5023923,-1.54850466 L44.5023923,1.19384829 C35.622807,2.30561299 26.7432217,2.86149534 17.8636364,2.86149534 C8.98405104,2.86149534 0.10446571,2.30561299 -8.77511962,1.19384829 L-8.77511962,-1.54850466 Z" id="矩形" mask="url(#mask-20)"></path>
                                        </g>
                                        <g id="编组-28" transform="translate(19.430622, 35.910000)">
                                            <g id="形状结合-+-路径-12蒙版" transform="translate(0.000000, 0.485274)">
                                                <mask id="mask-22" fill="white">
                                                    <use xlink:href="#path-21"></use>
                                                </mask>
                                                <g id="蒙版" opacity="0.699999988">
                                                    <use fill="#4EA4FF" fill-rule="evenodd" xlink:href="#path-21"></use>
                                                    <use fill="black" fill-opacity="1" filter="url(#filter-23)" xlink:href="#path-21"></use>
                                                </g>
                                                <path d="M72.0788662,-14.0068559 L80.2271915,-14.0068559 L80.2863593,22.8468348 C78.8496197,22.9742894 77.6698666,23.096579 76.7471,23.2137037 C75.8243334,23.3308283 74.2733083,23.5899258 72.0940248,23.9909961 L72.0788662,-14.0068559 Z M82.7343686,-14.0068559 L85.2415456,-14.0068559 L85.2662024,22.7101875 L82.7590253,22.7101875 L82.7343686,-14.0068559 Z" id="形状结合" fill="#F1F6FF" opacity="0.300000012" mask="url(#mask-22)" transform="translate(78.672534, 4.992070) rotate(21.000000) translate(-78.672534, -4.992070) "></path>
                                                <path d="M0,41.7969353 C0.244181696,14.0769353 15.6245147,0.216935266 46.1409991,0.216935266 C91.9157257,0.216935266 43.3882949,18.5796554 23.1244566,20.9263142 C8.45818239,22.6247457 0.750030194,29.5816194 0,41.7969353 Z" id="路径-12" fill="#4B9AEE" opacity="0.483533298" mask="url(#mask-22)"></path>
                                            </g>
                                        </g>
                                    </g>
                                </g>
                                <g id="矩形复制-34" mask="url(#mask-2)">
                                    <g transform="translate(142.926277, 117.705347) rotate(-283.000000) translate(-142.926277, -117.705347) translate(131.426277, 107.705347)">
                                        <mask id="mask-25" fill="white">
                                            <use xlink:href="#path-24"></use>
                                        </mask>
                                        <use id="形状结合" stroke="none" fill="#408BDC" fill-rule="evenodd" xlink:href="#path-24"></use>
                                        <path d="M3.01166124,13.1295936 L1.18181257,8.73748825 C-0.486536969,4.73302222 1.40725963,0.134296574 5.41172567,-1.53405296 C5.65475373,-1.63530386 5.90271868,-1.7242721 6.1546815,-1.80062078 L6.1546815,-1.80062078 C11.0430966,-3.28188719 16.3129598,-1.25261414 18.9453973,3.12471671 L19.5395154,4.11264212 C22.2602537,8.63680338 20.7982905,14.5099549 16.2741293,17.2306931 C16.1950506,17.2782494 16.1152875,17.3246581 16.034865,17.3699047 L15.7631866,17.5227538 C11.4207178,19.965872 5.91991271,18.4261441 3.47679451,14.0836753 C3.30315995,13.7750522 3.1478468,13.4564738 3.01166124,13.1295936 Z" id="形状结合" stroke="none" fill="#408BDC" fill-rule="evenodd" mask="url(#mask-25)"></path>
                                        <path d="M3.53731892,14.3615849 L1.31370269,7.96517425 C-0.0291851683,4.10224944 1.98033493,-0.122902857 5.82439761,-1.51886774 L5.82439761,-1.51886774 C9.77722487,-2.95433031 14.1786696,-1.20304323 16.0647895,2.55567303 L17.2234007,4.86458831 C19.5054214,9.41226739 18.0552957,14.9472203 13.8365618,17.7917393 L13.8365618,17.7917393 C10.6999592,19.9066216 6.44278957,19.0783537 4.32790724,15.9417511 C3.99726319,15.4513696 3.73152342,14.9202298 3.53731892,14.3615849 Z" id="形状结合" stroke="none" fill="#4B9AEE" fill-rule="evenodd" mask="url(#mask-25)"></path>
                                        <path d="M-16.0977947,-13.3825175 C-10.0662499,-11.1570199 -4.41448636,-10.0296161 0.857496025,-10.000306 C6.12947841,-9.97099595 11.3945571,-11.0377066 16.6527321,-13.2004381 L16.662029,-6.45297434 C10.3352092,-4.25103851 5.28371989,-3.16056755 1.50756097,-3.18156144 C-2.26859795,-3.20255533 -8.13395089,-4.35371945 -16.0884979,-6.6350538 L-16.0977947,-13.3825175 Z" id="矩形复制-32" stroke="none" fill="#4B9AEE" fill-rule="evenodd" mask="url(#mask-25)" transform="translate(0.282117, -8.281891) rotate(-44.000000) translate(-0.282117, 8.281891) "></path>
                                    </g>
                                </g>
                                <g id="矩形复制-32" mask="url(#mask-2)">
                                    <g transform="translate(46.740933, 119.242095) scale(-1, 1) rotate(-283.000000) translate(-46.740933, -119.242095) translate(35.240933, 106.742095)">
                                        <mask id="mask-27" fill="white">
                                            <use xlink:href="#path-26"></use>
                                        </mask>
                                        <use id="形状结合" stroke="none" fill="#408BDC" fill-rule="evenodd" xlink:href="#path-26"></use>
                                        <path d="M3.15082216,17.8079994 L0.401768517,9.92250892 C-1.26885479,5.13042921 1.22554097,-0.114015597 5.99725459,-1.84195058 L5.99725459,-1.84195058 C10.9090655,-3.62061763 16.3751299,-1.44645412 18.723372,3.21994728 L20.1475314,6.05002176 C22.983874,11.6863712 21.1843233,18.5525723 15.948049,22.0731838 L15.948049,22.0731838 C12.0436658,24.6982976 6.75046266,23.6612448 4.12534888,19.7568617 C3.7184239,19.1516342 3.39090321,18.496657 3.15082216,17.8079994 Z" id="形状结合" stroke="none" fill="#408BDC" fill-rule="evenodd" mask="url(#mask-27)"></path>
                                        <path d="M3.07168233,18.5926443 L0.1575718,8.11292482 C-1.00525451,3.93117076 1.05110052,-0.474434678 5.00329093,-2.26870976 L5.00329093,-2.26870976 C8.63018068,-3.91529994 12.9051808,-2.30994994 14.551771,1.31693981 C14.5959677,1.41429033 14.6379942,1.51261159 14.6778194,1.61183066 L16.6852855,6.61316177 C18.8097585,11.9059996 17.2990911,17.9646288 12.9383628,21.6404372 L12.9383628,21.6404372 C10.3472,23.8246178 6.47601916,23.4946936 4.29183851,20.9035307 C3.72391117,20.2297804 3.30775659,19.4416142 3.07168233,18.5926443 Z" id="形状结合" stroke="none" fill="#4B9AEE" fill-rule="evenodd" mask="url(#mask-27)"></path>
                                        <path d="M-19.2846782,-14.0568255 C-12.8035203,-12.2969159 -6.61078139,-11.7297085 -0.706461421,-12.3552031 C5.19785855,-12.9806978 11.2313611,-14.8431347 17.3940463,-17.9425138 L16.5615455,-10.3233432 C9.19639935,-7.04618884 3.39928482,-5.18360038 -0.829798069,-4.73557777 C-5.05888096,-4.28755516 -11.4880079,-4.85491419 -20.117179,-6.43765485 L-19.2846782,-14.0568255 Z" id="矩形复制-32" stroke="none" fill="#4B9AEE" fill-rule="evenodd" mask="url(#mask-27)" transform="translate(-1.361566, -11.264914) rotate(-44.000000) translate(1.361566, 11.264914) "></path>
                                    </g>
                                </g>
                            </g>
                            <g id="分组-45" transform="translate(34.000000, 123.000000)">
                                <path d="M13.3333333,32 L128,32 C135.363797,32 141.333333,37.9695367 141.333333,45.3333333 L141.333333,45.3333333 C141.333333,52.69713 135.363797,58.6666667 128,58.6666667 L13.3333333,58.6666667 C5.96953667,58.6666667 9.01805001e-16,52.69713 0,45.3333333 L0,45.3333333 C-9.01805001e-16,37.9695367 5.96953667,32 13.3333333,32 Z" id="矩形" fill="#7284FB" opacity="0.100000001"></path>
                                <g id="分组-44" transform="translate(23.000000, 0.666667)">
                                    <g id="分组-43" transform="translate(23.000000, 8.000000)">
                                        <mask id="mask-29" fill="white">
                                            <use xlink:href="#path-28"></use>
                                        </mask>
                                        <use id="蒙版" fill="#7284FB" xlink:href="#path-28"></use>
                                        <g id="锁定" mask="url(#mask-29)" fill="#FFFFFF" fill-rule="nonzero">
                                            <g transform="translate(14.000000, 11.333333)" id="形状">
                                                <path d="M7.04679146,10.4055202 L3.50935831,10.4055202 L3.50935831,6.34819535 C3.50935831,5.46496817 3.68716579,4.64154283 4.04278076,3.87791933 C4.39839572,3.11429582 4.88970588,2.44267515 5.51671124,1.86305732 C6.1437166,1.28343949 6.88302142,0.828025477 7.73462568,0.496815275 C8.58622995,0.165605074 9.51737968,-1.7987272e-08 10.5280749,0 C11.4264706,0 12.2921123,0.165605092 13.125,0.496815275 C13.9578877,0.828025459 14.6971925,1.28343947 15.3429145,1.86305732 C15.9886364,2.44267517 16.5033423,3.11429584 16.8870321,3.87791933 C17.2707219,4.64154281 17.4625669,5.46496815 17.4625669,6.34819535 L17.4625669,10.4055202 L14.065508,10.4055202 L14.065508,7.12101911 C14.065508,5.96178345 13.7379679,5.06475584 13.0828877,4.4299363 C12.4278075,3.79511675 11.5387701,3.47770699 10.4157754,3.47770701 C9.40508024,3.47770701 8.59090912,3.79511677 7.97326205,4.4299363 C7.35561499,5.06475583 7.04679146,5.96178343 7.04679146,7.12101911 L7.04679146,10.4055202 Z M19.1470588,12.0615711 C19.6524064,12.0615711 20.0875668,12.2409766 20.4525401,12.5997877 C20.8175134,12.9585987 21,13.3864119 21,13.8832272 L21,22.4394904 C21,22.9363057 20.9110963,23.40092 20.7332888,23.8333333 C20.5554813,24.2657466 20.3121658,24.6429583 20.0033422,24.9649682 C19.6945187,25.2869781 19.3295454,25.5399859 18.9084224,25.7239915 C18.4872994,25.9079972 18.0240642,26 17.5187166,26 L3.34090909,26 C2.83556149,26 2.37700534,25.9079972 1.96524065,25.7239915 C1.55347595,25.5399859 1.20254013,25.2961784 0.912433174,24.992569 C0.62232622,24.6889597 0.397727286,24.3347488 0.238636371,23.9299363 C0.0795454571,23.5251239 0,23.0927106 0,22.6326964 L0,13.8832272 C0,13.3864119 0.177807482,12.9585987 0.533422447,12.5997877 C0.889037411,12.2409767 1.31951869,12.0615711 1.82486629,12.0615711 L3.50935826,12.0615711 L7.04679141,12.0615711 L14.065508,12.0615711 L17.4625668,12.0615711 L19.1470588,12.0615711 Z"></path>
                                            </g>
                                        </g>
                                    </g>
                                    <path d="M76.0900603,35.7712047 C72.8420149,29.406211 69.0675739,26.2237142 64.7667373,26.2237142 C72.9541046,24.3519591 76.7285456,22.3462221 76.0900603,20.2065032 L64.7667373,3.77120472 L83.230028,13.8446453 C84.5138091,13.4221748 85.1556996,11.017628 85.1556996,6.63100482 C86.4028741,12.3976412 88.1761604,14.9102287 93.7667373,14.9102287 C85.2346413,17.524445 79.3424157,24.4781037 76.0900603,35.7712047 Z" id="路径-40" fill="#FFE90E" transform="translate(79.266737, 19.771205) rotate(112.000000) translate(-79.266737, -19.771205) "></path>
                                    <path d="M15.4799814,60.8078512 C12.4559391,54.8406696 8.94180438,51.8570789 4.93757717,51.8570789 C12.5602984,50.1023084 16.0744332,48.22193 15.4799814,46.2159436 L4.93757717,30.8078512 L22.1275375,40.2517018 C23.3227819,39.8556357 23.9204041,37.6013731 23.9204041,33.4889138 C25.0815666,38.8951354 26.7325574,41.2506862 31.9375772,41.2506862 C23.9939016,43.701514 18.5080364,50.220569 15.4799814,60.8078512 Z" id="路径-40复制" fill="#FFE90E" transform="translate(18.437577, 45.807851) rotate(288.000000) translate(-18.437577, -45.807851) "></path>
                                </g>
                            </g>
                        </g>
                    </g>
                </g>
            </g>
        </g>
    </g>
</svg>