<?xml version="1.0" encoding="UTF-8"?>
<svg width="200px" height="200px" viewBox="0 0 200 200" version="1.1" xmlns="http://www.w3.org/2000/svg" xmlns:xlink="http://www.w3.org/1999/xlink">
    <!-- Generator: Sketch 52.5 (67469) - http://www.bohemiancoding.com/sketch -->
    <title>icon_500</title>
    <desc>Created with Sketch.</desc>
    <defs>
        <path d="M47,89.1 C72.4089878,89.1 93.0070423,71.4534512 93.0070423,46.1665236 C93.0070423,20.879596 78.9420709,-1.32 47,-1.32 C15.0579291,-1.32 0.992957746,20.879596 0.992957746,46.1665236 C0.992957746,71.4534512 21.5910122,89.1 47,89.1 Z" id="path-1"></path>
        <path d="M0.030410943,9.55380405 C-0.228855856,11.5985423 1.16965082,12.8987769 4.22593097,13.4545078 C9.65058624,14.2210972 13.7704934,13.9007496 16.5856524,12.4934649 C20.8083909,10.3825377 7.75423194,-0.0334836115 6.52849112,8.09360041e-05 C4.9941464,0.0420960064 0.419311141,6.48669668 0.030410943,9.55380405 Z" id="path-3"></path>
        <path d="M0,43.8783714 C0.255776423,15.7009164 12.8734242,1.18091635 37.8529434,0.318371366 C68.5803488,-0.742648631 79.1400026,11.2444145 84.0008375,29.9427235 C84.0008375,31.6436013 84.0008375,36.2888172 84.0008375,43.8783714 C80.9149796,29.2035669 65.4471952,21.6600572 37.5974845,21.2478421 C15.0422803,21.2478421 3.19372765,30.1031592 1.12280512,43.8783714 C1.1201294,43.8961695 0.745861028,43.8961695 0,43.8783714 Z" id="path-5"></path>
        <filter x="-0.6%" y="-1.1%" width="101.2%" height="102.3%" filterUnits="objectBoundingBox" id="filter-7">
            <feOffset dx="0" dy="-1" in="SourceAlpha" result="shadowOffsetInner1"></feOffset>
            <feComposite in="shadowOffsetInner1" in2="SourceAlpha" operator="arithmetic" k2="-1" k3="1" result="shadowInnerInner1"></feComposite>
            <feColorMatrix values="0 0 0 0 0.219233504   0 0 0 0 0.528402335   0 0 0 0 0.857138813  0 0 0 1 0" type="matrix" in="shadowInnerInner1"></feColorMatrix>
        </filter>
        <ellipse id="path-8" cx="4.3028169" cy="14.52" rx="4.3028169" ry="14.52"></ellipse>
        <path d="M2,0 L46,0 C47.1045695,-2.02906125e-16 48,0.8954305 48,2 L48,46 C48,47.1045695 47.1045695,48 46,48 L2,48 C0.8954305,48 1.3527075e-16,47.1045695 0,46 L0,2 C-1.3527075e-16,0.8954305 0.8954305,2.02906125e-16 2,0 Z" id="path-10"></path>
        <rect id="path-12" x="0" y="0" width="26" height="26" rx="13"></rect>
        <path d="M2.85538518,16.1077683 L0.971180149,11.630496 C-0.797377839,7.42802566 1.17569797,2.5875508 5.37816832,0.818992814 C5.64937837,0.7048574 5.92649652,0.605303368 6.20833634,0.520756946 L6.20833634,0.520756946 C11.3916462,-1.03413443 16.9709224,1.10892285 19.7804621,5.73394987 L20.378359,6.71819977 C23.2336023,11.4184634 21.7379178,17.5434119 17.0376542,20.3986552 C16.9306797,20.4636384 16.8224894,20.5265989 16.7131412,20.5875031 L16.380501,20.7727753 C11.7466963,23.3536878 5.89801237,21.6894899 3.31709984,17.0556852 C3.14595311,16.7484061 2.99181599,16.431957 2.85538518,16.1077683 Z" id="path-14"></path>
        <path d="M2.85538518,16.1077683 L0.971180149,11.630496 C-0.797377839,7.42802566 1.17569797,2.5875508 5.37816832,0.818992814 C5.64937837,0.7048574 5.92649652,0.605303368 6.20833634,0.520756946 L6.20833634,0.520756946 C11.3916462,-1.03413443 16.9709224,1.10892285 19.7804621,5.73394987 L20.378359,6.71819977 C23.2336023,11.4184634 21.7379178,17.5434119 17.0376542,20.3986552 C16.9306797,20.4636384 16.8224894,20.5265989 16.7131412,20.5875031 L16.380501,20.7727753 C11.7466963,23.3536878 5.89801237,21.6894899 3.31709984,17.0556852 C3.14595311,16.7484061 2.99181599,16.431957 2.85538518,16.1077683 Z" id="path-16"></path>
    </defs>
    <g id="页面-1" stroke="none" stroke-width="1" fill="none" fill-rule="evenodd">
        <g id="Result-结果反馈" transform="translate(-1020.000000, -3736.000000)">
            <g id="分组-10" transform="translate(440.000000, 3692.000000)">
                <g id="分组-48" transform="translate(580.000000, 44.000000)">
                    <g id="分组-47" transform="translate(13.000000, 18.000000)">
                        <g id="编组-3" transform="translate(12.000000, 13.000000)">
                            <path d="M38.1761697,-5.75539616e-14 C36.532729,3.80148074 35.1367532,6.42682273 33.9882422,7.87602598 C32.8397312,9.32522922 30.3103171,10.7777142 26.4,12.233481 C30.2680426,13.2912294 32.7974567,14.4445216 33.9882422,15.6933575 C35.1790277,16.9421933 36.4525651,19.345929 37.8088543,22.9045643 C39.1839539,19.2744147 40.3902704,16.8706791 41.4278037,15.6933575 C42.4653371,14.5160358 44.8200859,13.3627437 48.4920502,12.233481 C44.8675292,10.8097862 42.5127804,9.35730121 41.4278037,7.87602598 C40.3428271,6.39475075 39.2589491,3.76940875 38.1761697,-5.75539616e-14 Z" id="路径-6" fill="#FFE90E"></path>
                            <path d="M7.49392618,39 C6.44810029,41.4792266 5.55975203,43.1914061 4.82888139,44.1365387 C4.09801076,45.0816712 2.48838363,46.0289441 0,46.9783572 C2.46148168,47.6681931 4.07110881,48.4203402 4.82888139,49.2347983 C5.58665398,50.0492565 6.39708686,51.6169102 7.26018004,53.9377593 C8.13524342,51.5702705 8.90289935,50.0026168 9.56314783,49.2347983 C10.2233963,48.4669799 11.7218728,47.7148328 14.0585774,46.9783572 C11.752064,46.0498606 10.2535875,45.1025877 9.56314783,44.1365387 C8.87270816,43.1704896 8.18296761,41.4583101 7.49392618,39 Z" id="路径-6复制" fill="#FF9F11"></path>
                            <path d="M152.693926,31.8 C151.6481,34.2792266 150.759752,35.9914061 150.028881,36.9365387 C149.298011,37.8816712 147.688384,38.8289441 145.2,39.7783572 C147.661482,40.4681931 149.271109,41.2203402 150.028881,42.0347983 C150.786654,42.8492565 151.597087,44.4169102 152.46018,46.7377593 C153.335243,44.3702705 154.102899,42.8026168 154.763148,42.0347983 C155.423396,41.2669799 156.921873,40.5148328 159.258577,39.7783572 C156.952064,38.8498606 155.453588,37.9025877 154.763148,36.9365387 C154.072708,35.9704896 153.382968,34.2583101 152.693926,31.8 Z" id="路径-6复制-2" fill="#FFE90E"></path>
                        </g>
                        <g id="编组-7" transform="translate(0.000000, 62.000000)">
                            <path d="M168.9,35.1 L168.9,33.3 C168.9,32.8029437 169.302944,32.4 169.8,32.4 C170.297056,32.4 170.7,32.8029437 170.7,33.3 L170.7,35.1 L172.5,35.1 C172.997056,35.1 173.4,35.5029437 173.4,36 C173.4,36.4970563 172.997056,36.9 172.5,36.9 L170.7,36.9 L170.7,38.7 C170.7,39.1970563 170.297056,39.6 169.8,39.6 C169.302944,39.6 168.9,39.1970563 168.9,38.7 L168.9,36.9 L167.1,36.9 C166.602944,36.9 166.2,36.4970563 166.2,36 C166.2,35.5029437 166.602944,35.1 167.1,35.1 L168.9,35.1 Z" id="形状结合" fill="#FF9481"></path>
                            <path d="M4.5,55.5 L4.5,53.7 C4.5,53.2029437 4.90294373,52.8 5.4,52.8 C5.89705627,52.8 6.3,53.2029437 6.3,53.7 L6.3,55.5 L8.1,55.5 C8.59705627,55.5 9,55.9029437 9,56.4 C9,56.8970563 8.59705627,57.3 8.1,57.3 L6.3,57.3 L6.3,59.1 C6.3,59.5970563 5.89705627,60 5.4,60 C4.90294373,60 4.5,59.5970563 4.5,59.1 L4.5,57.3 L2.7,57.3 C2.20294373,57.3 1.8,56.8970563 1.8,56.4 C1.8,55.9029437 2.20294373,55.5 2.7,55.5 L4.5,55.5 Z" id="形状结合备份" fill="#7284FB" transform="translate(5.400000, 56.400000) rotate(-315.000000) translate(-5.400000, -56.400000) "></path>
                            <circle id="椭圆形备份-5" fill="#7284FB" cx="26.55" cy="24.15" r="3.15"></circle>
                            <circle id="椭圆形备份-6" fill="#7284FB" cx="143.55" cy="1.35" r="1.35"></circle>
                        </g>
                        <g id="编组-22" transform="translate(92.923517, 78.727691) rotate(12.000000) translate(-92.923517, -78.727691) translate(24.923517, 12.727691)">
                            <g id="编组-12" transform="translate(6.577465, -0.000000)">
                                <g id="编组-6">
                                    <path d="M123.967244,62.04 L124.450704,62.04 C123.160038,64.02 122.514705,66 122.514705,67.98 C122.514705,69.96 123.160038,71.94 124.450704,73.92 L124.150934,73.92 C126.852855,78.1865427 128.422535,83.2788092 128.422535,88.7475728 C128.422535,103.137946 117.55385,114.921401 103.786642,115.913019 C98.6267452,124.704148 88.1633327,130.718447 76.0950873,130.718447 C70.4546618,130.718447 65.1647988,129.404673 60.603114,127.107655 C59.5201649,126.765413 58.51631,126.594292 57.5915493,126.594292 C56.6607402,126.594292 55.7299312,126.809243 54.7991221,127.239144 C51.0066268,130.225218 46.2612219,132 41.1119348,132 C30.734208,132 21.9969387,124.791326 19.3943984,114.986654 C8.20852446,111.790576 7.10542736e-14,101.253506 7.10542736e-14,88.7475728 C7.10542736e-14,82.6540481 1.94881243,77.0279575 5.24129617,72.4907478 C5.68565199,70.8771652 5.90782989,69.2635826 5.90782989,67.65 C5.90782989,64.9 5.26249692,62.15 3.97183099,59.4 L4.0501757,59.4 C3.06826656,56.5546624 2.53386347,53.4919065 2.53386347,50.3009709 C2.53386347,36.2568398 12.8858246,24.6956876 26.181157,23.2257301 L26.0924591,23.0679612 C26.4936368,23.1064438 26.8845843,23.1267297 27.2653016,23.128819 C27.651225,23.1024477 28.0394072,23.084555 28.4296731,23.0753206 C29.7394839,22.9437462 30.9133075,22.5702886 31.9511441,21.954948 C33.359988,21.1196344 34.518241,19.8385893 35.4259029,18.1118127 C35.5471046,17.8543459 35.6715623,17.5987977 35.799221,17.3452245 C35.8058609,17.3305014 35.812485,17.3157502 35.8190933,17.3009709 L35.8203832,17.3032653 C41.0145135,7.02328325 51.473735,0 63.5302918,0 C76.4507679,0 87.5367913,8.06585902 92.2743147,19.5618978 C93.0122782,20.575666 93.8717237,21.3733488 94.8526517,21.954948 C95.9733588,22.6194231 97.2526369,23.0018446 98.6904861,23.1022123 C99.1349239,23.0794685 99.5822427,23.0679612 100.032179,23.0679612 C100.234291,23.0679612 100.435875,23.0702832 100.636908,23.0749026 C100.661678,23.0726586 100.686488,23.0703448 100.711337,23.0679612 L100.706484,23.0765936 C115.040611,23.4439864 126.550644,35.4921041 126.550644,50.3009709 C126.550644,54.5044071 125.623298,58.4854139 123.967244,62.04 Z M75.8458473,61.4846444 C72.0676121,63.1533871 67.9040587,64.0776699 63.5302918,64.0776699 C59.8059232,64.0776699 56.2339791,63.4074784 52.9225751,62.1781243 C51.35687,65.4905424 49.1566485,68.4280276 46.4841688,70.8239496 C49.8897328,74.8214355 52.1752964,79.8507362 52.838032,85.3954751 C58.5369537,79.7861264 66.8445609,76.2524272 76.0950873,76.2524272 C76.8369487,76.2524272 77.5727457,76.2751542 78.3016191,76.3198562 C79.3628876,74.1985078 80.6873712,72.2388518 82.230774,70.4863776 C79.5427007,67.9847805 77.3565258,64.9247784 75.8458455,61.4846451 Z" id="形状结合" fill="#FF8224" transform="translate(64.211268, 66.000000) rotate(-360.000000) translate(-64.211268, -66.000000) "></path>
                                    <g id="编组-24复制-3" transform="translate(35.730560, 41.725690) rotate(-30.000000) translate(-35.730560, -41.725690) translate(14.878448, 27.205690)">
                                        <g id="矩形-+-矩形蒙版" transform="translate(-0.000000, 0.000000)">
                                            <path d="M33.7647877,8.22511881 L41.2301848,22.6175267 L0.187931282,28.446177 L7.63513603,9.75470243 C10.8992237,1.5622848 19.5510776,-2.15293302 26.9595925,1.45653116 C29.8231668,2.85167837 32.207858,5.22354141 33.7647877,8.22511881 Z" id="矩形" fill="#F1F6FF"></path>
                                            <path d="M27.2542029,9.29769205 L32.370078,19.6857425 L8.53909205,23.074246 L13.9226017,9.83093372 C15.5530689,5.82002113 19.9127682,3.9831974 23.6602627,5.7282731 C25.2024137,6.44639833 26.4700084,7.70534423 27.2542029,9.29769205 Z" id="矩形" fill="#4B9AEE"></path>
                                        </g>
                                    </g>
                                    <g id="编组-24复制-4" transform="translate(81.099394, 44.188843) scale(-1, 1) rotate(-30.000000) translate(-81.099394, -44.188843) translate(55.613479, 21.748843)">
                                        <g id="矩形-+-矩形蒙版" transform="translate(-0.000000, 0.000000)">
                                            <path d="M34.8370149,10.1422831 L46.6437478,21.9853775 L4.18281903,39.3970118 L7.34046908,19.095335 C8.71633727,10.2493797 17.0027624,4.19367761 25.8487177,5.5695458 C29.2548108,6.0993173 32.4033356,7.70110866 34.8370149,10.1422831 Z" id="矩形" fill="#F1F6FF" transform="translate(25.413283, 22.385831) rotate(-345.000000) translate(-25.413283, -22.385831) "></path>
                                            <path d="M33.2724107,16.1574277 L37.3919937,24.7389334 L14.8849515,27.3366676 L18.5380913,17.2426822 C20.4574106,11.9394136 25.4135478,9.60752312 29.6079335,12.034259 C31.1283049,12.9138967 32.4048695,14.350252 33.2724107,16.1574277 Z" id="矩形" fill="#4B9AEE"></path>
                                        </g>
                                    </g>
                                    <g id="形状结合" transform="translate(9.449015, 34.443693)">
                                        <mask id="mask-2" fill="white">
                                            <use xlink:href="#path-1"></use>
                                        </mask>
                                        <use id="椭圆形" fill="#FFDC59" xlink:href="#path-1"></use>
                                        <g id="编组-7" mask="url(#mask-2)">
                                            <g transform="translate(5.662321, 36.336265)">
                                                <g id="编组" stroke="none" stroke-width="1" fill-rule="evenodd" transform="translate(0.400571, -0.000000)">
                                                    <path d="M44.2742543,6.70427499 C45.056959,5.43843445 46.1583466,4.50227734 47.5784172,3.89580365 C48.9984878,3.28932996 50.6846068,3.30741417 52.6367743,3.95005629" id="直线-3复制-3" stroke="#DC9C30" stroke-width="1.32" opacity="0.800000012" stroke-linecap="round" transform="translate(48.455514, 5.079197) rotate(-135.000000) translate(-48.455514, -5.079197) "></path>
                                                    <path d="M14.0503301,6.79660615 C14.8330348,5.53076561 15.9344224,4.59460849 17.354493,3.98813481 C18.7745636,3.38166112 20.4606826,3.39974533 22.4128501,4.04238745" id="直线-3复制-4" stroke="#DC9C30" stroke-width="1.32" opacity="0.800000012" stroke-linecap="round" transform="translate(18.231590, 5.171528) scale(-1, 1) rotate(-135.000000) translate(-18.231590, -5.171528) "></path>
                                                    <g id="编组-19" transform="translate(26.738713, 23.061095)">
                                                        <mask id="mask-4" fill="white">
                                                            <use xlink:href="#path-3"></use>
                                                        </mask>
                                                        <use id="路径-5" fill="#D53722" xlink:href="#path-3"></use>
                                                        <path d="M-6.32639806,13.5387922 C1.99240002,11.2410713 8.21367434,10.6509812 12.3374249,11.7685219 C16.4611755,12.8860625 18.9496852,15.1924278 19.8029541,18.6876176 C15.2179255,21.0911195 11.8999126,22.325295 9.84891518,22.3901439 C1.54172206,22.6528027 -4.21706845,21.191504 -6.32639806,20.6198735 C-9.21689939,19.8365447 -9.21689939,17.4761843 -6.32639806,13.5387922 Z" id="路径-6" fill="#EC606E" mask="url(#mask-4)"></path>
                                                    </g>
                                                    <g id="编组-39" transform="translate(28.872380, 16.415212)" fill="#4C160E">
                                                        <path d="M4.20205498,5.24109483 C5.02509434,5.24109483 8.4880874,3.05038952 8.4880874,1.96468173 C8.4880874,0.878973931 5.16308273,0.602364839 4.20205498,0.622058473 C3.24102722,0.641752107 0,0.878973931 0,1.96468173 C0,3.05038952 3.37901561,5.24109483 4.20205498,5.24109483 Z" id="椭圆形"></path>
                                                    </g>
                                                </g>
                                                <path d="M7.55533722,16.1889804 C10.1352685,17.8238367 12.7438573,18.2868701 15.3811038,17.5780804 C18.0183503,16.8692908 20.484758,15.4245471 22.780327,13.2438493" id="直线" stroke="#4C160E" stroke-width="2.8677726" opacity="0.800000012" stroke-linecap="round" stroke-linejoin="round" transform="translate(15.167832, 15.571734) rotate(-362.000000) translate(-15.167832, -15.571734) "></path>
                                                <path d="M45.2038752,17.289429 C47.6369595,15.5229463 50.2461385,14.3421099 53.0314123,13.7469198 C55.8166861,13.1517298 58.6659262,13.166147 61.5791328,13.7901715" id="直线备份" stroke="#4C160E" stroke-width="2.8677726" opacity="0.800000012" stroke-linecap="round" stroke-linejoin="round" transform="translate(53.391504, 15.300257) scale(1, -1) rotate(-361.000000) translate(-53.391504, -15.300257) "></path>
                                            </g>
                                        </g>
                                        <path d="M29.0047526,-1.53479885 L65.331065,-1.53479885 C82.4629379,-1.53479885 96.351065,12.3533282 96.351065,29.4852012 C96.351065,30.0646043 96.3348315,30.6438938 96.3023837,31.2223876 L94.4864431,63.597769 C93.5648172,80.0289183 79.9721005,92.8805825 63.5151244,92.8805825 L30.8206932,92.8805825 C14.3637172,92.8805825 0.77100046,80.0289183 -0.150625473,63.597769 L-1.96656607,31.2223876 C-2.92598767,14.1174006 10.1625792,-0.526695964 27.2675662,-1.48611757 C27.84606,-1.51856539 28.4253495,-1.53479885 29.0047526,-1.53479885 Z M26.1569698,23.76 C25.5145537,23.76 24.8724172,23.7867986 24.2322349,23.8403259 C11.51882,24.9033276 2.07429399,36.0713199 3.13729571,48.7847349 L4.06042755,59.8253174 C5.06125529,71.7951365 15.0685145,81.0005825 27.0801017,81.0005825 L55.1757948,81.0005825 C67.187382,81.0005825 77.1946412,71.7951365 78.1954689,59.8253174 L79.1186007,48.7847349 C79.1721281,48.1445526 79.1989266,47.5024161 79.1989266,46.86 C79.1989266,34.1022223 68.8567044,23.76 56.0989266,23.76 L26.1569698,23.76 Z" fill="#FFFFFF" mask="url(#mask-2)"></path>
                                        <path d="M31.278169,-2.64 C36.1166443,0.572487058 40.3642969,2.89388391 44.0211268,4.32419054 C47.6779567,5.75449718 51.9256093,6.75589403 56.7640845,7.32838109 L56.7640845,10.56 C53.1072546,10.4496934 48.859602,9.44829651 44.0211268,7.55580946 C39.1826515,5.6633224 34.9349989,3.34192555 31.278169,0.591618914 L31.278169,-2.64 Z M31.278169,3.3 C35.9931719,6.49632797 40.2408245,8.84667462 44.0211268,10.3510399 C47.801429,11.8554052 52.0490816,12.8857519 56.7640845,13.4420799 L56.7640845,19.14 C52.9837823,18.9556347 48.7361297,17.925288 44.0211268,16.0489601 C39.3061238,14.1726321 35.0584713,11.8222855 31.278169,8.99792014 L31.278169,3.3 Z M31.278169,11.88 C36.1166443,15.0924871 40.3642969,17.4138839 44.0211268,18.8441905 C47.6779567,20.2744972 51.9256093,21.275894 56.7640845,21.8483811 L56.7640845,25.08 C53.1072546,24.9696934 48.859602,23.9682965 44.0211268,22.0758095 C39.1826515,20.1833224 34.9349989,17.8619256 31.278169,15.1116189 L31.278169,11.88 Z" fill="#4B9AEE" mask="url(#mask-2)" transform="translate(44.021127, 11.220000) rotate(-270.000000) translate(-44.021127, -11.220000) "></path>
                                        <path d="M20.6507313,151.921284 C15.8820062,101.680428 22.8470194,76.56 41.5457709,76.56 C60.2445224,76.56 67.3735967,101.680428 62.9329938,151.921284 L62.9329938,151.921284 C61.0455614,151.921284 59.5154951,150.391218 59.5154951,148.503786 C59.5154951,148.431355 59.5177978,148.358943 59.5223996,148.286659 C60.4905116,133.080459 59.6966635,117.531572 57.140903,101.64 C55.7966117,93.2812738 48.2713185,87.9699016 41.502258,87.9699016 C34.7331975,87.9699016 27.628619,94.5869885 26.1594533,101.64 C22.8575323,117.491505 21.8882216,133.306882 23.2515213,149.086133 L23.2514902,149.086136 C23.3755892,150.522495 22.3117918,151.787497 20.8754323,151.911596 C20.8007059,151.918052 20.725736,151.921284 20.6507313,151.921284 Z" id="路径-7复制-2" fill="#FFFFFF" mask="url(#mask-2)"></path>
                                    </g>
                                </g>
                            </g>
                            <path d="M102.232394,102.96 C105.572002,102.96 111.830986,91.7313015 111.830986,77.88 C111.830986,64.0286985 105.572002,52.8 102.232394,52.8 C98.892787,52.8 96.6056338,64.0286985 96.6056338,77.88 C96.6056338,91.7313015 98.892787,102.96 102.232394,102.96 Z" id="椭圆形" fill="#F1F6FF"></path>
                            <rect id="矩形" fill="#BECAEB" x="97.9295775" y="64.02" width="2.64788732" height="19.14" rx="1.32"></rect>
                            <g id="形状结合复制-3" transform="translate(15.845070, 37.377276)">
                                <mask id="mask-6" fill="white">
                                    <use xlink:href="#path-5"></use>
                                </mask>
                                <g id="蒙版" opacity="0.699999988">
                                    <use fill="#4EA4FF" fill-rule="evenodd" xlink:href="#path-5"></use>
                                    <use fill="black" fill-opacity="1" filter="url(#filter-7)" xlink:href="#path-5"></use>
                                </g>
                                <path d="M-1.32394366,44.22 C-1.14044792,15.18 10.4174438,0.66 33.3497314,0.66 C67.7481628,0.66 31.2811509,19.8971353 16.0534411,22.3555398 C5.0321447,24.1348491 -0.760316872,31.4230025 -1.32394366,44.22 Z" id="路径-12复制" fill="#4B9AEE" opacity="0.483533298" mask="url(#mask-6)"></path>
                                <path d="M56.3031091,-1.98 L64.9087429,-1.98 L64.9087429,37.62 L56.3031091,37.62 L56.3031091,-1.98 Z M67.5566303,-1.98 L70.2045176,-1.98 L70.2045176,37.62 L67.5566303,37.62 L67.5566303,-1.98 Z" fill="#F1F6FF" opacity="0.300000012" mask="url(#mask-6)" transform="translate(63.253813, 17.820000) rotate(21.000000) translate(-63.253813, -17.820000) "></path>
                            </g>
                            <polygon id="路径-39" fill="#F1F6FF" points="103.225352 52.8 109.84507 56.8794234 109.84507 99 102.629894 102.96"></polygon>
                            <ellipse id="椭圆形" fill="#4B9AEE" cx="108.852113" cy="77.88" rx="7.61267606" ry="21.12"></ellipse>
                            <g id="椭圆形" transform="translate(105.211268, 63.360000)">
                                <mask id="mask-9" fill="white">
                                    <use xlink:href="#path-8"></use>
                                </mask>
                                <use id="蒙版" fill="#F1F6FF" xlink:href="#path-8"></use>
                                <ellipse fill="#DAE2F7" mask="url(#mask-9)" cx="1.32394366" cy="14.52" rx="3.30985915" ry="10.56"></ellipse>
                            </g>
                        </g>
                        <path d="M87.7513244,131.50803 C87.4053506,133.096333 79.7684169,134.365845 72.5381844,134.365845 C65.3079518,134.365845 57.6710181,133.096333 57.3250443,131.50803 C56.9058453,131.040703 56.6508604,130.423052 56.6508604,129.745845 L56.6508604,127.105845 L88.4255083,127.105845 L88.4255083,129.745845 C88.4255083,130.423052 88.1705235,131.040703 87.7513244,131.50803 Z" id="形状结合" fill="#FFFFFF" transform="translate(72.538184, 130.735845) rotate(12.000000) translate(-72.538184, -130.735845) "></path>
                        <path d="M33,135 L149,135 C156.731986,135 163,141.268014 163,149 L163,149 C163,156.731986 156.731986,163 149,163 L33,163 C25.2680135,163 19,156.731986 19,149 L19,149 C19,141.268014 25.2680135,135 33,135 Z" id="矩形" fill="#7284FB" opacity="0.100000001"></path>
                        <path d="M59.7984366,126.995603 L67.6139597,128.247431 C70.3990704,128.693528 72.524688,130.975408 72.7724278,133.785118 L72.7724278,133.785118 C72.953793,135.842048 71.4333468,137.656546 69.3764164,137.837911 C69.0696723,137.864957 68.7607618,137.854005 68.4567032,137.805303 L60.6411802,136.553475 C57.8560694,136.107378 55.7304518,133.825498 55.4827121,131.015788 L55.4827121,131.015788 C55.3013469,128.958858 56.821793,127.144361 58.8787235,126.962995 C59.1854675,126.935949 59.4943781,126.946901 59.7984366,126.995603 Z" id="矩形复制-7" fill="#4B9AEE" transform="translate(64.127570, 132.400453) scale(1, -1) rotate(-5.000000) translate(-64.127570, -132.400453) "></path>
                        <path d="M110.798437,118.995603 L118.61396,120.247431 C121.39907,120.693528 123.524688,122.975408 123.772428,125.785118 L123.772428,125.785118 C123.953793,127.842048 122.433347,129.656546 120.376416,129.837911 C120.069672,129.864957 119.760762,129.854005 119.456703,129.805303 L111.64118,128.553475 C108.856069,128.107378 106.730452,125.825498 106.482712,123.015788 L106.482712,123.015788 C106.301347,120.958858 107.821793,119.144361 109.878723,118.962995 C110.185468,118.935949 110.494378,118.946901 110.798437,118.995603 Z" id="矩形复制-31" fill="#4B9AEE" transform="translate(115.127570, 124.400453) scale(1, -1) rotate(-5.000000) translate(-115.127570, -124.400453) "></path>
                        <g id="编组-20" transform="translate(67.000000, 111.000000)">
                            <mask id="mask-11" fill="white">
                                <use xlink:href="#path-10"></use>
                            </mask>
                            <use id="矩形" fill="#7284FB" xlink:href="#path-10"></use>
                            <circle id="椭圆形" fill="#7BDC7B" mask="url(#mask-11)" cx="11.5" cy="44.5" r="1.5"></circle>
                            <path d="M38,0 L38,39 C38,40.1045695 37.1045695,41 36,41 L12,41 C10.8954305,41 10,40.1045695 10,39 L10,0" id="路径" stroke="#6373DF" fill="#7284FB" mask="url(#mask-11)"></path>
                            <path d="M31,41 L30,42 L16,42 L15,41 L16,40 L30,40 L31,41 Z M38,13 L39,14 L39,28 L38,29 L37,28 L37,14 L38,13 Z M10,13 L11,14 L11,28 L10,29 L9,28 L9,14 L10,13 Z" id="形状结合" fill="#6373DF" mask="url(#mask-11)"></path>
                            <path d="M20,48 L28,48 L28,49 C28,49.5522847 27.5522847,50 27,50 L21,50 C20.4477153,50 20,49.5522847 20,49 L20,48 Z M4,48 L12,48 L12,49 C12,49.5522847 11.5522847,50 11,50 L5,50 C4.44771525,50 4,49.5522847 4,49 L4,48 Z M36,48 L44,48 L44,49 C44,49.5522847 43.5522847,50 43,50 L37,50 C36.4477153,50 36,49.5522847 36,49 L36,48 Z" id="形状结合" fill="#6373DF" mask="url(#mask-11)"></path>
                            <path d="M4,10 L4,4 C4,3.44771525 4.44771525,3 5,3 C5.55228475,3 6,3.44771525 6,4 L6,10 C6,10.5522847 5.55228475,11 5,11 C4.44771525,11 4,10.5522847 4,10 Z M42,10 L42,4 C42,3.44771525 42.4477153,3 43,3 C43.5522847,3 44,3.44771525 44,4 L44,10 C44,10.5522847 43.5522847,11 43,11 C42.4477153,11 42,10.5522847 42,10 Z M4,26 L4,20 C4,19.4477153 4.44771525,19 5,19 C5.55228475,19 6,19.4477153 6,20 L6,26 C6,26.5522847 5.55228475,27 5,27 C4.44771525,27 4,26.5522847 4,26 Z M42,26 L42,20 C42,19.4477153 42.4477153,19 43,19 C43.5522847,19 44,19.4477153 44,20 L44,26 C44,26.5522847 43.5522847,27 43,27 C42.4477153,27 42,26.5522847 42,26 Z M4,42 L4,36 C4,35.4477153 4.44771525,35 5,35 C5.55228475,35 6,35.4477153 6,36 L6,42 C6,42.5522847 5.55228475,43 5,43 C4.44771525,43 4,42.5522847 4,42 Z M42,42 L42,36 C42,35.4477153 42.4477153,35 43,35 C43.5522847,35 44,35.4477153 44,36 L44,42 C44,42.5522847 43.5522847,43 43,43 C42.4477153,43 42,42.5522847 42,42 Z" id="形状结合" fill="#4F5EBF" mask="url(#mask-11)"></path>
                            <g id="编组" mask="url(#mask-11)">
                                <g transform="translate(11.000000, 13.000000)">
                                    <mask id="mask-13" fill="white">
                                        <use xlink:href="#path-12"></use>
                                    </mask>
                                    <use id="蒙版" stroke="none" fill="#FF9481" fill-rule="evenodd" xlink:href="#path-12"></use>
                                    <rect id="形状结合" stroke="none" fill="#FFFFFF" fill-rule="evenodd" mask="url(#mask-13)" transform="translate(12.583333, 13.514447) rotate(-45.000000) translate(-12.583333, -13.514447) " x="5" y="12.4311132" width="15.1666667" height="2.16666667" rx="1.08333333"></rect>
                                    <rect id="形状结合" stroke="none" fill="#FFFFFF" fill-rule="evenodd" mask="url(#mask-13)" transform="translate(12.583333, 13.514447) scale(-1, 1) rotate(-45.000000) translate(-12.583333, -13.514447) " x="5" y="12.4311132" width="15.1666667" height="2.16666667" rx="1.08333333"></rect>
                                </g>
                            </g>
                            <path d="M-13.7108998,35.795273 L-16.4690972,28.5525348 C-18.4798079,23.2726183 -15.829593,17.3623971 -10.5496765,15.3516863 C-10.410205,15.2985725 -10.2695879,15.248517 -10.1279262,15.201556 L-10.1279262,15.201556 C-4.24958638,13.2528799 2.18211338,15.7774388 5.16536217,21.2044494 L6.28605762,23.2431752 C9.70622024,29.4650024 7.64321666,37.2759285 1.59683365,40.9974738 L1.59683365,40.9974738 C-3.33890489,44.0354181 -9.80285198,42.4969518 -12.8407963,37.5612133 C-13.1855261,37.0011318 -13.4768421,36.4098841 -13.7108998,35.795273 Z" id="形状结合" fill="#4F5EBF" opacity="0.4242234" mask="url(#mask-11)" transform="translate(-4.603439, 28.551879) rotate(159.000000) translate(4.603439, -28.551879) "></path>
                            <path d="M41.0343718,28.9776849 L38.5219377,22.4937167 C36.6178172,17.5796545 39.057857,12.0524254 43.9719191,10.1483048 C44.1342033,10.0854223 44.2981775,10.0269913 44.4636577,9.97307755 L44.4636577,9.97307755 C50.0329395,8.15859448 56.1079696,10.5354074 58.9672715,15.6475146 L59.9197543,17.3504458 C63.1647769,23.152178 61.2274745,30.4818889 55.5396027,33.9225841 L55.5396027,33.9225841 C50.8124861,36.7821013 44.6623043,35.2681129 41.802787,30.5409964 C41.501678,30.0432279 41.244565,29.5201413 41.0343718,28.9776849 Z" id="形状结合复制-7" fill="#4F5EBF" opacity="0.4242234" mask="url(#mask-11)" transform="translate(49.682764, 22.368255) rotate(159.000000) translate(-49.682764, -22.368255) "></path>
                        </g>
                        <g id="矩形复制-32" transform="translate(64.000000, 139.000000) scale(-1, 1) rotate(-270.000000) translate(-64.000000, -139.000000) translate(53.000000, 128.000000)">
                            <mask id="mask-15" fill="white">
                                <use xlink:href="#path-14"></use>
                            </mask>
                            <use id="形状结合" fill="#408BDC" xlink:href="#path-14"></use>
                            <path d="M1.76039524,14.8384661 L-0.45122137,9.21717653 C-2.18828097,4.80207356 -0.0172978801,-0.185239593 4.39780508,-1.92229919 C4.5692695,-1.98975944 4.74285991,-2.05168574 4.91830694,-2.10798202 L4.91830694,-2.10798202 C10.0009343,-3.73886166 15.5307096,-1.58193405 18.1667172,3.05965325 L18.963531,4.46271464 C21.9201515,9.66884983 20.171113,16.2835046 15.0276303,19.347821 L15.0008831,19.3637561 C10.6455095,21.9585432 5.01129112,20.5313059 2.41650403,16.1759324 C2.16192684,15.7486223 1.94250153,15.3013276 1.76039524,14.8384661 Z" id="形状结合" fill="#408BDC" mask="url(#mask-15)"></path>
                            <path d="M1.12684793,17.8698695 L-1.37232179,6.62242497 C-2.10385797,3.33016655 -0.601718483,-0.054081327 2.33060519,-1.7200911 L2.33060519,-1.7200911 C4.54422669,-2.97776776 7.35826986,-2.20282136 8.61594652,0.0108001462 C8.77268494,0.286673545 8.90052277,0.577991894 8.9974269,0.880122088 L10.9524017,6.97539315 C12.3898001,11.4569508 11.2706515,16.3656729 8.03275889,19.7813024 L8.03275889,19.7813024 C6.4910103,21.4076818 3.9227351,21.4762886 2.29635567,19.9345401 C1.70950067,19.3782228 1.30224755,18.6592507 1.12684793,17.8698695 Z" id="形状结合" fill="#4B9AEE" mask="url(#mask-15)"></path>
                            <path d="M-19.3814401,-13.7070809 C-13.0967798,-11.743692 -7.1404671,-10.931658 -1.51250208,-11.2709788 C4.11546295,-11.6102995 9.81313582,-13.1249746 15.5805166,-15.815004 L15.1159125,-8.57680154 C8.20455346,-5.76955753 2.73330475,-4.24441301 -1.29783358,-4.00136798 C-5.32897192,-3.75832295 -11.5117088,-4.58082643 -19.8460441,-6.46887841 L-19.3814401,-13.7070809 Z" fill="#4B9AEE" mask="url(#mask-15)" transform="translate(-2.132764, -9.887397) rotate(-44.000000) translate(2.132764, 9.887397) "></path>
                        </g>
                        <g id="矩形复制-35" transform="translate(117.000000, 130.000000) rotate(-270.000000) translate(-117.000000, -130.000000) translate(106.000000, 119.000000)">
                            <mask id="mask-17" fill="white">
                                <use xlink:href="#path-16"></use>
                            </mask>
                            <use id="形状结合" fill="#408BDC" xlink:href="#path-16"></use>
                            <path d="M1.76039524,14.8384661 L-0.45122137,9.21717653 C-2.18828097,4.80207356 -0.0172978801,-0.185239593 4.39780508,-1.92229919 C4.5692695,-1.98975944 4.74285991,-2.05168574 4.91830694,-2.10798202 L4.91830694,-2.10798202 C10.0009343,-3.73886166 15.5307096,-1.58193405 18.1667172,3.05965325 L18.963531,4.46271464 C21.9201515,9.66884983 20.171113,16.2835046 15.0276303,19.347821 L15.0008831,19.3637561 C10.6455095,21.9585432 5.01129112,20.5313059 2.41650403,16.1759324 C2.16192684,15.7486223 1.94250153,15.3013276 1.76039524,14.8384661 Z" id="形状结合" fill="#408BDC" mask="url(#mask-17)"></path>
                            <path d="M1.12684793,17.8698695 L-1.37232179,6.62242497 C-2.10385797,3.33016655 -0.601718483,-0.054081327 2.33060519,-1.7200911 L2.33060519,-1.7200911 C4.54422669,-2.97776776 7.35826986,-2.20282136 8.61594652,0.0108001462 C8.77268494,0.286673545 8.90052277,0.577991894 8.9974269,0.880122088 L10.9524017,6.97539315 C12.3898001,11.4569508 11.2706515,16.3656729 8.03275889,19.7813024 L8.03275889,19.7813024 C6.4910103,21.4076818 3.9227351,21.4762886 2.29635567,19.9345401 C1.70950067,19.3782228 1.30224755,18.6592507 1.12684793,17.8698695 Z" id="形状结合" fill="#4B9AEE" mask="url(#mask-17)"></path>
                            <path d="M-19.3814401,-13.7070809 C-13.0967798,-11.743692 -7.1404671,-10.931658 -1.51250208,-11.2709788 C4.11546295,-11.6102995 9.81313582,-13.1249746 15.5805166,-15.815004 L15.1159125,-8.57680154 C8.20455346,-5.76955753 2.73330475,-4.24441301 -1.29783358,-4.00136798 C-5.32897192,-3.75832295 -11.5117088,-4.58082643 -19.8460441,-6.46887841 L-19.3814401,-13.7070809 Z" id="矩形复制-32" fill="#4B9AEE" mask="url(#mask-17)" transform="translate(-2.132764, -9.887397) rotate(-44.000000) translate(2.132764, 9.887397) "></path>
                        </g>
                    </g>
                </g>
            </g>
        </g>
    </g>
</svg>