<?xml version="1.0" encoding="UTF-8"?>
<svg width="200px" height="200px" viewBox="0 0 200 200" version="1.1" xmlns="http://www.w3.org/2000/svg" xmlns:xlink="http://www.w3.org/1999/xlink">
    <!-- Generator: Sketch 52.5 (67469) - http://www.bohemiancoding.com/sketch -->
    <title>img_404</title>
    <desc>Created with Sketch.</desc>
    <defs>
        <rect id="path-1" x="0" y="0" width="200" height="160"></rect>
        <path d="M45.3814433,86.4 C69.9154122,86.4 89.8041237,69.2881951 89.8041237,44.7675381 C89.8041237,20.246881 76.223513,-1.28 45.3814433,-1.28 C14.5393736,-1.28 0.958762887,20.246881 0.958762887,44.7675381 C0.958762887,69.2881951 20.8474744,86.4 45.3814433,86.4 Z" id="path-3"></path>
        <path d="M11.2516923,23.4758339 C17.252807,23.4758339 21.8199709,20.4647094 21.8199709,13.3954646 C21.8199709,6.32621981 16.9551062,0.595464608 10.9539915,0.595464608 C4.95287679,0.595464608 0.0880121126,6.32621981 0.0880121126,13.3954646 C0.0880121126,20.4647094 5.25057763,23.4758339 11.2516923,23.4758339 Z" id="path-5"></path>
        <path d="M12.5156944,0.771008017 C11.604492,1.2708124 10.9789644,2.30269522 10.9789644,3.49454539 C10.9789644,5.17587928 12.2237974,6.53886971 13.7593768,6.53886971 C15.015849,6.53886971 16.0776618,5.62632513 16.4221425,4.37351979 C17.468703,6.06577364 18.1087778,8.1423051 18.1664514,10.4076023 C18.3182987,16.3718422 14.375428,21.3860738 9.35980313,21.607202 C4.34417825,21.8283303 0.155114343,17.1726185 0.00326701064,11.2083786 C-0.148580322,5.24413876 3.79429042,0.229907169 8.80991529,0.00877890127 C10.1207352,-0.0490123683 11.375099,0.226296228 12.5156944,0.771008017 Z" id="path-7"></path>
        <linearGradient x1="50%" y1="0%" x2="50%" y2="50%" id="linearGradient-9">
            <stop stop-color="#BC2406" offset="0%"></stop>
            <stop stop-color="#D83925" offset="100%"></stop>
        </linearGradient>
        <path d="M2.38145431,3.18420539 C3.64878351,2.86706169 4.7124112,1.80565989 5.57233738,0 C7.20970902,2.50420839 9.56707527,3.66234105 12.6444361,3.47439798 L12.6444363,3.47440021 C14.0415424,3.38907501 15.2432904,4.45248357 15.3286156,5.84958971 C15.3330522,5.92223343 15.3343576,5.99503455 15.3325282,6.06779063 C15.1338497,13.9692635 12.9457449,17.92 8.76821367,17.92 C4.59020918,17.92 1.83338377,13.9683683 0.497737427,6.06510498 L0.497748412,6.06510313 C0.277235762,4.7602895 1.09772376,3.50545347 2.38145431,3.18420539 Z" id="path-10"></path>
        <path d="M0,42.5487237 C0.246968154,15.225131 12.4300973,1.14513101 36.5493874,0.308723749 C66.2186215,-0.720144127 76.4146286,10.9036746 81.1080691,29.0353683 C81.1080691,30.6847043 81.1080691,35.1891561 81.1080691,42.5487237 C78.12848,28.3186104 63.1933655,21.0036918 36.3027258,20.6039681 C14.5242636,20.6039681 3.08374405,29.1909422 1.08413866,42.5487237 C1.08155508,42.5659826 0.720175531,42.5659826 0,42.5487237 Z" id="path-12"></path>
        <filter x="-1.2%" y="-2.4%" width="102.5%" height="104.7%" filterUnits="objectBoundingBox" id="filter-14">
            <feOffset dx="0" dy="-2" in="SourceAlpha" result="shadowOffsetInner1"></feOffset>
            <feComposite in="shadowOffsetInner1" in2="SourceAlpha" operator="arithmetic" k2="-1" k3="1" result="shadowInnerInner1"></feComposite>
            <feColorMatrix values="0 0 0 0 0.219233504   0 0 0 0 0.528402335   0 0 0 0 0.857138813  0 0 0 1 0" type="matrix" in="shadowInnerInner1"></feColorMatrix>
        </filter>
        <ellipse id="path-15" cx="4.15463918" cy="14.08" rx="4.15463918" ry="14.08"></ellipse>
        <path d="M27.8942783,27.2543638 C31.9358724,29.1290185 33.5266253,34.9919663 31.641999,39.0121762 C29.7573728,43.0323861 24.9532221,44.7717023 20.9116281,42.8970476 L14.9173166,39.6371775 C6.93092574,35.2939602 1.63048802,27.2602083 0.779704584,18.2091231 L0.00141881053,9.92930651 C-0.0865599429,4.91567535 3.92808917,0.780380746 8.96838857,0.692867489 C14.008688,0.605354232 11.0555449,1.58560582 11.1435236,6.59923698 L12.7453627,13.765432 C14.37342,21.0489205 20.471462,26.4787529 27.8942783,27.2543638 Z" id="path-17"></path>
        <ellipse id="path-19" cx="19.6691234" cy="19.4764627" rx="19.4338426" ry="19.2725659"></ellipse>
        <path d="M3.68407511,0.00748410592 L12.3245214,0.00748410592 L15.5939132,23.8415636 C16.1688914,28.0331922 13.2370169,31.8972905 9.04538837,32.4722686 C8.70037712,32.5195949 8.35254032,32.5433406 8.00429826,32.5433406 L8.00429826,32.5433406 C3.77341774,32.5433406 0.343611413,29.1135343 0.343611413,24.8826537 C0.343611413,24.5344117 0.367357137,24.1865749 0.414683358,23.8415636 L3.68407511,0.00748410592 Z" id="path-21"></path>
        <path d="M3.25462424,18.0302823 L1.27602287,13.5095341 C-0.824534588,8.71013813 1.36330628,3.11662073 6.16270222,1.01606327 C6.54443248,0.848990922 6.93675648,0.707252566 7.33712477,0.591769256 L7.33712477,0.591769256 C13.4995927,-1.18574958 20.0953152,1.32150854 23.5209013,6.74377228 L24.0835152,7.63431792 C27.3447366,12.7964135 25.8037736,19.6248611 20.641678,22.8860826 C20.4180653,23.0273528 20.1894549,23.160553 19.9562883,23.2854261 L19.3587739,23.6054265 C13.7108714,26.630176 6.68029784,24.5036903 3.65554835,18.8557878 C3.5110709,18.5860152 3.37732491,18.3106312 3.25462424,18.0302823 Z" id="path-23"></path>
        <path d="M7.37910848,6.04766635 L55.9470727,0.918252584 C60.9261011,0.392401918 65.5266411,3.62978107 66.7127128,8.49398459 L74.0656669,38.6492156 L77.5981757,53.1363777 C78.3831806,56.3557647 76.409724,59.6019657 73.190337,60.3869707 C72.7813652,60.486693 72.3630342,60.5430993 71.9422555,60.5552575 C44.7626066,61.3406033 27.686953,57.9739018 20.7152948,50.4551531 C15.8973456,45.2591225 11.3532646,37.494482 7.08305175,27.1612316 C5.8851255,24.2624366 4.29662505,19.8463432 2.31755039,13.9129516 L2.31754962,13.9129518 C1.26905376,10.7694946 2.96735552,7.37124515 6.11081276,6.32274929 C6.52238875,6.18546869 6.94764091,6.09323498 7.37910848,6.04766635 Z" id="path-25"></path>
        <path d="M2.30918467,17.0647094 L1.63979828,15.8483695 C-1.06111036,10.9405569 0.72793884,4.77246954 5.63575151,2.07156091 C6.45936289,1.61830418 7.34198767,1.28174678 8.25828225,1.07155258 L8.83696192,0.93880585 C16.486039,-0.815860918 24.4629203,1.9789471 29.3442859,8.12382356 L29.3442859,8.12382356 C32.7058571,12.3555165 32.0004841,18.5110733 27.7687912,21.8726445 C27.0815993,22.4185359 26.3240935,22.8695004 25.5166535,23.2134055 L23.0972848,24.2438636 C15.3524237,27.5425567 6.36787964,24.4397514 2.30918467,17.0647094 Z" id="path-27"></path>
    </defs>
    <g id="页面-1" stroke="none" stroke-width="1" fill="none" fill-rule="evenodd">
        <g id="Result-结果反馈" transform="translate(-1020.000000, -3122.000000)">
            <g id="分组-18" transform="translate(1020.000000, 3122.000000)">
                <g id="img_no_device" transform="translate(0.000000, 20.000000)">
                    <mask id="mask-2" fill="white">
                        <use xlink:href="#path-1"></use>
                    </mask>
                    <g id="蒙版"></g>
                    <path d="M39.3333333,134 L154,134 C161.363797,134 167.333333,139.969537 167.333333,147.333333 L167.333333,147.333333 C167.333333,154.69713 161.363797,160.666667 154,160.666667 L39.3333333,160.666667 C31.9695367,160.666667 26,154.69713 26,147.333333 L26,147.333333 C26,139.969537 31.9695367,134 39.3333333,134 Z" id="矩形" fill="#7284FB" opacity="0.100000001" mask="url(#mask-2)"></path>
                    <path d="M91.6003752,169.024748 L70.8068095,185.90616 C66.8908323,189.085375 61.3153621,189.197167 57.2750926,186.17748 C53.6735592,183.485704 52.9360558,178.383968 55.6278326,174.782434 C55.7128305,174.668709 55.8007888,174.557227 55.8916172,174.448102 L66.3885009,161.83673 L66.3885009,151.200721 C66.4039729,150.985034 68.9280478,134.473638 70.7743317,128.630583 C73.8229059,118.98256 80.6005605,113.1057 91.1072953,111 L106.850103,111 C118.514135,113.642087 125.785695,119.518948 128.664782,128.630583 C130.44574,134.266897 132.9873,151.022798 133,151.202358 C129.473975,170.14585 127.308496,181.23986 126.503562,184.484386 C125.296162,189.351176 119.866304,193.635918 114.285055,193.975854 C108.703806,194.315791 104.854621,191.042424 103.331677,185.669887 C102.316381,182.088195 102.38639,176.294536 103.541705,168.288909 C102.279571,168.313185 100.989991,168.324454 99.6742696,168.324454 C98.3584081,168.324454 97.0688359,168.313183 95.8068394,168.288902 L91.6003752,169.024748 Z" id="形状结合" fill="#F1F6FF" mask="url(#mask-2)"></path>
                    <g id="编组-13" mask="url(#mask-2)">
                        <g transform="translate(95.941717, 66.548843) rotate(-10.000000) translate(-95.941717, -66.548843) translate(33.441717, 2.048843)">
                            <g id="编组-12" stroke="none" stroke-width="1" fill="none" fill-rule="evenodd" transform="translate(0.000000, 0.000000)">
                                <g id="编组-6" transform="translate(0.000000, 0.000000)">
                                    <path d="M119.385751,62.6828346 C118.978368,64.101126 118.774676,65.4983222 118.774676,66.8744233 C118.774676,68.7944233 119.296999,70.6966291 120.341647,72.5810407 L120.320911,72.5812053 C122.950395,76.7293033 124.479055,81.6868754 124.479055,87.0126757 C124.479055,100.966977 113.98466,112.393358 100.691557,113.354927 C95.7093543,121.879658 85.6062743,127.711705 73.9536276,127.711705 C68.5074436,127.711705 63.3997495,126.437743 58.9951572,124.210331 C57.9495021,123.87846 56.9802173,123.712525 56.0873029,123.712525 C55.1885485,123.712525 54.289794,123.920962 53.3910396,124.337836 C49.7291478,127.233422 45.1471622,128.954423 40.1752031,128.954423 C30.154858,128.954423 21.7184773,121.964194 19.2055616,112.456633 C8.40489988,109.357406 0.479055467,99.1396413 0.479055467,87.0126757 C0.479055467,81.1038032 2.36075591,75.6482002 5.53985515,71.2484817 C5.96890851,69.6837956 6.1834352,68.1191094 6.1834352,66.5544233 C6.1834352,63.8877566 5.5603258,61.2210899 4.31410701,58.5544233 L4.38975374,58.5544233 C3.44165898,55.795308 2.92565932,52.8253629 2.92565932,49.7311223 C2.92565932,36.1125709 12.9211261,24.9017567 25.7586021,23.4763433 L25.6729587,23.3233553 C26.0603209,23.3606718 26.4378052,23.380343 26.8054116,23.382369 C27.1780448,23.3567968 27.5528591,23.3394463 27.9296853,23.3304917 C29.1943895,23.2029044 30.3277897,22.8407637 31.3298859,22.2440698 C32.690213,21.4340687 33.8085788,20.1918432 34.6849832,18.5173931 C34.8020111,18.2677283 34.9221827,18.019924 35.0454452,17.7740349 C35.0518565,17.7597579 35.0582525,17.7454537 35.0646332,17.7311223 L35.0658787,17.7333472 C40.0811367,7.76487974 50.1801701,0.954423259 61.8215307,0.954423259 C74.2970595,0.954423259 85.0013093,8.77586229 89.5756848,19.9235363 C90.2882348,20.9065842 91.1180833,21.6800948 92.0652307,22.2440698 C93.1473436,22.8884093 94.3825667,23.2592422 95.7709001,23.3565685 C96.2000327,23.334514 96.631947,23.3233553 97.0663884,23.3233553 C97.2615405,23.3233553 97.4561827,23.3256069 97.6502919,23.3300864 C97.6742094,23.3279104 97.6981647,23.3256667 97.722158,23.3233553 L97.7174719,23.3317261 C111.55797,23.6879858 122.671627,35.371009 122.671627,49.7311223 C122.671627,54.4373948 121.477926,58.8561252 119.385751,62.6828346 Z M73.712969,60.5758973 C70.0648468,62.1940717 66.0446759,63.0903456 61.8215307,63.0903456 C58.2254195,63.0903456 54.7764838,62.4404629 51.5791159,61.2483619 C50.0673296,64.4604038 47.9428779,67.3088743 45.3624314,69.6321926 C48.6507168,73.5085426 50.8575716,78.3854402 51.4974842,83.7621567 C57.0001501,78.3227882 65.0216651,74.8961708 73.9536276,74.8961708 C74.6699412,74.8961708 75.3803993,74.9182091 76.0841722,74.9615565 C77.1088934,72.9044914 78.3877653,71.0042189 79.8780173,69.30485 C77.2825143,66.8790589 75.1716255,63.9117841 73.712969,60.5758973 Z" id="形状结合" fill="#FF8224" transform="translate(62.479055, 64.954423) rotate(-360.000000) translate(-62.479055, -64.954423) "></path>
                                    <g id="编组-24复制-3" transform="translate(36.139269, 38.461275) rotate(-30.000000) translate(-36.139269, -38.461275) translate(16.005248, 24.381275)">
                                        <g id="矩形-+-矩形蒙版" transform="translate(-0.000000, 0.000000)">
                                            <path d="M32.602017,7.97587279 L39.8103254,21.9321471 L0.181459422,27.5841716 L7.37220197,9.45910539 C10.523883,1.51494284 18.8777897,-2.08769263 26.0311749,1.41239385 C28.7961352,2.76526388 31.0987038,5.06525227 32.602017,7.97587279 Z" id="矩形" fill="#F1F6FF"></path>
                                            <path d="M26.3156397,9.0159438 L31.2553374,19.0892049 L8.24502812,22.3750264 L13.4431438,9.53302664 C15.017462,5.64365685 19.2270247,3.86249445 22.8454653,5.55468906 C24.3345087,6.25105293 25.5584507,7.47184895 26.3156397,9.0159438 Z" id="矩形" fill="#4B9AEE"></path>
                                        </g>
                                    </g>
                                    <g id="编组-24复制-4" transform="translate(79.945719, 40.849788) scale(-1, 1) rotate(-30.000000) translate(-79.945719, -40.849788) translate(55.337472, 19.089788)">
                                        <g id="矩形-+-矩形蒙版" transform="translate(-0.000000, 0.000000)">
                                            <path d="M33.7324439,9.96586404 L45.0319003,21.3420172 L4.03945142,38.1773171 L7.04488144,18.6515584 C8.36552457,10.0715685 16.3915734,4.1867053 24.9715632,5.50734843 C28.2934226,6.01865332 31.3639245,7.58126799 33.7324439,9.96586404 Z" id="矩形" fill="#F1F6FF" transform="translate(24.535676, 21.749749) rotate(-345.000000) translate(-24.535676, -21.749749) "></path>
                                            <path d="M32.1265962,15.6678086 L36.1043115,23.9892688 L14.3723528,26.5082837 L17.899688,16.7201767 C19.7529111,11.5776132 24.5383719,9.31638606 28.5883139,11.6695845 C30.0563277,12.5225665 31.2889308,13.9153958 32.1265962,15.6678086 Z" id="矩形" fill="#4B9AEE"></path>
                                        </g>
                                    </g>
                                    <g id="形状结合" transform="translate(10.762791, 31.399945)">
                                        <mask id="mask-4" fill="white">
                                            <use xlink:href="#path-3"></use>
                                        </mask>
                                        <use id="椭圆形" fill="#FFDC59" xlink:href="#path-3"></use>
                                        <path d="M28.1339521,-1.48828979 L62.9531875,-1.48828979 C79.5659127,-1.48828979 93.0331875,11.9789849 93.0331875,28.5917102 C93.0331875,29.1511649 93.0175796,29.7105107 92.9863821,30.2690949 L91.2329777,61.6634041 C90.3429239,77.5996169 77.1608318,90.0660194 61.1997831,90.0660194 L29.8873564,90.0660194 C13.9263078,90.0660194 0.744215622,77.5996169 -0.145838206,61.6634041 L-1.89924257,30.2690949 C-2.82563657,13.6822195 9.86969196,-0.515090436 26.4565674,-1.44148444 C27.0151515,-1.47268194 27.5744974,-1.48828979 28.1339521,-1.48828979 Z M25.3513651,23.04 C24.7310606,23.04 24.1110239,23.0657664 23.4928581,23.1172324 C11.164334,24.1436575 2.00217248,34.9699829 3.02859753,47.298507 L3.91993914,58.0045264 C4.88658222,69.6150015 14.5920615,78.5460194 26.2427067,78.5460194 L53.1805125,78.5460194 C64.8311576,78.5460194 74.5366369,69.6150015 75.50328,58.0045264 L76.3946216,47.298507 C76.4460877,46.6803412 76.4718541,46.0603045 76.4718541,45.44 C76.4718541,33.0688216 66.4430325,23.04 54.0718541,23.04 L25.3513651,23.04 Z" fill="#FFFFFF" mask="url(#mask-4)"></path>
                                        <path d="M30.2010309,-2.56 C34.8728818,0.555138965 38.9742564,2.80619045 42.5051546,4.19315447 C46.0360529,5.58011848 50.1374275,6.55116997 54.8092784,7.10630893 L54.8092784,10.24 C51.2783801,10.133036 47.1770055,9.1619845 42.5051546,7.32684553 C37.8333038,5.49170657 33.7319292,3.24065508 30.2010309,0.573691068 L30.2010309,-2.56 Z M30.2010309,3.2 C34.7536615,6.29946955 38.8550361,8.57859357 42.5051546,10.0373721 C46.1552732,11.4961505 50.2566478,12.4952746 54.8092784,13.0347441 L54.8092784,18.56 C51.1591598,18.3812215 47.0577852,17.3820975 42.5051546,15.5626279 C37.9525241,13.7431584 33.8511495,11.4640344 30.2010309,8.7252559 L30.2010309,3.2 Z M30.2010309,11.52 C34.8728818,14.635139 38.9742564,16.8861905 42.5051546,18.2731545 C46.0360529,19.6601185 50.1374275,20.63117 54.8092784,21.1863089 L54.8092784,24.32 C51.2783801,24.213036 47.1770055,23.2419845 42.5051546,21.4068455 C37.8333038,19.5717066 33.7319292,17.3206551 30.2010309,14.6536911 L30.2010309,11.52 Z" fill="#4B9AEE" mask="url(#mask-4)" transform="translate(42.505155, 10.880000) rotate(-270.000000) translate(-42.505155, -10.880000) "></path>
                                        <path d="M19.9395743,147.317609 C15.3350716,98.599203 22.060228,74.24 40.1150436,74.24 C58.1698591,74.24 65.0534268,98.599203 60.7657466,147.317609 L60.7657466,147.317609 C58.9428488,147.317609 57.4650982,145.839858 57.4650982,144.016961 C57.4650982,143.947219 57.4673086,143.877494 57.4717262,143.807893 C58.4078886,129.057783 57.6416907,113.975152 55.1731202,98.56 C53.8751228,90.4545685 46.6089809,85.304147 40.0730291,85.304147 C33.5370773,85.304147 26.6771618,91.7207162 25.2585904,98.56 C22.0695842,113.934987 21.1339823,129.274925 22.4517846,144.579813 L22.4517655,144.579815 C22.5712291,145.967259 21.5433273,147.18885 20.1558824,147.308314 C20.083946,147.314508 20.0117768,147.317609 19.9395743,147.317609 Z" id="路径-7复制-2" fill="#FFFFFF" mask="url(#mask-4)"></path>
                                        <ellipse id="椭圆形" fill="#FF9AA4" opacity="0.800000012" mask="url(#mask-4)" cx="60.0824742" cy="55.68" rx="7.67010309" ry="3.84"></ellipse>
                                        <ellipse id="椭圆形复制-3" fill="#FF9AA4" opacity="0.800000012" mask="url(#mask-4)" cx="17.257732" cy="55.04" rx="6.39175258" ry="3.84"></ellipse>
                                        <g id="编组" mask="url(#mask-4)">
                                            <g transform="translate(5.510226, 24.200055)">
                                                <g id="椭圆形复制-7" stroke="none" stroke-width="1" fill-rule="evenodd" transform="translate(51.566409, 15.091547) rotate(-354.000000) translate(-51.566409, -15.091547) translate(40.380842, 3.251547)">
                                                    <mask id="mask-6" fill="white">
                                                        <use xlink:href="#path-5"></use>
                                                    </mask>
                                                    <use id="椭圆形复制" fill="#FFFFFF" xlink:href="#path-5"></use>
                                                    <g mask="url(#mask-6)">
                                                        <g transform="translate(3.923064, 2.515465)">
                                                            <mask id="mask-8" fill="white">
                                                                <use xlink:href="#path-7"></use>
                                                            </mask>
                                                            <use id="形状结合" stroke="none" fill="#4C160E" fill-rule="evenodd" xlink:href="#path-7"></use>
                                                            <path d="M3.82914452,5.07587779 C6.53563116,6.86486931 8.62998912,7.7598382 10.1122184,7.76078448 C11.5944477,7.76173075 13.1247448,6.86907589 14.7031099,5.08281988 C13.4064267,6.88081226 12.7587068,8.7533612 12.75995,10.7004667 C12.7611933,12.6475722 13.4112273,14.399028 14.7100519,15.9548339 C12.926862,14.6560972 11.0531484,14.0061018 9.08891098,14.0048478 C7.12467361,14.0035938 5.37373215,14.6512751 3.83608661,15.9478918 C5.57405838,14.6398465 6.44242263,13.0122711 6.44117935,11.0651656 C6.43993607,9.11806005 5.56925779,7.12163079 3.82914452,5.07587779 Z" id="矩形" stroke="none" fill="#FFFA00" fill-rule="evenodd" mask="url(#mask-8)" transform="translate(9.269598, 10.515356) rotate(49.000000) translate(-9.269598, -10.515356) "></path>
                                                        </g>
                                                    </g>
                                                </g>
                                                <path d="M13.0276445,11.9499083 C15.8489574,13.0881352 18.4487296,15.0602729 20.826961,17.8663214 C18.731418,17.8148017 16.486442,16.6497623 12.3283045,17.1912523 C9.55621287,17.5522457 7.05576503,18.4717977 4.826961,19.9499083" id="路径-2备份复制-2" stroke="#53261F" stroke-width="2.2" stroke-linecap="round" stroke-linejoin="round" transform="translate(12.826961, 15.949908) rotate(-358.000000) translate(-12.826961, -15.949908) "></path>
                                                <path d="M38.941583,37.12 C36.4912483,36.6997015 34.5665612,35.4197015 33.1675216,33.28 C31.8948992,35.4772557 30.0351157,36.7572557 27.588171,37.12 L23.6569072,37.12 C20.4757471,37.12 17.8969072,34.5411602 17.8969072,31.36 C17.8969072,28.1788398 20.4757471,25.6 23.6569072,25.6 L42.8173196,25.6 C45.9984797,25.6 48.5773196,28.1788398 48.5773196,31.36 C48.5773196,34.5411602 45.9984797,37.12 42.8173196,37.12 L38.941583,37.12 Z" id="形状结合" stroke="none"></path>
                                                <g id="矩形" stroke="none" stroke-width="1" fill-rule="evenodd" transform="translate(24.288660, 25.600000)">
                                                    <mask id="mask-11" fill="white">
                                                        <use xlink:href="#path-10"></use>
                                                    </mask>
                                                    <use id="蒙版" fill="url(#linearGradient-9)" xlink:href="#path-10"></use>
                                                    <rect fill="#EC606E" mask="url(#mask-11)" x="1.27835052" y="8.96" width="20.4536082" height="24.32" rx="10.2268041"></rect>
                                                </g>
                                                <g id="编组-39" stroke="none" stroke-width="1" fill-rule="evenodd" transform="translate(25.266222, 21.037782)">
                                                    <path d="M4.42996075,4.48 C5.29763909,4.48 8.94845361,2.3556797 8.94845361,1.30287214 C8.94845361,0.250064584 5.44311152,-0.018162414 4.42996075,0.000934443167 C3.41680998,0.0200313004 0,0.250064584 0,1.30287214 C0,2.3556797 3.56228241,4.48 4.42996075,4.48 Z" id="椭圆形" fill="#4C160E"></path>
                                                </g>
                                            </g>
                                        </g>
                                    </g>
                                </g>
                            </g>
                            <path d="M94,97.84 C97.2246,97.84 103.268041,86.9515651 103.268041,73.52 C103.268041,60.0884349 97.2246,49.2 94,49.2 C90.7754,49.2 88.5670103,60.0884349 88.5670103,73.52 C88.5670103,86.9515651 90.7754,97.84 94,97.84 Z" id="椭圆形" stroke="none" fill="#F1F6FF" fill-rule="evenodd"></path>
                            <rect id="矩形" stroke="none" fill="#BECAEB" fill-rule="evenodd" x="89.8453608" y="60.08" width="2.55670103" height="18.56" rx="1.27835052"></rect>
                            <g id="形状结合复制-3" stroke="none" stroke-width="1" fill="none" fill-rule="evenodd" transform="translate(10.587629, 34.244632)">
                                <mask id="mask-13" fill="white">
                                    <use xlink:href="#path-12"></use>
                                </mask>
                                <g id="蒙版" opacity="0.699999988">
                                    <use fill="#4EA4FF" fill-rule="evenodd" xlink:href="#path-12"></use>
                                    <use fill="black" fill-opacity="1" filter="url(#filter-14)" xlink:href="#path-12"></use>
                                </g>
                                <path d="M-1.27835052,42.88 C-1.10117389,14.72 10.0586943,0.64 32.2012541,0.64 C65.4150938,0.64 30.2039101,19.2941919 15.5006027,21.6780992 C4.85885084,23.40349 -0.734133554,30.4707903 -1.27835052,42.88 Z" id="路径-12复制" fill="#4B9AEE" opacity="0.483533298" mask="url(#mask-13)"></path>
                                <path d="M54.3641778,-1.92 L62.6734561,-1.92 L62.6734561,36.48 L54.3641778,36.48 L54.3641778,-1.92 Z M65.2301572,-1.92 L67.7868582,-1.92 L67.7868582,36.48 L65.2301572,36.48 L65.2301572,-1.92 Z" fill="#F1F6FF" opacity="0.300000012" mask="url(#mask-13)" transform="translate(61.075518, 17.280000) rotate(21.000000) translate(-61.075518, -17.280000) "></path>
                            </g>
                            <path d="M27.4357631,54.2137443 C28.2812075,52.8988944 29.4350068,51.9042903 30.897161,51.2299318 C32.3593151,50.5555734 34.0640669,50.5022411 36.0114163,51.069935" id="直线-3复制-3" stroke="#4C160E" stroke-width="1.28" fill="none" opacity="0.400000006" stroke-linecap="round" transform="translate(31.723590, 52.447237) rotate(22.000000) translate(-31.723590, -52.447237) "></path>
                            <path d="M61.4396268,55.1138143 C62.195709,53.7992281 63.2276882,52.804855 64.5355644,52.1306949 C65.8434407,51.4565348 67.3684405,51.4033158 69.1105641,51.9710378" id="直线-3复制-4" stroke="#4C160E" stroke-width="1.28" fill="none" opacity="0.400000006" stroke-linecap="round" transform="translate(65.275095, 53.347777) scale(-1, 1) rotate(31.000000) translate(-65.275095, -53.347777) "></path>
                            <polygon id="路径-39" stroke="none" fill="#F1F6FF" fill-rule="evenodd" points="94.9587629 49.2 101.350515 53.1558045 101.350515 94 94.383811 97.84"></polygon>
                            <ellipse id="椭圆形" stroke="none" fill="#4B9AEE" fill-rule="evenodd" cx="100.391753" cy="73.52" rx="7.35051546" ry="20.48"></ellipse>
                            <g id="椭圆形" stroke="none" stroke-width="1" fill="none" fill-rule="evenodd" transform="translate(96.876289, 59.440000)">
                                <mask id="mask-16" fill="white">
                                    <use xlink:href="#path-15"></use>
                                </mask>
                                <use id="蒙版" fill="#F1F6FF" xlink:href="#path-15"></use>
                                <ellipse fill="#DAE2F7" mask="url(#mask-16)" cx="1.27835052" cy="14.08" rx="3.19587629" ry="10.24"></ellipse>
                            </g>
                            <path d="M66.8241295,116.1847 C66.5022382,117.726781 59.1214344,118.96 52.1340206,118.96 C45.1466069,118.96 37.765803,117.726781 37.4439118,116.1847 C37.0395901,115.732024 36.7938144,115.134714 36.7938144,114.48 L36.7938144,111.92 L67.4742268,111.92 L67.4742268,114.48 C67.4742268,115.134714 67.2284511,115.732024 66.8241295,116.1847 Z" id="形状结合" stroke="none" fill="#FFFFFF" fill-rule="evenodd"></path>
                        </g>
                    </g>
                    <g id="矩形复制-32-+-矩形蒙版" mask="url(#mask-2)">
                        <g transform="translate(130.744146, 120.394646) rotate(-101.000000) translate(-130.744146, -120.394646) translate(114.244146, 98.394646)">
                            <mask id="mask-18" fill="white">
                                <use xlink:href="#path-17"></use>
                            </mask>
                            <use id="蒙版" stroke="none" fill="#F1F6FF" fill-rule="evenodd" xlink:href="#path-17"></use>
                            <path d="M5.87492482,27.4619494 C8.6084386,26.2102213 11.4524368,25.5670125 14.4069194,25.5323228 C17.3614021,25.4976332 20.1103833,26.2016985 22.6538631,27.6445188 L22.6719607,32.4093063 C20.0585231,30.8982231 17.4178258,30.0801429 14.7498688,29.9550657 C12.0819119,29.8299885 9.12962974,30.5872122 5.89302241,32.2267369 L5.87492482,27.4619494 Z" id="矩形复制-32" stroke="none" fill="#4B9AEE" fill-rule="evenodd" opacity="0.779999971" mask="url(#mask-18)" transform="translate(14.273443, 28.970204) rotate(-58.000000) translate(-14.273443, -28.970204) "></path>
                        </g>
                    </g>
                    <g id="编组" mask="url(#mask-2)">
                        <g transform="translate(116.911688, 87.911688) rotate(-45.000000) translate(-116.911688, -87.911688) translate(90.411688, 42.411688)">
                            <rect id="矩形" stroke="none" fill="#465BE5" fill-rule="evenodd" x="24.0111576" y="47.6165004" width="4.17740586" height="27.2328384" rx="2.08870293"></rect>
                            <ellipse id="椭圆形" stroke="#7284FB" stroke-width="6.52444444" fill="none" cx="26.0998605" cy="25.8832642" rx="22.7349884" ry="22.5192439"></ellipse>
                            <g id="编组-3" stroke="none" stroke-width="1" fill="none" fill-rule="evenodd" transform="translate(6.425291, 6.371969)">
                                <mask id="mask-20" fill="white">
                                    <use xlink:href="#path-19"></use>
                                </mask>
                                <use id="椭圆形" fill-opacity="0.099486451" fill="#1C1B1E" xlink:href="#path-19"></use>
                                <path d="M4.09637113,31.0079098 C7.33882797,33.4127909 11.363864,34.8369579 15.7243156,34.8369579 C26.4573305,34.8369579 35.1581582,26.2083362 35.1581582,15.564392 C35.1581582,11.2401267 33.7220735,7.24849345 31.2970679,4.03294498 C36.0357425,7.54754818 39.1029659,13.1567838 39.1029659,19.4764627 C39.1029659,30.120407 30.4021382,38.7490286 19.6691234,38.7490286 C13.2965601,38.7490286 7.64038524,35.7072593 4.09637113,31.0079098 Z" id="椭圆形-2" fill-opacity="0.201704545" fill="#9F9797" mask="url(#mask-20)"></path>
                                <ellipse id="椭圆形" fill-opacity="0.0722792832" fill="#FFFFFF" mask="url(#mask-20)" cx="15.7243156" cy="15.564392" rx="19.4338426" ry="19.2725659"></ellipse>
                            </g>
                            <path d="M23.9628575,12.9927565 C17.5874384,12.9927565 12.4191401,18.2043042 12.4191401,24.6330741" id="椭圆形" stroke="none" fill="none" transform="translate(18.190999, 18.812915) scale(-1, 1) rotate(90.000000) translate(-18.190999, -18.812915) "></path>
                            <path d="M26.6524704,61.6122282 L34.9258105,63.030927 C38.3621821,63.6201904 40.9639961,66.460674 41.2501747,69.9354378 L41.2501747,69.9354378 C41.4583154,72.4626704 39.5783199,74.6801287 37.0510872,74.8882694 C36.6661968,74.9199686 36.2788447,74.9029815 35.8982069,74.8377103 L27.6248669,73.4190115 C24.1884952,72.8297482 21.5866812,69.9892645 21.3005026,66.5145008 L21.3005026,66.5145008 C21.092362,63.9872681 22.9723575,61.7698099 25.4995901,61.5616692 C25.8844806,61.5299699 26.2718326,61.5469571 26.6524704,61.6122282 Z" id="矩形复制-30" stroke="none" fill="#4B9AEE" fill-rule="evenodd" transform="translate(31.275339, 68.224969) scale(1, -1) rotate(-15.000000) translate(-31.275339, -68.224969) "></path>
                            <g id="编组-6" stroke="none" stroke-width="1" fill="none" fill-rule="evenodd" transform="translate(18.095562, 57.995285)">
                                <mask id="mask-22" fill="white">
                                    <use xlink:href="#path-21"></use>
                                </mask>
                                <use id="矩形" fill="#7284FB" xlink:href="#path-21"></use>
                                <path d="M4.1205732,26.7759497 L0.878801309,15.9818659 C-0.591349724,11.086724 1.86765383,5.87100816 6.57944535,3.89040745 L6.57944535,3.89040745 C11.1705273,1.960547 16.459653,4.08478705 18.4405119,8.65409693 L20.5247764,13.461936 C23.1444521,19.5048248 21.3480407,26.5545343 16.155908,30.6068131 L16.155908,30.6068131 C12.8247314,33.2066805 8.01667031,32.6138372 5.41680295,29.2826607 C4.83303762,28.5346897 4.39348599,27.6846638 4.1205732,26.7759497 Z" id="形状结合复制-2" fill="#465BE5" opacity="0.5" mask="url(#mask-22)" transform="translate(11.086470, 17.702370) rotate(-113.000000) translate(-11.086470, -17.702370) "></path>
                            </g>
                            <g id="矩形复制-33" stroke="none" stroke-width="1" fill="none" fill-rule="evenodd" transform="translate(33.000000, 75.500000) rotate(-270.000000) translate(-33.000000, -75.500000) translate(20.000000, 63.000000)">
                                <mask id="mask-24" fill="white">
                                    <use xlink:href="#path-23"></use>
                                </mask>
                                <use id="形状结合" fill="#408BDC" xlink:href="#path-23"></use>
                                <path d="M1.97856542,16.4897642 L-0.4230781,10.5986225 C-2.48603591,5.53826429 -0.0561627494,-0.236324337 5.00419551,-2.29928215 C5.26933235,-2.40737056 5.53903586,-2.5038997 5.81254457,-2.588597 L5.81254457,-2.588597 C11.8540173,-4.45945689 18.3889334,-1.93005421 21.5964917,3.5207328 L22.4114457,4.90563076 C25.849823,10.7486617 23.900466,18.2727298 18.057435,21.7111071 C18.0218811,21.732029 17.9862219,21.7527717 17.9504588,21.7733342 L17.7283163,21.9010583 C12.4345264,24.9448002 5.67562147,23.1207759 2.63187956,17.826986 C2.38432191,17.3964244 2.1660562,16.949672 1.97856542,16.4897642 Z" id="形状结合" fill="#408BDC" mask="url(#mask-24)"></path>
                                <path d="M1.301354,20.0883126 L-1.58446156,7.55426086 C-2.46703387,3.72095733 -0.694775381,-0.231935959 2.75435158,-2.12314538 L2.75435158,-2.12314538 C5.43962506,-3.59552217 8.81006655,-2.61227513 10.2824433,0.0729983509 C10.4431262,0.366046525 10.5769863,0.673021558 10.6823893,0.990175163 L12.9057132,7.68007141 C14.6200499,12.8384449 13.3023923,18.5224109 9.49326051,22.4003333 L9.49326051,22.4003333 C7.61497209,24.3125425 4.54216666,24.3400407 2.62995748,22.4617523 C1.96991354,21.8134169 1.5089395,20.9899251 1.301354,20.0883126 Z" id="形状结合" fill="#4B9AEE" mask="url(#mask-24)"></path>
                                <path d="M-22.4896405,-16.0925866 C-15.151144,-13.6802325 -8.21874496,-12.6098789 -1.69244346,-12.8815256 C4.83385804,-13.1531724 11.4156552,-14.7860326 18.052948,-17.7801063 L17.6701831,-9.39808876 C9.70735374,-6.29286588 3.38864448,-4.64296834 -1.28594466,-4.44839612 C-5.9605338,-4.2538239 -13.1560207,-5.34121487 -22.8724054,-7.71056903 L-22.4896405,-16.0925866 Z" id="矩形复制-32" fill="#4B9AEE" mask="url(#mask-24)" transform="translate(-2.409729, -11.103177) rotate(-44.000000) translate(2.409729, 11.103177) "></path>
                            </g>
                        </g>
                    </g>
                    <path d="M156.133452,10 C155.295976,17.8310498 155.528562,22.9241009 156.831209,25.2791531 C158.133855,27.6342053 160.856786,29.4557383 165,30.7437521 C161.085973,29.9134785 157.582193,30.3575576 154.488662,32.0759896 C151.39513,33.7944215 148.643983,37.9667236 146.235222,44.5928957 C147.809239,37.4240259 147.733119,32.2791437 146.006863,29.1582489 C144.280606,26.0373541 141.401476,23.9382724 137.369472,22.8610035 C141.595899,24.2463747 145.255878,24.0798444 148.34941,22.3614125 C151.442941,20.6429805 154.037622,16.5225097 156.133452,10 Z M156.613136,106.102503 C155.937752,112.417866 156.125321,116.525165 157.175843,118.424401 C158.226364,120.323637 160.422276,121.792615 163.763578,122.831336 C160.607104,122.16176 157.781476,122.519889 155.286692,123.905721 C152.791908,125.291553 150.573242,128.656313 148.630692,134 C149.900061,128.218653 149.838674,124.069555 148.446532,121.552704 C147.054389,119.035854 144.73251,117.343046 141.480894,116.47428 C144.889303,117.591515 147.840899,117.457217 150.335682,116.071384 C152.830466,114.685552 154.922951,111.362592 156.613136,106.102503 Z M21.7603105,57.8834444 C23.6474245,66.8973156 26.5381203,72.7705618 30.4323977,75.5031833 C34.3266751,78.2358047 39.1957067,78.9737167 45.0394924,77.7169193 C39.4987907,78.5892429 35.3559079,80.9897664 32.6108442,84.9184898 C29.8657805,88.8472131 29.0427373,95.7137782 30.1417144,105.518185 C27.8508309,96.3216867 24.7582505,90.3571268 20.863973,87.6245053 C16.9696956,84.8918839 12.3483713,83.8049582 7,84.3637283 C12.7189039,83.2253548 16.6140794,81.173845 18.6855265,78.2091988 C20.7569736,75.2445527 21.7819016,68.4693012 21.7603105,57.8834444 Z M40.3350907,29.7142019 C40.4537049,33.3963313 41.185334,35.9111528 42.5299782,37.2586664 C43.8746223,38.60618 45.7415006,39.2357817 48.1306132,39.1474715 C45.8875408,39.1054255 44.08918,39.7626715 42.7355309,41.1192094 C41.3818817,42.4757472 40.581735,45.1233559 40.3350907,49.0620352 C40.0700806,45.2798594 39.2652535,42.7150147 37.9206093,41.3675011 C36.5759652,40.0199875 34.8308551,39.2701435 32.685279,39.1179692 C35.0169895,39.0676162 36.6935821,38.5306125 37.7150566,37.5069581 C38.7365311,36.4833038 39.6098758,33.8857184 40.3350907,29.7142019 Z M151.086556,44.8865095 C151.20517,48.5686389 151.936799,51.0834604 153.281443,52.430974 C154.626087,53.7784876 156.492966,54.4080893 158.882078,54.319779 C156.639006,54.2777331 154.840645,54.9349791 153.486996,56.2915169 C152.133347,57.6480548 151.3332,60.2956634 151.086556,64.2343428 C150.821546,60.452167 150.016719,57.8873223 148.672074,56.5398087 C147.32743,55.192295 145.58232,54.4424511 143.436744,54.2902768 C145.768455,54.2399238 147.445047,53.7029201 148.466522,52.6792657 C149.487996,51.6556113 150.361341,49.0580259 151.086556,44.8865095 Z" id="形状结合" fill="#FFE90E" mask="url(#mask-2)"></path>
                    <g id="路径-3-+-路径-3备份-+-路径-3备份-2-+-路径-3备份-3-+-形状结合蒙版" mask="url(#mask-2)">
                        <g transform="translate(38.000000, 98.000000)">
                            <mask id="mask-26" fill="white">
                                <use xlink:href="#path-25"></use>
                            </mask>
                            <use id="蒙版" stroke="none" fill="#B3B9D2" fill-rule="evenodd" xlink:href="#path-25"></use>
                            <path d="M57.3977487,14.3740749 C31.7007808,17.2203286 16.9581662,18.6434554 13.1699052,18.6434554" id="路径-3" stroke="#FFFFFF" stroke-width="3.33333333" fill="none" opacity="0.329999983" stroke-linecap="round" mask="url(#mask-26)"></path>
                            <path d="M60.4042535,25.4763089 C34.5896789,26.8939122 19.7882611,27.6027138 16,27.6027138" id="路径-3备份" stroke="#FFFFFF" stroke-width="3.33333333" fill="none" opacity="0.329999983" stroke-linecap="round" mask="url(#mask-26)"></path>
                            <path d="M61.7375868,36.6666667 C37.2696684,36.8073925 22.3797345,36.1115037 17.0677853,34.5790002" id="路径-3备份-2" stroke="#FFFFFF" stroke-width="3.33333333" fill="none" opacity="0.329999983" stroke-linecap="round" mask="url(#mask-26)"></path>
                            <path d="M63.3364682,47.7543331 C39.4182368,47.7543331 24.5438756,46.0494146 18.7133847,42.6395777" id="路径-3备份-3" stroke="#FFFFFF" stroke-width="3.33333333" fill="none" opacity="0.329999983" stroke-linecap="round" mask="url(#mask-26)"></path>
                            <path d="M4.03532592,44.9810169 L1.52218454,38.4943748 C-0.381900872,33.5797606 2.05861498,28.0521123 6.97322926,26.1480269 C7.13528667,26.0852404 7.29902897,26.0268926 7.46427297,25.9730488 L7.46427297,25.9730488 C13.033433,24.158368 19.1084678,26.535243 21.9674583,31.647462 L22.9207454,33.3520541 C26.1656621,39.1543559 24.2282714,46.4844331 18.5402179,49.9256883 L18.5402179,49.9256883 C13.8135909,52.7852835 7.66374283,51.2717551 4.8041477,46.5451281 C4.50285407,46.0471196 4.24560391,45.5237631 4.03532592,44.9810169 Z" id="形状结合" stroke="none" fill="#7F8BBC" fill-rule="evenodd" opacity="0.4242234" mask="url(#mask-26)" transform="translate(12.683377, 38.369844) rotate(159.000000) translate(-12.683377, -38.369844) "></path>
                        </g>
                    </g>
                    <g id="矩形复制-32" mask="url(#mask-2)">
                        <g transform="translate(47.698140, 132.819461) scale(-1, 1) rotate(-255.000000) translate(-47.698140, -132.819461) translate(31.698140, 119.819461)">
                            <mask id="mask-28" fill="white">
                                <use xlink:href="#path-27"></use>
                            </mask>
                            <use id="形状结合" stroke="none" fill="#408BDC" fill-rule="evenodd" xlink:href="#path-27"></use>
                            <path d="M1.03508993,14.3073993 L0.121000674,12.5700561 C-2.55553867,7.48295188 -0.601389698,1.18927521 4.48571457,-1.48726414 C5.25076377,-1.88978867 6.06298143,-2.1954314 6.90360239,-2.39713087 L7.15497275,-2.45744493 C14.9104897,-4.31831172 23.0327097,-1.41877197 27.8564935,4.93276147 L27.8564935,4.93276147 C31.3312594,9.50802685 30.4391282,16.0338665 25.8638628,19.5086323 C25.2268505,19.9924225 24.5361634,20.4011252 23.8054933,20.7266383 L21.9449516,21.5555087 C14.1539732,25.0263856 5.00648212,21.8555365 1.03508993,14.3073993 Z" id="形状结合" stroke="none" fill="#408BDC" fill-rule="evenodd" mask="url(#mask-28)"></path>
                            <path d="M0.229054935,19.6044963 L-2.79378945,9.29054987 C-4.10823331,4.80566679 -1.86998191,0.0449872816 2.42229594,-1.80387447 L2.42229594,-1.80387447 C6.54774864,-3.58087772 11.3326346,-1.67708329 13.1096379,2.44836941 C13.1166106,2.46455708 13.1235306,2.48076738 13.1303979,2.49700004 L15.1211071,7.20255279 C17.481955,12.7830235 15.8438234,19.2526896 11.1117404,23.0372169 L11.1117404,23.0372169 C8.1488588,25.4068089 3.82603478,24.9258527 1.45644272,21.9629711 C0.897629221,21.264244 0.480692212,20.4630828 0.229054935,19.6044963 Z" id="形状结合" stroke="none" fill="#4B9AEE" fill-rule="evenodd" mask="url(#mask-28)"></path>
                            <path d="M-27.7385887,-19.1968767 C-19.057623,-15.4792622 -11.0207724,-13.3317002 -3.62803681,-12.7541905 C3.76469874,-12.1766808 11.0361936,-13.1283773 18.1864479,-15.60928 L18.8863023,-6.1983642 C10.2421164,-3.77156442 3.2724289,-2.76499074 -2.02276031,-3.17864317 C-7.31794952,-3.5922956 -15.6566075,-5.79473482 -27.0387343,-9.78596084 L-27.7385887,-19.1968767 Z" id="矩形复制-32" stroke="none" fill="#4B9AEE" fill-rule="evenodd" mask="url(#mask-28)" transform="translate(-4.426143, -11.142580) rotate(-44.000000) translate(4.426143, 11.142580) "></path>
                        </g>
                    </g>
                </g>
            </g>
        </g>
    </g>
</svg>