<?xml version="1.0" encoding="UTF-8"?>
<svg width="200px" height="200px" viewBox="0 0 200 200" version="1.1" xmlns="http://www.w3.org/2000/svg" xmlns:xlink="http://www.w3.org/1999/xlink">
    <!-- Generator: Sketch 52.5 (67469) - http://www.bohemiancoding.com/sketch -->
    <title>img_success</title>
    <desc>Created with Sketch.</desc>
    <defs>
        <rect id="path-1" x="0" y="0" width="150" height="150" rx="20"></rect>
    </defs>
    <g id="页面-1" stroke="none" stroke-width="1" fill="none" fill-rule="evenodd">
        <g id="Result-结果反馈" transform="translate(-1017.000000, -686.000000)">
            <g id="分组-8" transform="translate(437.000000, 642.000000)">
                <g id="分组-7" transform="translate(520.000000, 44.000000)">
                    <g id="分组-25" transform="translate(60.000000, 0.000000)">
                        <g id="img_complete" transform="translate(25.000000, 25.000000)">
                            <mask id="mask-2" fill="white">
                                <use xlink:href="#path-1"></use>
                            </mask>
                            <g id="蒙版"></g>
                            <g id="星星" mask="url(#mask-2)">
                                <g transform="translate(3.000000, 10.000000)">
                                    <path d="M25.9915032,0 C23.7597854,5.14508381 21.8641137,8.698332 20.304488,10.6597446 C18.7448622,12.6211572 15.3100329,14.5870114 10,16.5573074 C15.2526261,17.9889086 18.6874554,19.5498226 20.304488,21.2400496 C21.9215205,22.9302765 23.6509264,26.1835933 25.4927056,31 C27.3600284,26.086803 28.9981513,22.8334862 30.4070744,21.2400496 C31.8159975,19.646613 35.0136394,18.0856989 40,16.5573074 C35.0780652,14.630419 31.8804233,12.6645647 30.4070744,10.6597446 C28.9337254,8.65492443 27.4618684,5.10167623 25.9915032,0 Z" id="路径-6" fill="#FF9F11"></path>
                                    <path d="M10.127952,88 C8.71453078,91.3194089 7.51393868,93.6118271 6.52617572,94.8772546 C5.53841275,96.142682 3.36302085,97.4109751 0,98.6821338 C3.32666318,99.6057475 5.50205509,100.612789 6.52617572,101.703258 C7.55029635,102.793727 8.64558674,104.892641 9.81204689,108 C10.9946846,104.830195 12.0321625,102.731281 12.9244804,101.703258 C13.8167984,100.675234 15.8419716,99.6681928 19,98.6821338 C15.8827746,97.43898 13.8576014,96.1706869 12.9244804,94.8772546 C11.9913595,93.5838222 11.0591833,91.291404 10.127952,88 Z" id="路径-6复制" fill="#FFE90E"></path>
                                    <path d="M134.386529,58.8 C132.973108,62.1194089 131.772516,64.4118271 130.784753,65.6772546 C129.79699,66.942682 127.621598,68.2109751 124.258577,69.4821338 C127.585241,70.4057475 129.760632,71.4127888 130.784753,72.5032578 C131.808874,73.5937268 132.904164,75.6926409 134.070624,78.8 C135.253262,75.6301955 136.29074,73.5312814 137.183058,72.5032578 C138.075376,71.4752342 140.100549,70.4681928 143.258577,69.4821338 C140.141352,68.23898 138.116179,66.9706869 137.183058,65.6772546 C136.249937,64.3838222 135.317761,62.091404 134.386529,58.8 Z" id="路径-6复制-2" fill="#FFE90E"></path>
                                </g>
                            </g>
                            <g id="点缀" mask="url(#mask-2)">
                                <g transform="translate(-15.000000, 19.000000)">
                                    <path d="M118.825,3.825 L118.825,1.275 C118.825,0.570836944 119.395837,-5.32907052e-15 120.1,-5.32907052e-15 C120.804163,-5.32907052e-15 121.375,0.570836944 121.375,1.275 L121.375,3.825 L123.925,3.825 C124.629163,3.825 125.2,4.39583694 125.2,5.1 C125.2,5.80416306 124.629163,6.375 123.925,6.375 L121.375,6.375 L121.375,8.925 C121.375,9.62916306 120.804163,10.2 120.1,10.2 C119.395837,10.2 118.825,9.62916306 118.825,8.925 L118.825,6.375 L116.275,6.375 C115.570837,6.375 115,5.80416306 115,5.1 C115,4.39583694 115.570837,3.825 116.275,3.825 L118.825,3.825 Z" id="形状结合" fill="#FFE90E"></path>
                                    <path d="M4.5,122.5 L4.5,120.7 C4.5,120.202944 4.90294373,119.8 5.4,119.8 C5.89705627,119.8 6.3,120.202944 6.3,120.7 L6.3,122.5 L8.1,122.5 C8.59705627,122.5 9,122.902944 9,123.4 C9,123.897056 8.59705627,124.3 8.1,124.3 L6.3,124.3 L6.3,126.1 C6.3,126.597056 5.89705627,127 5.4,127 C4.90294373,127 4.5,126.597056 4.5,126.1 L4.5,124.3 L2.7,124.3 C2.20294373,124.3 1.8,123.897056 1.8,123.4 C1.8,122.902944 2.20294373,122.5 2.7,122.5 L4.5,122.5 Z" id="形状结合备份" fill="#7284FB" transform="translate(5.400000, 123.400000) rotate(-315.000000) translate(-5.400000, -123.400000) "></path>
                                    <circle id="椭圆形备份-5" fill="#7284FB" cx="60.15" cy="121.15" r="3.15"></circle>
                                    <circle id="椭圆形备份-7" fill="#FF9F11" cx="129.15" cy="102.15" r="4.15"></circle>
                                    <circle id="椭圆形备份-6" fill="#7284FB" cx="78.85" cy="39.85" r="2.85"></circle>
                                </g>
                            </g>
                            <g id="编组" mask="url(#mask-2)">
                                <g transform="translate(75.000000, 54.000000) rotate(-315.000000) translate(-75.000000, -54.000000) translate(30.000000, -11.000000)">
                                    <rect id="矩形" fill="#7BDC7B" x="0" y="96" width="90" height="34" rx="17"></rect>
                                    <rect id="矩形" fill="#7BDC7B" transform="translate(73.000000, 65.000000) rotate(-90.000000) translate(-73.000000, -65.000000) " x="8" y="48" width="130" height="34" rx="17"></rect>
                                    <circle id="椭圆形" fill="#55BB55" cx="73" cy="22" r="9"></circle>
                                    <circle id="椭圆形备份" fill="#55BB55" cx="73" cy="50" r="9"></circle>
                                    <circle id="椭圆形备份-2" fill="#55BB55" cx="73" cy="78" r="9"></circle>
                                    <circle id="椭圆形备份-3" fill="#55BB55" cx="22" cy="113" r="9"></circle>
                                </g>
                            </g>
                        </g>
                    </g>
                </g>
            </g>
        </g>
    </g>
</svg>