<svg height="40" viewBox="0 0 40 40" width="40" xmlns="http://www.w3.org/2000/svg"><path d="m4.07703712.00000004h20.26666668c1.9636791 0 3.5555555 1.59187645 3.5555555 3.55555556v23.1111111c0 1.9636791-1.5918764 3.5555556-3.5555555 3.5555556h-20.26666668c-1.96367911 0-3.55555556-1.5918765-3.55555556-3.5555556v-23.1111111c0-1.96367911 1.59187645-3.55555556 3.55555556-3.55555556zm3.65037029 3.55555552c-1.96367911 0-3.55555556 1.59187644-3.55555556 3.55555555v15.99999999c0 1.9636791 1.59187645 3.5555556 3.55555556 3.5555556h12.96592589c1.9636791 0 3.5555556-1.5918765 3.5555556-3.5555556v-15.99999999c0-1.96367911-1.5918765-3.55555555-3.5555556-3.55555555zm1.87259266 5.33333337h9.22074073c.9818396 0 1.7777778.79593822 1.7777778 1.77777777 0 .9818396-.7959382 1.7777778-1.7777778 1.7777778h-9.22074073c-.98183955 0-1.77777777-.7959382-1.77777777-1.7777778 0-.98183955.79593822-1.77777777 1.77777777-1.77777777zm-.00000006 7.11111107h9.22074079c.9818395 0 1.7777777.7959382 1.7777777 1.7777778 0 .9818395-.7959382 1.7777778-1.7777777 1.7777778h-9.22074079c-.98183955 0-1.77777777-.7959383-1.77777777-1.7777778 0-.9818396.79593822-1.7777778 1.77777777-1.7777778zm20.12444439-10.66666662h.0948149c1.9636791 0 3.5555556 1.59187645 3.5555556 3.55555556v23.11111116c0 1.9636791-1.5918765 3.5555555-3.5555556 3.5555555h-20.26666663c-1.96367911 0-3.55555555-1.5918764-3.55555555-3.5555555l5.42771528-.0000001 16.5219143.0000001c.9818395-.0000001 1.7777777-.7959382 1.7777777-1.7777777l.0000001-19.5555557z" fill="#6a7078" fill-rule="evenodd" transform="translate(3.555556 2.222222)"/></svg>