<svg height="40" viewBox="0 0 40 40" width="40" xmlns="http://www.w3.org/2000/svg"><path d="m20 2.22222222c9.8183956 0 17.7777778 7.95938218 17.7777778 17.77777778s-7.9593822 17.7777778-17.7777778 17.7777778-17.77777778-7.9593822-17.77777778-17.7777778 7.95938218-17.77777778 17.77777778-17.77777778zm.1306776 28.43716418c1.3636826 0 2.4691358-1.1054288 2.4691358-2.4691201 0-1.3635659-1.1054532-2.4691515-2.4691358-2.4691515-1.3635573 0-2.4691358 1.1055856-2.4691358 2.4691515 0 1.3636913 1.1055785 2.4691201 2.4691358 2.4691201zm2.4280194-17.3813205c.0073074-.0795259.010967-.159345.010967-.2392059 0-1.4437789-1.1704141-2.614193-2.614193-2.614193-.079861 0-.15968.0036595-.2392059.010967-1.437722.1321098-2.4961299 1.4047099-2.3640201 2.8424319l.7954126 8.6563032c.0858543.9343338.8695434 1.6493127 1.8078134 1.6493127.9382699 0 1.7219591-.7149789 1.8078134-1.6493127z" fill="#6a7078" fill-rule="evenodd"/></svg>