<svg height="30" viewBox="0 0 30 30" width="30" xmlns="http://www.w3.org/2000/svg"><path d="m13.2447616 22.9520935-3.95848772 2.7022889c-.45613463.3113835-1.07833096.1940394-1.3897144-.2620952-.16885963-.2473565-.21796177-.5573752-.13380409-.8448057l1.34678948-4.5997988c.4627575-1.580493-.09044481-3.2830746-1.39381397-4.2897183l-3.79326945-2.9296924c-.4370966-.337587-.51776504-.9655922-.18017801-1.4026888.18306954-.2370324.46274145-.3795324.76211029-.3883146l4.79084941-.140543c1.64613806-.0482907 3.09444056-1.10054404 3.64905236-2.65119177l1.6141183-4.51293836c.1859941-.5200237.7583346-.79080822 1.2783583-.60481415.2820028.10086243.5039517.32281132.6048141.60481415l1.6141183 4.51293836c.5546118 1.55064773 2.0029143 2.60290107 3.6490524 2.65119177l4.7908494.140543c.5520472.0161947.9864415.4768459.9702468 1.0288931-.0087822.2993689-.1512821.5790408-.3883146.7621103l-3.7932694 2.9296924c-1.3033692 1.0066437-1.8565715 2.7092253-1.393814 4.2897183l1.3467895 4.5997988c.1551899.5300325-.1486801 1.0855151-.6787127 1.240705-.2874305.0841577-.5974493.0350556-.8448058-.1338041l-3.9584877-2.7022889c-1.3601383-.9285077-3.1503385-.9285077-4.5104768 0z" fill="#6a7078" fill-rule="evenodd"/></svg>