<?xml version="1.0" encoding="UTF-8"?><svg xmlns="http://www.w3.org/2000/svg" xmlns:xlink="http://www.w3.org/1999/xlink" width="120px" height="120px" viewBox="0 0 120 120" version="1.1">
    <!-- Generator: Sketch 49.1 (51147) - http://www.bohemiancoding.com/sketch -->
    <title>hi_1</title>
    <desc>Created with Sketch.</desc>
    <defs>
        <path d="M25.0421945,32.347633 C27.3155817,32.8500632 28.6427879,32.0946572 29.023813,30.081415 C29.4048381,28.0681729 28.2939391,26.6670082 25.6911158,25.8779209 C20.729639,24.6060048 17.46219,22.5681119 15.888769,19.7642423 C12.68919,14.0625246 13.1850958,7.96044919 9.68218601,4.57395278 C7.9341408,2.88400095 4.72853624,1.44315696 0.0653723471,0.251420816 L0.486918876,2.71792597 C2.91587073,3.19014486 5.28225861,4.31588653 7.58608252,6.09515098 C11.9465601,9.46278806 10.046286,19.9428321 15.3001117,26.2233798 C17.2835297,28.5944046 20.5308906,30.6358224 25.0421945,32.347633 Z" id="path-1" stroke-width="1"/>
        <path d="M15.1717722,6.77014516 L15.2139936,6.79013773 C16.718615,7.77570568 17.9583212,9.0316926 18.9331121,10.5580985 C19.8389083,11.976467 20.460079,13.4504821 20.7966241,14.980144 C19.350383,15.7972736 17.9732084,16.5083985 16.6651021,17.1135216 C13.8884847,18.3979701 10.4603667,19.3020773 6.38074823,19.8258431 L6.38074656,19.8258301 C4.06302147,20.1233935 1.94291125,18.4857289 1.64534783,16.1680038 C1.64034534,16.1290394 1.63588576,16.0900071 1.63197037,16.0509185 C1.40452039,13.7802044 2.89977148,11.6941594 5.1232248,11.1802222 L5.12322714,11.1802323 C7.820912,10.5566796 10.2208323,9.6756829 12.3229879,8.53724234 C13.1936819,8.06571049 14.1432766,7.4766781 15.1717722,6.77014516 Z" id="path-3" stroke-width="1"/>
        <path d="M13.2161473,10.924605 C12.4733485,13.7434834 9.9066591,15.8221219 6.85447761,15.8221219 C3.80229613,15.8221219 1.23560669,13.7434834 0.492807953,10.924605 L13.2161473,10.924605 Z M30.0445055,10.924605 C29.3017067,13.7434834 26.7350173,15.8221219 23.6828358,15.8221219 C20.6306543,15.8221219 18.0639649,13.7434834 17.3211662,10.924605 L30.0445055,10.924605 Z" id="path-5" stroke-width="1"/>
        <path d="M16.9099039,7.56649011 L16.9572637,7.58897746 C18.6342897,8.69049459 20.0160455,10.0942447 21.1025312,11.8002277 C22.1137914,13.3880929 22.8067593,15.0383579 23.1814348,16.7510229 C21.5717713,17.6607517 20.0388199,18.4524347 18.5825788,19.1260693 C15.4903871,20.5564693 11.672458,21.5619382 7.12879162,22.1424759 L7.1287878,22.1424461 C4.53469156,22.47389 2.16307263,20.6396479 1.83162866,18.0455517 C1.82634908,18.0042302 1.821615,17.9628409 1.81742768,17.9213945 C1.56126167,15.3858499 3.2307236,13.0554679 5.71389765,12.4823587 L5.71390176,12.4823765 C8.71778507,11.789089 11.3899814,10.8084348 13.7304906,9.54041361 C14.7022059,9.01396597 15.7620093,8.35599095 16.9099006,7.56648855 Z" id="path-7" stroke-width="1"/>
        <ellipse id="path-9" cx="19.0619403" cy="19.0697065" rx="19.0619403" ry="19.0697065" stroke-width="1"/>
        <path d="M39.7399441,14.6940456 C40.3731858,10.8041325 42.5664066,8.64359814 46.1846484,8.64359814 C48.4812469,8.64359814 50.3068862,9.82267271 52.0679235,12.5467735 C53.8289608,15.2708744 58.3370613,22.7007094 57.593651,37.4988055 C56.8502407,52.2969016 44.8836115,65.8990394 29.2049832,65.8990394 C13.5263549,65.8990394 0.829126371,54.9311393 0.0639494118,37.4988055 C-0.701227548,20.0664717 7.75806014,-0.565149814 18.1265123,0.267379068 C29.0789054,1.14679515 25.1307785,15.0214483 24.2929487,20.4982184 C23.4551189,25.9749886 27.6556374,31.2468648 33.7469918,29.2383141 C39.8383461,27.2297634 39.1067023,18.5839588 39.7399441,14.6940456 Z" id="path-11" stroke-width="1"/>
        <path d="M19.7125414,4.01142856 C20.927277,4.76755292 21.7358209,6.11487513 21.7358209,7.65104289 L21.7358209,9.49026637 C21.7358209,11.8562542 19.8178088,13.7742664 17.4518209,13.7742664 L16.5347463,13.7742664 C14.7404863,13.7742664 13.2038585,12.6712116 12.5659939,11.1062329 C13.3481346,12.1395957 14.5881009,12.8072235 15.984,12.8072235 L16.6276566,12.8072235 C18.9936445,12.8072235 20.9116566,10.8892113 20.9116566,8.52322348 L20.9116566,6.984 C20.9116566,5.82957145 20.4550308,4.78179358 19.7125414,4.01142856 Z" id="path-13" stroke-width="1"/>
    </defs>
    <g id="hi_1" fill-rule="evenodd">
        <g id="尾巴">
            <g id="Group-44">
                <g id="Path-18">
                    <mask id="mask-2" fill="white">
                        <use xlink:href="#path-1"/>
                    </mask>
                    <use id="Mask" fill="#FEAA06" transform="matrix(0.6946583704589974,0.7193398003386511,0.7193398003386511,-0.6946583704589974,13.380803358737996,104.98869877165833)" xlink:href="#path-1" stroke-width="1" stroke="none"/>
                </g>
                <path d="M 3.557 103.2555 C 7.3437 99.9287 10.2821 98.4121 12.3722 98.7059 C 15.5074 99.1465 17.6844 102.0973 17.2348 105.2968 C 16.7851 108.4962 13.8791 110.7326 10.7439 110.292 C 9.3995 110.1031 8.2556 109.1727 7.1204 106.7105 C 6.5059 105.3779 5.3181 104.2263 3.557 103.2555 Z " id="Oval-38" fill="#FFDC47" stroke-width="1" stroke="none"/>
            </g>
        </g>
        <g id="胳膊">
            <path d="M 51.1154 95.3445 C 51.2411 95.3871 51.3651 95.4399 51.4864 95.5032 C 51.5912 95.5578 51.6921 95.6195 51.7885 95.6877 L 53.8334 97.1352 C 55.0333 97.9846 55.4363 99.5811 54.7835 100.8982 C 54.3479 101.7769 53.5359 102.3646 52.6243 102.5398 C 52.6217 104.463 51.335 106.2209 49.388 106.7382 C 49.0476 106.8286 48.6975 106.8774 48.3454 106.8834 C 45.0131 106.9409 42.168 104.489 41.7329 101.1848 C 41.2875 97.8028 41.0688 94.7849 41.0769 92.1311 C 41.0863 89.0718 41.7157 85.5828 42.9651 81.664 L 42.9651 81.664 C 43.6749 79.4377 46.0552 78.2083 48.2815 78.9182 C 48.3189 78.9301 48.3562 78.9426 48.3933 78.9555 C 50.5474 79.709 51.806 81.9458 51.3322 84.1781 L 51.3321 84.1781 C 50.7572 86.8866 50.5414 89.434 50.6848 91.8203 C 50.7473 92.8608 50.8908 94.0355 51.1154 95.3445 Z " id="Mask" fill="#F2C100" stroke-width="0.9999999999999999" stroke="none"/>
            <mask id="mask-4" fill="white">
                <use xlink:href="#path-3"/>
            </mask>
            <use id="Combined-Shape" fill="#2BA5DC" xlink:href="#path-3" stroke-width="1" stroke="none" transform="matrix(-0.42261826174069944,0.9063077870366499,-0.9063077870366499,-0.42261826174069944,63.63004239683991,84.25987413642738)"/>
        </g>
        <g id="腿">
            <path d="M 62.6328 111.9941 L 62.6312 111.9941 C 62.5512 115.5578 59.6373 118.4221 56.0545 118.4221 C 52.4214 118.4221 49.4761 115.4769 49.4761 111.8438 L 49.4761 102.7869 L 54.8152 102.7869 L 73.631 102.7869 L 73.631 102.8021 C 73.7934 102.792 73.9571 102.7869 74.1221 102.7869 L 79.4612 102.7869 L 79.4612 111.8438 C 79.4612 115.4769 76.516 118.4221 72.8828 118.4221 C 69.3 118.4221 66.3861 115.5578 66.3062 111.9941 L 66.3045 111.9941 C 66.3045 110.9798 65.4826 110.1576 64.4687 110.1576 C 63.4548 110.1576 62.6328 110.9798 62.6328 111.9941 Z " id="Mask" fill="#FFDC47" stroke-width="1" stroke="none"/>
            <mask id="mask-6" fill="white">
                <use xlink:href="#path-5"/>
            </mask>
            <use id="Combined-Shape" fill="#FEAA06" xlink:href="#path-5" stroke-width="1" stroke="none" transform="matrix(1,0,0,1,49.2,102.6)"/>
        </g>
        <path d="M26.23157,21.236497 L35.5608134,23.7362602 C35.8064468,23.8020775 36.0589274,23.6563077 36.1247446,23.4106744 C36.1454499,23.3334014 36.1456652,23.2520671 36.1253694,23.1746855 L33.5422076,13.3259028 C41.8665593,6.14320383 52.7080038,1.8 64.5634448,1.8 C90.8081052,1.8 112.083606,23.084169 112.083606,49.339522 C112.083606,75.594875 90.8081052,96.879044 64.5634448,96.879044 C38.3187845,96.879044 17.0432836,75.594875 17.0432836,49.339522 C17.0432836,38.8254521 20.455101,29.1085796 26.23157,21.236497 Z" id="头发" fill="#FFA900" stroke-width="1" stroke="none"/>
        <g id="胳膊2">
            <path d="M 85.9975 78.8943 C 85.98 78.7519 85.9729 78.6065 85.9768 78.4587 C 85.9803 78.3278 85.9927 78.1973 86.0138 78.068 L 86.4696 75.2769 C 86.7336 73.6598 88.1357 72.4757 89.7741 72.4861 C 90.8723 72.493 91.8618 73.0244 92.4818 73.8591 C 94.4089 72.934 96.79 73.3671 98.2574 75.0604 C 98.5156 75.3584 98.7366 75.6867 98.9155 76.0381 C 100.6061 79.3582 99.5371 83.4183 96.4307 85.4754 C 93.267 87.5704 90.3561 89.2611 87.698 90.5475 C 84.6312 92.0316 80.8314 93.1036 76.2986 93.7633 L 76.2986 93.7633 C 73.7107 94.14 71.3074 92.3474 70.9307 89.7595 C 70.9247 89.7183 70.9193 89.677 70.9144 89.6356 C 70.614 87.1049 72.2425 84.7457 74.7153 84.1294 L 74.7153 84.1294 C 77.7067 83.3838 80.3613 82.3566 82.6794 81.048 C 83.6907 80.477 84.7967 79.7591 85.9975 78.8943 Z " id="Mask" fill="#FFDC47" stroke-width="1" stroke="none"/>
            <mask id="mask-8" fill="white">
                <use xlink:href="#path-7"/>
            </mask>
            <use id="Combined-Shape" fill="#50C5FA" xlink:href="#path-7" stroke-width="1" stroke="none" transform="matrix(0.9998476951563913,-0.01745240643728307,0.01745240643728307,0.9998476951563913,68.78445190508143,71.74864125950113)"/>
        </g>
        <g id="肚子">
            <g>
                <mask id="mask-10" fill="white">
                    <use xlink:href="#path-9"/>
                </mask>
                <use id="Mask" fill="#FFDC47" xlink:href="#path-9" stroke-width="1" stroke="none" transform="matrix(1,0,0,1,45.498508,71.895711)"/>
                <ellipse id="Oval-49" fill="#FFF2C1" mask="url(#mask-10)" cx="19.1537313" cy="21.3041986" rx="12.4223881" ry="12.4274492" stroke-width="1" stroke="none" transform="matrix(1,0,0,1,45.498508,71.895711)"/>
                <path d="M 64.4543 103.2544 L 63.5673 102.3674 L 63.7186 102.2161 L 64.6056 103.1031 L 65.4923 102.2165 L 65.6436 102.3678 L 64.757 103.2545 L 65.644 104.1415 L 65.4927 104.2928 L 64.6057 103.4058 L 63.7191 104.2924 L 63.5677 104.141 L 64.4543 103.2544 Z " id="Combined-Shape" stroke="#101010" stroke-width="0.5" mask="url(#mask-10)" fill="none"/>
            </g>
            <g id="衣服">
                <path d="M 46.0011 95.3342 C 45.6724 93.9312 45.4985 92.4686 45.4985 90.9654 C 45.4985 80.4335 54.0328 71.8957 64.5604 71.8957 C 75.0881 71.8957 83.6224 80.4335 83.6224 90.9654 C 83.6224 92.6325 83.4086 94.2496 83.0069 95.7907 C 77.8337 98.4854 71.616 100.0564 64.9276 100.0564 C 57.8699 100.0564 51.3363 98.3071 46.0011 95.3342 Z " id="Combined-Shape" fill="#50C5FA" stroke-width="1" stroke="none"/>
                <path d="M 63.1374 92.0627 L 63.1374 94.5446 C 63.1374 95.3233 63.7687 95.9546 64.5474 95.9546 C 65.3261 95.9546 65.9573 95.3233 65.9573 94.5446 L 65.9573 91.9246 L 65.9684 91.9246 C 66.0081 91.6433 66.2447 91.4271 66.5305 91.4271 C 66.8164 91.4271 67.0529 91.6433 67.0926 91.9246 L 67.0962 91.9246 L 67.0962 91.9558 C 67.0977 91.9732 67.0985 91.9907 67.0985 92.0085 C 67.0985 92.0262 67.0977 92.0438 67.0962 92.0611 L 67.0962 94.5469 C 67.0962 95.9546 65.955 97.0957 64.5474 97.0957 C 63.1397 97.0957 61.9985 95.9546 61.9985 94.5469 L 61.9985 91.9246 L 62.0098 91.9246 C 62.0357 91.6281 62.2791 91.3957 62.5755 91.3957 C 62.8892 91.3957 63.1435 91.656 63.1435 91.977 C 63.1435 92.0061 63.1414 92.0347 63.1374 92.0627 Z " id="Combined-Shape" fill="#FFFFFF" stroke-width="1" stroke="none"/>
            </g>
        </g>
        <g id="脸">
            <mask id="mask-12" fill="white">
                <use xlink:href="#path-11"/>
            </mask>
            <use id="Mask" fill="#FFDC47" xlink:href="#path-11" stroke-width="1" stroke="none" transform="matrix(1,0,0,1,35.48906,17.485298)"/>
        </g>
        <g id="嘴巴">
            <path d="M 61.5051 56.0811 L 67.2633 56.0811 C 74.1425 56.0811 79.7193 61.6579 79.7193 68.5371 L 79.7193 68.5371 C 79.7193 75.4164 74.1425 80.9931 67.2633 80.9931 L 61.5051 80.9931 C 54.6258 80.9931 49.0491 75.4164 49.0491 68.5371 L 49.0491 68.5371 C 49.0491 61.6579 54.6258 56.0811 61.5051 56.0811 Z " id="Rectangle-16" fill="#FFF2C1" fill-rule="nonzero" stroke-width="1" stroke="none"/>
            <path d="M 64.3457 65.3078 L 64.3457 70.6214 " id="Path-57" stroke="#101010" stroke-width="1.75384625" fill-rule="nonzero" fill="none"/>
            <path d="M 58.7413 63.1891 C 58.9061 61.8336 60.7723 61.1558 64.3398 61.1558 C 67.9073 61.1558 69.7735 61.8336 69.9384 63.1891 C 69.9765 64.024 69.2787 64.9237 67.8449 65.8884 C 66.4111 66.853 65.2345 67.3855 64.3151 67.4859 C 63.3287 67.3372 62.1305 66.8047 60.7207 65.8884 C 59.3109 64.972 58.6511 64.0723 58.7413 63.1891 Z " id="Path-15" fill="#101010" stroke-width="1" stroke="none"/>
            <path d="M 57.2268 70.3614 C 58.3376 71.3368 59.472 71.8535 60.6299 71.9117 C 61.7878 71.9698 63.0881 71.549 64.5307 70.6491 C 65.4976 71.4337 66.5904 71.8616 67.8093 71.9328 C 69.0281 72.0041 70.4085 71.4665 71.9505 70.32 " id="Path-10" stroke="#101010" stroke-width="1.7999999999999998" stroke-linecap="round" fill="none"/>
        </g>
        <g id="眼睛">
            <ellipse id="Oval-37" cx="3.38076638" cy="4.27586206" rx="3.22801095" ry="3.22932611" stroke-width="1" fill="#101010" stroke="none" transform="matrix(0.9993908270190958,0.03489949670250097,-0.03489949670250097,0.9993908270190958,46.4552529026903,50.55644998496976)"/>
            <ellipse id="Oval-37-Copy" cx="33.3368942" cy="3.22934483" rx="3.22801095" ry="3.22932611" stroke-width="1" fill="#101010" stroke="none" transform="matrix(0.9993908270190958,0.03489949670250097,-0.03489949670250097,0.9993908270190958,46.4552529026903,50.55644998496976)"/>
        </g>
        <g id="蝴蝶结">
            <path d="M 66.0104 79.927 C 67.7761 78.0506 69.9924 76.7313 72.6595 75.9691 C 76.6601 74.8258 81.9209 75.7921 81.9209 83.3765 C 81.9209 90.961 77.173 91.6155 73.8068 91.0063 C 71.5627 90.6002 69.0946 89.8272 66.4025 88.6873 L 66.0104 79.927 Z " id="Path-31" fill="#FC5B2A" stroke-width="1" stroke="none"/>
            <path d="M 63.2328 79.927 C 61.4672 78.0506 59.2509 76.7313 56.5838 75.9691 C 52.5832 74.8258 47.3224 75.7921 47.3224 83.3765 C 47.3224 90.961 52.0703 91.6155 55.4365 91.0063 C 57.6806 90.6002 60.1487 89.8272 62.8408 88.6873 L 63.2328 79.927 Z " id="Path-31" fill="#FC5B2A" stroke-width="1" stroke="none"/>
            <rect id="Mask" fill="#E53600" x="12.2507463" y="3.36704289" width="9.48507463" height="10.4072235" rx="4.74253731" stroke-width="1" stroke="none" transform="matrix(1,0,0,1,47.322388,75.568849)"/>
            <mask id="mask-14" fill="white">
                <use xlink:href="#path-13"/>
            </mask>
            <use id="Combined-Shape" fill="#CB2200" xlink:href="#path-13" stroke-width="1" stroke="none" transform="matrix(1,0,0,1,47.322388,75.568849)"/>
        </g>
    </g>
</svg>