<?xml version="1.0" encoding="UTF-8"?>
<svg width="200px" height="200px" viewBox="0 0 200 200" version="1.1" xmlns="http://www.w3.org/2000/svg" xmlns:xlink="http://www.w3.org/1999/xlink">
    <!-- Generator: Sketch 52.5 (67469) - http://www.bohemiancoding.com/sketch -->
    <title>icon_lion</title>
    <desc>Created with Sketch.</desc>
    <defs>
        <path d="M4.46786684,16.3419779 C6.93161295,7.39912178 12.4090653,1.9517958 20.900224,-2.50111075e-12 L33.6229853,-2.50111075e-12 C43.0494292,2.44897951 48.9260375,7.89630549 51.2528101,16.3419779 C52.6921153,21.5663392 54.7461109,37.097565 54.7563748,37.2640011 L0.923398918,37.2624842 C0.93590277,37.0625613 2.97576778,21.7579691 4.46786684,16.3419779 Z" id="path-1"></path>
        <path d="M5.94687891,0.0993116482 C5.95148337,0.0992732043 5.95609239,0.0992539443 5.96070592,0.0992539443 L7.15205914,0.0992539443 C7.82889844,0.0704635658 8.47824626,0.471222517 8.73433969,1.13862609 L12.719329,11.5238832 C13.0401915,12.3600812 12.6225673,13.2980807 11.7864521,13.6191591 C11.7863219,13.6192091 11.7861917,13.6192591 11.7860614,13.619309 C10.9501424,13.9400645 10.0124724,13.522442 9.6917169,12.6865229 L8.99370105,10.8674279 L4.10389366,10.8674279 L3.40587781,12.6865229 C3.0851223,13.522442 2.14745231,13.9400645 1.31153326,13.619309 C1.31140305,13.6192591 1.31127283,13.6192091 1.31114263,13.6191591 C0.475027448,13.2980807 0.0574031818,12.3600812 0.378265741,11.5238832 L4.36325501,1.13862609 C4.61951787,0.470780988 5.26955561,0.0699334289 5.94687891,0.0993116482 Z M5.34876915,7.62316526 L7.74882556,7.62316526 L6.54879735,4.49577882 L5.34876915,7.62316526 Z M15.5405093,0.207707741 C16.4360422,0.207707741 17.1620151,0.933680595 17.1620151,1.8292135 L17.1620151,12.0267187 C17.1620151,12.9222516 16.4360422,13.6482245 15.5405093,13.6482245 C14.6449764,13.6482245 13.9190036,12.9222516 13.9190036,12.0267187 L13.9190036,1.8292135 C13.9190036,0.933680595 14.6449764,0.207707741 15.5405093,0.207707741 Z" id="path-3"></path>
        <path d="M44.1783439,87.6183844 C70.3714156,87.6183844 91.6050955,70.2652744 91.6050955,45.3988352 C91.6050955,20.5323959 77.1060999,-1.29805014 44.1783439,-1.29805014 C11.250588,-1.29805014 -3.24840764,20.5323959 -3.24840764,45.3988352 C-3.24840764,70.2652744 17.9852723,87.6183844 44.1783439,87.6183844 Z" id="path-5"></path>
        <path d="M28.4343119,25.3119777 L67.1833727,25.3119777 C79.1575999,25.3119777 88.8646291,35.0190069 88.8646291,46.9932341 C88.8646291,47.7724878 88.822618,48.5511749 88.7387786,49.3259053 L88.3371204,53.0374894 C87.0872447,64.5871581 77.3362755,73.3398329 65.7191745,73.3398329 L29.8985101,73.3398329 C18.2814091,73.3398329 8.53043991,64.5871581 7.28056417,53.0374894 L6.87890598,49.3259053 C5.59060728,37.4211833 14.1969188,26.7261269 26.1016408,25.4378282 C26.8763712,25.3539888 27.6550582,25.3119777 28.4343119,25.3119777 Z" id="path-7"></path>
        <filter x="-3.7%" y="-6.2%" width="107.3%" height="112.5%" filterUnits="objectBoundingBox" id="filter-8">
            <feOffset dx="0" dy="6" in="SourceAlpha" result="shadowOffsetInner1"></feOffset>
            <feComposite in="shadowOffsetInner1" in2="SourceAlpha" operator="arithmetic" k2="-1" k3="1" result="shadowInnerInner1"></feComposite>
            <feColorMatrix values="0 0 0 0 0.880632926   0 0 0 0 0.645169577   0 0 0 0 0  0 0 0 0.452387456 0" type="matrix" in="shadowInnerInner1"></feColorMatrix>
        </filter>
        <path d="M14.5055234,1.63644415 C13.2879219,2.05681534 12.4142915,3.20354834 12.4142915,4.55228605 C12.4142915,6.25732956 13.8104787,7.63954043 15.5327629,7.63954043 C17.0665145,7.63954043 18.3416549,6.54337841 18.6024466,5.09922682 C19.7419109,6.81061147 20.4082388,8.94038554 20.4042676,11.286228 C20.3939437,17.384809 15.8572133,22.6343118 10.2711967,23.0113206 C4.68518012,23.3883295 0.165188134,18.7500789 0.175512059,12.6514979 C0.185835984,6.55291687 4.72256636,1.30341408 10.308583,0.92640521 C11.8064814,0.825309739 13.2277271,1.08483749 14.5055234,1.63644415 Z" id="path-9"></path>
        <path d="M2.19526801,6.03298782 C2.76585466,6.7590219 3.65682684,7.22608402 4.65799027,7.22608402 C6.38027443,7.22608402 7.77646161,5.84387315 7.77646161,4.13882964 C7.77646161,3.24037104 7.38878567,2.4315526 6.77000366,1.86737689 C7.72652858,1.40612775 8.75591057,1.09528832 9.834331,0.965527464 C15.392961,0.296685754 20.1495058,4.69202174 20.4583711,10.7827852 C20.7672364,16.8735486 16.5114612,22.3532912 10.9528312,23.0221329 C5.39420112,23.6909746 0.637656338,19.2956387 0.328791046,13.2048752 C0.196244251,10.5910783 0.904331205,8.08980814 2.19526801,6.03298782 Z" id="path-11"></path>
        <linearGradient x1="50%" y1="0%" x2="50%" y2="50%" id="linearGradient-13">
            <stop stop-color="#BC2406" offset="0%"></stop>
            <stop stop-color="#D83925" offset="100%"></stop>
        </linearGradient>
        <path d="M3.05919949,4.04566807 C6.95609861,4.02672139 9.54374068,2.67816536 10.8221257,0 C12.7213418,2.89800098 15.4053996,4.33206211 18.8742991,4.30218338 L18.874299,4.30217208 C20.5801391,4.28747914 21.9749067,5.65842479 21.9895997,7.36426489 C21.9918761,7.62855656 21.9602216,7.89204749 21.8954119,8.14827975 C19.5484319,17.4273282 15.8573365,22.0668524 10.8221257,22.0668524 C5.72313618,22.0668524 2.13460718,17.3090502 0.0565386972,7.79344598 L0.0565409431,7.79344549 C-0.307423664,6.12682901 0.748584321,4.48071781 2.41520079,4.1167532 C2.6267814,4.07054709 2.84263483,4.04672101 3.05919949,4.04566807 Z" id="path-14"></path>
        <path d="M36.3682874,4.32722928 C35.968556,5.88994012 27.0034388,7.13927577 18.5159236,7.13927577 C10.0284084,7.13927577 1.06329113,5.88994012 0.663559774,4.32722928 C0.250955502,3.867038 1.41391797e-15,3.25892618 1.33226763e-15,2.59220056 L0,0 L37.0318471,0 L37.0318471,2.59220056 C37.0318471,3.25892618 36.7808916,3.867038 36.3682874,4.32722928 Z" id="path-16"></path>
        <path d="M0,43.059141 C0.253017553,14.5020379 16.189897,0.22348639 47.8106382,0.22348639 C79.4313794,0.22348639 95.5454555,14.5020379 96.1528662,43.059141 C93.8698219,28.2229987 77.6481924,20.8049276 47.4879776,20.8049276 C17.3277628,20.8049276 1.4984369,28.2229987 0,43.059141 Z" id="path-18"></path>
        <filter x="-0.5%" y="-1.2%" width="101.0%" height="102.3%" filterUnits="objectBoundingBox" id="filter-20">
            <feOffset dx="0" dy="-1" in="SourceAlpha" result="shadowOffsetInner1"></feOffset>
            <feComposite in="shadowOffsetInner1" in2="SourceAlpha" operator="arithmetic" k2="-1" k3="1" result="shadowInnerInner1"></feComposite>
            <feColorMatrix values="0 0 0 0 0.219233504   0 0 0 0 0.528402335   0 0 0 0 0.857138813  0 0 0 1 0" type="matrix" in="shadowInnerInner1"></feColorMatrix>
        </filter>
        <path d="M9.24175384,12.4117745 L37.2133549,10.4115961 C42.531003,10.0313445 47.1500634,14.0338953 47.5303149,19.3515434 C47.5474084,19.5905873 47.5555938,19.8301848 47.5548543,20.0698379 L47.5548543,20.0698379 C47.5381985,25.4672163 43.1492567,29.8291538 37.7518782,29.8124981 C37.5493566,29.8118731 37.3469033,29.8049531 37.1448116,29.7917479 L9.19987257,27.9657556 C5.11676117,27.6989549 1.94514663,24.3028483 1.9577735,20.2110489 L1.9577735,20.2110489 C1.97044236,16.10564 5.14678143,12.7045956 9.24175384,12.4117745 Z" id="path-21"></path>
        <path d="M9.24175384,12.4117745 L37.2133549,10.4115961 C42.531003,10.0313445 47.1500634,14.0338953 47.5303149,19.3515434 C47.5474084,19.5905873 47.5555938,19.8301848 47.5548543,20.0698379 L47.5548543,20.0698379 C47.5381985,25.4672163 43.1492567,29.8291538 37.7518782,29.8124981 C37.5493566,29.8118731 37.3469033,29.8049531 37.1448116,29.7917479 L9.19987257,27.9657556 C5.11676117,27.6989549 1.94514663,24.3028483 1.9577735,20.2110489 L1.9577735,20.2110489 C1.97044236,16.10564 5.14678143,12.7045956 9.24175384,12.4117745 Z" id="path-23"></path>
        <path d="M13.2358887,0.599473245 L21.2625937,0.599473245 C24.5985606,0.599473245 27.7984917,1.92188389 30.1612057,4.27693343 L30.1612057,4.27693343 C32.5239196,6.63198297 35.7238507,7.95439361 39.0598176,7.95439361 L45.2395412,7.95439361 C48.5714729,7.95439361 51.7671333,6.6317069 54.1244222,4.27693343 L54.1244222,4.27693343 C56.4817111,1.92215996 59.6773716,0.599473245 63.0093033,0.599473245 L141.554878,0.599473245 C150.391434,0.599473245 157.554878,7.76291725 157.554878,16.5994732 L157.554878,26.7231081 C157.554878,35.5596641 150.391434,42.7231081 141.554878,42.7231081 L16,42.7231081 C7.163444,42.7231081 -2.02341161e-14,35.5596641 -2.13162821e-14,26.7231081 L-2.84217094e-14,13.8353619 C-2.93169237e-14,6.52538246 5.92590922,0.599473245 13.2358887,0.599473245 Z" id="path-25"></path>
    </defs>
    <g id="页面-1" stroke="none" stroke-width="1" fill="none" fill-rule="evenodd">
        <g id="Result-结果反馈" transform="translate(-1028.000000, -4575.000000)">
            <g id="login_img_lion" transform="translate(1028.000000, 4575.000000)">
                <g id="分组-2" transform="translate(0.000000, 9.000000)">
                    <g id="分组">
                        <path d="M44.8333333,81 L172.5,81 C187.319641,81 199.333333,93.0136925 199.333333,107.833333 L199.333333,107.833333 C199.333333,122.652974 187.319641,134.666667 172.5,134.666667 L44.8333333,134.666667 C30.0136925,134.666667 18,122.652974 18,107.833333 L18,107.833333 C18,93.0136925 30.0136925,81 44.8333333,81 Z" id="矩形" fill="#F2EEFE"></path>
                        <path d="M26.8333333,112 L154.5,112 C169.319641,112 181.333333,124.013693 181.333333,138.833333 L181.333333,138.833333 C181.333333,153.652974 169.319641,165.666667 154.5,165.666667 L26.8333333,165.666667 C12.0136925,165.666667 -1.73783111e-15,153.652974 -3.55271368e-15,138.833333 L-3.55271368e-15,138.833333 C-5.36759624e-15,124.013693 12.0136925,112 26.8333333,112 Z" id="矩形" fill="#C0F3ED"></path>
                        <g id="编组-49" transform="translate(20.000000, 0.000000)">
                            <g id="编组-24" transform="translate(79.812352, 87.947611) rotate(3.000000) translate(-79.812352, -87.947611) translate(4.812352, 3.947611)">
                                <g id="编组-47" transform="translate(75.164963, 84.053880) rotate(4.000000) translate(-75.164963, -84.053880) translate(6.164963, 5.553880)">
                                    <g id="编组-14复制-21">
                                        <g id="编组-27复制">
                                            <path d="M66.196597,44.0916914 C63.3290238,44.0916914 61.0043965,63.0461779 61.0043965,86.0099667 C61.0043965,108.973756 63.3290238,127.250927 66.196597,127.250927" id="路径" stroke="#000000" stroke-width="0.65" opacity="0" stroke-dasharray="2.6,2.6" transform="translate(63.600497, 85.671309) rotate(-90.000000) translate(-63.600497, -85.671309) "></path>
                                            <g id="编组-17" transform="translate(39.847134, 117.757660)">
                                                <g id="编组-25" transform="translate(0.308062, 0.462675)">
                                                    <mask id="mask-2" fill="white">
                                                        <use xlink:href="#path-1"></use>
                                                    </mask>
                                                    <use id="形状结合" fill="#F1F6FF" xlink:href="#path-1"></use>
                                                    <path d="M8.35703072,19.4704849 L8.35703072,19.4704849 C10.5090761,19.470113 12.253955,21.214389 12.2543269,23.3664344 C12.254327,23.3668835 12.254327,23.3673326 12.2543269,23.3677817 L12.2526443,33.0960522 C12.2522719,35.2490598 10.5070073,36.9943242 8.35399967,36.9946962 L8.35399967,36.9946962 C6.20195429,36.9950681 4.45707534,35.2507921 4.45670347,33.0987467 C4.45670339,33.0982976 4.45670339,33.0978485 4.45670347,33.0973994 L4.45838611,23.3691288 C4.4587585,21.2161212 6.20402313,19.4708569 8.35703072,19.4704849 Z" id="矩形复制-11" fill="#FFFFFF" mask="url(#mask-2)" transform="translate(8.355515, 28.232591) rotate(10.000000) translate(-8.355515, -28.232591) "></path>
                                                    <g id="编组复制" mask="url(#mask-2)">
                                                        <g transform="translate(18.316142, 16.776880)">
                                                            <mask id="mask-4" fill="white">
                                                                <use xlink:href="#path-3"></use>
                                                            </mask>
                                                            <use id="蒙版" stroke="none" fill="#4B9AEE" fill-rule="evenodd" xlink:href="#path-3"></use>
                                                        </g>
                                                    </g>
                                                    <path d="M29.9141624,59.1648116 C36.2639171,60.5449035 41.032898,61.239085 44.2211052,61.2473562 C47.4093124,61.2556274 51.5170764,60.5844749 56.5443972,59.2338987 L56.5503655,63.3991022 C51.6708501,64.8800628 47.6117525,65.6163421 44.3730729,65.6079399 C41.1343932,65.5995378 36.3167458,64.8402295 29.9201306,63.3300151 L29.9141624,59.1648116 Z" id="矩形复制-4" fill="#4B9AEE" mask="url(#mask-2)" transform="translate(43.232264, 62.386411) scale(-1, 1) rotate(-354.000000) translate(-43.232264, -62.386411) "></path>
                                                    <g id="编组-29" mask="url(#mask-2)">
                                                        <g transform="translate(26.112321, 35.696379)"></g>
                                                    </g>
                                                </g>
                                            </g>
                                            <g id="编组-30">
                                                <g id="编组-12">
                                                    <g id="编组-6">
                                                        <path d="M131.144517,61.0083565 L131.235669,61.0083565 C131.108371,61.187722 130.986937,61.3670875 130.871367,61.5464529 C130.627585,62.0133739 130.370115,62.4724318 130.099467,62.9231302 C129.475077,64.2319475 129.162882,65.5407648 129.162882,66.8495822 C129.162882,68.3779306 129.588591,69.906279 130.440008,71.4346274 C133.7992,75.8702376 135.783439,81.3462821 135.783439,87.2718176 C135.783439,101.241908 124.75441,112.713585 110.680655,113.942932 C106.10939,122.611045 96.8105547,128.544771 86.0828025,128.544771 C81.8988276,128.544771 77.9322066,127.642186 74.3786337,126.026818 C72.5446834,125.43442 70.7072195,125.138221 68.866242,125.138221 C66.8250899,125.138221 64.781022,125.522385 62.7340384,126.290711 C58.7005986,128.526979 54.0296606,129.805014 49.0509554,129.805014 C37.7512441,129.805014 28.0368792,123.221697 23.7627563,113.793899 C10.3352024,111.977637 0,100.795347 0,87.2718176 C0,81.2543774 2.0462677,75.7004794 5.50072368,71.2289923 C6.2472797,69.8773598 6.62055771,68.5257272 6.62055771,67.1740947 C6.62055771,65.6645572 6.24968734,64.148403 5.5079466,62.6256321 C3.24219778,58.7388085 1.94904459,54.2481396 1.94904459,49.464532 C1.94904459,34.7790726 14.1365256,22.8544506 29.2367422,22.6861746 L29.2356688,22.6843714 C29.2416686,22.6849149 29.2476662,22.6854548 29.2536616,22.6859909 C29.3558121,22.6849122 29.4580957,22.6843714 29.5605096,22.6843714 C30.0973205,22.6843714 30.6305535,22.6992291 31.1597953,22.7285437 C32.7303534,22.6489262 34.1223645,22.269367 35.3358287,21.5898661 C36.8027403,20.7684427 38.0087325,19.5086997 38.9538052,17.8106371 C39.0800024,17.5574516 39.2095898,17.3061529 39.3425102,17.0567962 C39.3494237,17.042318 39.3563209,17.0278121 39.3632015,17.0132785 L39.3645446,17.0155348 C44.7727591,6.9064953 55.6630738,0 68.2165605,0 C81.6695744,0 93.2125257,7.9317345 98.1453135,19.2366094 C98.9136933,20.2335198 99.8085621,21.0179382 100.829921,21.5898661 C101.996819,22.2432919 103.328825,22.6193542 104.825937,22.718053 C105.288693,22.6956874 105.754449,22.6843714 106.22293,22.6843714 C106.433373,22.6843714 106.643266,22.6866547 106.852584,22.6911973 C106.878375,22.6889907 106.904207,22.6867153 106.930081,22.6843714 L106.925027,22.6928602 C121.849959,23.0541438 133.834395,34.9019172 133.834395,49.464532 C133.834395,53.5980706 132.868827,57.5128785 131.144517,61.0083565 Z M81.0397209,60.4622357 C77.1057598,62.1032295 72.7705991,63.0121427 68.2165605,63.0121427 C63.4519728,63.0121427 58.9269698,62.0172422 54.8503485,60.229952 C53.2744395,63.7074799 50.9583927,66.7981205 48.0956271,69.314282 C50.0692605,71.4307676 51.6990851,73.8545524 52.8996641,76.5027723 C58.1726675,77.2160186 62.9687886,79.3736326 66.8494029,82.5501954 C71.2591649,78.3971029 77.0938832,75.6595469 83.5741225,75.0934958 C84.6829061,72.9910007 86.069827,71.0493776 87.6878124,69.314282 C84.888946,66.8542832 82.6126645,63.8451649 81.0397191,60.4622365 Z" id="形状结合" fill="#FF8224" transform="translate(67.891720, 64.902507) rotate(-360.000000) translate(-67.891720, -64.902507) "></path>
                                                        <path d="M112.394904,64.5779959 L112.394904,64.5779959 C115.667069,64.5779959 118.503434,66.8430392 119.227274,70.034139 C119.869818,72.8667687 120.191083,75.6994018 120.191083,78.5320349 C120.191083,81.364668 119.869818,84.1973012 119.22729,87.0299343 L119.227274,87.0299308 C118.503434,90.2210306 115.667069,92.4860739 112.394904,92.4860739 L112.394904,92.4860739 C109.12274,92.4860739 106.286375,90.2210306 105.562535,87.0299308 C104.91999,84.1973012 104.598726,81.364668 104.598726,78.5320349 C104.598726,75.6994018 104.91999,72.8667687 105.562519,70.0341355 L105.562535,70.034139 C106.286375,66.8430392 109.12274,64.5779959 112.394904,64.5779959 Z" id="矩形复制-25" fill="#F1F6FF"></path>
                                                        <path d="M110.44586,62.3064084 L110.44586,62.3064084 C113.642994,62.3064084 116.405859,64.539426 117.076471,67.6654373 C117.853509,71.2876393 118.242038,74.9098372 118.242038,78.5320352 C118.242038,82.1542331 117.853509,85.776431 117.076452,89.3986289 L117.076471,89.398633 C116.405859,92.5246443 113.642994,94.7576619 110.44586,94.7576619 L110.44586,94.7576619 C107.248726,94.7576619 104.485861,92.5246443 103.815249,89.398633 C103.03821,85.776431 102.649682,82.1542331 102.649682,78.5320352 C102.649682,74.9098372 103.03821,71.2876393 103.815268,67.6654414 L103.815249,67.6654373 C104.485861,64.539426 107.248726,62.3064084 110.44586,62.3064084 Z" id="矩形复制-28" fill="#4B9AEE"></path>
                                                        <path d="M23.388535,64.5779959 L23.388535,64.5779959 C26.6606998,64.5779959 29.4970649,66.8430392 30.2209049,70.034139 C30.863449,72.8667687 31.1847134,75.6994018 31.1847134,78.5320349 C31.1847134,81.364668 30.863449,84.1973012 30.2209203,87.0299343 L30.2209049,87.0299308 C29.4970649,90.2210306 26.6606998,92.4860739 23.388535,92.4860739 L23.388535,92.4860739 C20.1163703,92.4860739 17.2800052,90.2210306 16.5561651,87.0299308 C15.9136211,84.1973012 15.5923567,81.364668 15.5923567,78.5320349 C15.5923567,75.6994018 15.9136211,72.8667687 16.5561498,70.0341355 L16.5561651,70.034139 C17.2800052,66.8430392 20.1163703,64.5779959 23.388535,64.5779959 Z" id="矩形复制-26" fill="#F1F6FF"></path>
                                                        <path d="M25.9872611,62.3064084 L25.9872611,62.3064084 C29.1843954,62.3064084 31.9472601,64.539426 32.6178724,67.6654373 C33.3949107,71.2876393 33.7834395,74.9098372 33.7834395,78.5320352 C33.7834395,82.1542331 33.3949107,85.776431 32.6178533,89.3986289 L32.6178724,89.398633 C31.9472601,92.5246443 29.1843954,94.7576619 25.9872611,94.7576619 L25.9872611,94.7576619 C22.7901269,94.7576619 20.0272622,92.5246443 19.3566499,89.398633 C18.5796115,85.776431 18.1910828,82.1542331 18.1910828,78.5320352 C18.1910828,74.9098372 18.5796115,71.2876393 19.356669,67.6654414 L19.3566499,67.6654373 C20.0272622,64.539426 22.7901269,62.3064084 25.9872611,62.3064084 Z" id="矩形复制-27" fill="#4B9AEE"></path>
                                                        <path d="M17.5414013,27.2590529 L117.592357,27.2590529 L117.592357,27.2590529 C117.592357,52.3503183 97.2518672,72.6908078 72.1606018,72.6908078 L62.9731561,72.6908078 C37.8818908,72.6908078 17.5414013,52.3503183 17.5414013,27.2590529 Z" id="矩形" transform="translate(67.566879, 49.974930) rotate(-180.000000) translate(-67.566879, -49.974930) "></path>
                                                        <g id="编组-24复制-3" transform="translate(41.662697, 44.320448) rotate(-30.000000) translate(-41.662697, -44.320448) translate(16.649958, 22.578109)">
                                                            <g id="矩形-+-矩形蒙版" transform="translate(-0.000000, 0.000000)">
                                                                <path d="M34.3311089,9.5306951 L45.838095,21.0928061 L4.16842721,38.1920808 L7.23979447,18.3499524 C8.58846776,9.63704173 16.7449932,3.66714777 25.4579039,5.01582106 C28.8212932,5.53644082 31.9302679,7.11835275 34.3311089,9.5306951 Z" id="矩形" fill="#F1F6FF" transform="translate(25.003261, 21.508879) rotate(-345.000000) translate(-25.003261, -21.508879) "></path>
                                                                <path d="M30.0788826,13.5529378 L37.2123754,20.3741254 L10.8156405,30.0917608 L12.6373083,19.3332903 C13.5962161,13.6701382 18.9644563,9.85659485 24.6276083,10.8155027 C26.67747,11.1625936 28.5762551,12.1160956 30.0788826,13.5529378 Z" id="矩形" fill="#4B9AEE" transform="translate(24.014008, 20.379826) rotate(-345.000000) translate(-24.014008, -20.379826) "></path>
                                                            </g>
                                                        </g>
                                                        <g id="编组-24复制-4" transform="translate(92.964215, 44.320448) scale(-1, 1) rotate(-30.000000) translate(-92.964215, -44.320448) translate(67.951476, 22.578109)">
                                                            <g id="矩形-+-矩形蒙版" transform="translate(-0.000000, 0.000000)">
                                                                <path d="M34.3311089,9.5306951 L45.838095,21.0928061 L4.16842721,38.1920808 L7.23979447,18.3499524 C8.58846776,9.63704173 16.7449932,3.66714777 25.4579039,5.01582106 C28.8212932,5.53644082 31.9302679,7.11835275 34.3311089,9.5306951 Z" id="矩形" fill="#F1F6FF" transform="translate(25.003261, 21.508879) rotate(-345.000000) translate(-25.003261, -21.508879) "></path>
                                                                <path d="M30.0788826,13.5529378 L37.2123754,20.3741254 L10.8156405,30.0917608 L12.6373083,19.3332903 C13.5962161,13.6701382 18.9644563,9.85659485 24.6276083,10.8155027 C26.67747,11.1625936 28.5762551,12.1160956 30.0788826,13.5529378 Z" id="矩形" fill="#4B9AEE" transform="translate(24.014008, 20.379826) rotate(-345.000000) translate(-24.014008, -20.379826) "></path>
                                                            </g>
                                                        </g>
                                                        <g id="形状结合" transform="translate(24.038217, 34.398329)">
                                                            <mask id="mask-6" fill="white">
                                                                <use xlink:href="#path-5"></use>
                                                            </mask>
                                                            <use id="椭圆形" fill="#FFDC59" xlink:href="#path-5"></use>
                                                            <path d="M-14.3177873,72.8100754 C-27.6700882,23.4046584 -8.16824001,-1.29805014 44.1877573,-1.29805014 C96.5437547,-1.29805014 116.504969,23.4046584 104.071402,72.8100754 L99.300704,72.8100856 C96.7878027,72.8100856 94.7506937,70.7729766 94.7506937,68.2600754 C94.7506937,68.0247529 94.7689497,67.7897851 94.8052973,67.5572867 C97.0594168,53.1387508 94.7422193,38.4079561 87.8537045,23.3649025 C84.0897252,15.1451709 63.0191083,9.9221198 44.0659223,9.9221198 C25.1127364,9.9221198 5.22010915,16.4291733 1.10648504,23.3649025 C-7.6133213,38.0668329 -10.5232272,52.7371607 -7.62323271,67.375886 L-7.62323471,67.3758864 C-7.13490952,69.8408767 -8.7373132,72.235012 -11.2023035,72.7233372 C-11.4934986,72.7810242 -11.7896403,72.8100754 -12.0864945,72.8100754 L-14.3177873,72.8100754 Z" id="路径-7" fill="#F1F6FF" mask="url(#mask-6)"></path>
                                                            <g id="编组-27" mask="url(#mask-6)">
                                                                <g transform="translate(-3.630498, -1.947075)">
                                                                    <path d="M30.5541029,11.0334262 L65.5222139,11.0334262 C82.394513,11.0334262 96.0722139,24.7111271 96.0722139,41.5834262 C96.0722139,42.2261211 96.0519329,42.8686559 96.0114011,43.5100715 L94.6749251,64.6598213 C93.6580459,80.7519487 80.3099622,93.283176 64.1857379,93.283176 L31.8905788,93.283176 C15.7663546,93.283176 2.41827085,80.7519487 1.40139161,64.6598213 L0.0649156354,43.5100715 C-0.999141183,26.6713583 11.7887444,12.1582958 28.6274576,11.094239 C29.2688731,11.0537072 29.911408,11.0334262 30.5541029,11.0334262 Z M29.4569054,25.3119777 C28.7585507,25.3119777 28.0605663,25.3441337 27.3651697,25.4083435 C14.853913,26.5635773 5.64803748,37.6424567 6.8032712,50.1537134 L7.79945606,60.9424605 C8.8801739,72.6467053 18.699057,81.6007248 30.4530902,81.6007248 L65.6232265,81.6007248 C77.3772598,81.6007248 87.1961429,72.6467053 88.2768607,60.9424605 L89.2730456,50.1537134 C89.3372554,49.4583168 89.3694114,48.7603324 89.3694114,48.0619777 C89.3694114,35.4974997 79.1838894,25.3119777 66.6194114,25.3119777 L29.4569054,25.3119777 Z" id="形状结合" fill="#FFFFFF" fill-rule="evenodd"></path>
                                                                    <g id="编组复制-2" style="mix-blend-mode: multiply;" stroke-width="1" fill="none" fill-rule="evenodd" transform="translate(47.484002, 12.980501) rotate(-270.000000) translate(-47.484002, -12.980501) translate(34.815212, 1.298050)">
                                                                        <path d="M-4.61852778e-14,-4.9471538e-13 L25.0127389,-4.9471538e-13 L25.0127389,4.53803139 L-4.61852778e-14,4.53803139 L-4.61852778e-14,-4.9471538e-13 Z M0,7.7941798 L25.0127389,7.7941798 L25.0127389,15.5707227 L0,15.5707227 L0,7.7941798 Z M0,18.8268711 L25.0127389,18.8268711 L25.0127389,23.3649025 L0,23.3649025 L0,18.8268711 Z" id="形状结合" fill="#4B9AEE"></path>
                                                                    </g>
                                                                    <g id="矩形" fill="none" fill-opacity="1">
                                                                        <use fill="black" filter="url(#filter-8)" xlink:href="#path-7"></use>
                                                                    </g>
                                                                </g>
                                                            </g>
                                                            <path d="M18.0462187,149.395034 C12.1271575,99.9896166 20.7723067,75.2869081 43.9816663,75.2869081 C67.191026,75.2869081 76.0398119,99.9896166 70.5280241,149.395034 L70.5280241,149.395034 C68.2225578,149.395034 66.3536082,147.526084 66.3536082,145.220618 C66.3536082,145.117328 66.3574418,145.014074 66.3651011,144.911069 C67.4555073,130.247464 66.4467042,115.260393 63.3387357,99.9498607 C61.6701676,91.7301291 52.3295848,86.507078 43.927657,86.507078 C35.5257292,86.507078 26.7073481,93.0141315 24.8837827,99.9498607 C20.8476601,115.300807 19.6194721,130.617299 21.1992187,145.899337 L21.1991798,145.899341 C21.3791862,147.640673 20.1134814,149.198226 18.3721491,149.378232 C18.2638662,149.389426 18.1550786,149.395034 18.0462187,149.395034 Z" id="路径-7复制-2" fill="#FFFFFF" mask="url(#mask-6)"></path>
                                                            <ellipse id="椭圆形" fill="#FF9AA4" opacity="0.800000012" mask="url(#mask-6)" cx="70.8152866" cy="56.4651811" rx="7.79617834" ry="3.89415042"></ellipse>
                                                            <ellipse id="椭圆形复制-3" fill="#FF9AA4" opacity="0.800000012" mask="url(#mask-6)" cx="17.3596743" cy="53.8690808" rx="7.79617834" ry="3.89415042"></ellipse>
                                                            <g id="编组" mask="url(#mask-6)">
                                                                <g transform="translate(9.498888, 25.190342)">
                                                                    <g id="椭圆形复制-7" stroke-width="1" fill-rule="evenodd" transform="translate(55.390867, 14.980637) rotate(-8.000000) translate(-55.390867, -14.980637) translate(43.371759, 2.000136)">
                                                                        <path d="M12.1097473,25.3151397 C18.7477175,25.3151397 24.0382166,20.7984594 24.0382166,13.6295265 C24.0382166,6.4605935 18.6570785,0.64902507 12.0191083,0.64902507 C5.38113807,0.64902507 -1.3170498e-13,6.4605935 -1.3170498e-13,13.6295265 C-1.3170498e-13,20.7984594 5.47177706,25.3151397 12.1097473,25.3151397 Z" id="椭圆形复制" fill="#FFFFFF"></path>
                                                                        <g transform="translate(1.619077, 0.541517)">
                                                                            <mask id="mask-10" fill="white">
                                                                                <use xlink:href="#path-9"></use>
                                                                            </mask>
                                                                            <use id="形状结合" fill="#4C160E" xlink:href="#path-9"></use>
                                                                        </g>
                                                                    </g>
                                                                    <g id="椭圆形复制-11" stroke-width="1" fill-rule="evenodd" transform="translate(14.031083, 15.628081) scale(-1, 1) rotate(-8.000000) translate(-14.031083, -15.628081) translate(2.011974, 2.647580)">
                                                                        <path d="M12.2892611,25.3403432 C18.9272313,25.3403432 24.0382166,20.7984594 24.0382166,13.6295265 C24.0382166,6.4605935 18.6570785,0.64902507 12.0191083,0.64902507 C5.38113807,0.64902507 9.66609666e-13,6.4605935 9.66609666e-13,13.6295265 C9.66609666e-13,20.7984594 5.65129084,25.3403432 12.2892611,25.3403432 Z" id="椭圆形" fill="#FFFFFF"></path>
                                                                        <g id="椭圆形复制-7" transform="translate(1.749014, 0.295940)">
                                                                            <mask id="mask-12" fill="white">
                                                                                <use xlink:href="#path-11"></use>
                                                                            </mask>
                                                                            <use id="形状结合" fill="#4C160E" xlink:href="#path-11"></use>
                                                                        </g>
                                                                    </g>
                                                                    <path d="M40.2313563,36.994429 C37.7407449,36.5682036 35.7844212,35.2701534 34.3623853,33.1002786 C33.0688446,35.3285192 31.1784914,36.6265693 28.6913257,36.994429 L24.68199,36.994429 C21.4559701,36.994429 18.8407643,34.3792232 18.8407643,31.1532033 C18.8407643,27.9271835 21.4559701,25.3119777 24.68199,25.3119777 L44.1842521,25.3119777 C47.4102719,25.3119777 50.0254777,27.9271835 50.0254777,31.1532033 C50.0254777,34.3792232 47.4102719,36.994429 44.1842521,36.994429 L40.2313563,36.994429 Z" id="形状结合"></path>
                                                                    <g id="矩形" stroke-width="1" fill-rule="evenodd" transform="translate(23.992897, 24.664534)">
                                                                        <mask id="mask-15" fill="white">
                                                                            <use xlink:href="#path-14"></use>
                                                                        </mask>
                                                                        <use id="蒙版" fill="url(#linearGradient-13)" xlink:href="#path-14"></use>
                                                                        <rect fill="#EC606E" mask="url(#mask-15)" x="-2.70142211" y="11.0334262" width="25.244768" height="29.9478711" rx="12.622384"></rect>
                                                                    </g>
                                                                    <g id="编组-39" stroke-width="1" fill-rule="evenodd" transform="translate(30.204864, 20.336332)">
                                                                        <path d="M4.45745754,3.89573141 C5.33939811,3.89573141 9.05022191,1.74145464 9.05022191,0.67380074 C9.05022191,-0.393853164 5.4872617,-0.665862612 4.45745754,-0.646496457 C3.42765338,-0.627130302 -0.0453194925,-0.393853164 -0.0453194925,0.67380074 C-0.0453194925,1.74145464 3.57551697,3.89573141 4.45745754,3.89573141 Z" id="椭圆形" fill="#4C160E"></path>
                                                                    </g>
                                                                </g>
                                                            </g>
                                                        </g>
                                                    </g>
                                                </g>
                                                <g id="编组-36复制" transform="translate(49.375796, 116.175487)">
                                                    <mask id="mask-17" fill="white">
                                                        <use xlink:href="#path-16"></use>
                                                    </mask>
                                                    <use id="形状结合" fill="#FFFFFF" xlink:href="#path-16"></use>
                                                    <path d="M-9.0955414,-1.59526721 C0.108280255,-0.449928851 9.31210191,0.122740328 18.5159236,0.122740328 C27.7197452,0.122740328 36.9235669,-0.449928851 46.1273885,-1.59526721 L46.1273885,1.22990074 C36.9235669,2.3752391 27.7197452,2.94790828 18.5159236,2.94790828 C9.31210191,2.94790828 0.108280255,2.3752391 -9.0955414,1.22990074 L-9.0955414,-1.59526721 Z" id="矩形" mask="url(#mask-17)"></path>
                                                </g>
                                                <g id="编组-28" transform="translate(20.140127, 36.994429)">
                                                    <g id="形状结合-+-路径-12蒙版" transform="translate(0.000000, 0.499929)">
                                                        <mask id="mask-19" fill="white">
                                                            <use xlink:href="#path-18"></use>
                                                        </mask>
                                                        <g id="蒙版" opacity="0.699999988">
                                                            <use fill="#4EA4FF" fill-rule="evenodd" xlink:href="#path-18"></use>
                                                            <use fill="black" fill-opacity="1" filter="url(#filter-20)" xlink:href="#path-18"></use>
                                                        </g>
                                                        <path d="M74.7108119,-14.4298422 L83.1566718,-14.4298422 L83.2180001,23.5367754 C81.7287982,23.668079 80.5059666,23.7940616 79.5495054,23.9147232 C78.5930442,24.0353849 76.9853837,24.3023068 74.726524,24.7154888 L74.7108119,-14.4298422 Z M85.7553979,-14.4298422 L88.354124,-14.4298422 L88.3796812,23.3960016 L85.780955,23.3960016 L85.7553979,-14.4298422 Z" id="形状结合" fill="#F1F6FF" opacity="0.300000012" mask="url(#mask-19)" transform="translate(81.545247, 5.142823) rotate(21.000000) translate(-81.545247, -5.142823) "></path>
                                                        <path d="M0,43.059141 C0.253097943,14.5020379 16.1950409,0.22348639 47.8258287,0.22348639 C95.2720106,0.22348639 44.9726101,19.1407335 23.9688416,21.558258 C8.76703128,23.3079797 0.777417401,30.4749407 0,43.059141 Z" id="路径-12" fill="#4B9AEE" opacity="0.483533298" mask="url(#mask-19)"></path>
                                                    </g>
                                                </g>
                                            </g>
                                        </g>
                                    </g>
                                </g>
                            </g>
                            <path d="M98.2067454,68.0945039 C99.0398369,66.6459494 100.176425,65.549952 101.616511,64.8065117 C103.056596,64.0630714 104.735294,64.0034915 106.652605,64.6277719" id="直线-3复制-3" stroke="#4C160E" stroke-width="1.3" opacity="0.400000006" stroke-linecap="round"></path>
                            <path d="M65.5171293,66.8223219 C66.3764618,65.4884323 67.54908,64.4793397 69.034984,63.795044 C70.5208879,63.1107483 72.2532068,63.056364 74.2319407,63.6318913" id="直线-3复制-4" stroke="#4C160E" stroke-width="1.3" opacity="0.400000006" stroke-linecap="round" transform="translate(69.874535, 65.029917) scale(-1, 1) rotate(-17.000000) translate(-69.874535, -65.029917) "></path>
                        </g>
                        <g id="编组-21" transform="translate(57.293163, 134.403779) rotate(27.000000) translate(-57.293163, -134.403779) translate(23.793163, 102.403779)">
                            <g id="矩形复制-39" transform="translate(34.943991, 32.000000) rotate(-311.000000) translate(-34.943991, -32.000000) translate(9.943991, 12.000000)">
                                <mask id="mask-22" fill="white">
                                    <use xlink:href="#path-21"></use>
                                </mask>
                                <use id="蒙版" fill="#F3F5FF" transform="translate(24.756318, 20.099571) rotate(-30.000000) translate(-24.756318, -20.099571) " xlink:href="#path-21"></use>
                                <ellipse id="椭圆形" fill="#EAF2F4" opacity="0.512904576" style="mix-blend-mode: soft-light;" mask="url(#mask-22)" transform="translate(15.871821, 21.343271) rotate(-32.000000) translate(-15.871821, -21.343271) " cx="15.8718213" cy="21.343271" rx="12.9899442" ry="7.79051524"></ellipse>
                                <polygon id="矩形" fill="#4B9AEE" mask="url(#mask-22)" transform="translate(25.089930, 19.908343) rotate(-300.000000) translate(-25.089930, -19.908343) " points="14.0899298 17.777282 36.0830941 17.8942108 36.0899298 22.0394032 14.0967655 21.9224744"></polygon>
                                <polygon id="矩形复制-5" fill="#4B9AEE" mask="url(#mask-22)" transform="translate(10.139317, 28.856847) scale(1, -1) rotate(300.000000) translate(-10.139317, -28.856847) " points="1.69715728 22.6827359 18.5692428 23.0502516 18.5814769 35.0309574 1.7093914 34.6634418"></polygon>
                            </g>
                            <path d="M11.7776272,16.5020731 L10.3592585,13.6121722 C9.4096395,11.6773405 10.2083122,9.33903125 12.1431439,8.38941226 C12.1489166,8.386579 12.1546963,8.38376001 12.160483,8.38095531 C14.1124124,7.43488924 16.4619202,8.2438771 17.4176238,10.191106 L21.6119181,18.7369056 C22.2692127,20.0761316 22.08891,21.6086615 21.2740015,22.7401886 C21.4182911,23.1003071 21.542877,23.4722414 21.6462104,23.8549603 L21.7387814,24.1978182 C23.0113548,28.911085 20.2221218,33.7635673 15.508855,35.0361408 C15.4342977,35.0562711 15.3594797,35.0754235 15.2844205,35.0935931 L8.29427596,36.7856979 C4.27519146,37.7585979 0.228388406,35.2891775 -0.744511645,31.270093 C-0.952755574,30.40983 -1.0068172,29.5194575 -0.904186231,28.6403187 L-0.555741443,25.6555343 C-0.0278247183,21.13339 3.50232788,17.5465596 8.01549076,16.9466881 L10.7300524,16.5858794 C11.0810122,16.5392312 11.4305715,16.5115407 11.7776272,16.5020731 Z" id="形状结合" fill="#4B9AEE"></path>
                        </g>
                        <g id="编组-21复制" transform="translate(138.431941, 138.525634) scale(-1, 1) rotate(25.000000) translate(-138.431941, -138.525634) translate(105.431941, 106.525634)">
                            <g id="矩形复制-39" transform="translate(33.943991, 32.000000) rotate(-311.000000) translate(-33.943991, -32.000000) translate(8.943991, 12.000000)">
                                <mask id="mask-24" fill="white">
                                    <use xlink:href="#path-23"></use>
                                </mask>
                                <use id="蒙版" fill="#F3F5FF" transform="translate(24.756318, 20.099571) rotate(-30.000000) translate(-24.756318, -20.099571) " xlink:href="#path-23"></use>
                                <ellipse id="椭圆形" fill="#EAF2F4" opacity="0.512904576" style="mix-blend-mode: soft-light;" mask="url(#mask-24)" transform="translate(15.871821, 21.343271) rotate(-32.000000) translate(-15.871821, -21.343271) " cx="15.8718213" cy="21.343271" rx="12.9899442" ry="7.79051524"></ellipse>
                                <polygon id="矩形" fill="#4B9AEE" mask="url(#mask-24)" transform="translate(25.089930, 19.908343) rotate(-300.000000) translate(-25.089930, -19.908343) " points="14.0899298 17.777282 36.0830941 17.8942108 36.0899298 22.0394032 14.0967655 21.9224744"></polygon>
                                <polygon id="矩形复制-5" fill="#4B9AEE" mask="url(#mask-24)" transform="translate(10.139317, 28.856847) scale(1, -1) rotate(300.000000) translate(-10.139317, -28.856847) " points="1.69715728 22.6827359 18.5692428 23.0502516 18.5814769 35.0309574 1.7093914 34.6634418"></polygon>
                            </g>
                            <path d="M11.9444744,16.4622826 L10.529432,13.579159 C9.579813,11.6443273 10.3784857,9.30601807 12.3133174,8.35639909 C12.3190901,8.35356582 12.3248698,8.35074683 12.3306565,8.34794214 C14.2825859,7.40187606 16.6320937,8.21086392 17.5877973,10.1580928 L21.7820916,18.7038924 C22.4379514,20.0401951 22.2598667,21.5689587 21.4495024,22.6997599 C21.5837038,23.0403804 21.7001763,23.3915459 21.7976002,23.7523775 L21.9089549,24.164805 C23.1815283,28.8780718 20.3922953,33.7305541 15.6790285,35.0031276 C15.6044712,35.0232579 15.5296532,35.0424104 15.454594,35.06058 L8.46444946,36.7526847 C4.44536496,37.7255848 0.398561909,35.2561644 -0.574338142,31.2370799 C-0.782582072,30.3768168 -0.836643695,29.4864443 -0.734012729,28.6073056 L-0.378149719,25.5589765 C0.145404057,21.0742053 3.64638184,17.5170182 8.12224586,16.9221042 L10.9716584,16.5433717 C11.2974463,16.5000693 11.6220174,16.4732388 11.9444744,16.4622826 Z" id="形状结合" fill="#4B9AEE"></path>
                        </g>
                        <g id="编组-36复制" transform="translate(20.000000, 135.000000)">
                            <g id="椭圆形" transform="translate(0.000000, 0.319328)">
                                <g id="矩形-+-椭圆形-Mask" transform="translate(0.000000, 0.773109)">
                                    <mask id="mask-26" fill="white">
                                        <use xlink:href="#path-25"></use>
                                    </mask>
                                    <use id="Mask" fill="#53DC63" xlink:href="#path-25"></use>
                                    <rect id="矩形" fill="#39C74A" opacity="0.5" mask="url(#mask-26)" x="65.195122" y="21.9956052" width="76.7400915" height="23.4020194" rx="8.4375"></rect>
                                    <ellipse id="椭圆形" fill="#39C74A" fill-rule="nonzero" opacity="0.600000024" mask="url(#mask-26)" cx="32.597561" cy="36.0368168" rx="14.9405488" ry="14.7098407"></ellipse>
                                    <path d="M157.554878,27.6789528 L157.554878,24.1607645 C157.554878,14.8409593 149.999683,7.28576449 140.679878,7.28576449 L61.9965572,7.28576449 C59.3131132,7.28576449 56.7394181,8.35101916 54.840924,10.2474875 L53.4079205,11.6789619 C51.5094263,13.5754302 48.9357313,14.6406849 46.2522872,14.6406849 L38.034914,14.6406849 C35.3552965,14.6406849 32.7849498,13.5784577 30.8870984,11.6867627 L29.435313,10.2396867 C27.5374615,8.34799167 24.9671149,7.28576449 22.2874973,7.28576449 L13.2358887,7.28576449 C5.92590922,7.28576449 -2.67157114e-15,13.2116737 -1.77635684e-15,20.5216532 L-1.77635684e-15,19.1843949 C-2.67157114e-15,11.8744155 5.92590922,5.94850624 13.2358887,5.94850624 L22.2874973,5.94850624 C24.9671149,5.94850624 27.5374615,7.01073342 29.435313,8.90242843 L30.8870984,10.3495044 C32.7849498,12.2411994 35.3552965,13.3034266 38.034914,13.3034266 L46.2522872,13.3034266 C48.9357313,13.3034266 51.5094263,12.2381719 53.4079205,10.3417036 L54.840924,8.91022922 C56.7394181,7.01376091 59.3131132,5.94850624 61.9965572,5.94850624 L140.679878,5.94850624 C149.999683,5.94850624 157.554878,13.5037011 157.554878,22.8235062 L157.554878,27.6789528 Z" id="形状结合" fill="#C4F752" opacity="0.764718192" mask="url(#mask-26)"></path>
                                    <path d="M157.554878,22.8235062 C157.554878,13.5037011 149.999683,5.94850624 140.679878,5.94850624 L61.9965572,5.94850624 C59.3131132,5.94850624 56.7394181,7.01376091 54.840924,8.91022922 L53.4079205,10.3417036 C51.5094263,12.2381719 48.9357313,13.3034266 46.2522872,13.3034266 L38.034914,13.3034266 C35.3552965,13.3034266 32.7849498,12.2411994 30.8870984,10.3495044 L29.435313,8.90242843 C27.5374615,7.01073342 24.9671149,5.94850624 22.2874973,5.94850624 L13.2358887,5.94850624 C5.92590922,5.94850624 -2.67157114e-15,11.8744155 -1.77635684e-15,19.1843949 L-5.86197757e-14,10.8531062 C-5.92961295e-14,5.33025866 4.4771525,0.853106161 10,0.853106161 L22.2874973,0.853106161 C24.9671149,0.853106161 27.5374615,1.91533334 29.435313,3.80702835 L30.8870984,5.25410434 C32.7849498,7.14579935 35.3552965,8.20802653 38.034914,8.20802653 L46.2522872,8.20802653 C48.9357313,8.20802653 51.5094263,7.14277186 53.4079205,5.24630355 L54.840924,3.81482914 C56.7394181,1.91836083 59.3131132,0.853106161 61.9965572,0.853106161 L147.554878,0.853106161 C153.077726,0.853106161 157.554878,5.33025866 157.554878,10.8531062 L157.554878,22.8235062 Z" id="形状结合" fill="#C1F754" opacity="0.5" mask="url(#mask-26)"></path>
                                </g>
                                <rect id="矩形备份" fill="#D0FF99" x="10.8658537" y="6.72161548" width="12.9032012" height="1.33725825" rx="0.668629124"></rect>
                                <rect id="矩形备份复制" fill="#D0FF99" x="79" y="6.72161548" width="12.9032012" height="1.33725825" rx="0.668629124"></rect>
                            </g>
                        </g>
                    </g>
                </g>
            </g>
        </g>
    </g>
</svg>