<svg height="881" viewBox="0 0 1360 881" width="1360" xmlns="http://www.w3.org/2000/svg"><g fill="none" fill-rule="evenodd"><path d="m6 0h1348c3.31371 0 6 2.6862915 6 6v869c0 3.313708-2.68629 6-6 6h-1348c-3.3137085 0-6-2.686292-6-6v-869c0-3.3137085 2.6862915-6 6-6z" fill="#f2f4fa" fill-opacity=".45"/><path d="m.24598931 1.5h1257.75401069" stroke="#e9e9e9" stroke-dasharray="3" stroke-linecap="square" transform="translate(44 594)"/><g fill="#eef0fc"><path d="m36 51h53v140h-53z"/><path d="m142 51h53v140h-53z"/><path d="m248 51h53v140h-53z"/><path d="m354 51h53v140h-53z"/></g><g fill="#eef0fc"><path d="m460 51h53v140h-53z"/><path d="m566 51h53v140h-53z"/><path d="m672 51h53v140h-53z"/><path d="m778 51h53v140h-53z"/></g><g fill="#eef0fc"><path d="m884 51h53v140h-53z"/><path d="m990 51h53v140h-53z"/></g><path d="m1096 51h53v140h-53z" fill="#eef0fc"/><path d="m1202 51h53v140h-53z" fill="#eef0fc"/><path d="m1255 51h53v140h-53z" fill="#f9fafd"/><path d="m36 51h1272v140h-1272z" fill="#7284fb" fill-opacity=".7"/><text fill="#fff" font-family="SourceHanSansCN-Medium, Source Han Sans CN" font-size="26" font-weight="400"><tspan x="639" y="131">100%</tspan></text><g fill="#eef0fc"><path d="m36 211h53v140h-53z"/><path d="m142 211h53v140h-53z"/><path d="m248 211h53v140h-53z"/><path d="m354 211h53v140h-53z"/></g><g fill="#eef0fc"><path d="m460 211h53v140h-53z"/><path d="m566 211h53v140h-53z"/><path d="m672 211h53v140h-53z"/><path d="m778 211h53v140h-53z"/></g><g fill="#eef0fc"><path d="m884 211h53v140h-53z"/><path d="m990 211h53v140h-53z"/></g><path d="m1096 211h53v140h-53z" fill="#eef0fc"/><path d="m1202 211h53v140h-53z" fill="#eef0fc"/><path d="m1255 211h53v140h-53z" fill="#f9fafd"/><g fill="#eef0fc"><path d="m36 371h53v140h-53z"/><path d="m142 371h53v140h-53z"/><path d="m248 371h53v140h-53z"/><path d="m354 371h53v140h-53z"/></g><g fill="#eef0fc"><path d="m460 371h53v140h-53z"/><path d="m566 371h53v140h-53z"/><path d="m672 371h53v140h-53z"/><path d="m778 371h53v140h-53z"/></g><g fill="#eef0fc"><path d="m884 371h53v140h-53z"/><path d="m990 371h53v140h-53z"/></g><path d="m1096 371h53v140h-53z" fill="#eef0fc"/><path d="m1202 371h53v140h-53z" fill="#eef0fc"/><path d="m1255 371h53v140h-53z" fill="#f9fafd"/><g fill="#eef0fc"><path d="m36 531h53v140h-53z"/><path d="m142 531h53v140h-53z"/><path d="m248 531h53v140h-53z"/><path d="m354 531h53v140h-53z"/></g><g fill="#eef0fc"><path d="m460 531h53v140h-53z"/><path d="m566 531h53v140h-53z"/><path d="m672 531h53v140h-53z"/><path d="m778 531h53v140h-53z"/></g><g fill="#eef0fc"><path d="m884 531h53v140h-53z"/><path d="m990 531h53v140h-53z"/></g><path d="m1096 531h53v140h-53z" fill="#eef0fc"/><path d="m1202 531h53v140h-53z" fill="#eef0fc"/><path d="m1255 531h53v140h-53z" fill="#f9fafd"/><g fill="#eef0fc"><path d="m36 691h53v140h-53z"/><path d="m142 691h53v140h-53z"/><path d="m248 691h53v140h-53z"/><path d="m354 691h53v140h-53z"/></g><g fill="#eef0fc"><path d="m460 691h53v140h-53z"/><path d="m566 691h53v140h-53z"/><path d="m672 691h53v140h-53z"/><path d="m778 691h53v140h-53z"/></g><g fill="#eef0fc"><path d="m884 691h53v140h-53z"/><path d="m990 691h53v140h-53z"/></g><path d="m1096 691h53v140h-53z" fill="#eef0fc"/><path d="m1202 691h53v140h-53z" fill="#eef0fc"/><path d="m1255 691h53v140h-53z" fill="#f9fafd"/><path d="m36 211h318v140h-318z" fill="#7284fb" fill-opacity=".5"/><path d="m36 371h424v140h-424z" fill="#7284fb" fill-opacity=".5"/><path d="m38 531h636v140h-636z" fill="#7284fb" fill-opacity=".5"/><path d="m38 691h848v140h-848z" fill="#7284fb" fill-opacity=".6"/><text fill="#fff" font-family="SourceHanSansCN-Medium, Source Han Sans CN" font-size="26" font-weight="400"><tspan x="329" y="611">50%</tspan></text><path d="m884 371h424v140h-424z" fill="#7284fb" fill-opacity=".5"/><path d="m673 211h318v140h-318z" fill="#7284fb" fill-opacity=".5"/><g font-family="SourceHanSansCN-Medium, Source Han Sans CN" font-size="26" font-weight="400"><text fill="#fff"><tspan x="168" y="291">25%</tspan></text><text fill="#fff"><tspan x="202" y="451">33.33%</tspan></text><text fill="#fff"><tspan x="416" y="771">66.66%</tspan></text><text fill="#a8b4ce"><tspan x="963" y="611">50%</tspan></text><text fill="#a8b4ce"><tspan x="626" y="451">33.33%</tspan></text><text fill="#a8b4ce"><tspan x="1051" y="770">33.33%</tspan></text><text fill="#fff"><tspan x="1050" y="451">33.33%</tspan></text><text fill="#fff"><tspan x="805" y="291">25%</tspan></text><text fill="#a8b4ce"><tspan x="486" y="292">25%</tspan></text><text fill="#a8b4ce"><tspan x="1123" y="292">25%</tspan></text></g></g></svg>