<svg height="198" viewBox="0 0 200 198" width="200" xmlns="http://www.w3.org/2000/svg" xmlns:xlink="http://www.w3.org/1999/xlink"><linearGradient id="a" x1="50%" x2="50%" y1="100%" y2="0%"><stop offset="0" stop-color="#f7f9ff" stop-opacity="0"/><stop offset="1" stop-color="#edf1ff"/></linearGradient><linearGradient id="b" x1="50%" x2="50%" y1="100%" y2="0%"><stop offset="0" stop-color="#f7f9ff"/><stop offset="1" stop-color="#edf1ff"/></linearGradient><linearGradient id="c" x1="50%" x2="50%" y1="0%" y2="100%"><stop offset="0" stop-color="#d7d7dd"/><stop offset="1" stop-color="#eff3fa"/></linearGradient><linearGradient id="d"><stop offset="0" stop-color="#f4f4f6"/><stop offset="1" stop-color="#d4d4da"/></linearGradient><linearGradient id="e" x1="50%" x2="76.14956%" xlink:href="#d" y1="41.219641%" y2="140.939855%"/><linearGradient id="f" x1="-127.255679%" x2="49.610504%" xlink:href="#d" y1="-16.420821%" y2="91.401889%"/><g fill="none" fill-rule="evenodd"><g><ellipse cx="68.065268" cy="68.261476" fill="url(#a)" rx="68.065268" ry="68.261476" transform="translate(31.701632 36.000915)"/><g fill="url(#b)"><ellipse cx="113.286713" cy="7.48071" rx="7.459207" ry="7.48071"/><ellipse cx="196.503497" cy="66.157527" rx="3.496504" ry="3.506583"/><ellipse cx="168.531469" cy="141.432168" rx="3.496504" ry="3.506583"/><ellipse cx="17.016317" cy="78.31368" rx="3.496504" ry="3.506583"/><ellipse cx="6.759907" cy="123.197938" rx="6.759907" ry="6.779393"/></g></g><g transform="translate(68.804665 44.973451)"><path d="m27.2678986 26.009164c-15.1037419-.8030965-26.78183104-6.2967928-26.78183104-12.9513285 0-7.2544962 13.72190474-13.0578355 30.65509104-13.0578355 16.9331862 0 30.6550911 5.8033393 30.6550911 13.0578355 0 6.6738616-11.7655526 12.1868836-26.9473257 12.9607768l-2.063109 3.869036c-.3390517.637311-1.0017455 1.034968-1.7226875 1.0337183-.7207882.0010907-1.3832793-.3965436-1.7222588-1.0337183zm1.5151761 11.5688858c0 1.3045236 1.0557501 2.3620489 2.3580839 2.3620489s2.358084-1.0575253 2.358084-2.3620489-1.0557502-2.3620489-2.358084-2.3620489-2.3580839 1.0575253-2.3580839 2.3620489z" fill="url(#c)"/><path d="m20.8680588 15.4606833c-.7845375.0016498-1.4933408-.4687453-1.7977175-1.1930493-.3012042-.722454-.1344553-1.5557309.421454-2.1060887.5589629-.5531059 1.393858-.7179647 2.1205605-.4187269.7249294.2958691 1.1995355 1.0011707 1.2013366 1.7852795 0 1.0672167-.8712048 1.9325854-1.9456336 1.9325854zm10.7018423 0c-.7845374.0016497-1.4933407-.4687453-1.7977174-1.1930493-.3010962-.7225394-.1341752-1.5558287.4218827-2.1060887.5589629-.5531059 1.393858-.7179647 2.1205605-.4187269.7249293.2958691 1.1995355 1.0011707 1.2013366 1.7852795 0 1.0672167-.8712048 1.9325854-1.9460624 1.9325854zm10.7022711 0c-.7845375.0016498-1.4933408-.4687453-1.7977175-1.1930493-.3012042-.722454-.1344553-1.5557309.421454-2.1060887.5589629-.5531059 1.393858-.7179647 2.1205605-.4187269.7249294.2958691 1.1995355 1.0011707 1.2013366 1.7852795 0 1.0672167-.8712048 1.9325854-1.9456336 1.9325854z" fill="#9c9cac" fill-rule="nonzero" opacity=".905"/></g><g transform="translate(43.148688 87.610619)"><path d="m12.3910426 6.50538928v49.40777172c-.0020123 1.6405986 1.1278987 3.063186 2.7196514 3.4241119l41.9489685 9.5475575-.4998957-57.3336041c-29.77908-4.36260657-44.1687244-5.56773918-44.1687242-5.04583702z" fill="url(#e)"/><path d="m101.21485 6.50538928v49.41035272c-.002111 1.6328305-1.125293 3.0479193-2.7083558 3.4122389l-41.4837987 9.5568495-.4764653-56.6194169c29.7790799-4.36209029 44.6686198-6.28192638 44.6686198-5.76002422z" fill="url(#f)"/><path d="m.58209699 24.9397382 11.85618131-19.5504245 44.1079519 6.0811153-10.366714 23.3436364z" fill="#e9e9ec" opacity=".905"/><path d="m56.5462302 11.4621694 10.8688508 23.351896 45.095282-10.7297099-10.915059-18.6950418z" fill="#d7d7dd" opacity=".905"/><path d="m50.8984736 11.5839983v-10.84069806l-37.4805663 4.39822596z" fill="#d4d4da" opacity=".905"/><path d="m55.2380043 11.5839983 46.4902787-6.85648347-52.3701066-4.50043838v10.88819065z" fill="#eaeaed" opacity=".905"/></g></g></svg>