<svg height="200" viewBox="0 0 200 200" width="200" xmlns="http://www.w3.org/2000/svg" xmlns:xlink="http://www.w3.org/1999/xlink"><mask id="a" fill="#fff"><rect fill="#fff" fill-rule="evenodd" height="150" rx="20" width="150"/></mask><g fill="none" fill-rule="evenodd" transform="translate(25 25)"><g mask="url(#a)"><g transform="translate(3 10)"><path d="m25.9915032 0c-2.2317178 5.14508381-4.1273895 8.698332-5.6870152 10.6597446-1.5596258 1.9614126-4.9944551 3.9272668-10.304488 5.8975628 5.2526261 1.4316012 8.6874554 2.9925152 10.304488 4.6827422 1.6170325 1.6902269 3.3464384 4.9435437 5.1882176 9.7599504 1.8673228-4.913197 3.5054457-8.1665138 4.9143688-9.7599504s4.606565-3.1543507 9.5929256-4.6827422c-4.9219348-1.9268884-8.1195767-3.8927427-9.5929256-5.8975628-1.473349-2.00482017-2.945206-5.55806837-4.4155712-10.6597446z" fill="#ff9f11"/><g fill="#ffe90e"><path d="m10.127952 88c-1.41342122 3.3194089-2.61401332 5.6118271-3.60177628 6.8772546-.98776297 1.2654274-3.16315487 2.5337205-6.52617572 3.8048792 3.32666318.9236137 5.50205509 1.9306552 6.52617572 3.0211242s2.11941102 3.189383 3.28587117 6.296742c1.18263771-3.169805 2.22011561-5.268719 3.11243351-6.296742.892318-1.028024 2.9174912-2.0350652 6.0755196-3.0211242-3.1172254-1.2431538-5.1423986-2.5114469-6.0755196-3.8048792-.9331209-1.2934324-1.8652971-3.5858506-2.7965284-6.8772546z"/><path d="m134.386529 58.8c-1.413421 3.3194089-2.614013 5.6118271-3.601776 6.8772546-.987763 1.2654274-3.163155 2.5337205-6.526176 3.8048792 3.326664.9236137 5.502055 1.930655 6.526176 3.021124s2.119411 3.1893831 3.285871 6.2967422c1.182638-3.1698045 2.220116-5.2687186 3.112434-6.2967422s2.917491-2.035065 6.075519-3.021124c-3.117225-1.2431538-5.142398-2.5114469-6.075519-3.8048792-.933121-1.2934324-1.865297-3.5858506-2.796529-6.8772546z"/></g></g></g><g mask="url(#a)"><g transform="translate(-15 19)"><path d="m118.825 3.825v-2.55c0-.70416306.570837-1.275 1.275-1.275s1.275.57083694 1.275 1.275v2.55h2.55c.704163 0 1.275.57083694 1.275 1.275s-.570837 1.275-1.275 1.275h-2.55v2.55c0 .70416306-.570837 1.275-1.275 1.275s-1.275-.57083694-1.275-1.275v-2.55h-2.55c-.704163 0-1.275-.57083694-1.275-1.275s.570837-1.275 1.275-1.275z" fill="#ffe90e"/><path d="m4.5 122.5v-1.8c0-.497056.40294373-.9.9-.9s.9.402944.9.9v1.8h1.8c.49705627 0 .9.402944.9.9s-.40294373.9-.9.9h-1.8v1.8c0 .497056-.40294373.9-.9.9s-.9-.402944-.9-.9v-1.8h-1.8c-.49705627 0-.9-.402944-.9-.9s.40294373-.9.9-.9z" fill="#7284fb" transform="matrix(.70710678 .70710678 -.70710678 .70710678 88.8386 32.324647)"/><circle cx="60.15" cy="121.15" fill="#7284fb" r="3.15"/><circle cx="129.15" cy="102.15" fill="#ff9f11" r="4.15"/><circle cx="78.85" cy="39.85" fill="#7284fb" r="2.85"/></g></g><g mask="url(#a)"><g transform="matrix(.70710678 .70710678 -.70710678 .70710678 89.142136 -23.781746)"><rect fill="#7bdc7b" height="34" rx="17" width="90" y="96"/><rect fill="#7bdc7b" height="34" rx="17" transform="matrix(0 -1 1 0 8 138)" width="130" x="8" y="48"/><g fill="#5b5"><circle cx="73" cy="22" r="9"/><circle cx="73" cy="50" r="9"/><circle cx="73" cy="78" r="9"/><circle cx="22" cy="113" r="9"/></g></g></g></g></svg>