<svg height="200" viewBox="0 0 200 200" width="200" xmlns="http://www.w3.org/2000/svg" xmlns:xlink="http://www.w3.org/1999/xlink"><linearGradient id="a"><stop offset="0" stop-color="#d2d2d2"/><stop offset="1" stop-color="#d2d2d2" stop-opacity="0"/></linearGradient><linearGradient id="b" x1="-47.019012%" x2="68.868847%" xlink:href="#a" y1="-185.963888%" y2="100%"/><linearGradient id="c" x1="118.999979%" x2="54.501867%" xlink:href="#a" y1="-110.864112%" y2="55.587177%"/><linearGradient id="d" x1="50%" x2="50%" y1="100%" y2="0%"><stop offset="0" stop-color="#f7f9ff" stop-opacity="0"/><stop offset="1" stop-color="#edf1ff"/></linearGradient><linearGradient id="e" x1="100.080959%" x2="38.826306%" xlink:href="#a" y1="-97.780461%" y2="104.736078%"/><linearGradient id="f" x1="50%" x2="50%" xlink:href="#a" y1="-230.116303%" y2="100%"/><linearGradient id="g" x1="50%" x2="50%" xlink:href="#a" y1="-169.203289%" y2="100%"/><linearGradient id="h" x1="50.024096%" x2="50.024096%" y1="7.138186%" y2="84.639821%"><stop offset="0" stop-color="#d4d4da"/><stop offset="1" stop-color="#e4e4e4"/></linearGradient><linearGradient id="i" x1="50.076176%" x2="49.610504%" y1="1.218912%" y2="91.401889%"><stop offset="0" stop-color="#f4f4f6"/><stop offset="1" stop-color="#d4d4da"/></linearGradient><linearGradient id="j" x1="49.999996%" x2="49.999996%" y1="91.269594%" y2="6.716495%"><stop offset="0" stop-color="#e9e9ec"/><stop offset="1" stop-color="#f4f4f6"/></linearGradient><linearGradient id="k"><stop offset="0" stop-color="#7284fb"/><stop offset="1" stop-color="#c4d0ff"/></linearGradient><linearGradient id="l" x1="110.880563%" x2="0%" xlink:href="#k" y1="60.091176%" y2="0%"/><linearGradient id="m" x1="130.853945%" x2="130.853945%" y1="-35.095306%" y2="116.960465%"><stop offset="0" stop-color="#fff"/><stop offset="1" stop-color="#478ffc"/></linearGradient><linearGradient id="n" x1="0%" x2="0%" xlink:href="#k" y1="127.328319%" y2="0%"/><g fill="none" fill-rule="evenodd"><g transform="translate(4 42)"><path d="m39.4928622 95.1592043c-4.2660811-1.9333334-8.8915511-7.1199999-7.5804466-12.0000004.6557709-.1681258 1.3457256.0997531 1.7170809.6666667 0 0 7.4007521 11.5800003 5.3242821.926667-.9783369-5.0066667-2.662141-9.8466667-2.7952481-15.0200001-.2196266-9.4000001 8.3923996-12.0066667 10.8681907-1.62.3261123 1.3733334 1.5773186 12.5399999 4.4258095 11.2600001.3668944-.1932968.6646274-.4961963.8518851-.8666666 1.4442115-2.3733334 1.8768095-5.86 4.5256397-6.6666666 2.3227181-.7333335 4.6121596 1.2866666 5.8633655 3.373333 2.5356895 4.2400001 5.9299192 14.7799998.7387445 18.3533332-5.1911752 3.5733333-18.2889091 4.1400001-23.8927159 1.6399999z" fill="url(#b)"/><path d="m147.269642 106.432537c-1.87681-4.3-1.830223-11.2533327 2.429203-13.9999995.601989.3241144.927117.9996987.805298 1.6733331 0 0-2.269475 13.5666664 3.327676 4.2666669 2.662141-4.38 4.658747-9.0933333 7.986424-13.02 6.116269-7.1599998 14.269075-3.2733336 9.151109 6.093333-.665535 1.2400004-7.227713 10.3600005-4.259425 11.3333335.401855.098994.824246.073421 1.211274-.073333 2.662141-.786667 5.324281-3.08 7.840005-1.92 2.209577 1.02 2.555655 4.046666 2.089781 6.44-.958371 4.846666-5.655989 10.266674-11.89871 9.426674-6.375827-.866667-16.206844-4.553341-18.662669-10.173341z" fill="url(#c)"/><path d="m199.740442 116.652538c-25.097335-17.2466673-60.563709-28.0000005-99.8702215-28.0000005-39.3065121 0-74.7728859 10.7533332-99.8702205 28.0000005z" fill="url(#d)"/><path d="m158.204386 64.6525377c-1.590629 1.9999996-2.608898 4.8333332-1.657183 7.3666665.65888 1.7466667 2.642175 1.7599999 2.502413 4.1866664-.136848 1.2116807-.551392 2.3752894-1.211275 3.4000004-1.124459 1.970142-2.502859 3.7834873-4.099697 5.3933332 1.331062 1.0400373 2.008196 2.7116175 1.776979 4.3866668-.261051 1.6626016-1.047102 3.1976559-2.242853 4.3799999-.352081.4312705-.811091.7623202-1.331071.9600001-.503614.1165191-1.027117.1165191-1.530731 0-2.476164-.4209689-4.880397-1.1908236-7.141193-2.2866667-1.410935-.6733336-2.848491-1.5933337-3.327676-3.0600002-.549067-1.6833333.323928-2.2182293 1.276865-2.7456381l.245958-.1361729c.492059-.2748897.974835-.5736652 1.265769-1.0515225.698812-1.1466663.718778-2.68.965027-3.9599998.359388-1.8866666-.17304-5.3266664 2.182955-6.0666668.911783-.2866665 1.903431-.2199997 2.815214-.5133331 1.980707-.6314814 2.800691-2.4978602 3.594579-4.3849863l.144308-.3430723c.457664-1.0854076.929473-2.1532997 1.631982-2.9719413.998303-1.1666668 3.474095-1.7400004 4.13963-2.5533333zm-5.750225 11.1933333s-7.167814 8.3733329-6.934877 16.1133332h2.316063s.838574-9.3333335 4.618814-16.1133332z" fill="url(#e)" fill-rule="nonzero"/><path d="m55.6810143 11.3360004c.0370237-2.58425876-1.8057035-4.81258021-4.3473942-5.25709557-2.5416906-.44451537-5.0291981 1.02649296-5.8685717 3.47042885-1.6013955-.03144414-3.0921747.81537082-3.8873154 2.20813172-.7951406 1.3927609-.7677755 3.1092484.0713565 4.4758662.8391319 1.3666179 2.3561447 2.165318 3.9557213 2.0826687h9.6436057c1.8310151-.024465 3.3338329-1.4583054 3.4472976-3.2890716.1134652-1.8307663-1.2007655-3.4397923-3.0146998-3.6909283z" fill="url(#f)"/><path d="m96.1198952 6.59253746v-.03333334c-.0039219-3.19416791-2.3017903-5.92219075-5.4444033-6.46357981-3.1426124-.54138906-6.2182895 1.26091405-7.2872862 4.27024647-3.0232221.04786468-5.4352911 2.54163863-5.3875078 5.57.0477832 3.02836132 2.537325 5.44453132 5.5605471 5.39666672h11.9796345c2.3080733.0041201 4.2206022-1.7920218 4.3651246-4.0994858.1445219-2.30746406-1.5288971-4.32896761-3.8193855-4.61384758z" fill="url(#g)"/></g><g transform="translate(67.072776 80.16)"><path d="m52.2988991 6.48h12.2599295c.1687552 0 .1287725.12220967.2466064.23215864.1406502.13123792.1325531.27688759.1325531.4920366l.830206 17.09580476h-13.477089v-17.81500516z" fill="url(#h)"/><path d="m7.00808625 9.83627577v61.44372423h38.54517245c5.0429362-.0009229 9.1305893-4.404503 9.1305893-9.8362755v-48.0234821c0-3.4285779 1.9134242-6.41605214 5.0934631-6.51630298 1.5717013-.05198126 2.5568145.58414192 3.6856668 1.76319898s1.7661326 2.8004371 1.7661326 4.4941227v-3.32498533c0-5.43242511-3.0104313-9.83627577-8.0539736-9.83627577h-41.03491c-5.043542 0-9.13214065 4.40385066-9.13214065 9.83627577z" fill="url(#i)"/><path d="m49.0009582 65.6277422c-3.1804103-.1025848-5.6304582-3.1111803-5.6304582-6.5587044v-3.9890378h-43.3705v7.2112113c0 4.9643712 3.71079606 8.9887887 8.28829499 8.9887887h38.41147901c4.5768933-.0009288 8.2867489-4.0250741 8.2867489-8.9887887v-2.9682342c.0019833 1.7054183-.6336652 3.3388448-1.7617033 4.5270403-1.1280383 1.1881955-2.652073 1.8296264-4.2238614 1.7777248z" fill="url(#j)"/><g fill="#fff"><rect height="3.24" rx="1.078167" width="31.80593" x="14.555256" y="12.42"/><rect height="3.24" rx="1.078167" width="31.80593" x="14.555256" y="22.68"/><rect height="3.24" rx="1.078167" width="31.80593" x="14.555256" y="32.94"/><rect height="3.24" rx="1.078167" width="19.946092" x="14.555256" y="43.2"/></g></g><g transform="translate(108.043127 114.18)"><ellipse cx="13.929653" cy="14.206667" rx="13.929653" ry="14.206667" stroke="url(#l)" stroke-width="3.773585"/><ellipse cx="13.929653" cy="14.206667" fill="url(#m)" opacity=".400321" rx="12.605238" ry="12.626667"/><ellipse cx="13.929653" cy="14.206667" fill="#fff" opacity=".400321" rx="12.605238" ry="12.626667"/><path d="m6.64067353 15.8866667c-1.39892442 0-2.53473115-1.1337344-2.54097635-2.5363715 0-.420833.06239004-4.17989467 2.73949015-6.8641264 1.63915666-1.63783627 3.90788557-2.4738152 6.58498567-2.47950213 1.4096074.00942242 2.5447019 1.16281748 2.5353625 2.57618-.0094553 1.41336247-1.159786 2.55148078-2.5693935 2.54205837-2.3254471 0-3.1365177 1.04070846-3.56190432 1.83687886-.37340302.7432332-.58601094 1.5571715-.62390048 2.3885113-.01861973 1.4063009-1.16097542 2.5364954-2.56366367 2.5363715z" fill="#fff"/><path d="m28.4275008 25.8713959 6.5681174-.0055661-.0114257 13.4811406-6.5681174.0055661z" fill="url(#n)" transform="matrix(.68378336 -.72968508 .72968508 .68378336 -13.768518 33.44685)"/><path d="m24.483948 24.619733 2.75781-.002337-.0042395 5.0021426-2.75781.0023371z" fill="url(#l)" transform="matrix(.68378336 -.72968508 .72968508 .68378336 -11.6112 27.445871)"/></g></g></svg>