<svg height="200" viewBox="0 0 200 200" width="200" xmlns="http://www.w3.org/2000/svg" xmlns:xlink="http://www.w3.org/1999/xlink"><defs><path id="a" d="m4.46786684 16.3419779c2.46374611-8.94285612 7.94119846-14.3901821 16.43235716-16.3419779h12.7227613c9.4264439 2.44897951 15.3030522 7.89630549 17.6298248 16.3419779 1.4393052 5.2243613 3.4933008 20.7555871 3.5035647 20.9220232l-53.83297588-.0015169c.01250385-.1999229 2.05236886-15.5045151 3.54446792-20.9205063z"/><path id="b" d="m44.1783439 87.6183844c26.1930717 0 47.4267516-17.35311 47.4267516-42.2195492 0-24.8664393-14.4989956-46.69688534-47.4267516-46.69688534-32.9277559 0-47.42675154 21.83044604-47.42675154 46.69688534 0 24.8664392 21.23367994 42.2195492 47.42675154 42.2195492z"/><filter id="c" height="112.5%" width="107.3%" x="-3.7%" y="-6.2%"><feOffset dx="0" dy="6" in="SourceAlpha" result="shadowOffsetInner1"/><feComposite in="shadowOffsetInner1" in2="SourceAlpha" k2="-1" k3="1" operator="arithmetic" result="shadowInnerInner1"/><feColorMatrix in="shadowInnerInner1" type="matrix" values="0 0 0 0 0.880632926   0 0 0 0 0.645169577   0 0 0 0 0  0 0 0 0.452387456 0"/></filter><linearGradient id="d" x1="50%" x2="50%" y1="0%" y2="50%"><stop offset="0" stop-color="#bc2406"/><stop offset="1" stop-color="#d83925"/></linearGradient><path id="e" d="m3.05919949 4.04566807c3.89689912-.01894668 6.48454119-1.36750271 7.76292621-4.04566807 1.8992161 2.89800098 4.5832739 4.33206211 8.0521734 4.30218338l-.0000001-.0000113c1.7058401-.01469294 3.1006077 1.35625271 3.1153007 3.06209281.0022764.26429167-.0293781.5277826-.0941878.78401486-2.34698 9.27904845-6.0380754 13.91857265-11.0732862 13.91857265-5.09898952 0-8.68751852-4.7578022-10.765587-14.27340642l.00000224-.00000049c-.3639646-1.66661648.69204338-3.31272768 2.35865985-3.67669229.21158061-.04620611.42743404-.07003219.6439987-.07108513z"/><path id="f" d="m36.3682874 4.32722928c-.3997314 1.56271084-9.3648486 2.81204649-17.8523638 2.81204649s-17.45263247-1.24933565-17.85236383-2.81204649c-.41260427-.46019128-.66355977-1.0683031-.66355977-1.73502872v-2.59220056h37.0318471v2.59220056c0 .66672562-.2509555 1.27483744-.6635597 1.73502872z"/><path id="g" d="m0 43.059141c.25301755-28.5571031 16.189897-42.83565461 47.8106382-42.83565461s47.7348173 14.27855151 48.342228 42.83565461c-2.2830443-14.8361423-18.5046738-22.2542134-48.6648886-22.2542134s-45.9895407 7.4180711-47.4879776 22.2542134z"/><filter id="h" height="102.3%" width="101%" x="-.5%" y="-1.2%"><feOffset dx="0" dy="-1" in="SourceAlpha" result="shadowOffsetInner1"/><feComposite in="shadowOffsetInner1" in2="SourceAlpha" k2="-1" k3="1" operator="arithmetic" result="shadowInnerInner1"/><feColorMatrix in="shadowInnerInner1" type="matrix" values="0 0 0 0 0.219233504   0 0 0 0 0.528402335   0 0 0 0 0.857138813  0 0 0 1 0"/></filter><path id="i" d="m9.24175384 12.4117745 27.97160106-2.0001784c5.3176481-.3802516 9.9367085 3.6222992 10.31696 8.9399473.0170935.2390439.0252789.4786414.0245394.7182945-.0166558 5.3973784-4.4055976 9.7593159-9.8029761 9.7426602-.2025216-.000625-.4049749-.007545-.6070666-.0207502l-27.94493903-1.8259923c-4.0831114-.2668007-7.25472594-3.6629073-7.24209907-7.7547067.01266886-4.1054089 3.18900793-7.5064533 7.28398034-7.7992744z"/><path id="j" d="m9.24175384 12.4117745 27.97160106-2.0001784c5.3176481-.3802516 9.9367085 3.6222992 10.31696 8.9399473.0170935.2390439.0252789.4786414.0245394.7182945-.0166558 5.3973784-4.4055976 9.7593159-9.8029761 9.7426602-.2025216-.000625-.4049749-.007545-.6070666-.0207502l-27.94493903-1.8259923c-4.0831114-.2668007-7.25472594-3.6629073-7.24209907-7.7547067.01266886-4.1054089 3.18900793-7.5064533 7.28398034-7.7992744z"/><path id="k" d="m13.2358887.59947325h8.026705c3.3359669 0 6.535898 1.32241064 8.898612 3.67746018 2.3627139 2.35504954 5.562645 3.67746018 8.8986119 3.67746018h6.1797236c3.3319317 0 6.5275921-1.32268671 8.884881-3.67746018s5.5529494-3.67746018 8.8848811-3.67746018h78.5455747c8.836556 0 16 7.163444 16 15.99999995v10.1236349c0 8.836556-7.163444 16-16 16h-125.554878c-8.836556 0-16-7.163444-16-16v-12.8877462c0-7.30997944 5.92590922-13.23588865 13.2358887-13.23588865z"/><mask id="l" fill="#fff"><use fill="#fff" fill-rule="evenodd" xlink:href="#a"/></mask><mask id="m" fill="#fff"><use fill="#fff" fill-rule="evenodd" xlink:href="#b"/></mask><mask id="n" fill="#fff"><use fill="#fff" fill-rule="evenodd" xlink:href="#e"/></mask><mask id="o" fill="#fff"><use fill="#fff" fill-rule="evenodd" xlink:href="#f"/></mask><mask id="p" fill="#fff"><use fill="#fff" fill-rule="evenodd" xlink:href="#g"/></mask><mask id="q" fill="#fff"><use fill="#fff" fill-rule="evenodd" xlink:href="#i"/></mask><mask id="r" fill="#fff"><use fill="#fff" fill-rule="evenodd" xlink:href="#j"/></mask><mask id="s" fill="#fff"><use fill="#fff" fill-rule="evenodd" xlink:href="#k"/></mask></defs><g fill="none" fill-rule="evenodd" transform="translate(0 9)"><path d="m44.8333333 81h127.6666667c14.819641 0 26.833333 12.0136925 26.833333 26.833333 0 14.819641-12.013692 26.833334-26.833333 26.833334h-127.6666667c-14.8196408 0-26.8333333-12.013693-26.8333333-26.833334 0-14.8196405 12.0136925-26.833333 26.8333333-26.833333z" fill="#f2eefe"/><path d="m26.8333333 112h127.6666667c14.819641 0 26.833333 12.013693 26.833333 26.833333 0 14.819641-12.013692 26.833334-26.833333 26.833334h-127.6666667c-14.8196408 0-26.8333333-12.013693-26.8333333-26.833334 0-14.81964 12.0136925-26.833333 26.8333333-26.833333z" fill="#c0f3ed"/><g transform="translate(20)"><g transform="matrix(.99254615 .12186934 -.12186934 .99254615 21.055328 1.686192)"><path d="m66.196597 44.0916914c-2.8675732 0-5.1922005 18.9544865-5.1922005 41.9182753 0 22.9637893 2.3246273 41.2409603 5.1922005 41.2409603" opacity="0" stroke="#000" stroke-dasharray="2.6 2.6" stroke-width=".65" transform="matrix(0 -1 1 0 -22.070812 149.271806)"/><g transform="translate(40.155196 118.220335)"><use fill="#f1f6ff" xlink:href="#a"/><path d="m8.35703072 19.4704849c2.15204538-.0003719 3.89692428 1.7439041 3.89729618 3.8959495.0000001.0004491.0000001.0008982 0 .0013473l-.0016826 9.7282705c-.0003724 2.1530076-1.745637 3.898272-3.89864463 3.898644-2.15204538.0003719-3.89692433-1.7439041-3.8972962-3.8959495-.00000008-.0004491-.00000008-.0008982 0-.0013473l.00168264-9.7282706c.00037239-2.1530076 1.74563702-3.8982719 3.89864461-3.8986439z" fill="#fff" mask="url(#l)" transform="matrix(.98480775 .17364818 -.17364818 .98480775 5.029477 -1.022003)"/><g mask="url(#l)"><path d="m5.94687891.09931165c.00460446-.00003845.00921348-.00005771.01382701-.00005771h1.19135322c.6768393-.02879037 1.32618712.37196858 1.58228055 1.03937215l3.98498931 10.38525711c.3208625.836198-.0967617 1.7741975-.9328769 2.0952759-.0001302.00005-.0002604.0001-.0003907.0001499-.835919.3207555-1.773589-.096867-2.0943445-.9327861l-.69801585-1.819095h-4.88980739l-.69801585 1.819095c-.32075551.8359191-1.2584255 1.2535416-2.09434455.9327861-.00013021-.0000499-.00026043-.0000999-.00039063-.0001499-.83611518-.3210784-1.25373945-1.2590779-.93287689-2.0952759l3.98498927-10.38525711c.25626286-.6678451.9063006-1.06869266 1.5836239-1.03931444zm-.59810976 7.52385361h2.40005641l-1.20002821-3.12738644zm10.19174015-7.41545752c.8955329 0 1.6215058.72597286 1.6215058 1.62150576v10.1975052c0 .8955329-.7259729 1.6215058-1.6215058 1.6215058s-1.6215057-.7259729-1.6215057-1.6215058v-10.1975052c0-.8955329.7259728-1.62150576 1.6215057-1.62150576z" fill="#4b9aee" fill-rule="evenodd" transform="translate(18.316142 16.77688)"/></g><path d="m29.9141624 59.1648116c6.3497547 1.3800919 11.1187356 2.0742734 14.3069428 2.0825446s7.2959712-.6628813 12.323292-2.0134575l.0059683 4.1652035c-4.8795154 1.4809606-8.938613 2.2172399-12.1772926 2.2088377-3.2386797-.0084021-8.0563271-.7677104-14.4529423-2.2779248z" fill="#4b9aee" mask="url(#l)" transform="matrix(-.9945219 .10452846 .10452846 .9945219 79.706541 -4.177243)"/></g><path d="m131.144517 61.0083565h.091152c-.127298.1793655-.248732.358731-.364302.5380964-.243782.466921-.501252.9259789-.7719 1.3766773-.62439 1.3088173-.936585 2.6176346-.936585 3.926452 0 1.5283484.425709 3.0566968 1.277126 4.5850452 3.359192 4.4356102 5.343431 9.9116547 5.343431 15.8371902 0 13.9700904-11.029029 25.4417674-25.102784 26.6711144-4.571265 8.668113-13.8701003 14.601839-24.5978525 14.601839-4.1839749 0-8.1505959-.902585-11.7041688-2.517953-1.8339503-.592398-3.6714142-.888597-5.5123917-.888597-2.0411521 0-4.08522.384164-6.1322036 1.15249-4.0334398 2.236268-8.7043778 3.514303-13.683083 3.514303-11.2997113 0-21.0140762-6.583317-25.2881991-16.011115-13.4275539-1.816262-23.7627563-12.998552-23.7627563-26.5220814 0-6.0174402 2.0462677-11.5713382 5.50072368-16.0428253.74655602-1.3516325 1.11983403-2.7032651 1.11983403-4.0548976 0-1.5095375-.37087037-3.0256917-1.11261111-4.5484626-2.26574882-3.8868236-3.55890201-8.3774925-3.55890201-13.1611001 0-14.6854594 12.18748101-26.6100814 27.28769761-26.7783574l-.0010734-.0018032c.0059998.0005435.0119974.0010834.0179928.0016195.1021505-.0010787.2044341-.0016195.306848-.0016195.5368109 0 1.0700439.0148577 1.5992857.0441723 1.5705581-.0796175 2.9625692-.4591767 4.1760334-1.1386776 1.4669116-.8214234 2.6729038-2.0811664 3.6179765-3.779229.1261972-.2531855.2557846-.5044842.388705-.7538409.0069135-.0144782.0138107-.0289841.0206913-.0435177l.0013431.0022563c5.4082145-10.1090395 16.2985292-17.0155348 28.8520159-17.0155348 13.4530139 0 24.9959652 7.9317345 29.928753 19.2366094.7683798.9969104 1.6632486 1.7813288 2.6846075 2.3532567 1.166898.6534258 2.498904 1.0294881 3.996016 1.1281869.462756-.0223656.928512-.0336816 1.396993-.0336816.210443 0 .420336.0022833.629654.0068259.025791-.0022066.051623-.004482.077497-.0068259l-.005054.0084888c14.924932.3612836 26.909368 12.209057 26.909368 26.7716718 0 4.1335386-.965568 8.0483465-2.689878 11.5438245zm-50.1047961-.5461208c-3.9339611 1.6409938-8.2691218 2.549907-12.8231604 2.549907-4.7645877 0-9.2895907-.9949005-13.366212-2.7821907-1.575909 3.4775279-3.8919558 6.5681685-6.7547214 9.08433 1.9736334 2.1164856 3.603458 4.5402704 4.804037 7.1884903 5.2730034.7132463 10.0691245 2.8708603 13.9497388 6.0474231 4.409762-4.1530925 10.2444803-6.8906485 16.7247196-7.4566996 1.1087836-2.1024951 2.4957045-4.0441182 4.1136899-5.7792138-2.7988664-2.4599988-5.0751479-5.4691171-6.6480933-8.8520455z" fill="#ff8224"/><path d="m112.394904 64.5779959c3.272165 0 6.10853 2.2650433 6.83237 5.4561431.642544 2.8326297.963809 5.6652628.963809 8.4978959s-.321265 5.6652663-.963793 8.4978994l-.000016-.0000035c-.72384 3.1910998-3.560205 5.4561431-6.83237 5.4561431-3.272164 0-6.108529-2.2650433-6.832369-5.4561431-.642545-2.8326296-.963809-5.6652628-.963809-8.4978959s.321264-5.6652662.963793-8.4978994l.000016.0000035c.72384-3.1910998 3.560205-5.4561431 6.832369-5.4561431z" fill="#f1f6ff"/><path d="m110.44586 62.3064084c3.197134 0 5.959999 2.2330176 6.630611 5.3590289.777038 3.622202 1.165567 7.2443999 1.165567 10.8665979 0 3.6221979-.388529 7.2443958-1.165586 10.8665937l.000019.0000041c-.670612 3.1260113-3.433477 5.3590289-6.630611 5.3590289s-5.959999-2.2330176-6.630611-5.3590289c-.777039-3.622202-1.165567-7.2443999-1.165567-10.8665978 0-3.622198.388528-7.2443959 1.165586-10.8665938l-.000019-.0000041c.670612-3.1260113 3.433477-5.3590289 6.630611-5.3590289z" fill="#4b9aee"/><path d="m23.388535 64.5779959c3.2721648 0 6.1085299 2.2650433 6.8323699 5.4561431.6425441 2.8326297.9638085 5.6652628.9638085 8.4978959s-.3212644 5.6652663-.9637931 8.4978994l-.0000154-.0000035c-.72384 3.1910998-3.5602051 5.4561431-6.8323699 5.4561431-3.2721647 0-6.1085298-2.2650433-6.8323699-5.4561431-.642544-2.8326296-.9638084-5.6652628-.9638084-8.4978959s.3212644-5.6652662.9637931-8.4978994l.0000153.0000035c.7238401-3.1910998 3.5602052-5.4561431 6.8323699-5.4561431z" fill="#f1f6ff"/><path d="m25.9872611 62.3064084c3.1971343 0 5.959999 2.2330176 6.6306113 5.3590289.7770383 3.622202 1.1655671 7.2443999 1.1655671 10.8665979 0 3.6221979-.3885288 7.2443958-1.1655862 10.8665937l.0000191.0000041c-.6706123 3.1260113-3.433477 5.3590289-6.6306113 5.3590289-3.1971342 0-5.9599989-2.2330176-6.6306112-5.3590289-.7770384-3.622202-1.1655671-7.2443999-1.1655671-10.8665978 0-3.622198.3885287-7.2443959 1.1655862-10.8665938l-.0000191-.0000041c.6706123-3.1260113 3.433477-5.3590289 6.6306112-5.3590289z" fill="#4b9aee"/><path d="m17.5414013 27.2590529h100.0509557c0 25.0912654-20.3404898 45.4317549-45.4317552 45.4317549h-9.1874457c-25.0912653 0-45.4317548-20.3404895-45.4317548-45.4317549z" transform="matrix(-1 0 0 -1 135.133758 99.94986)"/><path d="m34.3311089 9.5306951 11.5069861 11.562111-41.66966779 17.0992747 3.07136726-19.8421284c1.34867329-8.71291067 9.50519873-14.68280463 18.21810943-13.33413134 3.3633893.52061976 6.472364 2.10253169 8.873205 4.51487404z" fill="#f1f6ff" transform="matrix(.96592583 -.25881904 .25881904 .96592583 11.819556 29.818343)"/><path d="m30.0788826 13.5529378 7.1334928 6.8211876-26.3967349 9.7176354 1.8216678-10.7584705c.9589078-5.6631521 6.327148-9.47669545 11.9903-8.5177876 2.0498617.3470909 3.9486468 1.3005929 5.4512743 2.7374351z" fill="#4b9aee" transform="matrix(.96592583 -.25881904 .25881904 .96592583 11.646077 30.169725)"/><path d="m34.3311089 9.5306951 11.5069861 11.562111-41.66966779 17.0992747 3.07136726-19.8421284c1.34867329-8.71291067 9.50519873-14.68280463 18.21810943-13.33413134 3.3633893.52061976 6.472364 2.10253169 8.873205 4.51487404z" fill="#f1f6ff" transform="matrix(-.96592583 -.25881904 -.25881904 .96592583 122.807356 29.818343)"/><path d="m30.0788826 13.5529378 7.1334928 6.8211876-26.3967349 9.7176354 1.8216678-10.7584705c.9589078-5.6631521 6.327148-9.47669545 11.9903-8.5177876 2.0498617.3470909 3.9486468 1.3005929 5.4512743 2.7374351z" fill="#4b9aee" transform="matrix(-.96592583 -.25881904 -.25881904 .96592583 122.980835 30.169725)"/><g transform="translate(24.038217 34.398329)"><use fill="#ffdc59" xlink:href="#b"/><path d="m-14.3177873 72.8100754c-13.3523009-49.405417 6.14954729-74.10812554 58.5055446-74.10812554 52.3559974 0 72.3172117 24.70270854 59.8836447 74.10812554l-4.770698.0000102c-2.5129013 0-4.5500103-2.037109-4.5500103-4.5500102 0-.2353225.018256-.4702903.0546036-.7027887 2.2541195-14.4185359-.063078-29.1493306-6.9515928-44.1923842-3.7639793-8.2197316-24.8345962-13.4427827-43.7877822-13.4427827-18.9531859 0-38.84581315 6.5070535-42.95943726 13.4427827-8.71980634 14.7019304-11.62971224 29.3722582-8.72971775 44.0109835l-.000002.0000004c.48832519 2.4649903-1.11407849 4.8591256-3.57906879 5.3474508-.2911951.057687-.5873368.0867382-.884191.0867382z" fill="#f1f6ff" mask="url(#m)"/><g mask="url(#m)"><g transform="translate(-3.630498 -1.947075)"><path d="m30.5541029 11.0334262h34.968111c16.8722991 0 30.55 13.6777009 30.55 30.55 0 .6426949-.020281 1.2852297-.0608128 1.9266453l-1.336476 21.1497498c-1.0168792 16.0921274-14.3649629 28.6233547-30.4891872 28.6233547h-32.2951591c-16.1242242 0-29.47230795-12.5312273-30.48918719-28.6233547l-1.33647597-21.1497498c-1.06405682-16.8387132 11.72382876-31.3517757 28.56254196-32.4158325.6414155-.0405318 1.2839504-.0608128 1.9266453-.0608128zm-1.0971975 14.2785515c-.6983547 0-1.3963391.032156-2.0917357.0963658-12.5112567 1.1552338-21.71713222 12.2341132-20.5618985 24.7453699l.99618486 10.7887471c1.08071784 11.7042448 10.89960094 20.6582643 22.65363414 20.6582643h35.1701363c11.7540333 0 21.5729164-8.9540195 22.6536342-20.6582643l.9961849-10.7887471c.0642098-.6953966.0963658-1.393381.0963658-2.0917357 0-12.564478-10.185522-22.75-22.75-22.75z" fill="#fff" fill-rule="evenodd"/><path d="m0 0h25.0127389v4.53803139h-25.0127389zm0 7.7941798h25.0127389v7.7765429h-25.0127389zm0 11.0326913h25.0127389v4.5380314h-25.0127389z" fill="#4b9aee" fill-rule="evenodd" transform="matrix(0 1 -1 0 59.166453 .311711)"/><path d="m28.4343119 25.3119777h38.7490608c11.9742272 0 21.6812564 9.7070292 21.6812564 21.6812564 0 .7792537-.0420111 1.5579408-.1258505 2.3326712l-.4016582 3.7115841c-1.2498757 11.5496687-11.0008449 20.3023435-22.6179459 20.3023435h-35.8206644c-11.617101 0-21.36807019-8.7526748-22.61794593-20.3023435l-.40165819-3.7115841c-1.2882987-11.904722 7.31801282-22.5997784 19.22273482-23.8880771.7747304-.0838394 1.5534174-.1258505 2.3326711-.1258505z" fill="#000" filter="url(#c)"/></g></g><path d="m18.0462187 149.395034c-5.9190612-49.4054174 2.726088-74.1081259 25.9354476-74.1081259 23.2093597 0 32.0581456 24.7027085 26.5463578 74.1081259-2.3054663 0-4.1744159-1.86895-4.1744159-4.174416 0-.10329.0038336-.206544.0114929-.309549 1.0904062-14.663605.0816031-29.650676-3.0263654-44.9612083-1.6685681-8.2197316-11.0091509-13.4427827-19.4110787-13.4427827s-17.2203089 6.5070535-19.0438743 13.4427827c-4.0361226 15.3509463-5.2643106 30.6674383-3.684564 45.9494763l-.0000389.000004c.1800064 1.741332-1.0856984 3.298885-2.8270307 3.478891-.1082829.011194-.2170705.016802-.3259304.016802z" fill="#fff" mask="url(#m)"/><ellipse cx="70.815287" cy="56.465181" fill="#ff9aa4" mask="url(#m)" opacity=".8" rx="7.796178" ry="3.89415"/><ellipse cx="17.359674" cy="53.869081" fill="#ff9aa4" mask="url(#m)" opacity=".8" rx="7.796178" ry="3.89415"/><g mask="url(#m)"><g transform="translate(9.498888 25.190342)"><g fill-rule="evenodd" transform="matrix(.99026807 -.1391731 .1391731 .99026807 41.682192 3.799198)"><path d="m12.1097473 25.3151397c6.6379702 0 11.9284693-4.5166803 11.9284693-11.6856132 0-7.168933-5.3811381-12.98050143-12.0191083-12.98050143-6.63797023 0-12.0191083 5.81156843-12.0191083 12.98050143 0 7.1689329 5.47177706 11.6856132 12.1097473 11.6856132z" fill="#fff"/><path d="m14.5055234 1.63644415c-1.2176015.42037119-2.0912319 1.56710419-2.0912319 2.9158419 0 1.70504351 1.3961872 3.08725438 3.1184714 3.08725438 1.5337516 0 2.808892-1.09616202 3.0696837-2.54031361 1.1394643 1.71138465 1.8057922 3.84115872 1.801821 6.18700118-.0103239 6.098581-4.5470543 11.3480838-10.1330709 11.7250926-5.58601658.3770089-10.10600857-4.2612417-10.09568464-10.3598227.01032392-6.09858103 4.5470543-11.34808382 10.13307094-11.72509269 1.4978984-.10109547 2.9191441.15843228 4.1969404.71003894z" fill="#4c160e" transform="translate(1.619077 .541517)"/></g><g fill-rule="evenodd" transform="matrix(-.99026807 -.1391731 -.1391731 .99026807 27.739759 4.446642)"><path d="m12.2892611 25.3403432c6.6379702 0 11.7489555-4.5418838 11.7489555-11.7108167 0-7.168933-5.3811381-12.98050143-12.0191083-12.98050143-6.63797023 0-12.0191083 5.81156843-12.0191083 12.98050143 0 7.1689329 5.65129084 11.7108167 12.2892611 11.7108167z" fill="#fff"/><path d="m2.19526801 6.03298782c.57058665.72603408 1.46155883 1.1930962 2.46272226 1.1930962 1.72228416 0 3.11847134-1.38221087 3.11847134-3.08725438 0-.8984586-.38767594-1.70727704-1.00645795-2.27145275.95652492-.46124914 1.98590691-.77208857 3.06432734-.90184943 5.55863-.66884171 10.3151748 3.72649428 10.6240401 9.81725774.3088653 6.0907634-3.9469099 11.570506-9.5055399 12.2393477-5.55863008.6688417-10.31517486-3.7264942-10.62404015-9.8172577-.1325468-2.6137969.57554016-5.11506706 1.86647696-7.17188738z" fill="#4c160e" transform="translate(1.749014 .29594)"/></g><path d="m40.2313563 36.994429c-2.4906114-.4262254-4.4469351-1.7242756-5.868971-3.8941504-1.2935407 2.2282406-3.1838939 3.5262907-5.6710596 3.8941504h-4.0093357c-3.2260199 0-5.8412257-2.6152058-5.8412257-5.8412257 0-3.2260198 2.6152058-5.8412256 5.8412257-5.8412256h19.5022621c3.2260198 0 5.8412256 2.6152058 5.8412256 5.8412256 0 3.2260199-2.6152058 5.8412257-5.8412256 5.8412257z"/><g fill-rule="evenodd"><g transform="translate(23.992897 24.664534)"><use fill="url(#d)" xlink:href="#e"/><rect fill="#ec606e" height="29.947871" mask="url(#n)" rx="12.622384" width="25.244768" x="-2.701422" y="11.033426"/></g><path d="m4.45745754 3.89573141c.88194057 0 4.59276437-2.15427677 4.59276437-3.22193067s-3.56296021-1.33966335-4.59276437-1.3202972c-1.02980416.01936616-4.50277703.2526433-4.50277703 1.3202972s3.62083646 3.22193067 4.50277703 3.22193067z" fill="#4c160e" transform="translate(30.204864 20.336332)"/></g></g></g></g><g transform="translate(49.375796 116.175487)"><use fill="#fff" xlink:href="#f"/><path d="m-9.0955414-1.59526721c9.20382166 1.14533836 18.40764331 1.71800754 27.611465 1.71800754 9.2038216 0 18.4076433-.57266918 27.6114649-1.71800754v2.82516795c-9.2038216 1.14533836-18.4076433 1.71800754-27.6114649 1.71800754-9.20382169 0-18.40764334-.57266918-27.611465-1.71800754z" mask="url(#o)"/></g><g transform="translate(20.140127 37.494358)"><g opacity=".7"><use fill="#4ea4ff" fill-rule="evenodd" xlink:href="#g"/><use fill="#000" filter="url(#h)" xlink:href="#g"/></g><path d="m74.7108119-14.4298422h8.4458599l.0613283 37.9666176c-1.4892019.1313036-2.7120335.2572862-3.6684947.3779478-.9564612.1206617-2.5641217.3875836-4.8229814.8007656zm11.044586 0h2.5987261l.0255572 37.8258438h-2.5987262z" fill="#f1f6ff" mask="url(#p)" opacity=".3" transform="matrix(.93358043 .35836795 -.35836795 .93358043 7.259223 -28.881619)"/><path d="m0 43.059141c.25309794-28.5571031 16.1950409-42.83565461 47.8258287-42.83565461 47.4461819 0-2.8532186 18.91724711-23.8569871 21.33477161-15.20181032 1.7497217-23.1914242 8.9166827-23.9688416 21.500883z" fill="#4b9aee" mask="url(#p)" opacity=".483533"/></g></g><g stroke="#4c160e" stroke-linecap="round" stroke-width="1.3"><path d="m98.2067454 68.0945039c.8330915-1.4485545 1.9696796-2.5445519 3.4097656-3.2879922 1.440085-.7434403 3.118783-.8030202 5.036094-.1787398" opacity=".4"/><path d="m65.5171293 66.8223219c.8593325-1.3338896 2.0319507-2.3429822 3.5178547-3.0272779 1.4859039-.6842957 3.2182228-.73868 5.1969567-.1631527" opacity=".4" transform="matrix(-.95630476 -.2923717 -.2923717 .95630476 155.708793 23.270835)"/></g></g><g transform="matrix(.89100652 .4539905 -.4539905 .89100652 41.97214 90.682888)"><g transform="matrix(.65605903 .75470958 -.75470958 .65605903 33.636707 .01108)"><use fill="#f3f5ff" transform="matrix(.8660254 -.5 .5 .8660254 -6.733068 15.070991)" xlink:href="#i"/><ellipse cx="15.871821" cy="21.343271" fill="#eaf2f4" mask="url(#q)" opacity=".512905" rx="12.989944" ry="7.790515" transform="matrix(.8480481 -.52991926 .52991926 .8480481 -8.898457 11.653934)"/><g fill="#4b9aee"><path d="m14.0899298 17.777282 21.9931643.1169288.0068357 4.1451924-21.9931643-.1169288z" mask="url(#q)" transform="matrix(.5 .8660254 -.8660254 .5 29.786096 -11.774345)"/><path d="m1.69715728 22.6827359 16.87208552.3675157.0122341 11.9807058-16.8720855-.3675156z" mask="url(#q)" transform="matrix(.5 .8660254 .8660254 -.5 -19.921104 34.504364)"/></g></g><path d="m11.7776272 16.5020731-1.4183687-2.8899009c-.949619-1.9348317-.1509463-4.27314095 1.7838854-5.22275994.0057727-.00283326.0115524-.00565225.0173391-.00845695 1.9519294-.94606607 4.3014372-.13707821 5.2571408 1.81015069l4.1942943 8.5457996c.6572946 1.339226.4769919 2.8717559-.3379166 4.003283.1442896.3601185.2688755.7320528.3722089 1.1147717l.092571.3428579c1.2725734 4.7132668-1.5166596 9.5657491-6.2299264 10.8383226-.0745573.0201303-.1493753.0392827-.2244345.0574523l-6.99014454 1.6921048c-4.0190845.9729-8.06588755-1.4965204-9.03878761-5.5156049-.20824392-.860263-.26230555-1.7506355-.15967458-2.6297743l.34844479-2.9847844c.52791672-4.5221443 4.05806932-8.1089747 8.5712322-8.7088462l2.71456164-.3608087c.3509598-.0466482.7005191-.0743387 1.0475748-.0838063z" fill="#4b9aee"/></g><g transform="matrix(-.90630779 .42261826 .42261826 .90630779 154.816314 95.577382)"><g transform="matrix(.65605903 .75470958 -.75470958 .65605903 32.636707 .01108)"><use fill="#f3f5ff" transform="matrix(.8660254 -.5 .5 .8660254 -6.733068 15.070991)" xlink:href="#j"/><ellipse cx="15.871821" cy="21.343271" fill="#eaf2f4" mask="url(#r)" opacity=".512905" rx="12.989944" ry="7.790515" transform="matrix(.8480481 -.52991926 .52991926 .8480481 -8.898457 11.653934)"/><g fill="#4b9aee"><path d="m14.0899298 17.777282 21.9931643.1169288.0068357 4.1451924-21.9931643-.1169288z" mask="url(#r)" transform="matrix(.5 .8660254 -.8660254 .5 29.786096 -11.774345)"/><path d="m1.69715728 22.6827359 16.87208552.3675157.0122341 11.9807058-16.8720855-.3675156z" mask="url(#r)" transform="matrix(.5 .8660254 .8660254 -.5 -19.921104 34.504364)"/></g></g><path d="m11.9444744 16.4622826-1.4150424-2.8831236c-.949619-1.9348317-.1509463-4.27314093 1.7838854-5.22275991.0057727-.00283327.0115524-.00565226.0173391-.00845695 1.9519294-.94606608 4.3014372-.13707822 5.2571408 1.81015066l4.1942943 8.5457996c.6558598 1.3363027.4777751 2.8650663-.3325892 3.9958675.1342014.3406205.2506739.691786.3480978 1.0526176l.1113547.4124275c1.2725734 4.7132668-1.5166596 9.5657491-6.2299264 10.8383226-.0745573.0201303-.1493753.0392828-.2244345.0574524l-6.99014454 1.6921047c-4.0190845.9729001-8.06588755-1.4965203-9.0387876-5.5156048-.20824393-.8602631-.26230556-1.7506356-.15967459-2.6297743l.35586301-3.0483291c.52355378-4.4847712 4.02453156-8.0419583 8.50039558-8.6368723l2.84941254-.3787325c.3257879-.0433024.650359-.0701329.972816-.0810891z" fill="#4b9aee"/></g><g transform="translate(20 136.092437)"><use fill="#53dc63" xlink:href="#k"/><rect fill="#39c74a" height="23.402019" mask="url(#s)" opacity=".5" rx="8.4375" width="76.740092" x="65.195122" y="21.995605"/><ellipse cx="32.597561" cy="36.036817" fill="#39c74a" fill-rule="nonzero" mask="url(#s)" opacity=".6" rx="14.940549" ry="14.709841"/><path d="m157.554878 27.6789528v-3.5181883c0-9.3198052-7.555195-16.87500001-16.875-16.87500001h-78.6833208c-2.683444 0-5.2571391 1.06525467-7.1556332 2.96172301l-1.4330035 1.4314744c-1.8984942 1.8964683-4.4721892 2.961723-7.1556333 2.961723h-8.2173732c-2.6796175 0-5.2499642-1.0622272-7.1478156-2.9539222l-1.4517854-1.447076c-1.8978515-1.89169503-4.4681981-2.95392221-7.1478157-2.95392221h-9.0516086c-7.30997948 0-13.2358887 5.92590921-13.2358887 13.23588871v-1.3372583c0-7.3099794 5.92590922-13.23588866 13.2358887-13.23588866h9.0516086c2.6796176 0 5.2499642 1.06222718 7.1478157 2.95392219l1.4517854 1.44707597c1.8978514 1.891695 4.4681981 2.9539222 7.1478156 2.9539222h8.2173732c2.6834441 0 5.2571391-1.0652547 7.1556333-2.961723l1.4330035-1.43147438c1.8984941-1.89646831 4.4721892-2.96172298 7.1556332-2.96172298h78.6833208c9.319805 0 16.875 7.55519486 16.875 16.87499996z" fill="#c4f752" mask="url(#s)" opacity=".764718"/><path d="m157.554878 22.8235062c0-9.3198051-7.555195-16.87499996-16.875-16.87499996h-78.6833208c-2.683444 0-5.2571391 1.06525467-7.1556332 2.96172298l-1.4330035 1.43147438c-1.8984942 1.8964683-4.4721892 2.961723-7.1556333 2.961723h-8.2173732c-2.6796175 0-5.2499642-1.0622272-7.1478156-2.9539222l-1.4517854-1.44707597c-1.8978515-1.89169501-4.4681981-2.95392219-7.1478157-2.95392219h-9.0516086c-7.30997948 0-13.2358887 5.92590926-13.2358887 13.23588866v-8.3312887c0-5.52284754 4.4771525-10.00000004 10-10.00000004h12.2874973c2.6796176 0 5.2499642 1.06222718 7.1478157 2.95392219l1.4517854 1.44707599c1.8978514 1.89169501 4.4681981 2.95392219 7.1478156 2.95392219h8.2173732c2.6834441 0 5.2571391-1.06525467 7.1556333-2.96172298l1.4330035-1.43147441c1.8984941-1.89646831 4.4721892-2.96172298 7.1556332-2.96172298h85.5583208c5.522848 0 10 4.4771525 10 10.00000004z" fill="#c1f754" mask="url(#s)" opacity=".5"/></g><g fill="#d0ff99"><rect height="1.337258" rx=".668629" width="12.903201" x="30.865854" y="142.040943"/><rect height="1.337258" rx=".668629" width="12.903201" x="99" y="142.040943"/></g></g></svg>