<svg height="120" viewBox="0 0 120 120" width="120" xmlns="http://www.w3.org/2000/svg" xmlns:xlink="http://www.w3.org/1999/xlink"><defs><ellipse id="a" cx="42" cy="42.083333" rx="42" ry="42.083333"/><filter id="b" height="140.4%" width="140.5%" x="-20.2%" y="-19%"><feOffset dx="0" dy="1" in="SourceAlpha" result="shadowOffsetOuter1"/><feGaussianBlur in="shadowOffsetOuter1" result="shadowBlurOuter1" stdDeviation="5.5"/><feColorMatrix in="shadowBlurOuter1" type="matrix" values="0 0 0 0 0.133333333   0 0 0 0 0.192156863   0 0 0 0 0.411764706  0 0 0 0.1 0"/></filter><mask id="c" fill="#fff"><use fill="#fff" fill-rule="evenodd" xlink:href="#a"/></mask></defs><g fill="none" fill-rule="evenodd" transform="translate(18 17)"><g opacity=".977702"><use fill="#000" filter="url(#b)" xlink:href="#a"/><use fill="#fff" fill-rule="evenodd" xlink:href="#a"/></g><g mask="url(#c)"><g transform="translate(21 16.833333)"><path d="m3.5 0h35c1.9329966 0 3.5 1.56700338 3.5 3.5v40.6944444c0 1.9329967-1.5670034 3.5-3.5 3.5h-35c-1.93299662 0-3.5-1.5670033-3.5-3.5v-40.6944444c0-1.93299662 1.56700338-3.5 3.5-3.5z" fill="#676c86"/><g fill="#4d516a"><path d="m8.4 0h25.2v35.775c0 1.159798-.940202 2.1-2.1 2.1h-21c-1.15979797 0-2.1-.940202-2.1-2.1z"/><path d="m3.5 10.8736111v-4.91388888c0-.57989899.47010101-1.05 1.05-1.05s1.05.47010101 1.05 1.05v4.91388888c0 .579899-.47010101 1.05-1.05 1.05s-1.05-.470101-1.05-1.05zm32.9 0v-4.91388888c0-.57989899.470101-1.05 1.05-1.05s1.05.47010101 1.05 1.05v4.91388888c0 .579899-.470101 1.05-1.05 1.05s-1.05-.470101-1.05-1.05zm-32.9 11.9236111v-4.9138889c0-.579899.47010101-1.05 1.05-1.05s1.05.470101 1.05 1.05v4.9138889c0 .579899-.47010101 1.05-1.05 1.05s-1.05-.470101-1.05-1.05zm32.9 0v-4.9138889c0-.579899.470101-1.05 1.05-1.05s1.05.470101 1.05 1.05v4.9138889c0 .579899-.470101 1.05-1.05 1.05s-1.05-.470101-1.05-1.05zm-32.9 11.9236111v-4.9138889c0-.5798989.47010101-1.05 1.05-1.05s1.05.4701011 1.05 1.05v4.9138889c0 .579899-.47010101 1.05-1.05 1.05s-1.05-.470101-1.05-1.05zm32.9 0v-4.9138889c0-.5798989.470101-1.05 1.05-1.05s1.05.4701011 1.05 1.05v4.9138889c0 .579899-.470101 1.05-1.05 1.05s-1.05-.470101-1.05-1.05z"/><path d="m5.6 47.6944444h7v.7055556c0 1.159798-.940202 2.1-2.1 2.1h-2.8c-1.15979797 0-2.1-.940202-2.1-2.1zm11.9 0h7v.7055556c0 1.159798-.940202 2.1-2.1 2.1h-2.8c-1.159798 0-2.1-.940202-2.1-2.1zm11.9 0h7v.7055556c0 1.159798-.940202 2.1-2.1 2.1h-2.8c-1.159798 0-2.1-.940202-2.1-2.1z"/></g><ellipse cx="7" cy="42.083333" fill="#98df62" rx="1.4" ry="1.402778"/></g></g><g mask="url(#c)"><g transform="translate(31.5 23.847222)"><g fill="none" stroke="#98df62" stroke-linecap="round" stroke-width="1.8144"><path d="m17.6904036 17.7110985c.0079457-8.02447651-6.4907307-14.52315291-14.51520725-14.5152073" transform="matrix(.70710678 -.70710678 .70710678 .70710678 -4.336041 10.438861)"/><path d="m15.6492026 18.5623192c.0057109-5.7675925-4.6652127-10.43851614-10.43280522-10.43280524" transform="matrix(.70710678 -.70710678 .70710678 .70710678 -6.381292 11.286032)"/><path d="m14.9232109 16.2383406c-2.4799855-2.4849061-6.50083634-2.4849061-8.9808218 0"/></g><ellipse cx="10.4328" cy="20.737661" fill="#98df62" fill-rule="evenodd" rx="2.7216" ry="2.727"/></g></g></g></svg>