<svg height="120" viewBox="0 0 120 120" width="120" xmlns="http://www.w3.org/2000/svg" xmlns:xlink="http://www.w3.org/1999/xlink"><defs><circle id="a" cx="42" cy="42" r="42"/><filter id="b" height="140.5%" width="140.5%" x="-20.2%" y="-19%"><feOffset dx="0" dy="1" in="SourceAlpha" result="shadowOffsetOuter1"/><feGaussianBlur in="shadowOffsetOuter1" result="shadowBlurOuter1" stdDeviation="5.5"/><feColorMatrix in="shadowBlurOuter1" type="matrix" values="0 0 0 0 0.133333333   0 0 0 0 0.192156863   0 0 0 0 0.411764706  0 0 0 0.1 0"/></filter></defs><g fill="none" fill-rule="evenodd"><g transform="translate(16.5 18.4)"><g opacity=".977702"><use fill="#000" filter="url(#b)" xlink:href="#a"/><use fill="#fff" fill-rule="evenodd" xlink:href="#a"/></g><path d="m71.1697113 30.8-5.2561317 2.0716453c-.7193416.2835204-1.5323219-.0697824-1.8158423-.789124-.1263264-.3205123-.1300393-.67635-.0104284-.9994284l.9149709-2.4714084c-2.0791519-1.7334592-3.4022798-4.3430553-3.4022798-7.2616845 0-5.2190909 4.2309091-9.45 9.45-9.45h6.3c5.2190909 0 9.45 4.2309091 9.45 9.45s-4.2309091 9.45-9.45 9.45z" fill="#7284fb"/><g transform="translate(16.8 14.7)"><path d="m2.52 41.86c0-1.3917576 1.12824243-2.52 2.52-2.52h10.08c1.3917576 0 2.52 1.1282424 2.52 2.52s-1.1282424 2.52-2.52 2.52h-10.08c-1.39175757 0-2.52-1.1282424-2.52-2.52zm30.24 0c0-1.3917576 1.1282424-2.52 2.52-2.52h10.08c1.3917576 0 2.52 1.1282424 2.52 2.52s-1.1282424 2.52-2.52 2.52h-10.08c-1.3917576 0-2.52-1.1282424-2.52-2.52z" fill="#4d516a"/><path d="m32.7549238.62572174c.8209221.01866745 1.4897504.66491448 1.5365908 1.48471173l.4734139 8.28565233c.0624868 1.093639-.7734272 2.0308641-1.8670661 2.0933509-.0376757.0021527-.0754052.0032297-.1131424.0032297-1.1012629 0-1.9940128-.89275-1.9940128-1.9940129 0-.0344087.0008906-.0688116.002671-.1031742l.4326633-8.3507367c.0418993-.80868836.7193185-1.43743002 1.5288823-1.41902086z" fill="#b1b4ca" transform="matrix(.96592583 .25881905 -.25881905 .96592583 2.810479 -8.262374)"/><path d="m18.1702038.62572174c.8209221.01866745 1.4897504.66491448 1.5365908 1.48471173l.4734139 8.28565233c.0624868 1.093639-.7734272 2.0308641-1.8670661 2.0933509-.0376758.0021527-.0754052.0032297-.1131424.0032297-1.1012629 0-1.9940128-.89275-1.9940128-1.9940129 0-.0344087.0008906-.0688116.002671-.1031742l.4326633-8.3507367c.0418993-.80868836.7193185-1.43743002 1.5288823-1.41902086z" fill="#b1b4ca" transform="matrix(-.96592583 .25881905 .25881905 .96592583 34.086483 -4.487571)"/><rect fill="#4d516a" height="22.68" rx="2.52" width="5.04" x="22.68" y="24.22"/><path d="m5.04 29.26h2.52c2.7835151 0 5.04 2.2564849 5.04 5.04v15.12c0 2.7835151-2.2564849 5.04-5.04 5.04h-2.52c-2.78351514 0-5.04-2.2564849-5.04-5.04v-15.12c0-2.7835151 2.25648486-5.04 5.04-5.04z" fill="#676c86"/><rect fill="#b1b4ca" height="15.4" rx="2.8" width="22.4" x="14" y="34.3"/><g fill="#8c90a8"><rect height="4.2" rx="2.1" width="12.6" x="18.9" y="39.9"/><rect height="2.8" rx="1.4" width="8.4" x="21" y="30.8"/><rect height="2.8" rx="1.4" width="8.4" x="21" y="27.3"/></g><rect fill="#676c86" height="17.64" rx="8.82" width="35.28" x="7.56" y="9.1"/><rect fill="#4d516a" height="12.6" rx="6.3" width="29.4" x="10.5" y="11.9"/><circle cx="17.78" cy="17.92" fill="#fdcb54" r="2.8"/><circle cx="32.62" cy="17.92" fill="#fdcb54" r="2.8"/><path d="m42.84 29.26h2.52c2.7835151 0 5.04 2.2564849 5.04 5.04v15.12c0 2.7835151-2.2564849 5.04-5.04 5.04h-2.52c-2.7835151 0-5.04-2.2564849-5.04-5.04v-15.12c0-2.7835151 2.2564849-5.04 5.04-5.04z" fill="#676c86"/></g></g><text fill="#fff" font-family="SourceHanSansCN-Heavy, Source Han Sans CN" font-size="11.2" font-weight="600"><tspan x="85.8" y="43.8">IP</tspan></text></g></svg>