<svg height="200" viewBox="0 0 200 200" width="200" xmlns="http://www.w3.org/2000/svg" xmlns:xlink="http://www.w3.org/1999/xlink"><linearGradient id="a" x1="50%" x2="50%" y1="0%" y2="100%"><stop offset="0" stop-color="#e9e9e9"/><stop offset="1" stop-color="#fff" stop-opacity="0"/></linearGradient><linearGradient id="b" x1="50%" x2="50%" y1="0%" y2="100%"><stop offset="0" stop-color="#dcdcdc"/><stop offset="1" stop-color="#fff" stop-opacity="0"/></linearGradient><linearGradient id="c" x1="50%" x2="50%" y1="0%" y2="100%"><stop offset="0" stop-color="#f1f1f1"/><stop offset="1" stop-color="#fff" stop-opacity="0"/></linearGradient><linearGradient id="d" x1="50%" x2="50%" y1="0%" y2="100%"><stop offset="0" stop-color="#dedede"/><stop offset="1" stop-color="#fff" stop-opacity="0"/></linearGradient><linearGradient id="e" x1="50%" x2="50%" y1="0%" y2="100%"><stop offset="0" stop-color="#e8e8e8"/><stop offset="1" stop-color="#fff" stop-opacity="0"/></linearGradient><linearGradient id="f" x1="21.3%" x2="84.6%" y1="126.5%" y2="0%"><stop offset="0" stop-color="#fff"/><stop offset="1" stop-color="#f5f5f5"/></linearGradient><linearGradient id="g" x1="50%" x2="50%" y1="0%" y2="100%"><stop offset="0" stop-color="#c5c5c5"/><stop offset="1" stop-color="#fff" stop-opacity="0"/></linearGradient><g fill="none" fill-rule="evenodd"><path d="m1.111111 28.114504h197.777778v144.885496h-197.777778z"/><g transform="translate(.72 27.69545)"><g transform="translate(12.155556 .419053)"><path d="m19.8644444 24.4488702 40.6666667-12.0310687v104.5170535l-40.6666667 12.031069z" fill="url(#a)"/><path d="m19.8644444 24.4466412-19.8544444-12.3832519v104.5181677l19.8533333 12.383252z" fill="url(#b)"/><path d="m19.8611111 24.5057099 40.6733333-12.0923664-19.8644444-12.412229-40.66666667 12.0867939z" fill="url(#c)"/></g><g transform="translate(121.17 3.46945)"><path d="m19.3966667 23.8715573 39.7122222-11.7457558v102.0439695l-39.7122222 11.74687z" fill="url(#c)"/><path d="m19.3966667 23.8704427-19.3866667-12.0912519v102.0461982l19.3866667 12.090138z" fill="url(#d)"/><path d="m19.3966667 23.9283969 39.7122222-11.8025954-19.3966667-12.124687-39.7122222 11.8014809z" fill="url(#c)"/></g><g transform="translate(45.52 35.182656)"><path d="m16.7355556 20.6450687 34.2655555-10.1832214v88.4704275l-34.2655555 10.1843362z" fill="url(#e)"/><path d="m16.7366667 20.6450687-16.7266667-10.4763359v88.4659695l16.7266667 10.4763357z" fill="url(#b)"/><path d="m16.7355556 20.6461832 34.2655555-10.1832214-16.7355555-10.4618473-34.2655556 10.1832214z" fill="url(#f)"/></g><path d="m198.168889 144.801908h-197.77777789c2.0274105-8.576851 6.00217027-16.568189 11.61444449-23.351084 6.1642965-7.482922 13.5884789-13.824176 21.9355555-18.735923 9.3241488-5.5477152 19.3848611-9.7424099 29.8822222-12.4590384 23.2559788-6.0296036 47.6584657-6.0296036 70.9144447 0 10.497361 2.7166285 20.558073 6.9113232 29.882222 12.4590384 8.34668 4.911854 15.77048 11.253101 21.934444 18.735923 5.612207 6.782939 9.586959 14.77426 11.614445 23.351084z" fill="url(#g)"/><g fill="#fff" transform="translate(79.224444 42.351145)"><path d="m5.24777778 0v54.6965038l52.91333332 25.4987328v-55.3796946z"/><path d="m4.37333333.87822901v54.69650379l52.91333337 25.4987328v-55.3796946z"/><path d="m3.49888889 1.75534351v54.69650379l52.91333331 25.4987329v-55.3796947z"/><path d="m2.62444444 2.63245802v54.69650378l52.91333336 25.4987329v-55.3796947z"/><path d="m1.75 2.63245802v54.69650378l52.9133333 25.4987329v-55.3796947z"/><path d="m.87444444 2.63245802v54.69650378l52.91333336 25.4987329v-55.3796947z"/><path d="m0 2.63245802v54.69650378l52.9133333 25.4987329v-55.3796947z"/></g><path d="m78.3311111 44.9836031v54.6965038l52.9133329 25.4987331v-55.379695z" fill="#f9f9f9"/><path d="m41.259025 133.235292s16.9033192.580653 43.9104399-5.004517c27.0071211-5.58517 23.7143771-15.59374 23.7143771-15.59374s-7.590073-11.103691-23.7174881-6.387188c-16.1274155 4.716503-28.2731373 10.205961-19.103767 17.620926 9.1693702 7.414965 48.4552231 3.38482 68.3665891-6.388972 19.911366-9.773793 22.232285-14.232021 22.232285-14.232021" stroke="#b2b2b2" stroke-dasharray="5.558066" stroke-width="1.111613" transform="matrix(.99754921 -.06996838 .06996838 .99754921 -8.03131 7.213896)"/><path d="m78.2522222 45.1786412s1.4133334 20.6016031-5.6033333 33.1386565-22.4633333 17.0084428-22.4633333 17.0084428l40.8688888 23.9852365s18.4766666 1.933664 27.1722226-13.596946c8.695555-15.5306112 12.938889-35.7198478 12.938889-35.7198478z" fill="#fff"/><path d="m76.5988889 40.9624733 10.4877778-1.904687 51.6333333 23.7511908-9.208889 2.9690382z" fill="#f8f8f8"/><g fill="#b2b2b2"><path d="m71 90.7551603c.7903713-.1864126 1.5507498-.4831641 2.2588889-.8815725.6219202-.3981027 1.1691526-.9028674 1.6166667-1.4912061l32.2066664 14.7114503c-.533934.634481-1.166523 1.178302-1.873333 1.610458-.789536.427892-1.632559.747989-2.506667.951786z"/><path d="m76.2477778 83.7360153c.7903713-.1864126 1.5507498-.4831642 2.2588889-.8815726.6219202-.3981027 1.1691525-.9028674 1.6166666-1.4912061l32.2066667 14.7114504c-.533934.6344808-1.166523 1.1783017-1.873333 1.610458-.789537.4278915-1.632559.7479888-2.506667.9517863z"/><path d="m81.4955556 76.0782595c.7903713-.1864125 1.5507498-.4831641 2.2588888-.8815725.6219202-.3981027 1.1691526-.9028674 1.6166667-1.4912061l32.2066669 14.7114504c-.533934.6344807-1.166523 1.1783017-1.873334 1.610458-.789536.4278915-1.632558.7479888-2.506666.9517863z"/><path d="m84.9944444 67.5422748c.7903714-.1864126 1.5507499-.4831641 2.2588889-.8815725.6219202-.3981027 1.1691526-.9028674 1.6166667-1.4912061l32.206667 14.7114504c-.533935.6344807-1.166524 1.1783017-1.873334 1.610458-.789536.4278914-1.632558.7479888-2.506666.9517862z"/><path d="m63.9722222 96.2374046c.8159417-.27456 1.6039469-.6264759 2.3533334-1.0509771.5774894-.3517267 1.0917321-.7985888 1.5211111-1.3218015l32.2066663 14.71145c-.4728722.731314-1.0955675 1.353251-1.8266663 1.824443-.7945225.413979-1.663257.665166-2.5555556.738916z"/></g><path d="m76.5733333 40.9457557v6.2412214l52.9133337 25.4987328v-6.9288702z" fill="#d2d2d2"/><path d="m129.6 72.6522748 9.208889-3.5809008v-6.3348396l-9.208889 2.9656946z" fill="#e8e8e8"/><g stroke="#707070" stroke-linecap="round" stroke-linejoin="round" stroke-width="1.110971" transform="matrix(.97812325 -.20802621 .20802621 .97812325 150.640315 83.763211)"><path d="m0 4.96894631 26.3244603-4.96894631-17.47224256 10.5151329z"/><path d="m12.37844 19.0433558 13.9460203-19.0433558-17.47224256 10.5151329z"/></g></g></g></svg>