<svg height="200" viewBox="0 0 200 200" width="200" xmlns="http://www.w3.org/2000/svg" xmlns:xlink="http://www.w3.org/1999/xlink"><defs><path id="a" d="m47 89.1c25.4089878 0 46.0070423-17.6465488 46.0070423-42.9334764s-14.0649714-47.4865236-46.0070423-47.4865236-46.00704225 22.199596-46.00704225 47.4865236 20.59805445 42.9334764 46.00704225 42.9334764z"/><path id="b" d="m.03041094 9.55380405c-.2592668 2.04473825 1.13923988 3.34497285 4.19552003 3.90070375 5.42465527.7665894 9.54456243.4462418 12.35972143-.9610429 4.2227385-2.1109272-8.83142046-12.52694851-10.05716128-12.49338396-1.53434472.04201507-6.10917998 6.48661574-6.49808018 9.55372311z"/><path id="c" d="m0 43.8783714c.25577642-28.177455 12.8734242-42.69745505 37.8529434-43.56000003 30.7274054-1.06102 41.2870592 10.92604313 46.1478941 29.62435213v13.9356479c-3.0858579-14.6748045-18.5536423-22.2183142-46.403353-22.6305293-22.5552042 0-34.40375685 8.8553171-36.47467938 22.6305293-.00267572.0177981-.37694409.0177981-1.12280512 0z"/><filter id="d" height="102.3%" width="101.2%" x="-.6%" y="-1.1%"><feOffset dx="0" dy="-1" in="SourceAlpha" result="shadowOffsetInner1"/><feComposite in="shadowOffsetInner1" in2="SourceAlpha" k2="-1" k3="1" operator="arithmetic" result="shadowInnerInner1"/><feColorMatrix in="shadowInnerInner1" type="matrix" values="0 0 0 0 0.219233504   0 0 0 0 0.528402335   0 0 0 0 0.857138813  0 0 0 1 0"/></filter><ellipse id="e" cx="4.302817" cy="14.52" rx="4.302817" ry="14.52"/><path id="f" d="m2 0h44c1.1045695 0 2 .8954305 2 2v44c0 1.1045695-.8954305 2-2 2h-44c-1.1045695 0-2-.8954305-2-2v-44c0-1.1045695.8954305-2 2-2z"/><rect id="g" height="26" rx="13" width="26"/><path id="h" d="m2.85538518 16.1077683-1.88420503-4.4772723c-1.76855799-4.20247034.20451782-9.0429452 4.40698817-10.81150319.27121005-.11413541.5483282-.21368944.83016802-.29823586 5.18330986-1.55489138 10.76258606.5881659 13.57212576 5.21319292l.5978969.9842499c2.8552433 4.70026363 1.3595588 10.82521213-3.3407048 13.68045543-.1069745.0649832-.2151648.1279437-.324513.1888479l-.3326402.1852722c-4.6338047 2.5809125-10.48248863.9167146-13.06340116-3.7170901-.17114673-.3072791-.32528385-.6237282-.46171466-.9479169z"/><path id="i" d="m2.85538518 16.1077683-1.88420503-4.4772723c-1.76855799-4.20247034.20451782-9.0429452 4.40698817-10.81150319.27121005-.11413541.5483282-.21368944.83016802-.29823586 5.18330986-1.55489138 10.76258606.5881659 13.57212576 5.21319292l.5978969.9842499c2.8552433 4.70026363 1.3595588 10.82521213-3.3407048 13.68045543-.1069745.0649832-.2151648.1279437-.324513.1888479l-.3326402.1852722c-4.6338047 2.5809125-10.48248863.9167146-13.06340116-3.7170901-.17114673-.3072791-.32528385-.6237282-.46171466-.9479169z"/><mask id="j" fill="#fff"><use fill="#fff" fill-rule="evenodd" xlink:href="#a"/></mask><mask id="k" fill="#fff"><use fill="#fff" fill-rule="evenodd" xlink:href="#b"/></mask><mask id="l" fill="#fff"><use fill="#fff" fill-rule="evenodd" xlink:href="#c"/></mask><mask id="m" fill="#fff"><use fill="#fff" fill-rule="evenodd" xlink:href="#e"/></mask><mask id="n" fill="#fff"><use fill="#fff" fill-rule="evenodd" xlink:href="#f"/></mask><mask id="o" fill="#fff"><use fill="#fff" fill-rule="evenodd" xlink:href="#g"/></mask><mask id="p" fill="#fff"><use fill="#fff" fill-rule="evenodd" xlink:href="#h"/></mask><mask id="q" fill="#fff"><use fill="#fff" fill-rule="evenodd" xlink:href="#i"/></mask></defs><g fill="none" fill-rule="evenodd" transform="translate(13 18)"><g transform="translate(12 13)"><path d="m38.1761697 0c-1.6434407 3.80148074-3.0394165 6.42682273-4.1879275 7.87602598-1.148511 1.44920324-3.6779251 2.90168822-7.5882422 4.35745502 3.8680426 1.0577484 6.3974567 2.2110406 7.5882422 3.4598765 1.1907855 1.2488358 2.4643229 3.6525715 3.8206121 7.2112068 1.3750996-3.6301496 2.5814161-6.0338852 3.6189494-7.2112068 1.0375334-1.1773217 3.3922822-2.3306138 7.0642465-3.4598765-3.624521-1.4236948-5.9792698-2.87617979-7.0642465-4.35745502-1.0849766-1.48127523-2.1688546-4.10661723-3.251634-7.87602598z" fill="#ffe90e"/><path d="m7.49392618 39c-1.04582589 2.4792266-1.93417415 4.1914061-2.66504479 5.1365387-.73087063.9451325-2.34049776 1.8924054-4.82888139 2.8418185 2.46148168.6898359 4.07110881 1.441983 4.82888139 2.2564411.75777259.8144582 1.56820547 2.3821119 2.43129865 4.702961.87506338-2.3674888 1.64271931-3.9351425 2.30296779-4.702961.66024847-.7678184 2.15872497-1.5199655 4.49542957-2.2564411-2.3065134-.9284966-3.8049899-1.8757695-4.49542957-2.8418185-.69043967-.9660491-1.38018022-2.6782286-2.06922165-5.1365387z" fill="#ff9f11"/><path d="m152.693926 31.8c-1.045826 2.4792266-1.934174 4.1914061-2.665045 5.1365387-.73087.9451325-2.340497 1.8924054-4.828881 2.8418185 2.461482.6898359 4.071109 1.441983 4.828881 2.2564411.757773.8144582 1.568206 2.3821119 2.431299 4.702961.875063-2.3674888 1.642719-3.9351425 2.302968-4.702961.660248-.7678184 2.158725-1.5199655 4.495429-2.2564411-2.306513-.9284966-3.804989-1.8757695-4.495429-2.8418185-.69044-.9660491-1.38018-2.6782286-2.069222-5.1365387z" fill="#ffe90e"/></g><g transform="translate(0 62)"><path d="m168.9 35.1v-1.8c0-.4970563.402944-.9.9-.9s.9.4029437.9.9v1.8h1.8c.497056 0 .9.4029437.9.9s-.402944.9-.9.9h-1.8v1.8c0 .4970563-.402944.9-.9.9s-.9-.4029437-.9-.9v-1.8h-1.8c-.497056 0-.9-.4029437-.9-.9s.402944-.9.9-.9z" fill="#ff9481"/><g fill="#7284fb"><path d="m4.5 55.5v-1.8c0-.4970563.40294373-.9.9-.9s.9.4029437.9.9v1.8h1.8c.49705627 0 .9.4029437.9.9s-.40294373.9-.9.9h-1.8v1.8c0 .4970563-.40294373.9-.9.9s-.9-.4029437-.9-.9v-1.8h-1.8c-.49705627 0-.9-.4029437-.9-.9s.40294373-.9.9-.9z" transform="matrix(.70710678 .70710678 -.70710678 .70710678 41.462446 12.700801)"/><circle cx="26.55" cy="24.15" r="3.15"/><circle cx="143.55" cy="1.35" r="1.35"/></g></g><g transform="matrix(.9781476 .20791169 -.20791169 .9781476 40.131652 .031954)"><path d="m123.967244 62.04h.48346c-1.290666 1.98-1.935999 3.96-1.935999 5.94s.645333 3.96 1.935999 5.94h-.29977c2.701921 4.2665427 4.271601 9.3588092 4.271601 14.8275728 0 14.3903732-10.868685 26.1738282-24.635893 27.1654462-5.1598968 8.791129-15.6233093 14.805428-27.6915547 14.805428-5.6404255 0-10.9302885-1.313774-15.4919733-3.610792-1.0829491-.342242-2.086804-.513363-3.0115647-.513363-.9308091 0-1.8616181.214951-2.7924272.644852-3.7924953 2.986074-8.5379002 4.760856-13.6871873 4.760856-10.3777268 0-19.1149961-7.208674-21.7175364-17.013346-11.18587394-3.196078-19.3943984-13.733148-19.3943984-26.2390812 0-6.0935247 1.94881243-11.7196153 5.24129617-16.256825.44435582-1.6135826.66653372-3.2271652.66653372-4.8407478 0-2.75-.64533297-5.5-1.9359989-8.25h.07834471c-.98190914-2.8453376-1.51631223-5.9080935-1.51631223-9.0990291 0-14.0441311 10.35196113-25.6052833 23.64729353-27.0752408l-.0886979-.1577689c.4011777.0384826.7921252.0587685 1.1728425.0608578.3859234-.0263713.7741056-.044264 1.1643715-.0534984 1.3098108-.1315744 2.4836344-.505032 3.521471-1.1203726 1.4088439-.8353136 2.5670969-2.1163587 3.4747588-3.8431353.1212017-.2574668.2456594-.513015.3733181-.7665882.0066399-.0147231.013264-.0294743.0198723-.0442536l.0012899.0022944c5.1941303-10.27998205 15.6533518-17.3032653 27.7099086-17.3032653 12.9204761 0 24.0064995 8.06585902 28.7440229 19.5618978.7379635 1.0137682 1.597409 1.811451 2.578337 2.3930502 1.1207071.6644751 2.3999852 1.0468966 3.8378344 1.1472643.4444378-.0227438.8917566-.0342511 1.3416929-.0342511.202112 0 .403696.002322.604729.0069414.02477-.002244.04958-.0045578.074429-.0069414l-.004853.0086324c14.334127.3673928 25.84416 12.4155105 25.84416 27.2243773 0 4.2034362-.927346 8.184443-2.5834 11.7390291zm-48.1213967-.5553556c-3.7782352 1.6687427-7.9417886 2.5930255-12.3155555 2.5930255-3.7243686 0-7.2963127-.6701915-10.6077167-1.8995456-1.5657051 3.3124181-3.7659266 6.2499033-6.4384063 8.6458253 3.405564 3.9974859 5.6911276 9.0267866 6.3538632 14.5715255 5.6989217-5.6093487 14.0065289-9.1430479 23.2570553-9.1430479.7418614 0 1.4776584.022727 2.2065318.067429 1.0612685-2.1213484 2.3857521-4.0810044 3.9291549-5.8334786-2.6880733-2.5015971-4.8742482-5.5615992-6.3849285-9.0017325z" fill="#ff8224" transform="translate(6.577465)"/><g transform="matrix(.8660254 -.5 .5 .8660254 16.989566 39.577057)"><path d="m33.7647877 8.22511881 7.4653971 14.39240789-41.04225352 5.8286503 7.44720475-18.69147457c3.26408767-8.19241763 11.91594157-11.90763545 19.32445647-8.29817127 2.8635743 1.39514721 5.2482655 3.76701025 6.8051952 6.76858765z" fill="#f1f6ff"/><path d="m27.2542029 9.29769205 5.1158751 10.38805045-23.83098595 3.3885035 5.38350965-13.24331228c1.6304672-4.01091259 5.9901665-5.84773632 9.737661-4.10266062 1.542151.71812523 2.8097457 1.97707113 3.5939402 3.56941895z" fill="#4b9aee"/></g><g transform="matrix(-.8660254 -.5 -.5 .8660254 120.968309 37.49819)"><path d="m34.8370149 10.1422831 11.8067329 11.8430944-42.46092877 17.4116343 3.15765005-20.3016768c1.37586819-8.8459553 9.66229332-14.90165739 18.50824862-13.5257892 3.4060931.5297715 6.5546179 2.13156286 8.9882972 4.5727373z" fill="#f1f6ff" transform="matrix(.96592583 .25881905 -.25881905 .96592583 6.659816 -5.814663)"/><path d="m33.2724107 16.1574277 4.119583 8.5815057-22.5070422 2.5977342 3.6531398-10.0939854c1.9193193-5.3032686 6.8754565-7.63515908 11.0698422-5.2084232 1.5203714.8796377 2.796936 2.315993 3.6644772 4.1231687z" fill="#4b9aee"/></g><g transform="translate(16.02648 34.443693)"><use fill="#ffdc59" xlink:href="#a"/><g mask="url(#j)"><g fill-rule="evenodd" transform="translate(6.062892 36.336265)"><path d="m44.2742543 6.70427499c.7827047-1.26584054 1.8840923-2.20199765 3.3041629-2.80847134s3.1061896-.58838948 5.0583571.05425264" opacity=".8" stroke="#dc9c30" stroke-linecap="round" stroke-width="1.32" transform="matrix(-.70710678 -.70710678 .70710678 -.70710678 79.127202 42.933954)"/><path d="m14.0503301 6.79660615c.7827047-1.26584054 1.8840923-2.20199766 3.3041629-2.80847134 1.4200706-.60647369 3.1061896-.58838948 5.0583571.05425264" opacity=".8" stroke="#dc9c30" stroke-linecap="round" stroke-width="1.32" transform="matrix(.70710678 -.70710678 -.70710678 -.70710678 8.996732 21.720031)"/><g transform="translate(26.738713 23.061095)"><use fill="#d53722" xlink:href="#b"/><path d="m-6.32639806 13.5387922c8.31879808-2.2977209 14.5400724-2.887811 18.66382296-1.7702703 4.1237506 1.1175406 6.6122603 3.4239059 7.4655292 6.9190957-4.5850286 2.4035019-7.9030415 3.6376774-9.95403892 3.7025263-8.30719312.2626588-14.06598363-1.1986399-16.17531324-1.7702704-2.89050133-.7833288-2.89050133-3.1436892 0-7.0810813z" fill="#ec606e" mask="url(#k)"/></g><path d="m4.20205498 5.24109483c.82303936 0 4.28603242-2.19070531 4.28603242-3.2764131 0-1.0857078-3.32500467-1.36231689-4.28603242-1.34262326-.96102776.01969364-4.20205498.25691546-4.20205498 1.34262326 0 1.08570779 3.37901561 3.2764131 4.20205498 3.2764131z" fill="#4c160e" transform="translate(28.87238 16.415212)"/></g><g stroke="#4c160e" stroke-linecap="round" stroke-linejoin="round" stroke-width="2.867773"><path d="m7.55533722 16.1889804c2.57993128 1.6348563 5.18852008 2.0978897 7.82576658 1.3891 2.6372465-.7087896 5.1036542-2.1535333 7.3992232-4.3342311" opacity=".8" transform="matrix(.99939083 -.0348995 .0348995 .99939083 5.128115 36.875101)"/><path d="m45.2038752 17.289429c2.4330843-1.7664827 5.0422633-2.9473191 7.8275371-3.5425092 2.7852738-.59519 5.6345139-.5807728 8.5477205.0432517" opacity=".8" transform="matrix(.9998477 .01745241 .01745241 -.9998477 5.403426 66.002638)"/></g></g><path d="m29.0047526-1.53479885h36.3263124c17.1318729 0 31.02 13.88812705 31.02 31.02000005 0 .5794031-.0162335 1.1586926-.0486813 1.7371864l-1.8159406 32.3753814c-.9216259 16.4311493-14.5143426 29.2828135-30.9713187 29.2828135h-32.6944312c-16.456976 0-30.04969274-12.8516642-30.97131867-29.2828135l-1.8159406-32.3753814c-.9594216-17.104987 12.12914527-31.74908356 29.23413227-32.70850517.5784938-.03244782 1.1577833-.04868128 1.7371864-.04868128zm-2.8477828 25.29479885c-.6424161 0-1.2845526.0267986-1.9247349.0803259-12.7134149 1.0630017-22.15794091 12.230994-21.09493919 24.944409l.92313184 11.0405825c1.00082774 11.9698191 11.00808695 21.1752651 23.01967415 21.1752651h28.0956931c12.0115872 0 22.0188464-9.205446 23.0196741-21.1752651l.9231318-11.0405825c.0535274-.6401823.0803259-1.2823188.0803259-1.9247349 0-12.7577777-10.3422222-23.1-23.1-23.1z" fill="#fff" mask="url(#j)"/><path d="m31.278169-2.64c4.8384753 3.21248706 9.0861279 5.53388391 12.7429578 6.96419054 3.6568299 1.43030664 7.9044825 2.43170349 12.7429577 3.00419055v3.23161891c-3.6568299-.1103066-7.9044825-1.11170349-12.7429577-3.00419054-4.8384753-1.89248706-9.0861279-4.21388391-12.7429578-6.96419055zm0 5.94c4.7150029 3.19632797 8.9626555 5.54667462 12.7429578 7.0510399 3.7803022 1.5043653 8.0279548 2.534712 12.7429577 3.09104v5.6979201c-3.7803022-.1843653-8.0279548-1.214712-12.7429577-3.0910399-4.715003-1.876328-8.9626555-4.2266746-12.7429578-7.05103996zm0 8.58c4.8384753 3.2124871 9.0861279 5.5338839 12.7429578 6.9641905 3.6568299 1.4303067 7.9044825 2.4317035 12.7429577 3.0041906v3.2316189c-3.6568299-.1103066-7.9044825-1.1117035-12.7429577-3.0041905-4.8384753-1.8924871-9.0861279-4.2138839-12.7429578-6.9641906z" fill="#4b9aee" mask="url(#j)" transform="matrix(0 1 -1 0 55.241127 -32.801127)"/><path d="m20.6507313 151.921284c-4.7687251-50.240856 2.1962881-75.361284 20.8950396-75.361284s25.8278258 25.120428 21.3872229 75.361284c-1.8874324 0-3.4174987-1.530066-3.4174987-3.417498 0-.072431.0023027-.144843.0069045-.217127.968112-15.2062.1742639-30.755087-2.3814966-46.646659-1.3442913-8.3587262-8.8695845-13.6700984-15.638645-13.6700984s-13.873639 6.6170869-15.3428047 13.6700984c-3.301921 15.851505-4.2712317 31.666882-2.907932 47.446133l-.0000311.000003c.124099 1.436359-.9396984 2.701361-2.3760579 2.82546-.0747264.006456-.1496963.009688-.224701.009688z" fill="#fff" mask="url(#j)"/></g><path d="m102.232394 102.96c3.339608 0 9.598592-11.2286985 9.598592-25.08s-6.258984-25.08-9.598592-25.08c-3.339607 0-5.6267602 11.2286985-5.6267602 25.08s2.2871532 25.08 5.6267602 25.08z" fill="#f1f6ff"/><rect fill="#becaeb" height="19.14" rx="1.32" width="2.647887" x="97.929578" y="64.02"/><g transform="translate(15.84507 37.377276)"><g opacity=".7"><use fill="#4ea4ff" fill-rule="evenodd" xlink:href="#c"/><use fill="#000" filter="url(#d)" xlink:href="#c"/></g><path d="m-1.32394366 44.22c.18349574-29.04 11.74138746-43.56 34.67367506-43.56 34.3984314 0-2.0685805 19.2371353-17.2962903 21.6955398-11.0212964 1.7793093-16.81375797 9.0674627-17.37738476 21.8644602z" fill="#4b9aee" mask="url(#l)" opacity=".483533"/><path d="m56.3031091-1.98h8.6056338v39.6h-8.6056338zm11.2535212 0h2.6478873v39.6h-2.6478873z" fill="#f1f6ff" mask="url(#l)" opacity=".3" transform="matrix(.93358043 .35836795 -.35836795 .93358043 10.587408 -21.484542)"/></g><path d="m103.225352 52.8 6.619718 4.0794234v42.1205766l-7.215176 3.96z" fill="#f1f6ff"/><ellipse cx="108.852113" cy="77.88" fill="#4b9aee" rx="7.612676" ry="21.12"/><g transform="translate(105.211268 63.36)"><use fill="#f1f6ff" xlink:href="#e"/><ellipse cx="1.323944" cy="14.52" fill="#dae2f7" mask="url(#m)" rx="3.309859" ry="10.56"/></g></g><path d="m87.7513244 131.50803c-.3459738 1.588303-7.9829075 2.857815-15.21314 2.857815-7.2302326 0-14.8671663-1.269512-15.2131401-2.857815-.419199-.467327-.6741839-1.084978-.6741839-1.762185v-2.64h31.7746479v2.64c0 .677207-.2549848 1.294858-.6741839 1.762185z" fill="#fff" transform="matrix(.9781476 .20791169 -.20791169 .9781476 28.766644 -12.224645)"/><path d="m33 135h116c7.731986 0 14 6.268014 14 14s-6.268014 14-14 14h-116c-7.7319865 0-14-6.268014-14-14s6.2680135-14 14-14z" fill="#7284fb" opacity=".1"/><path d="m59.7984366 126.995603 7.8155231 1.251828c2.7851107.446097 4.9107283 2.727977 5.1584681 5.537687.1813652 2.05693-1.339081 3.871428-3.3960114 4.052793-.3067441.027046-.6156546.016094-.9197132-.032608l-7.815523-1.251828c-2.7851108-.446097-4.9107284-2.727977-5.1584681-5.537687-.1813652-2.05693 1.3390809-3.871427 3.3960114-4.052793.306744-.027046.6156546-.016094.9197131.032608z" fill="#4b9aee" transform="matrix(.9961947 .08715574 .08715574 -.9961947 -11.295435 258.707996)"/><path d="m110.798437 118.995603 7.815523 1.251828c2.78511.446097 4.910728 2.727977 5.158468 5.537687.181365 2.05693-1.339081 3.871428-3.396012 4.052793-.306744.027046-.615654.016094-.919713-.032608l-7.815523-1.251828c-2.785111-.446097-4.910728-2.727977-5.158468-5.537687-.181365-2.05693 1.339081-3.871427 3.396011-4.052793.306745-.027046.615655-.016094.919714.032608z" fill="#4b9aee" transform="matrix(.9961947 .08715574 .08715574 -.9961947 -10.404119 238.293496)"/><g transform="translate(67 111)"><use fill="#7284fb" xlink:href="#f"/><circle cx="11.5" cy="44.5" fill="#7bdc7b" mask="url(#n)" r="1.5"/><path d="m38 0v39c0 1.1045695-.8954305 2-2 2h-24c-1.1045695 0-2-.8954305-2-2v-39" fill="#7284fb" mask="url(#n)" stroke="#6373df"/><path d="m31 41-1 1h-14l-1-1 1-1h14zm7-28 1 1v14l-1 1-1-1v-14zm-28 0 1 1v14l-1 1-1-1v-14z" fill="#6373df" mask="url(#n)"/><path d="m20 48h8v1c0 .5522847-.4477153 1-1 1h-6c-.5522847 0-1-.4477153-1-1zm-16 0h8v1c0 .5522847-.4477153 1-1 1h-6c-.55228475 0-1-.4477153-1-1zm32 0h8v1c0 .5522847-.4477153 1-1 1h-6c-.5522847 0-1-.4477153-1-1z" fill="#6373df" mask="url(#n)"/><path d="m4 10v-6c0-.55228475.44771525-1 1-1s1 .44771525 1 1v6c0 .5522847-.44771525 1-1 1s-1-.4477153-1-1zm38 0v-6c0-.55228475.4477153-1 1-1s1 .44771525 1 1v6c0 .5522847-.4477153 1-1 1s-1-.4477153-1-1zm-38 16v-6c0-.5522847.44771525-1 1-1s1 .4477153 1 1v6c0 .5522847-.44771525 1-1 1s-1-.4477153-1-1zm38 0v-6c0-.5522847.4477153-1 1-1s1 .4477153 1 1v6c0 .5522847-.4477153 1-1 1s-1-.4477153-1-1zm-38 16v-6c0-.5522847.44771525-1 1-1s1 .4477153 1 1v6c0 .5522847-.44771525 1-1 1s-1-.4477153-1-1zm38 0v-6c0-.5522847.4477153-1 1-1s1 .4477153 1 1v6c0 .5522847-.4477153 1-1 1s-1-.4477153-1-1z" fill="#4f5ebf" mask="url(#n)"/><g mask="url(#n)"><g fill-rule="evenodd" transform="translate(11 13)"><use fill="#ff9481" xlink:href="#g"/><g fill="#fff"><rect height="2.166667" mask="url(#o)" rx="1.083333" transform="matrix(.70710678 -.70710678 .70710678 .70710678 -5.870584 12.85605)" width="15.166667" x="5" y="12.431113"/><rect height="2.166667" mask="url(#o)" rx="1.083333" transform="matrix(-.70710678 -.70710678 -.70710678 .70710678 31.03725 12.85605)" width="15.166667" x="5" y="12.431113"/></g></g></g><g fill="#4f5ebf"><path d="m-13.7108998 35.795273-2.7581974-7.2427382c-2.0107107-5.2799165.6395042-11.1901377 5.9194207-13.2008485.1394715-.0531138.2800886-.1031693.4217503-.1501303 5.87833982-1.9486761 12.31003958.5758828 15.29328837 6.0028934l1.12069545 2.0387258c3.42016262 6.2218272 1.35715904 14.0327533-4.68922397 17.7542986-4.93573854 3.0379443-11.39968563 1.499478-14.43762995-3.4362605-.3447298-.5600815-.6360458-1.1513292-.8701035-1.7659403z" mask="url(#n)" opacity=".424223" transform="matrix(-.93358043 .35836795 -.35836795 -.93358043 1.330959 56.857079)"/><path d="m41.0343718 28.9776849-2.5124341-6.4839682c-1.9041205-4.9140622.5359193-10.4412913 5.4499814-12.3454119.1622842-.0628825.3262584-.1213135.4917386-.17522725 5.5692818-1.81448307 11.6443119.56232985 14.5036138 5.67443705l.9524828 1.7029312c3.2450226 5.8017322 1.3077202 13.1314431-4.3801516 16.5721383-4.7271166 2.8595172-10.8772984 1.3455288-13.7368157-3.3815877-.301109-.4977685-.558222-1.0208551-.7684152-1.5633115z" mask="url(#n)" opacity=".424223" transform="matrix(-.93358043 .35836795 -.35836795 -.93358043 104.081686 25.44611)"/></g></g><g transform="matrix(0 1 1 0 53 128)"><use fill="#408bdc" xlink:href="#h"/><path d="m1.76039524 14.8384661-2.21161661-5.62128957c-1.7370596-4.41510297.43392349-9.40241612 4.84902645-11.13947572.17146442-.06746025.34505483-.12938655.52050186-.18568283 5.08262736-1.63087964 10.61240266.52604797 13.24841026 5.16763527l.7968138 1.40306139c2.9566205 5.20613519 1.207582 11.82078996-3.9359007 14.88510636l-.0267472.0159351c-4.3553736 2.5947871-9.98959198 1.1675498-12.58437907-3.1878237-.25457719-.4273101-.4740025-.8746048-.65610879-1.3374663z" fill="#408bdc" mask="url(#p)"/><g fill="#4b9aee"><path d="m1.12684793 17.8698695-2.49916972-11.24744453c-.73153618-3.29225842.77060331-6.6765063 3.70292698-8.34251607 2.2136215-1.25767666 5.02766467-.48273026 6.28534133 1.73089125.15673842.27587339.28457625.56719174.38148038.86932194l1.9549748 6.09527106c1.4373984 4.48155765.3182498 9.39027975-2.91964281 12.80590925-1.54174859 1.6263794-4.11002379 1.6949862-5.73640322.1532377-.586855-.5563173-.99410812-1.2752894-1.16950774-2.0646706z" mask="url(#p)"/><path d="m-19.3814401-13.7070809c6.2846603 1.9633889 12.240973 2.7754229 17.86893802 2.4361021 5.62796503-.3393207 11.3256379-1.8539958 17.09301868-4.5440252l-.4646041 7.23820246c-6.91135904 2.80724401-12.38260775 4.33238853-16.41374608 4.57543356-4.03113834.24304503-10.21387522-.57945845-18.54821052-2.46751043z" mask="url(#p)" transform="matrix(.7193398 -.69465837 .69465837 .7193398 6.269781 -4.256541)"/></g></g><g transform="matrix(0 1 -1 0 128 119)"><use fill="#408bdc" xlink:href="#i"/><path d="m1.76039524 14.8384661-2.21161661-5.62128957c-1.7370596-4.41510297.43392349-9.40241612 4.84902645-11.13947572.17146442-.06746025.34505483-.12938655.52050186-.18568283 5.08262736-1.63087964 10.61240266.52604797 13.24841026 5.16763527l.7968138 1.40306139c2.9566205 5.20613519 1.207582 11.82078996-3.9359007 14.88510636l-.0267472.0159351c-4.3553736 2.5947871-9.98959198 1.1675498-12.58437907-3.1878237-.25457719-.4273101-.4740025-.8746048-.65610879-1.3374663z" fill="#408bdc" mask="url(#q)"/><g fill="#4b9aee"><path d="m1.12684793 17.8698695-2.49916972-11.24744453c-.73153618-3.29225842.77060331-6.6765063 3.70292698-8.34251607 2.2136215-1.25767666 5.02766467-.48273026 6.28534133 1.73089125.15673842.27587339.28457625.56719174.38148038.86932194l1.9549748 6.09527106c1.4373984 4.48155765.3182498 9.39027975-2.91964281 12.80590925-1.54174859 1.6263794-4.11002379 1.6949862-5.73640322.1532377-.586855-.5563173-.99410812-1.2752894-1.16950774-2.0646706z" mask="url(#q)"/><path d="m-19.3814401-13.7070809c6.2846603 1.9633889 12.240973 2.7754229 17.86893802 2.4361021 5.62796503-.3393207 11.3256379-1.8539958 17.09301868-4.5440252l-.4646041 7.23820246c-6.91135904 2.80724401-12.38260775 4.33238853-16.41374608 4.57543356-4.03113834.24304503-10.21387522-.57945845-18.54821052-2.46751043z" mask="url(#q)" transform="matrix(.7193398 -.69465837 .69465837 .7193398 6.269781 -4.256541)"/></g></g></g></svg>