<svg height="120" viewBox="0 0 120 120" width="120" xmlns="http://www.w3.org/2000/svg" xmlns:xlink="http://www.w3.org/1999/xlink"><defs><ellipse id="a" cx="42" cy="42.105263" rx="42" ry="42.105263"/><filter id="b" height="140.4%" width="140.5%" x="-20.2%" y="-19%"><feOffset dx="0" dy="1" in="SourceAlpha" result="shadowOffsetOuter1"/><feGaussianBlur in="shadowOffsetOuter1" result="shadowBlurOuter1" stdDeviation="5.5"/><feColorMatrix in="shadowBlurOuter1" type="matrix" values="0 0 0 0 0.133333333   0 0 0 0 0.192156863   0 0 0 0 0.411764706  0 0 0 0.1 0"/></filter><mask id="c" fill="#fff"><use fill="#fff" fill-rule="evenodd" xlink:href="#a"/></mask></defs><g fill="none" fill-rule="evenodd"><g transform="translate(17.5 17.438596)"><g opacity=".977702"><use fill="#000" filter="url(#b)" xlink:href="#a"/><use fill="#fff" fill-rule="evenodd" xlink:href="#a"/></g><path d="m28.7 17.5438596h26.6c1.9329966 0 3.5 1.5670034 3.5 3.5v42.1228071c0 1.9329966-1.5670034 3.5-3.5 3.5h-26.6c-1.9329966 0-3.5-1.5670034-3.5-3.5v-42.1228071c0-1.9329966 1.5670034-3.5 3.5-3.5z" fill="#676c86" mask="url(#c)"/><path d="m25.2 56.1403509h33.6v7.0263158c0 1.9329966-1.5670034 3.5-3.5 3.5h-26.6c-1.9329966 0-3.5-1.5670034-3.5-3.5z" fill="#4d516a" mask="url(#c)"/><g fill="#000" fill-rule="nonzero" mask="url(#c)"><path d="m67.3003941 58.2008214-25.9967745-16.1109749 25.9967745-16.1109749c1.0879802-.6740186 1.7502377-1.8647536 1.7502377-3.1469169 0-1.2821632-.6622575-2.4728982-1.7502377-3.1469168l-30.8033208-19.08980122c-.0216985-.01318356-.0447121-.0237304-.0664106-.03625487-.0691999-.0409569-.139586-.07986523-.2110672-.11667455l-.1196705-.05800764c-.3418579-.15755847-.7057278-.26181362-1.0790072-.30915464-.1238517-.01648012-.2485547-.02572422-.3734772-.02768546-.0309039-.00065918-.0604927-.00461424-.0913967-.00461424-.0223561 0-.0447121.00329588-.0670681.00329588-.0671565.00154254-.1342535.00505967-.2012043.01054685-.058192.00368773-.1162898.00874281-.1742455.01516109-.05589.00659177-.1111226.01647944-.1670127.02570802-.0660606.01059108-.1318358.02289988-.197259.03691395-.0466847.01054685-.0927118.0237304-.1393964.03625478-.0698443.01790148-.1391356.03790562-.2077796.05998526-.0447121.01450191-.0881091.03229971-.1321636.04811998-.0664106.02504875-.1328211.04943833-.1972591.07778306-.0493148.02175287-.096657.04614245-.1446567.06987284-.0565476.02768547-.1130952.05471176-.1676702.0856932-.0565475.03164053-.1111226.06657704-.1656977.10085429-.0433969.02768546-.0874515.05405257-.130191.08305639-.0598352.0415282-.1170404.08635238-.174903.13117655-.0355066.02768547-.0716708.05471176-.1058624.08371558-.0554815.0474686-.1094268.09671266-.1617524.1476559-.0348491.03295889-.0696982.06525869-.1032323.09953593-.0466846.0474608-.0907392.09821757-.1347937.14831508-.0374792.04284656-.0749584.08503402-.110465.12985811-.0361642.04548326-.0703558.09228497-.1045474.13974586-.0394518.05471175-.0782461.11008278-.1150678.16743124-.0118355.01911615-.0256436.0355956-.0374792.05471175-.0157807.02570793-.0282738.05273422-.0433969.07910142-.0625745.10798059-.1200621.21884438-.172273.33222585-.0772387.16710517-.1410038.34014329-.1906838.51745489-.0320152.11366527-.0590003.2286944-.0808762.34475023-.0134247.07324766-.024608.14689041-.033534.22082464-.0052603.04482408-.0105205.08964826-.0144657.13513153-.0065753.07976059-.0105205.1595211-.0118355.23994088-.0006576.02570793-.0039452.0500975-.0039452.07580553v31.54365536l-25.17157407-15.6014301c-1.12159183-.6950833-2.52788089-.7375049-3.68913168-.1112851s-1.90104169 1.8259433-1.94070062 3.1472464.62683925 2.5634483 1.74843111 3.2585315l25.99545946 16.1103158-25.99545946 16.1103157c-1.73383066 1.0745057-2.27049687 3.3546347-1.19867756 5.0928108 1.0718193 1.7381762 3.34624799 2.2761876 5.08007875 1.2016821l25.17223157-15.6001119v31.5429963c0 .025708.0032877.0500975.0039452.0758055.0045713.2511962.0349786.5012495.0907391.7461897.042077.1802244.0965634.3573085.1630676.5299793.0444505.1109252.093367.2199989.1466292.3269524.032219.0639404.0670681.1259031.1025748.1872067.0151231.0263671.0276162.0533934.0433969.0791013.0092054.0151611.021041.0283447.0309039.0428467.0710133.1114011.1466293.2195063.2294781.322338l.0309039.0415283c.0874516.1067869.1827934.2063229.281423.3025628.0381368.0375731.0782462.0718505.1176979.1074461.0677257.0606443.1374239.1179929.2097521.1733638.042082.0322997.0835064.0645995.1262459.0949217.099287.0698729.2012043.1344723.3070666.1937984.0144657.0079102.0276163.0177978.0427395.025708.1236157.0672362.2518341.125903.3833401.1792964.0328765.0131835.0657531.0243896.0986296.0362548.1401882.0521911.2833432.0959936.4287097.1311765.1012597.0243896.2044919.0435058.3096968.0586668.0401093.0059326.0802187.0138428.120328.018457.1275609.0145019.2564368.0230712.3872854.0243896.0131505 0 .0263011.0026367.0394517.0026367.0157808 0 .0315615-.0032959.0466847-.0032959.1328212-.0019775.2643272-.011206.3938607-.0270263.0479996-.0059326.0959994-.0145019.1439991-.0217528.1097027-.0175518.2185319-.0402081.326135-.0678954.0394518-.0105469.0795612-.0191162.119013-.0309814.1479443-.0428465.2919434-.0942625.4313398-.1542477l.0440545-.0210937c.1328211-.0599851.2610395-.1285397.3853128-.2030269.0151231-.0092285.0315614-.0151611.0466847-.0243896l30.8033208-19.0904604c1.0879802-.6740185 1.7502377-1.8647536 1.7502377-3.1469169 0-1.2821632-.6622575-2.4728983-1.7502377-3.1469168zm-29.0529752-47.8207433 20.0934677 12.453195-20.0934677 12.4525358zm0 63.4201959v-24.9050716l20.0934677 12.4525358z" transform="translate(-35.7 -69.473684)"/></g><g stroke="#8c90a8" stroke-linecap="round" stroke-width="2.24"><g mask="url(#c)"><g transform="matrix(0 1 -1 0 79.123684 33.00614)"><path d="m15.8200052 15.9074848c.0089037-7.12234169-5.7576687-12.88891411-12.88001036-12.88001036" transform="matrix(.70710678 -.70710678 .70710678 .70710678 -3.947181 9.405622)"/><path d="m14.9237172 13.0402369c-3.0617105-3.06938386-8.02572392-3.06938386-11.08743436 0"/></g></g><g mask="url(#c)"><g transform="matrix(0 1 1 0 4.876316 33.00614)"><path d="m15.8200052 15.9074848c.0089037-7.12234169-5.7576687-12.88891411-12.88001036-12.88001036" transform="matrix(.70710678 -.70710678 .70710678 .70710678 -3.947181 9.405622)"/><path d="m14.9237172 13.0402369c-3.0617105-3.06938386-8.02572392-3.06938386-11.08743436 0"/></g></g></g></g><path d="m14.3223928 12.1251711-5.53244925-3.35645308 5.53244925-3.35645311c.2315363-.14042053.3724732-.38849033.3724732-.65560767s-.1409369-.51518714-.3724732-.65560767l-6.55534437-3.97704193c-.00461772-.00274657-.00951529-.00494383-.01413303-.0075531-.01472663-.00853268-.02970571-.01663859-.04491782-.02430719l-.02546743-.01208493c-.07275177-.03282468-.15018798-.0545445-.22962666-.06440721-.02635723-.00343336-.05289564-.00535922-.07948077-.00576781-.00657675-.00013733-.01287364-.0009613-.01945041-.0009613-.00475765 0-.00951529.00068664-.01427294.00068664-.01429178.00032136-.02857088.0010541-.04281888.00219726-.01238401.00076828-.02474797.00182142-.03708168.00315856-.01189413.00137329-.02364833.00343322-.03554247.00535584-.01405855.00220648-.02805636.00477081-.04197927.00769041-.00993509.00219726-.01973027.00494383-.02966536.00755308-.01486376.00372947-.02960983.007897-.04421818.01249693-.0095153.00302123-.01875075.0067291-.02812612.01002499-.01413303.00521849-.02826604.01029965-.04197928.01620481-.01049482.00453184-.02056985.009613-.03078481.01455684-.01203405.0057678-.02406812.01139828-.03568238.01785275-.01203405.00659177-.02364833.01387021-.0352626.02101131-.00923544.0057678-.01861082.01126095-.02770633.01730341-.0127337.00865171-.0249077.01799008-.03722162.02732845-.00755626.00576781-.01525248.01139828-.02252888.01744074-.01180719.0098893-.02328745.02014848-.034423.03076165-.00741634.00686644-.01483269.01359556-.02196916.02073665-.00993509.00988767-.01931048.020462-.02868584.03089898-.00797606.00892636-.01595214.01771542-.0235084.02705377-.0076962.00947568-.01497262.01922604-.02224902.02911372-.00839585.01139828-.01665179.02293391-.02448792.03488151-.00251875.00398253-.0054573.00741575-.00797606.01139828-.00335834.00535582-.00601702.0109863-.00923543.01647946-.01331666.02249596-.02555075.04559258-.03666192.06921372-.01643739.03481358-.03000742.07086319-.04057996.10780311-.00681326.02368026-.01255604.04764466-.01721151.07182296-.00285695.01525993-.00523689.03060217-.00713647.04600513-.00111945.00933835-.00223889.01867672-.00307848.0281524-.00139931.0166168-.00223889.03323357-.00251875.04998769-.00013993.00535582-.00083959.01043698-.00083959.01579282v6.57159487l-5.35683597-3.25029794c-.23868922-.14480902-.53796569-.15364686-.78509485-.02318441-.24712916.13046246-.40456622.38040487-.41300615.65567634-.00843993.27527148.13339948.53405173.37208871.67886073l5.53216942 3.35631579-5.53216942 3.35631575c-.36898155.2238554-.48319105.6988823-.25509406 1.0610023s.71212478.4742057 1.08110635.2503504l5.3569759-3.2500233v6.5714576c0 .0053558.00069966.010437.00083959.0157928.00097283.0523325.0074439.104427.01931045.1554562.00895452.0375467.02054993.0744392.03470289.1104123.00945963.0231094.01986971.0458331.03120459.0681151.00685661.0133209.01427296.0262298.02182923.0390014.00321841.0054931.00587709.0111236.00923543.0164794.00195904.0031586.00447779.0059052.00657675.0089264.01511255.0232086.0312046.0457305.0488359.0671538l.00657675.0086517c.01861082.0222473.03890079.0429839.05989045.0630339.00811599.0078278.01665179.0149689.02504764.0223846.0144129.0126343.02924556.0245819.04463796.0361175.00895557.0067291.01777123.0134582.02686673.0197753.02112958.0145569.04281888.0280151.06534776.0403747.00307848.001648.0058771.0037079.0090955.0053558.02630702.0140076.05359355.0262298.08157974.0373535.00699654.0027465.0139931.0050811.02098964.007553.02983387.0108732.0602991.0199987.09123496.0273285.02154937.0050811.04351853.0090637.06590748.0122222.00853578.001236.01707158.0028839.02560736.0038452.0271466.0030213.05457306.0048065.08241932.0050812.00279861 0 .00559723.0005493.00839585.0005493.00335834 0 .00671668-.0006866.00993511-.0006866.02826604-.000412.05625223-.0023346.08381862-.0056305.01021495-.001236.02042992-.0030212.03064487-.0045318.02334615-.0036567.04650641-.0083767.06940575-.0141449.00839585-.0021973.01693165-.0039826.0253275-.0064545.03148446-.0089263.06212933-.019638.09179468-.0321349l.00937537-.0043945c.02826605-.0124969.05555258-.0267791.08199952-.0422973.00321841-.0019226.00671668-.0031586.00993511-.0050812l6.55534437-3.9771792c.2315363-.1404205.3724732-.3884904.3724732-.6556077s-.1409369-.5151871-.3724732-.6556077zm-6.18284823-9.96265482 4.27614933 2.59441562-4.27614933 2.59427828zm0 13.21254082v-5.1885566l4.27614933 2.5942783z" fill="#72b1fb" fill-rule="nonzero" transform="translate(51.8 46.912281)"/></g></svg>