<svg height="200" viewBox="0 0 200 200" width="200" xmlns="http://www.w3.org/2000/svg" xmlns:xlink="http://www.w3.org/1999/xlink"><linearGradient id="a" x1="50%" x2="50%" y1="100%" y2="0%"><stop offset="0" stop-color="#f7f9ff" stop-opacity="0"/><stop offset="1" stop-color="#edf1ff"/></linearGradient><linearGradient id="b" x1="47.04945%" x2="71.764811%" y1="63.599933%" y2="-9.205521%"><stop offset="0" stop-color="#a9a9b6"/><stop offset="1" stop-color="#ecf0f9"/></linearGradient><linearGradient id="c" x1="-47.019012%" x2="68.868847%" y1="-185.963888%" y2="100%"><stop offset="0" stop-color="#d2d2d2"/><stop offset="1" stop-color="#d2d2d2" stop-opacity="0"/></linearGradient><linearGradient id="d" x1="50.005%" x2="50.005%" y1=".00225%" y2="81.798623%"><stop offset="0" stop-color="#a9a9b6"/><stop offset="1" stop-color="#b6c9dd"/></linearGradient><linearGradient id="e"><stop offset="0" stop-color="#bebec8"/><stop offset="1" stop-color="#d4d4da"/></linearGradient><linearGradient id="f" x1="85.167026%" x2="-.240736%" xlink:href="#e" y1="74.338741%" y2="15.231715%"/><linearGradient id="g" x1="50.076176%" x2="49.610504%" y1="1.218912%" y2="91.401889%"><stop offset="0" stop-color="#f4f4f6"/><stop offset="1" stop-color="#d4d4da"/></linearGradient><linearGradient id="h" x1="74.749034%" x2="14.645194%" xlink:href="#e" y1="74.748054%" y2="14.644175%"/><linearGradient id="i" x1="85.354769%" x2="15.468644%" y1="85.358815%" y2="15.47269%"><stop offset="0" stop-color="#d4d4da"/><stop offset="1" stop-color="#e9e9ec"/></linearGradient><linearGradient id="j" x1="50.001898%" x2="50.001898%" y1="100.010232%" y2=".006573%"><stop offset="0" stop-color="#fad96e"/><stop offset="1" stop-color="#ffb32c"/></linearGradient><linearGradient id="k" x1="50.00165%" x2="50.00165%" y1=".015437%" y2="100.028313%"><stop offset="0" stop-color="#f4ae98"/><stop offset="1" stop-color="#fad1bb"/></linearGradient><linearGradient id="l"><stop offset="0" stop-color="#fad96e"/><stop offset="1" stop-color="#ffa91f"/></linearGradient><linearGradient id="m" x1="49.966817%" x2="49.970484%" xlink:href="#l" y1="100.000747%" y2="-.000894%"/><linearGradient id="n" x1="50.018183%" x2="50.014746%" xlink:href="#l" y1="100.003077%" y2=".001452%"/><linearGradient id="o" x1="50.001578%" x2="50.001578%" y1="-.005963%" y2="99.99523%"><stop offset="0" stop-color="#275c89"/><stop offset="1" stop-color="#013f7c"/></linearGradient><linearGradient id="p"><stop offset="0" stop-color="#f4b9a4"/><stop offset=".652" stop-color="#fad1bb"/></linearGradient><linearGradient id="q" x1="99.992172%" x2=".024653%" xlink:href="#p" y1="49.959284%" y2="49.959284%"/><linearGradient id="r" x1=".00283%" x2="100.004778%" y1="49.991855%" y2="49.991855%"><stop offset="0" stop-color="#18264b"/><stop offset=".652" stop-color="#2d3c65"/></linearGradient><linearGradient id="s"><stop offset="0" stop-color="#4673bc"/><stop offset=".652" stop-color="#6a94e0"/></linearGradient><linearGradient id="t" x1="50.018701%" x2="50.018701%" xlink:href="#s" y1="100.00172%" y2=".025877%"/><linearGradient id="u" x1=".002216%" x2="99.969735%" xlink:href="#p" y1="49.959284%" y2="49.959284%"/><linearGradient id="v" x1="-.005867%" x2="99.996082%" y1="49.991855%" y2="49.991855%"><stop offset="0" stop-color="#445677"/><stop offset="1" stop-color="#293861"/></linearGradient><linearGradient id="w" x1="49.978575%" x2="49.978575%" xlink:href="#s" y1="100.00172%" y2=".025877%"/><linearGradient id="x" x1="99.990772%" x2="-.021862%" xlink:href="#p" y1="49.962459%" y2="49.962459%"/><linearGradient id="y" x1=".007053%" x2="100.007043%" y1="49.985635%" y2="49.985635%"><stop offset="0" stop-color="#4f5c7c"/><stop offset="1" stop-color="#274168"/></linearGradient><g fill="none" fill-rule="evenodd"><g transform="translate(10 24)"><path d="m111.019355 21.2102886c-9.686676 7.6435953-30.4813466 8.5318573-45.7371671-.5602107-15.2558204-9.0920679-43.4221598-7.9186536-51.0513324 8.7993453-7.62917247 16.7179989 9.3887798 33.1407516 3.2263675 45.1650935-6.1624123 12.0243418-26.69957924 29.0325403-12.61514726 49.5609813 14.08443196 20.528441 31.96072926 15.297284 42.72033656 13.235608 21.2490884-4.07036 47.913324 29.188995 77.9124827 4.070359 17.285554-14.472109 43.028331 10.621292 53.058345-20.530964 8.275456-25.7040811-21.62777-35.2024279-12.615147-52.4957783 9.583169-18.3910606 7.742777-40.1837607-2.640674-50.7369187-9.671528-9.83144509-35.532959-9.70527152-52.258064 3.4924846z" fill="url(#a)"/><path d="m77.5464236 107.77798c1.1713885-3.010502 16.0586255-39.9616956 16.0586255-39.9616956h65.9057499l-13.327068 48.1730716z" fill="url(#b)"/><g transform="translate(10.603086 72.267688)"><path d="m7.66704067.19430731s-.05553997-.14383788-.13127629.01009388c-.68162693 1.38538588-6.85413745 16.39247111-7.34389902 27.97520541 0 0-1.03001403 6.6543945 7.60140252 6.5660729 7.20504912-.0731806 7.01318372-6.2077399 6.98793832-8.2744631-.0959327-8.3829724-7.11416553-26.27690909-7.11416553-26.27690909z" fill="url(#c)"/><path d="m7.47012623 42.1167399c-.13884993 0-.25245442-.1135562-.25245442-.2523472v-37.63505441c0-.13879093.11360449-.25234715.25245442-.25234715s.25245442.11355622.25245442.25234715v37.63505441c0 .138791-.11360449.2523472-.25245442.2523472z" fill="url(#d)" opacity=".379139"/></g><g transform="translate(139.859748 61.416761)"><path d="m4.85217391.2573941s-.03534362-.09336845-.08330995.00757041c-.43927069.89078545-4.41290323 10.55568139-4.72847125 18.01253979 0 0-.66395512 4.2848547 4.89509116 4.2293383 4.6401122-.0454225 4.51640954-3.9971789 4.49873773-5.3270484-.06311361-5.4027526-4.58204769-16.9224001-4.58204769-16.9224001z" fill="url(#c)"/><path d="m4.7259467 27.2484456c-.09088359 0-.16157082-.0731807-.16157082-.1615022v-24.23037362c0-.09084498.07321178-.16150218.16157082-.16150218.08835905 0 .16157083.07318067.16157083.16150218v24.23037362c0 .0883215-.07321178.1615022-.16157083.1615022z" fill="url(#d)" opacity=".379139"/></g><g transform="translate(154.502104 99.268834)"><ellipse cx="4.400281" cy="4.433739" fill="url(#c)" rx="4.334642" ry="4.332801"/><path d="m4.41542777 15.1408292c-.07321178 0-.13380084-.0605633-.13380084-.133744v-13.67973917c0-.07318068.06058906-.13374399.13380084-.13374399s.13380084.06056331.13380084.13374399v13.67973917c0 .0731807-.06058906.133744-.13380084.133744z" fill="url(#d)" opacity=".379139"/></g><path d="m106.290884 4.79762975h-8.7273496c-.5629734-2.6774033-2.941094-4.68861011-5.7887798-4.68861011-2.8476859 0-5.2232819 2.01120681-5.7887798 4.68861011h-2.2847125c-2.7088359 0-4.9077139 2.19542023-4.9077139 4.90562866 0 2.70768499 2.1963534 4.90562869 4.9077139 4.90562869h22.5870967c2.708836 0 4.907714-2.1954203 4.907714-4.90562869.002524-2.71020843-2.193829-4.90562866-4.905189-4.90562866z" fill="url(#c)"/></g><g transform="translate(44.333801 59.172657)"><path d="m88.7680224 89.0255522h-70.8058906c-9.88863951 0-17.90659183-8.0120221-17.90659183-17.8989836v-53.1115053c0-9.88443802 8.01542777-17.89898361 17.90659183-17.89898361h70.8058906c9.8886396 0 17.9065916 8.01202212 17.9065916 17.89898361v53.1115053c-.002524 9.884438-8.017952 17.8989836-17.9065916 17.8989836z" fill="url(#f)"/><path d="m88.2075736 89.0255522h-72.0934081c-8.8687237 0-16.05862553-7.1868469-16.05862553-16.0518024v-54.7997078c0-8.86495551 7.18990183-16.05180244 16.05862553-16.05180244h72.0934081c8.8687237 0 16.0586254 7.18684693 16.0586254 16.05180244v54.7997078c0 8.8649555-7.1899017 16.0518024-16.0586254 16.0518024z" fill="url(#g)"/><g fill="#a9a9b6"><path d="m52.4347826 27.9499707h-27.2802244c-2.2241234 0-4.026648-2.0011129-4.026648-4.4715916 0-2.4704786 1.8025246-4.4715915 4.026648-4.4715915h27.2802244c2.2241234 0 4.026648 2.0011129 4.026648 4.4715915.0025245 2.4679552-1.8025246 4.4715916-4.026648 4.4715916z"/><path d="m52.4347826 45.119671h-27.2802244c-2.2241234 0-4.026648-2.0011129-4.026648-4.4715915 0-2.4704787 1.8025246-4.4715916 4.026648-4.4715916h27.2802244c2.2241234 0 4.026648 2.0011129 4.026648 4.4715916 0 2.4704786-1.8025246 4.4715915-4.026648 4.4715915z"/><path d="m40.8698457 62.3373173h-15.7152875c-2.2241234 0-4.026648-2.0011129-4.026648-4.4715916 0-2.4704786 1.8025246-4.4715915 4.026648-4.4715915h15.7152875c2.2241234 0 4.026648 2.0011129 4.026648 4.4715915.0025245 2.4679552-1.8025246 4.4715916-4.026648 4.4715916z"/></g><path d="m51.5208976 27.9499707h-26.484993c-2.1584852 0-3.9105189-1.7487658-3.9105189-3.9088574 0-2.1575682 1.7495091-3.9088574 3.9105189-3.9088574h26.484993c2.1584853 0 3.9105189 1.7487658 3.9105189 3.9088574 0 2.1575682-1.7495091 3.9088574-3.9105189 3.9088574z" fill="#fff"/><path d="m51.5208976 45.1322884h-26.484993c-2.1584852 0-3.9105189-1.7487658-3.9105189-3.9088574 0-2.1600917 1.7495091-3.9088574 3.9105189-3.9088574h26.484993c2.1584853 0 3.9105189 1.7487657 3.9105189 3.9088574 0 2.1600916-1.7495091 3.9088574-3.9105189 3.9088574z" fill="#fff"/><path d="m40.198317 62.3146061h-15.1624124c-2.1584852 0-3.9105189-1.7487658-3.9105189-3.9088575 0-2.1600916 1.7495091-3.9088574 3.9105189-3.9088574h15.1624124c2.1584852 0 3.9105189 1.7487658 3.9105189 3.9088574 0 2.1600917-1.7520337 3.9088575-3.9105189 3.9088575z" fill="#fff"/><ellipse cx="87.707714" cy="68.010081" fill="url(#h)" rx="27.237307" ry="27.225734"/><ellipse cx="86.508555" cy="68.282616" fill="url(#i)" rx="26.204769" ry="26.193635"/><ellipse cx="77.34446" cy="61.297647" fill="#f7f8f8" rx="3.847405" ry="3.845771"/><ellipse cx="96.245722" cy="61.297647" fill="#f7f8f8" rx="3.847405" ry="3.845771"/><path d="m77.9781206 82.6033172c-.2978962 0-.598317-.0504694-.8936886-.1564553-1.3784011-.4946004-2.0953717-2.0112068-1.600561-3.3890222 1.3531556-3.7776369 5.8190743-6.962258 10.3884993-7.406389 2.8401122-.2775818 8.1971949.2599176 12.1884993 6.9445937.7497896 1.2566888.3382889 2.884328-.9189341 3.633799s-2.8830295.3381452-3.6353436-.9185436c-1.8732118-3.1391986-4.3371669-4.6532815-7.1217392-4.3832701-2.7517531.267488-5.3242636 2.2812183-5.9099579 3.9214748-.3887798 1.0800458-1.4086956 1.7538127-2.4967742 1.7538127z" fill="#f7f8f8"/></g><g transform="translate(114.263675 59.172657)"><path d="m14.516129 12.3650105s-4.84964934-.6712434-6.4249649 1.556982c-1.57531557 2.2282253-2.15091165 7.9287475-2.15091165 7.9287475l3.65049089-.1917838-.30799439 6.6417771 6.73548385 3.9467094 9.5932679-5.1579758-1.4591865-6.0184796 3.0647966-.7999405s-.913885-8.7337349-5.1778401-7.444241c-2.1887798.2346829-2.8805049.1943073-2.8805049.1943073s-.5755961 1.8370873-2.5548387 1.6806321c-1.9792427-.1539318-2.0877981-2.3367347-2.0877981-2.3367347z" fill="url(#j)"/><path d="m15.0008415 9.61947349-1.0072931 4.49177931c-.0479664.2119716.0631136.4264667.2625526.5072178.5200561.2119716 1.5626928.572828 2.6356241.572828 1.1107994 0 2.1610098-.6081566 2.6431978-.9336844.1666199-.1110328.2347826-.3204809.171669-.5097413l-1.539972-4.58262429c-.0706872-.20944814-.2827489-.33309824-.4998597-.29524617l-2.309958.40880239c-.176718.03280513-.315568.16654912-.3559607.34066866z" fill="url(#k)"/><path d="m8.97980365 13.1447632c1.41122015-.4693657 3.32482465-.1539317 3.40308555 3.0105016s-3.02440393 8.2088529-1.9136045 9.9626656c1.1259467 1.7790474 3.5343619 4.3025189 5.0642356 5.7408977-.3559607 1.6907259-1.317812 3.1114404-1.317812 3.1114404s-5.64488081-2.6042226-8.10378684-5.2109687-1.2168303-8.5873736-.07826087-12.8419466c.85834502-3.2098558 2.94614306-3.77259 2.94614306-3.77259z" fill="url(#m)"/><path d="m23.7736325 13.1447632c-1.4112202-.4693657-3.3248246-.1539317-3.4030855 3.0105016s3.0244039 8.2088529 1.9136045 9.9626656c-1.1259467 1.7790474-3.5343619 4.3025189-5.0642357 5.7408977.3559608 1.6907259 1.3178121 3.1114404 1.3178121 3.1114404s5.6448808-2.6042226 8.1037868-5.2109687c2.4589061-2.6067461 1.2168303-8.5873736.0782609-12.8419466-.8608696-3.2098558-2.9461431-3.77259-2.9461431-3.77259z" fill="url(#n)"/><path d="m9.66395512 37.7309464h13.70575038c.6210378 0 1.1764376-.4693657 1.3910238-1.1784612l2.7618513-9.0844976c.3584853-1.1784612-.3584852-2.4326265-1.3910238-2.4326265h-19.10575035c-1.02244039 0-1.73941094 1.2314541-1.39859747 2.4073918l2.63814866 9.0844976c.21206171.7217128.76998598 1.2036959 1.39859748 1.2036959z" fill="url(#o)"/><g transform="translate(0 31.543394)"><path d="m9.11865358 10.3638976s-.21206171-.46684224-.37363254-.51731168c-.16409537-.05046943-2.50687237-.14383787-3.36269285-.36590337-.85582048-.22206549-3.3197756-.57282804-4.37755961.42646669-.91893408.87059766-1.22440392 2.90451576.1767181 4.07540656.52510519.4567483 1.04263674.5904923 2.9890603.4996473 1.94642357-.0908449 4.76886396-.0706572 5.38737728-.9715365-.02019635-1.4888482-.43927068-3.146769-.43927068-3.146769z" fill="#fff"/><path d="m11.2922861 9.8491094s-2.26199157.5072178-3.07237025.4340371c-.80785414-.0757041-.1312763 3.1846211-.1312763 3.1846211s2.16100985.1488848 4.07208975-.4037555c.6462833-2.4982368-.8684432-3.2149027-.8684432-3.2149027z" fill="url(#q)"/><path d="m10.4819074 9.73050623 1.1764376 3.65651027s25.2782609-3.328459 21.6656382-11.52721798c-3.0193549-6.85627216-22.8420758 7.87070771-22.8420758 7.87070771z" fill="url(#r)"/><path d="m8.82328191 10.013135s.92650771.3633799 1.04263674 1.6528739c.11865358 1.2920174-.26507714 2.1575682-2.2342216 2.397298s-2.4690042.1488848-3.70350631.1791664c-1.2345021.0302817-3.02692847.1488849-3.29200561-2.1979437-.26507714-2.3468285 2.13576438-2.94489125 4.62496494-2.3468285.78513324.1514083 3.56213184.3154339 3.56213184.3154339z" fill="url(#t)"/></g><g transform="translate(.252454 31.543394)"><path d="m24.6395512 10.3638976s.2120617-.46684224.3736325-.51731168c.1640954-.05046943 2.5068724-.14383787 3.3626929-.36590337.8558205-.22206549 3.1531557-.59049234 4.314446.3987085 1.0754558.91854365 1.146143 2.94993825-.0782609 4.07035955-.5251052.4567484-1.0779804.6232975-3.0244039.5324525-1.9464236-.0908449-4.768864-.0706572-5.3873773-.9715365.0201964-1.4888482.4392707-3.146769.4392707-3.146769z" fill="#fff"/><path d="m22.4659187 9.8491094s2.2619915.5072178 3.0723702.4340371c.8078542-.0757041.1312763 3.1846211.1312763 3.1846211s-2.1610098.1488848-4.0720897-.4037555c-.6462834-2.4982368.8684432-3.2149027.8684432-3.2149027z" fill="url(#u)"/><path d="m23.2762973 9.73050623-1.1764376 3.65651027s-25.27826082-3.328459-21.6656381-11.52721798c3.01935484-6.85627216 22.8420757 7.87070771 22.8420757 7.87070771z" fill="url(#v)"/><path d="m24.9349229 10.013135s-.9265078.3633799-1.0426368 1.6528739c-.1186536 1.2920174.2650772 2.1575682 2.2342216 2.397298 1.9691445.2397298 2.4690042.1488848 3.7035063.1791664 1.2345021.0302817 3.0269285.1488849 3.2920056-2.1979437.2650772-2.3468285-2.1357643-2.94489125-4.6249649-2.3468285-.7851332.1514083-3.5621318.3154339-3.5621318.3154339z" fill="url(#w)"/></g><path d="m20.8224404 7.82276175c.1489481-.21449508.2448808-.7620884.1237027-.92106711-.2221599-.17916647-.4316971-.07570414-.5907434.08075109.0353436-1.30968172-.0807854-2.39729795-.1110799-2.67235635-.0807854-.80246395-.8987378-2.27112438-3.567181-2.27112438-2.6684431 0-3.1859747 1.92540878-3.1859747 1.92540878s-.1741936 1.36267463-.1211781 3.01554848c-.1590463-.15140829-.3660589-.24982368-.5856943-.07318067-.1237026.16150218-.02777.7090955.1237027.92106711.1489481.21449508.2448808.72171286.2726508 1.0018182.0252454.26748798-.16662.97658348.5352033.88826198.4190744 1.67558512 2.115568 3.07611182 3.168303 3.07611182 1.1537167 0 2.6835904-1.4080971 3.1203366-3.07611182.7169705.09841539.5225806-.61825053.5478261-.88573851.0252454-.28767576.1186535-.79489354.2701262-1.00938862z" fill="url(#x)"/><path d="m18.598317 1.46613696s-.5200561-1.6402565-2.5169706-1.24659494c-1.9969144.39113809-2.1307153 1.33491644-2.9158485 1.37276852-1.3380084.06308679-2.4058906 1.728578-.6917251 3.4924846.7649369.78479965.1186536 1.12294483.4821879 1.8168995.3635344.69395468.3610098 1.37276852.3610098 1.37276852s.6387097-2.03644153.2171108-2.90451574c-.2171108-.44665446.7447406-.57030456 1.9413745-.46431876 1.1991585.10598581 3.084993-.29019922 3.2364657-1.10528053.3534361 1.67053816.7068723 1.84465769 1.1562412 2.09952832.4493689.25487062.4771388 2.27112438.4771388 2.27112438s.0807855-1.48380127.3938289-1.81689951c.2575035-.54759332.7649369-2.70011454.1918654-3.22247315-.5730715-.5223586-.0908836-2.19542023-2.3326788-1.66549121z" fill="url(#y)"/></g></g></svg>