<?xml version="1.0" encoding="UTF-8"?>
<svg width="181px" height="66px" viewBox="0 0 181 66" version="1.1" xmlns="http://www.w3.org/2000/svg" xmlns:xlink="http://www.w3.org/1999/xlink">
    <title>udesign_logo</title>
    <g id="页面-1" stroke="none" stroke-width="1" fill="none" fill-rule="evenodd">
        <g id="uDesign备份-10" transform="translate(-50.000000, -11.000000)">
            <g id="编组-3备份" transform="translate(50.000000, 11.000000)">
                <path d="M41.2328512,9.86956522 C51.3360603,9.86956522 59.5263295,18.0598344 59.5263295,28.1630435 C59.5263295,38.2662525 51.3360603,46.4565217 41.2328512,46.4565217 L27.9725446,46.4565217 L27.9725446,9.86956522 L41.2328512,9.86956522 Z M41.2359692,18.4782609 L36.3390706,18.4782609 L36.3390706,37.8478261 L41.2359692,37.8478261 C46.5847269,37.8478261 50.9207518,33.5118012 50.9207518,28.1630435 C50.9207518,22.8142857 46.5847269,18.4782609 41.2359692,18.4782609 L41.2359692,18.4782609 Z M95.3852416,19.9130435 C91.8194031,19.9130435 88.9287199,22.8037267 88.9287199,26.3695652 C88.9287199,28.0964687 89.6066943,29.6650227 90.7109933,30.8235777 L99.9600581,37.2589854 C100.152778,37.3931 100.267673,37.6130332 100.267673,37.8478261 C100.267673,38.2440304 99.9464856,38.5652174 99.5502814,38.5652174 L99.5502814,38.5652174 L89.6465327,38.5650435 L89.6458514,45.7391304 L103.269011,45.7391304 C106.834849,45.7391304 109.725533,42.8484472 109.725533,39.2826087 C109.725533,37.5561733 109.047926,35.9880015 107.944157,34.8295384 L98.6941945,28.3931885 C98.5014746,28.2590739 98.3865799,28.0391407 98.3865799,27.8043478 C98.3865799,27.4081435 98.7077669,27.0869565 99.1039712,27.0869565 L99.1039712,27.0869565 L108.291533,27.0860435 L108.29127,19.9130435 L95.3852416,19.9130435 Z M24.3913043,34.2561926 C24.3913043,40.9916653 18.9311249,46.4518448 12.1956522,46.4518448 C5.46017946,46.4518448 5.68434189e-14,40.9916653 5.32907052e-14,34.2561926 L5.68434189e-14,20.6351117 L8.60930435,20.6351117 L8.60869565,34.2593106 C8.60869565,36.1764281 10.1126932,37.7422681 12.0051527,37.8412951 L12.1956522,37.8462671 C14.1766736,37.8462671 15.7826087,36.240332 15.7826087,34.2593106 L15.7826087,34.2593106 L15.7833043,20.6351117 L24.3913043,20.6351117 L24.3913043,34.2561926 Z M155.61753,32.8307639 C155.61753,26.0952912 161.077709,20.6351117 167.813182,20.6351117 C174.548655,20.6351117 180.008834,26.0952912 180.008834,32.8307639 L180.008834,46.4518448 L171.39953,46.4518448 L171.400139,32.8276459 C171.400139,30.9105285 169.896141,29.3446884 168.003682,29.2456614 L167.813182,29.2406894 C165.832161,29.2406894 164.226226,30.8466246 164.226226,32.8276459 L164.226226,32.8276459 L164.22553,46.4518448 L155.61753,46.4518448 L155.61753,32.8307639 Z M74.5860904,19.1956522 C82.1112452,19.1956522 88.2115884,25.2982057 88.2115884,32.826087 L88.2095924,32.7466522 L84.4985924,33.7556522 L84.5069546,33.7842147 L70.7305411,37.4775893 C71.6513757,38.5807278 73.0367665,39.2826087 74.5860904,39.2826087 C76.492634,39.2826087 78.1509354,38.2197576 79.0008037,36.6542462 L86.028396,40.2295748 C83.6004052,43.9771144 79.3826912,46.4565217 74.5860904,46.4565217 C67.0609357,46.4565217 60.9605924,40.3539682 60.9605924,32.826087 C60.9605924,25.2982057 67.0609357,19.1956522 74.5860904,19.1956522 Z M74.5860904,26.3695652 C72.1763431,26.3695652 70.1631705,28.0675038 69.6776972,30.3322567 L78.3068603,28.0196409 C77.3883914,27.0061439 76.0615814,26.3695652 74.5860904,26.3695652 Z M152.03629,17.0434783 L152.03629,33.5434783 L152.017702,33.5442507 C151.845204,36.8685018 150.482119,39.8776351 148.346872,42.153073 C150.635264,44.5904007 152.03629,47.8706579 152.03629,51.4782609 C152.03629,59.0061421 145.935946,65.1086957 138.410792,65.1086957 C130.885637,65.1086957 124.785294,59.0061421 124.785294,51.4782609 L133.390871,51.4782609 C133.390871,54.2516908 135.638366,56.5 138.410792,56.5 C141.183217,56.5 143.430712,54.2516908 143.430712,51.4782609 C143.430712,48.7048309 141.183217,46.4565217 138.410792,46.4565217 C130.885637,46.4565217 124.785294,40.3539682 124.785294,32.826087 C124.785294,25.2982057 130.885637,19.1956522 138.410792,19.1956522 C140.183777,19.1956522 141.87767,19.5344115 143.43132,20.1507574 L143.430712,17.0434783 L152.03629,17.0434783 Z M138.410792,27.8043478 C135.638366,27.8043478 133.390871,30.052657 133.390871,32.826087 C133.390871,35.5995169 135.638366,37.8478261 138.410792,37.8478261 C141.183217,37.8478261 143.430712,35.5995169 143.430712,32.826087 C143.430712,30.052657 141.183217,27.8043478 138.410792,27.8043478 Z M113.31119,19.9130435 L121.916768,19.9130435 L121.916768,46.4565217 L113.31119,46.4565217 L113.31119,19.9130435 Z" id="形状结合" fill="#7284FB"></path>
                <g id="编组-2" transform="translate(99.327126, 32.826087) scale(-1, 1) translate(-99.327126, -32.826087) translate(88.928720, 19.913043)"></g>
                <rect id="矩形备份" fill="#FFB327" x="112.594059" y="7" width="10.0398406" height="10.0434783" rx="5.01992032"></rect>
            </g>
        </g>
    </g>
</svg>