<svg height="200" viewBox="0 0 200 200" width="200" xmlns="http://www.w3.org/2000/svg" xmlns:xlink="http://www.w3.org/1999/xlink"><defs><path id="a" d="m42.6220096 85.05c25.2703304 0 45.7559808-16.844433 45.7559808-40.9819547 0-24.1375218-13.9882185-45.3280453-45.7559808-45.3280453s-45.75598089 21.1905235-45.75598089 45.3280453c0 24.1375217 20.48565039 40.9819547 45.75598089 40.9819547z"/><filter id="b" height="110.7%" width="106.3%" x="-3.2%" y="-5.4%"><feOffset dx="0" dy="5" in="SourceAlpha" result="shadowOffsetInner1"/><feComposite in="shadowOffsetInner1" in2="SourceAlpha" k2="-1" k3="1" operator="arithmetic" result="shadowInnerInner1"/><feColorMatrix in="shadowInnerInner1" type="matrix" values="0 0 0 0 0.880632926   0 0 0 0 0.645169577   0 0 0 0 0  0 0 0 0.452387456 0"/></filter><ellipse id="c" cx="11.595694" cy="12.6" rx="11.595694" ry="12.6"/><ellipse id="d" cx="11.595694" cy="12.6" rx="11.595694" ry="12.6"/><ellipse id="e" cx="2.820574" cy="8.19" rx="6.58134" ry="5.67"/><path id="f" d="m35.0878029 4.19753798c-.3755462 1.51823144-9.030533 2.73246202-17.2241665 2.73246202-8.19363355 0-16.84862036-1.21423058-17.22416655-2.73246202-.39772478-.44553983-.63946985-1.03330761-.63946985-1.67753798v-2.52h35.7272727v2.52c0 .64423037-.241745 1.23199815-.6394698 1.67753798z"/><path id="g" d="m0 41.7969353c.24410414-27.72 15.6195521-41.58000003 46.1263437-41.58000003 30.5067917 0 46.0531939 13.86000003 46.6392065 41.58000003-2.2026162-14.4012459-17.8527829-21.6018689-46.9505003-21.6018689-29.0977173 0-44.3694006 7.200623-45.8150499 21.6018689z"/><filter id="h" height="102.4%" width="101.1%" x="-.5%" y="-1.2%"><feOffset dx="0" dy="-1" in="SourceAlpha" result="shadowOffsetInner1"/><feComposite in="shadowOffsetInner1" in2="SourceAlpha" k2="-1" k3="1" operator="arithmetic" result="shadowInnerInner1"/><feColorMatrix in="shadowInnerInner1" type="matrix" values="0 0 0 0 0.219233504   0 0 0 0 0.528402335   0 0 0 0 0.857138813  0 0 0 1 0"/></filter><path id="i" d="m2.58734501 13.3942499-.99735192-2.015244c-1.83073441-3.69917236-.31606621-8.1820475 3.38310611-10.01278191.46884525-.23203329.96075751-.41419808 1.46764677-.54349847 5.39291513-1.37565753 11.07710883.70157716 14.31232303 5.23030277l.0900549.12606087c2.5198586 3.52735475 1.7031217 8.42958984-1.8242331 10.94944844-.3791778.2708756-.7817245.5074464-1.2028705.7069093l-1.0363099.4908164c-5.2841125 2.5026579-11.59898011.3081673-14.19236539-4.9320134z"/><path id="j" d="m2.94774483 18.0775605-2.21000846-5.4954895c-1.8322355-4.55610515.37589715-9.73487848 4.93200232-11.56711398.21500914-.08646582.43331645-.16449289.65442182-.23390244 5.36401449-1.68387528 11.17883509.57371476 14.00132589 5.435981l.7685789 1.3240202c3.0921126 5.32673992 1.2871231 12.15130672-4.0341349 15.25284372l-.1329708.077503c-4.6600637 2.7161548-10.63967028 1.1403052-13.35582503-3.5197586-.23840264-.4090236-.44674855-.8348408-.62338974-1.2740834z"/><rect id="k" height="48" rx="24" width="48"/><mask id="l" fill="#fff"><path d="m0 0h180v160h-180z" fill="#fff" fill-rule="evenodd"/></mask><mask id="m" fill="#fff"><use fill="#fff" fill-rule="evenodd" xlink:href="#a"/></mask><mask id="n" fill="#fff"><use fill="#fff" fill-rule="evenodd" xlink:href="#c"/></mask><mask id="o" fill="#fff"><use fill="#fff" fill-rule="evenodd" xlink:href="#d"/></mask><mask id="p" fill="#fff"><use fill="#fff" fill-rule="evenodd" xlink:href="#e"/></mask><mask id="q" fill="#fff"><use fill="#fff" fill-rule="evenodd" xlink:href="#f"/></mask><mask id="r" fill="#fff"><use fill="#fff" fill-rule="evenodd" xlink:href="#g"/></mask><mask id="s" fill="#fff"><use fill="#fff" fill-rule="evenodd" xlink:href="#i"/></mask><mask id="t" fill="#fff"><use fill="#fff" fill-rule="evenodd" xlink:href="#j"/></mask><mask id="u" fill="#fff"><use fill="#fff" fill-rule="evenodd" xlink:href="#k"/></mask></defs><g fill="none" fill-rule="evenodd"><g transform="translate(0 20)"><g mask="url(#l)"><g transform="matrix(.98162718 -.190809 .190809 .98162718 23.182453 15.655477)"><path d="m126.524499 59.22h.087941c-.122813.1741077-.239969.3482153-.351468.522323-.235194.453234-.483594.8988354-.744707 1.3363223-.602394 1.2704515-.903591 2.5409031-.903591 3.8113547 0 1.4835475.410712 2.967095 1.232136 4.4506424 3.240852 4.3055878 5.15519 9.6211114 5.15519 15.3729498 0 13.5605805-10.640494 24.6959848-24.218453 25.8892958-4.410226 8.414022-13.3814776 14.173811-23.7313078 14.173811-3.1917202 0-6.2523368-.547759-9.0885167-1.5522v.255501c-2.507177-1.339996-5.0143541-2.009994-7.5215311-2.009994s-5.0143541.669998-7.5215311 2.009994v-.065413c-3.5055215 1.656571-7.4394506 2.585413-11.5956938 2.585413-10.9016401 0-20.273783-6.390338-24.3973352-15.541777-12.95452201-1.763021-22.9256313-12.6175206-22.9256313-25.7446308 0-5.8410491 1.97418087-11.232144 5.30694174-15.5725571.72025601-1.3120117 1.08038402-2.6240234 1.08038402-3.9360351 0-1.785-.66658865-3.57-1.99976595-5.355h.40766812c-1.86348069-3.5498739-2.91484515-7.5728422-2.91484515-11.8354369 0-14.25498 11.75813502-25.830052 26.32639442-25.9933953l-.0010356-.0017503c.0057885.0005276.0115748.0010516.017359.0015721.0985519-.0010472.1972322-.0015721.2960382-.0015721.5178999 0 1.0323479.0144222 1.5429453.0428775 1.5152298-.0772836 2.8582026-.4457167 4.0289183-1.1052992 1.4152346-.7973448 2.5787415-2.0201605 3.4905208-3.6684473.1217515-.2457638.2467737-.4896962.3750115-.7317433.00667-.0140539.0133242-.0281346.0199624-.0422421l.0012958.0021901c5.2176915-9.8127101 15.7243574-16.5167532 27.8356042-16.5167532 12.9790851 0 24.1153962 7.69922916 28.8744096 18.6727209.7413109.9676875 1.6046549 1.729112 2.5900326 2.2842749 1.1257907.6342717 2.4108718.9993104 3.8552437 1.095116.446453-.02171.895801-.0326943 1.347778-.0326943.203029 0 .405528.0022164.607472.0066259.024883-.002142.049805-.0043507.074767-.0066259l-.004875.00824c14.399149.3506931 25.961392 11.8511691 25.961392 25.9869056 0 4.0123709-.931552 7.8124229-2.595118 11.2054369zm-48.3396815-.5301122c-3.7953738 1.5928908-7.9778135 2.4751607-12.3714204 2.4751607-4.5967387 0-8.9623329-.9657366-12.8953411-2.7006354-1.5203922 3.3755901-3.7548482 6.3756337-6.5167631 8.8180383 1.9041054 2.0544443 3.4765138 4.40718 4.6347983 6.9777718 5.0872436.6923387 9.7144048 2.7867059 13.4583111 5.8701531 4.254413-4.0313515 9.8835832-6.6886608 16.1355337-7.238119 1.069723-2.0408641 2.4077848-3.9255717 3.9687711-5.6098059-2.7002667-2.3878882-4.8963584-5.3087993-6.4138913-8.5925629z" fill="#ff8224"/><path d="m108.435407 62.6850014c3.153521 0 5.886796 2.1835047 6.58331 5.2591455.625483 2.7619505.938221 5.5239025.938221 8.2858545 0 2.7619521-.312738 5.5239041-.938214 8.2858562l-.000007-.0000016c-.696514 3.0756407-3.429789 5.2591454-6.58331 5.2591454-3.153522 0-5.886797-2.1835047-6.583311-5.2591454-.625483-2.7619505-.93822-5.5239025-.93822-8.2858546 0-2.761952.312737-5.523904.938213-8.2858561l.000007.0000016c.696514-3.0756408 3.429789-5.2591455 6.583311-5.2591455z" fill="#f1f6ff"/><path d="m106.555024 60.4800017c3.081964 0 5.744895 2.1535271 6.389601 5.1673046.754623 3.527564 1.13193 7.0551297 1.13193 10.5826954s-.377307 7.0551314-1.131922 10.5826971l-.000008-.0000017c-.644706 3.0137775-3.307637 5.1673046-6.389601 5.1673046s-5.744895-2.1535271-6.389601-5.1673046c-.7546227-3.527564-1.1319302-7.0551297-1.1319302-10.5826954s.3773075-7.0551314 1.1319222-10.5826972l.000008.0000018c.644706-3.0137775 3.307637-5.1673046 6.389601-5.1673046z" fill="#4b9aee"/><path d="m22.5645933 62.6850014c3.1535215 0 5.8867962 2.1835047 6.5833104 5.2591455.6254828 2.7619505.9382207 5.5239025.9382207 8.2858545 0 2.7619521-.3127379 5.5239041-.9382137 8.2858562l-.000007-.0000016c-.6965142 3.0756407-3.4297889 5.2591454-6.5833104 5.2591454s-5.8867962-2.1835047-6.5833104-5.2591454c-.6254828-2.7619505-.9382207-5.5239025-.9382207-8.2858546 0-2.761952.3127379-5.523904.9382137-8.2858561l.000007.0000016c.6965142-3.0756408 3.4297889-5.2591455 6.5833104-5.2591455z" fill="#f1f6ff"/><path d="m25.0717703 60.4800017c3.0819637 0 5.7448953 2.1535271 6.3896008 5.1673046.7546229 3.527564 1.1319303 7.0551297 1.1319303 10.5826954s-.3773074 7.0551314-1.1319223 10.5826971l-.000008-.0000017c-.6447055 3.0137775-3.3076371 5.1673046-6.3896008 5.1673046-3.0819636 0-5.7448952-2.1535271-6.3896008-5.1673046-.7546228-3.527564-1.1319303-7.0551297-1.1319303-10.5826954s.3773075-7.0551314 1.1319223-10.5826972l.000008.0000018c.6447056-3.0137775 3.3076372-5.1673046 6.3896008-5.1673046z" fill="#4b9aee"/><path d="m16.923445 26.46h96.526316c0 24.3557575-19.7442428 44.1-44.1000002 44.1h-8.3263158c-24.3557575 0-44.1-19.7442425-44.1-44.1z" transform="matrix(-1 0 0 -1 130.373206 97.02)"/><path d="m33.2267472 9.40410859 10.9918971 11.10292221-40.19293514 16.5296426 2.90928481-19.0791661c1.28815337-8.4477437 9.18065733-14.25173841 17.62840103-12.96358503 3.2865904.50115542 6.3243613 2.04757017 8.6633522 4.41018632z" fill="#f1f6ff" transform="matrix(.96592583 -.25881904 .25881904 .96592583 11.381018 28.901285)"/><path d="m29.0894326 13.250271 6.8097809 6.5470502-25.4629081 9.3898938 1.7246488-10.3303858c.9167232-5.4910331 6.111236-9.19924406 11.6022691-8.2825209 2.004569.334661 3.8611634 1.2674402 5.3262093 2.6759627z" fill="#4b9aee" transform="matrix(.96592583 -.25881904 .25881904 .96592583 11.207534 29.242826)"/><path d="m33.2267472 9.40410859 10.9918971 11.10292221-40.19293514 16.5296426 2.90928481-19.0791661c1.28815337-8.4477437 9.18065733-14.25173841 17.62840103-12.96358503 3.2865904.50115542 6.3243613 2.04757017 8.6633522 4.41018632z" fill="#f1f6ff" transform="matrix(-.96592583 -.25881904 -.25881904 .96592583 118.503197 28.901285)"/><path d="m29.0894326 13.250271 6.8097809 6.5470502-25.4629081 9.3898938 1.7246488-10.3303858c.9167232-5.4910331 6.111236-9.19924406 11.6022691-8.2825209 2.004569.334661 3.8611634 1.2674402 5.3262093 2.6759627z" fill="#4b9aee" transform="matrix(-.96592583 -.25881904 -.25881904 .96592583 118.676681 29.242826)"/><g transform="translate(23.191388 33.39)"><use fill="#ffdc59" xlink:href="#a"/><path d="m-13.8133939 70.6757714c-12.8819201-47.9571809 5.93290828-71.9357714 56.4444852-71.9357714 50.511577 0 69.7695887 23.9785905 57.7740367 71.9357714l-4.583784.0000009c-2.4355762 0-4.4100009-1.9744247-4.4100009-4.4100009 0-.2269517.0175194-.4535648.052402-.6778198 2.1775896-13.9993863-.0574071-28.3020368-6.70499-42.9079516-3.6313802-7.9787841-23.959712-13.04873033-42.2452067-13.04873033s-37.47733558 6.31631033-41.4460431 13.04873033c-8.41499051 14.2749876-11.2215965 28.5192817-8.41981804 42.7328824l.00000376-.0000007c.4710359 2.3895951-1.08426363 4.7085947-3.47385872 5.1796306-.2809184.0553745-.5665619.0832591-.8528859.0832591z" fill="#f1f6ff" mask="url(#m)"/><g mask="url(#m)"><g transform="translate(-3.502602 -1.89)"><path d="m29.6107196 10.71h33.4702582c16.3531515 0 29.61 13.2568486 29.61 29.61 0 .6191331-.0194187 1.2381139-.0582275 1.8560295l-1.2949811 20.6187378c-.9798828 15.6017323-13.9192991 27.7539706-29.5517724 27.7539706h-30.8802961c-15.6324733 0-28.57188962-12.1522383-29.55177246-27.7539706l-1.29498105-20.6187378c-1.02505677-16.3209933 11.37474971-30.3827452 27.69574301-31.4078019.6179155-.0388089 1.2368963-.0582276 1.8560294-.0582276zm-1.0938336 13.86c-.6727638 0-1.3451752.0307899-2.0151237.092273-12.1269178 1.1129221-21.05552539 11.845933-19.94260328 23.9728507l.96717027 10.5387379c1.04156652 11.349394 10.56063941 20.0348763 21.95772701 20.0348763h33.7235848c11.3970876 0 20.9161606-8.6854823 21.9577271-20.0348763l.9671703-10.5387379c.0614831-.6699485.0922729-1.3423599.0922729-2.0151237 0-12.1778787-9.8721212-22.05-22.05-22.05z" fill="#fff" fill-rule="evenodd"/><path d="m0 0h24.1315789v4.40500669h-24.1315789zm0 7.56570664h24.1315789v7.54858676h-24.1315789zm0 10.70928666h24.1315789v4.4050067h-24.1315789z" fill="#4b9aee" fill-rule="evenodd" transform="matrix(0 1 -1 0 57.151214 .377512)"/><path d="m27.5738415 24.57h37.1015392c11.6300283 0 21.0580292 9.4280008 21.0580292 21.0580292 0 .7522751-.0403113 1.5040098-.1207605 2.2519708l-.3891506 3.6180533c-1.2047082 11.2005444-10.6584049 19.6919467-21.9235509 19.6919467h-34.3506736c-11.265146 0-20.71884272-8.4914023-21.92355089-19.6919467l-.38915059-3.6180533c-1.24372913-11.5633342 7.12196368-21.9455104 18.68529788-23.1892395.7479611-.0804492 1.4996958-.1207605 2.2519708-.1207605z" fill="#000" filter="url(#b)"/></g></g><path d="m17.4104785 145.015771c-5.7105419-47.9571805 2.6300521-71.935771 25.0217821-71.935771s30.9287869 23.9785905 25.6111709 71.935771c-2.2252417 0-4.0291564-1.803914-4.0291564-4.029156 0-.099321.0036725-.198609.0110099-.297658 1.0550408-14.24196.0824103-28.798279-2.9178745-43.668957-1.6097871-7.9787841-10.6213156-13.0487303-18.7272566-13.0487303-8.1059409 0-16.6136642 6.3163103-18.3729881 13.0487303-3.8956806 14.907634-5.0799182 29.781794-3.5527129 44.622479h-.0000021c.1730005 1.68114-1.0495878 3.184217-2.7307273 3.357217-.1040716.01071-.2086239.016075-.313245.016075z" fill="#fff" mask="url(#m)"/><ellipse cx="67.649698" cy="60.216156" fill="#ff9aa4" mask="url(#m)" opacity=".8" rx="7.521531" ry="3.78"/><ellipse cx="16.077244" cy="57.696156" fill="#ff9aa4" mask="url(#m)" opacity=".8" rx="7.521531" ry="3.78"/><g mask="url(#m)"><g transform="translate(9.135228 30.045605)"><g transform="matrix(.99026807 -.1391731 .1391731 .99026807 40.334062 7.450271)"><use fill="#fff" xlink:href="#c"/><g mask="url(#n)"><path d="m11.0124223.61547736c-.8970182.35940166-1.53197582 1.24989974-1.53197582 2.29151622 0 1.35937824 1.08145812 2.46137205 2.41550432 2.46137205 1.1591423 0 2.1275873-.83197624 2.3616039-1.94187286.8888081 1.36532997 1.4153027 3.05695167 1.4270508 4.91475171.0306718 4.85031552-3.458884 8.99661922-7.79414109 9.26102862-4.33525708.2644093-7.87454172-3.4532021-7.9052135-8.30351758-.03067179-4.85031548 3.45888407-8.9966192 7.79414114-9.26102857 1.15065755-.07017915 2.24524125.14016311 3.23303025.57775041z" fill="#4c160e" fill-rule="evenodd" transform="translate(5.322805 1.155643)"/></g></g><g transform="matrix(-.99026807 -.1391731 -.1391731 .99026807 26.685984 7.450271)"><use fill="#fff" xlink:href="#d"/><g mask="url(#o)"><path d="m1.42373654 4.02764993c.44115002.60758804 1.15199071 1.00189872 1.95376805 1.00189872 1.33847591 0 2.42352502-1.09888464 2.42352502-2.45442755 0-.72526902-.31061407-1.37706519-.80446734-1.82638946.73045364-.3486571 1.51597867-.58179225 2.33924337-.67660852 4.32767576-.49842304 8.05941496 3.01408315 8.33507276 7.84540214.2756577 4.83131904-3.0091518 9.15192854-7.33682758 9.65035164-4.32767575.498423-8.05941492-3.0140832-8.33507272-7.84540216-.11875171-2.08130305.42326035-4.06782689 1.42475844-5.69482481z" fill="#4c160e" fill-rule="evenodd" transform="translate(2.940987 .287265)"/></g></g><path d="m45.1291866 3.48111499c.8294951-1.29491266 1.961177-2.27466242 3.3950455-2.93924928 1.4338685-.66458685 3.1053199-.7178474 5.0143541-.15978164" opacity=".8" stroke="#dc9c30" stroke-linecap="round" stroke-width="1.26"/><path d="m13.7894737 3.56924928c.8294951-1.29491266 1.9611769-2.27466243 3.3950455-2.93924928 1.4338685-.66458685 3.1053199-.7178474 5.014354-.15978164" opacity=".8" stroke="#dc9c30" stroke-linecap="round" stroke-width="1.26" transform="matrix(-1 0 0 1 35.988346 0)"/><path d="m38.8140682 38.43c-2.4028711-.4137313-4.2902765-1.6737313-5.6622163-3.78-1.2479713 2.1629235-3.0717303 3.4229235-5.471277 3.78h-3.8335414c-3.1314545 0-5.67-2.5385455-5.67-5.67s2.5385455-5.67 5.67-5.67h18.7461244c3.1314545 0 5.67 2.5385455 5.67 5.67s-2.5385455 5.67-5.67 5.67z"/><g transform="translate(30.712919 26.46)"><use fill="#d1341d" xlink:href="#e"/><rect fill="#ec606e" height="23.94" mask="url(#p)" rx="10.028708" width="20.057416" x="-7.787476" y="8.19"/></g><path d="m4.3441512 4.41c.85087117 0 4.43096842-2.09112779 4.43096842-3.12748523s-3.43744266-1.3003934-4.43096842-1.28159493-4.3441512.24523749-4.3441512 1.28159493 3.49328003 3.12748523 4.3441512 3.12748523z" fill="#4c160e" transform="translate(29.164368 22.599066)"/></g></g></g><g transform="translate(47.636364 112.77)"><use fill="#fff" xlink:href="#f"/><path d="m-8.77511962-1.54850466c8.87958533 1.11176471 17.75917066 1.66764706 26.63875602 1.66764706 8.8795853 0 17.7591706-.55588235 26.6387559-1.66764706v2.74235295c-8.8795853 1.1117647-17.7591706 1.66764705-26.6387559 1.66764705-8.87958536 0-17.75917069-.55588235-26.63875602-1.66764705z" mask="url(#q)"/></g><g transform="translate(19.430622 36.395274)"><g opacity=".7"><use fill="#4ea4ff" fill-rule="evenodd" xlink:href="#g"/><use fill="#000" filter="url(#h)" xlink:href="#g"/></g><path d="m72.0788662-14.0068559h8.1483253l.0591678 36.8536907c-1.4367396.1274546-2.6164927.2497442-3.5392593.3668689-.9227666.1171246-2.4737917.3762221-4.6530752.7772924zm10.6555024 0h2.507177l.0246568 36.7170434h-2.5071771z" fill="#f1f6ff" mask="url(#r)" opacity=".3" transform="matrix(.93358043 .35836795 -.35836795 .93358043 7.014394 -27.862144)"/><path d="m0 41.7969353c.2441817-27.72 15.6245147-41.58000003 46.1409991-41.58000003 45.7747266 0-2.7527042 18.36272013-23.0165425 20.70937893-14.66627421 1.6984315-22.37442641 8.6553052-23.1244566 20.8706211z" fill="#4b9aee" mask="url(#r)" opacity=".483533"/></g></g></g><g mask="url(#l)"><g fill-rule="evenodd" transform="matrix(.22495105 .97437006 -.97437006 .22495105 150.083041 104.250581)"><use fill="#408bdc" xlink:href="#i"/><path d="m3.01166124 13.1295936-1.82984867-4.39210535c-1.66834954-4.00446603.22544706-8.60319168 4.2299131-10.27154121.24302806-.1012509.49099301-.19021914.74295583-.26656782 4.8884151-1.48126641 10.1582783.54800664 12.7907158 4.92533749l.5941181.98792541c2.7207383 4.52416126 1.2587751 10.39731278-3.2653861 13.11805098-.0790787.0475563-.1588418.093965-.2392643.1392116l-.2716784.1528491c-4.3424688 2.4431182-9.84327389.9033903-12.28639209-3.4390785-.17363456-.3086231-.32894771-.6272015-.46513327-.9540817z" fill="#408bdc" mask="url(#s)"/><g fill="#4b9aee"><path d="m3.53731892 14.3615849-2.22361623-6.39641065c-1.34288786-3.86292481.66663224-8.08807711 4.51069492-9.48404199 3.95282726-1.43546257 8.35427199.31582451 10.24039189 4.07454077l1.1586112 2.30891528c2.2820207 4.54767908.831895 10.08263199-3.3868389 12.92715099-3.1366026 2.1148823-7.39377223 1.2866144-9.50865456-1.8499882-.33064405-.4903815-.59638382-1.0215213-.79058832-1.5801662z" mask="url(#s)"/><path d="m-16.0977947-13.3825175c6.0315448 2.2254976 11.68330834 3.3529014 16.95529073 3.3822115 5.27198238.02931005 10.53706107-1.0374006 15.79523607-3.2001321l.0092969 6.74746376c-6.3268198 2.20193583-11.37830911 3.29240679-15.15446803 3.2714129s-9.64151186-1.17215801-17.59605887-3.45349236z" mask="url(#s)" transform="matrix(.7193398 -.69465837 .69465837 .7193398 5.832264 -2.128422)"/></g></g></g><g mask="url(#l)"><g fill-rule="evenodd" transform="matrix(-.22495105 .97437006 .97437006 .22495105 37.148244 105.224951)"><use fill="#408bdc" xlink:href="#j"/><path d="m3.15082216 17.8079994-2.74905364-7.88549048c-1.67062331-4.79207971.82377245-10.03652452 5.59548607-11.7644595 4.91181091-1.77866705 10.37787531.39549646 12.72611741 5.06189786l1.4241594 2.83007448c2.8363426 5.63634944 1.0367919 12.50255054-4.1994824 16.02316204-3.9043832 2.6251138-9.19758634 1.588061-11.82270012-2.3163221-.40692498-.6052275-.73444567-1.2602047-.97452672-1.9488623z" fill="#408bdc" mask="url(#t)"/><g fill="#4b9aee"><path d="m3.07168233 18.5926443-2.91411053-10.47971948c-1.16282631-4.18175406.89352872-8.5873595 4.84571913-10.38163458 3.62688975-1.64659018 7.90188987-.04124018 9.54848007 3.58564957.0441967.09735052.0862232.19567178.1260484.29489085l2.0074661 5.00133111c2.124473 5.29283783.6138056 11.35146703-3.7469227 15.02727543-2.5911628 2.1841806-6.46234364 1.8542564-8.64652429-.7369065-.56792734-.6737503-.98408192-1.4619165-1.22015618-2.3108864z" mask="url(#t)"/><path d="m-19.2846782-14.0568255c6.4811579 1.7599096 12.67389681 2.327117 18.57821678 1.7016224 5.90431997-.6254947 11.93782252-2.4879316 18.10050772-5.5873107l-.8325008 7.6191706c-7.36514615 3.27715436-13.16226068 5.13974282-17.39134357 5.58776543s-10.65820983-.11933642-19.28738093-1.70207708z" mask="url(#t)" transform="matrix(.7193398 -.69465837 .69465837 .7193398 7.443129 -4.107436)"/></g></g></g></g><g transform="translate(34 123)"><path d="m13.3333333 32h114.6666667c7.363797 0 13.333333 5.9695367 13.333333 13.3333333 0 7.3637967-5.969536 13.3333334-13.333333 13.3333334h-114.6666667c-7.36379663 0-13.3333333-5.9695367-13.3333333-13.3333334 0-7.3637966 5.96953667-13.3333333 13.3333333-13.3333333z" fill="#7284fb" opacity=".1"/><g transform="translate(46 8.666667)"><use fill="#7284fb" xlink:href="#k"/><g fill="#fff" fill-rule="nonzero" mask="url(#u)"><path d="m7.04679146 10.4055202h-3.53743315v-4.05732485c0-.88322718.17780748-1.70665252.53342245-2.47027602.35561496-.76362351.84692512-1.43524418 1.47393048-2.01486201s1.36631018-1.03503184 2.21791444-1.36624204c.85160427-.33121021 1.782754-.4968153 2.79344922-.49681528.8983957 0 1.7640374.16560509 2.5969251.49681528.8328877.33121018 1.5721925.78662419 2.2179145 1.36624204.6457219.57961785 1.1604278 1.25123852 1.5441176 2.01486201.3836898.76362348.5755348 1.58704882.5755348 2.47027602v4.05732485h-3.3970589v-3.28450109c0-1.15923566-.3275401-2.05626327-.9826203-2.69108281-.6550802-.63481955-1.5441176-.95222931-2.6671123-.95222929-1.01069516 0-1.82486628.31740976-2.44251335.95222929-.61764706.63481953-.92647059 1.53184713-.92647059 2.69108281zm12.10026734 1.6560509c.5053476 0 .940508.1794055 1.3054813.5382166.3649733.358811.5474599.7866242.5474599 1.2834395v8.5562632c0 .4968153-.0889037.9614296-.2667112 1.3938429s-.421123.809625-.7299466 1.1316349c-.3088235.3220099-.6737968.5750177-1.0949198.7590233-.421123.1840057-.8843582.2760085-1.3897058.2760085h-14.17780751c-.5053476 0-.96390375-.0920028-1.37566844-.2760085-.4117647-.1840056-.76270052-.4278131-1.05280748-.7314225-.29010695-.3036093-.51470588-.6578202-.6737968-1.0626327-.15909091-.4048124-.23863637-.8372257-.23863637-1.2972399v-8.7494692c0-.4968153.17780748-.9246285.53342245-1.2834395.35561496-.358811.78609624-.5382166 1.29144384-.5382166h1.68449197 3.53743315 7.01871659 3.3970588z" transform="translate(14 11.333333)"/></g></g><g fill="#ffe90e"><path d="m76.0900603 35.7712047c-3.2480454-6.3649937-7.0224864-9.5474905-11.323323-9.5474905 8.1873673-1.8717551 11.9618083-3.8774921 11.323323-6.017211l-11.323323-16.43529848 18.4632907 10.07344058c1.2837811-.4224705 1.9256716-2.8270173 1.9256716-7.21364048 1.2471745 5.76663638 3.0204608 8.27922388 8.6110377 8.27922388-8.532096 2.6142163-14.4243216 9.567875-17.676677 20.860976z" transform="matrix(-.37460659 .92718385 -.92718385 -.37460659 150.292121 -45.650543)"/><path d="m15.4799814 60.8078512c-3.0240423-5.9671816-6.53817702-8.9507723-10.54240423-8.9507723 7.62272123-1.7547705 11.13685603-3.6351489 10.54240423-5.6411353l-10.54240423-15.4080924 17.18996033 9.4438506c1.1952444-.3960661 1.7928666-2.6503287 1.7928666-6.762788 1.1611625 5.4062216 2.8121533 7.7617724 8.0171731 7.7617724-7.9436756 2.4508278-13.4295408 8.9698828-16.4575958 19.557165z" transform="matrix(.30901699 -.95105652 .95105652 .30901699 -7.825803 49.854291)"/></g></g></g></svg>