<svg height="200" viewBox="0 0 200 200" width="200" xmlns="http://www.w3.org/2000/svg" xmlns:xlink="http://www.w3.org/1999/xlink"><defs><path id="a" d="m10.7177811 17.7187461c2.6618584-9.69626801 8.5797583-15.6025167 17.7536996-17.7187461h13.7458114c10.1844338 2.65529952 16.5335861 8.56154821 19.0474568 17.7187461 1.5550412 5.6644998 3.7742006 19.6893751 3.7852899 19.869833.0796238 2.6917997.0796238 4.7209709 0 6.0875134-.2339987 4.0160014-1.3264316 3.4288349-.5975288 9.0965944.4426117 3.4416344 7.131658 5.5596155 7.4379231 10.5435114.3062651 4.983896-2.9499724 9.4876647-7.7697927 10.7465589-4.9065727 1.2815533-9.444988.7173505-14.5756454-2.4779024-5.1306575-3.1952529-6.0688017-3.6551031-7.6771168-7.0354784-1.0082343-2.1191183-1.8546708-5.3820526-2.5393096-9.7888027-1.102031.0243973-2.2280253.0357226-3.376846.0357226-1.1489427 0-2.2749309-.0113277-3.3768415-.0357304-.8112916 3.6279991-1.7107391 6.4798765-2.6983424 8.5556324-1.639263 3.4454216-3.748905 5.4202802-8.0952894 8.2686565-4.3463843 2.8483763-9.7937948 3.7594557-14.70036756 2.4779024-4.81884587-1.2586397-7.02291791-6.3407754-6.37895866-11.3145203.64395925-4.9737448 5.58018159-7.6568157 6.08343831-11.5438171.64838154-5.0079013-.05767411-4.6366366-.05767411-7.8671229 0-1.2945012.05353722-3.2112887.16061165-5.7503625.0135093-.2167659 2.21740191-13.9959143 3.82948217-19.8681883z"/><path id="b" d="m43.0889528 15.4640202c.6868803-4.1625778 3.0658771-6.4745555 6.9906008-6.4745555 2.4911311 0 4.4714105 1.2617222 6.3816159 4.1767697 1.9102053 2.9150476 6.8001629 10.8656793 5.9937823 26.7010527-.8063806 15.8353735-13.786639 30.3909576-30.79332 30.3909576s-30.77942389-11.7366987-31.6094149-30.3909576c-.82999101-18.6542588 8.34583769-40.73206053 19.592546-39.84117526 11.8801118.94105904 7.5975602 15.78826046 6.6887622 21.64892656-.9087979 5.8606662 3.6475241 11.5020762 10.2548445 9.3527356 6.6073204-2.1493407 5.8137029-11.4011759 6.5005832-15.5637538z"/><linearGradient id="c" x1="50%" x2="38.983196%" y1="0%" y2="100%"><stop offset="0" stop-color="#cbd6fc"/><stop offset=".488564531" stop-color="#3d78f3"/><stop offset="1" stop-color="#ff8224" stop-opacity="0"/></linearGradient><linearGradient id="d" x1="50%" x2="42.620061%" y1="0%" y2="50%"><stop offset="0" stop-color="#cbd6fc"/><stop offset=".498727705" stop-color="#3d78f3"/><stop offset="1" stop-color="#ffdc59"/></linearGradient><path id="e" d="m42.6220096 85.05c25.2703304 0 45.7559808-16.844433 45.7559808-40.9819547 0-24.1375218-13.9882185-45.3280453-45.7559808-45.3280453s-45.75598089 21.1905235-45.75598089 45.3280453c0 24.1375217 20.48565039 40.9819547 45.75598089 40.9819547z"/><path id="f" d="m13.2404928 26.8510015c7.0618457 0 12.4362817-3.5248467 12.4362817-11.800162s-5.7247571-14.9837838-12.7866029-14.9837838c-7.06184574 0-12.78660285 6.7084685-12.78660285 14.9837838s6.07507826 11.800162 13.13692405 11.800162z"/><filter id="g" height="122.4%" width="119.6%" x="-9.8%" y="-5.6%"><feMorphology in="SourceAlpha" operator="dilate" radius="0.5" result="shadowSpreadOuter1"/><feOffset dx="0" dy="2" in="shadowSpreadOuter1" result="shadowOffsetOuter1"/><feColorMatrix in="shadowOffsetOuter1" type="matrix" values="0 0 0 0 0.981827446   0 0 0 0 0.71420549   0 0 0 0 0.287981514  0 0 0 1 0"/></filter><path id="h" d="m13.2404928 26.8510015c7.0618457 0 12.4362817-3.5248467 12.4362817-11.800162s-5.7247571-14.9837838-12.7866029-14.9837838c-7.06184574 0-12.78660285 6.7084685-12.78660285 14.9837838s6.07507826 11.800162 13.13692405 11.800162z"/><filter id="i" height="122.4%" width="119.6%" x="-9.8%" y="-5.6%"><feMorphology in="SourceAlpha" operator="dilate" radius="0.5" result="shadowSpreadOuter1"/><feOffset dx="0" dy="2" in="shadowSpreadOuter1" result="shadowOffsetOuter1"/><feColorMatrix in="shadowOffsetOuter1" type="matrix" values="0 0 0 0 0.981827446   0 0 0 0 0.71420549   0 0 0 0 0.287981514  0 0 0 1 0"/></filter><path id="j" d="m1.91190086 17.4210949c2.00598734 1.5347503 2.91420931-5.499029 11.47129574-5.6280727 8.5570864-.1290436 8.4194803 7.0276284 11.5132097 5.6280727 6.4863078-2.9343059.7730837-17.74299335-12.4324047-17.41575408-13.2054884.32723926-14.38736995 14.48144818-10.55210074 17.41575408z"/><path id="k" d="m0 42.0018222c.24543682-27.8558823 15.7048264-41.78382353 46.3781686-41.78382353 30.6733423 0 46.3046194 13.92794123 46.8938314 41.78382353-2.2146413-14.4718402-17.9502495-21.7077604-47.2068246-21.7077604-29.2565752 0-44.61163364 7.2359202-46.0651754 21.7077604z"/><filter id="l" height="102.4%" width="101.1%" x="-.5%" y="-1.2%"><feOffset dx="0" dy="-1" in="SourceAlpha" result="shadowOffsetInner1"/><feComposite in="shadowOffsetInner1" in2="SourceAlpha" k2="-1" k3="1" operator="arithmetic" result="shadowInnerInner1"/><feColorMatrix in="shadowInnerInner1" type="matrix" values="0 0 0 0 0.219233504   0 0 0 0 0.528402335   0 0 0 0 0.857138813  0 0 0 1 0"/></filter><path id="m" d="m8.25209589 1.23920441 2.09936401-.00237184c2.9823357-.0033694 5.402728 2.41155997 5.4060974 5.39389571.0000046.00405592.0000046.00811184 0 .01216776l-.0110513 9.83649826c-.0033453 2.9775851-2.4163107 5.3905656-5.3938957 5.3939297l-2.09936406.0023718c-2.98233574.0033694-5.40272799-2.41156-5.4060974-5.3938957-.00000458-.0040559-.00000459-.0081118-.00000004-.0121678l.01105134-9.83649825c.00334533-2.97758507 2.4163107-5.39056561 5.39389575-5.39392964z"/><path id="n" d="m8.92724949 1.34018434c3.46251551-.00939418 6.27705441 2.78991377 6.28644861 6.2524293.0000306.01126462.0000308.0225293.0000006.03379392l-.0346564 12.94527084c-.0093345 3.4867127-2.8334869 6.3109666-6.32019923 6.3204265-3.46251553.0093942-6.27705445-2.7899138-6.28644864-6.2524293-.00003056-.0112646-.00003076-.0225293-.0000006-.0337939l.03465648-12.94527093c.00933446-3.4867127 2.83348682-6.3109666 6.32019918-6.32042643z"/><mask id="o" fill="#fff"><path d="m0 0h200v160h-200z" fill="#fff" fill-rule="evenodd"/></mask><mask id="p" fill="#fff"><use fill="#fff" fill-rule="evenodd" xlink:href="#a"/></mask><mask id="q" fill="#fff"><use fill="#fff" fill-rule="evenodd" xlink:href="#b"/></mask><mask id="r" fill="#fff"><use fill="#fff" fill-rule="evenodd" xlink:href="#e"/></mask><mask id="s" fill="#fff"><use fill="#fff" fill-rule="evenodd" xlink:href="#f"/></mask><mask id="t" fill="#fff"><use fill="#fff" fill-rule="evenodd" xlink:href="#h"/></mask><mask id="u" fill="#fff"><use fill="#fff" fill-rule="evenodd" xlink:href="#j"/></mask><mask id="v" fill="#fff"><use fill="#fff" fill-rule="evenodd" xlink:href="#k"/></mask><mask id="w" fill="#fff"><use fill="#fff" fill-rule="evenodd" xlink:href="#m"/></mask><mask id="x" fill="#fff"><use fill="#fff" fill-rule="evenodd" xlink:href="#n"/></mask></defs><g fill="none" fill-rule="evenodd" transform="translate(0 20)"><path d="m39.3333333 134h114.6666667c7.363797 0 13.333333 5.969537 13.333333 13.333333 0 7.363797-5.969536 13.333334-13.333333 13.333334h-114.6666667c-7.3637966 0-13.3333333-5.969537-13.3333333-13.333334 0-7.363796 5.9695367-13.333333 13.3333333-13.333333z" fill="#7284fb" mask="url(#o)" opacity=".1"/><g mask="url(#o)"><g transform="translate(60.291543 113.106009)"><use fill="#f1f6ff" xlink:href="#a"/><path d="m14.9020674 21.1118308.0237204.0036513c2.3181746.0010056 4.1971745 1.8800075 4.1981777 4.1981821l.0118654 10.5985479c.0010038 2.3195957-1.8785863 4.2008134-4.198182 4.2018172-.0012132.0000005-.0024263.0000005-.0036395 0l-.0237188-.0072892c-2.3181746-.0010056-4.1971746-1.8800075-4.1981778-4.1981821l-.0118654-10.5985479c-.0010038-2.3195957 1.8785864-4.2008133 4.1981821-4.2018172.0012131-.0000005.0024263-.0000005.0036394.0000001z" fill="#fff" mask="url(#p)" transform="matrix(.98480775 .17364818 -.17364818 .98480775 5.542202 -2.125439)"/><path d="m6.40308635 38.7751749c.4227689 2.269431 1.52866409 3.9171967 3.31768556 4.9432971 7.71216559 4.4233432 14.18592359 8.2495927 26.07730499 8.2495927s19.7315321-1.3908857 26.4835103-5.4347779c1.9986239-1.1970151 2.9979359-3.7830524 2.9979359-7.7581119 5.1620365 11.0944378 8.3402707 19.4466171 9.5347026 25.0565379 1.194432 5.6099208 1.0576388 12.9499672-.4103795 22.0201391h-38.6057693-38.60576921c-3.57261172-11.4804402-4.80546245-19.7956888-3.69855218-24.9457459s5.41002055-12.5270342 12.90933084-22.1309311z" mask="url(#p)"/><g mask="url(#p)"><path d="m6.42757161.10771281c.00621357-.0000646.01243487-.00009698.01866372-.00009698h1.27914766c.73160659-.03225197 1.43374376.40104662 1.7096427 1.12261832l4.30872841 11.26882365c.3459914.9048877-.1055668 1.9191093-1.0095415 2.2674792-.00143.000551-.0028607.0011002-.0042921.0016475-.9018173.3448174-1.9124144-.1067203-2.2572318-1.0085376l-.75579506-1.9766671h-5.28300174l-.7557951 1.9766671c-.34481736.9018173-1.35541446 1.353355-2.2572318 1.0085376-.00143141-.0005473-.0028621-.0010965-.00429207-.0016475-.9039747-.3483699-1.35553289-1.3625915-1.00954154-2.2674792l4.30872845-11.26882365c.2761716-.72228477.97942427-1.1557264 1.71181177-1.12252134zm-.64870253 8.15768383h2.59304738l-1.29652369-3.39086043zm11.01126832-8.04019007c.9675436 0 1.7518927.78434906 1.7518927 1.75189267v11.06905916c0 .9675436-.7843491 1.7518927-1.7518927 1.7518927s-1.7518927-.7843491-1.7518927-1.7518927v-11.06905916c0-.96754361.7843491-1.75189267 1.7518927-1.75189267z" fill="#4b9aee" fill-rule="evenodd" transform="translate(25.67961 18.190287)"/></g><path d="m1.85904392 58.5187943c5.64341375 1.7163869 10.08912718 2.5803545 13.33714028 2.591903 3.248013.0115485 8.3960877-.818308 15.4442241-2.4895694l.0107469 4.5145999c-7.2930039 1.7792195-12.552472 2.6630944-15.7784044 2.6516244s-7.56025243-.929456-13.00296004-2.753958z" fill="#4b9aee" mask="url(#p)" transform="matrix(.93358043 .35836795 -.35836795 .93358043 23.353346 -1.697123)"/><path d="m39.6483999 58.531274c6.3884631 1.5277284 11.1873178 2.2973496 14.3965643 2.3088635 3.2092464.0115139 8.0044702-.7236863 14.3856714-2.2056007l.0108929 4.5144641c-6.9593254 1.2774822-12.093776 1.9102864-15.4033518 1.8984125s-7.7692038-.679099-13.3788839-2.0016753z" fill="#4b9aee" mask="url(#p)" transform="matrix(-.92718385 .37460659 .37460659 .92718385 81.007856 -15.746332)"/><path d="m8.98409473 25.1241495c1.16229077-4.2481138 4.12914977-7.2277686 8.90057717-8.9389643 7.1571411-2.5667937 33.904757-2.1149076 38.7228313.8497895 3.2120495 1.9764647 6.2091902 8.2344166 8.9914222 18.7738555l-1.7894898-24.4755129-5.8127574-10.73562292-47.5204155 3.65040218z" mask="url(#p)" opacity=".5"/></g></g><g mask="url(#o)" opacity=".3" stroke="#073275" stroke-linecap="round" stroke-width=".7"><g transform="translate(52 115)"><path d="m14.6513912 33.4930461-1.7700282 1.6977023 1.7700282 1.2772029-2.4792765 1.8727058 1.2396382 1.1783728-2.2642987 1.6740162"/><path d="m82.0598518 31.7028906-1.7590905 1.6524904 1.7598552 1.2440027-2.4640859 1.8226951 1.2325866 1.1476384-2.2504347 1.6292989" transform="matrix(-.97029573 .2419219 -.2419219 -.97029573 166.829823 50.417779)"/><path d="m55.2324417 53.7241878-1.7575392 1.6530016 1.7591326 1.2452684-2.4620539 1.8231094 1.2321596 1.1486945" transform="matrix(-.62932039 .77714596 -.77714596 -.62932039 132.02069 50.347811)"/><path d="m45.8786832 52.5786492-1.7598863 1.6543436 1.758376 1.2429775-2.4648143 1.8251503 1.2313335 1.1469995" transform="matrix(-.82903757 -.5591929 .5591929 -.82903757 50.615644 126.501525)"/><path d="m6.2820285.6993817-1.75769052 1.65281974 1.75931849 1.24516842-2.46227164 1.82290254 1.23229307 1.14859753-2.24878824 1.62947015" transform="matrix(-.69465837 .7193398 -.7193398 -.69465837 10.901233 4.270423)"/><path d="m80.6519785 6.10818401-1.7595486 1.65479566 1.7579206 1.2431925-2.4643212 1.82567023 1.2310033 1.1472137-2.2506204 1.6319978" transform="matrix(-.69465837 -.7193398 .7193398 -.69465837 126.631711 73.47121)"/></g></g><g mask="url(#o)"><g transform="translate(64.125787 56.436198)"><use fill="#ffe32a" xlink:href="#b"/><g mask="url(#q)"><g transform="translate(14.381007 41.208232)"><path d="m13.9838673 0h6.630761c7.3846685 0 13.3711251 5.98645663 13.3711251 13.3711251 0 7.3846685-5.9864566 13.3711251-13.3711251 13.3711251h-6.630761c-7.38466846 0-13.37112508-5.9864566-13.37112508-13.3711251 0-7.38466847 5.98645662-13.3711251 13.37112508-13.3711251z" fill="#fafcfd" fill-rule="nonzero"/><path d="m17.2574024 9.90453713v5.70398497" fill="none" stroke="#532722" stroke-width="1.912846"/><path d="m11.1590386 7.63016377c.1793517-1.45511223 2.2099929-2.18266835 6.0919236-2.18266835s5.9125719.72755612 6.0919236 2.18266835c.0415599.89621816-.7177433 1.86207951-2.2779097 2.89758403-1.5601665 1.0355045-2.8404717 1.6071407-3.8409156 1.7149086-1.0733629-.1596146-2.3770654-.7312508-3.9111073-1.7149086-1.534042-.98365782-2.2520135-1.94951916-2.1539146-2.89758403z" fill="#532722" fill-rule="evenodd"/><path d="m11.6935793 14.8676653c1.1709088 1.2166599 2.9847794 1.9758204 5.4416119 2.2774815s4.3699065.0001119 5.7392221-.9046477" fill="none" stroke="#532722" stroke-linecap="round" stroke-width="2.008765" transform="matrix(.99254615 .12186934 .12186934 -.99254615 -1.828752 29.899836)"/></g></g><g mask="url(#q)"><g transform="matrix(.99939083 .0348995 -.0348995 .99939083 11.553237 32.34657)"><ellipse cx="36.326666" cy="3.809616" fill="#1c1b1e" fill-rule="evenodd" rx="3.331421" ry="3.303775"/><path d="m.49680475 8.22682602 5.24793567-2.43169905c.55956578-.25928207.80299384-.9230894.54371177-1.48265519-.12133702-.26186173-.3393476-.46657524-.60831756-.57121462l-5.45443785-2.12198039" fill="none" stroke="#1c1b1e" stroke-linecap="round" stroke-width="2.233333"/></g></g></g></g><g mask="url(#o)"><g transform="translate(31 2)"><path d="m126.524499 59.22h.087941c-.122813.1741077-.239969.3482153-.351468.522323-.235194.453234-.483594.8988354-.744707 1.3363223-.602394 1.2704515-.903591 2.5409031-.903591 3.8113547 0 1.4835475.410712 2.967095 1.232136 4.4506424 3.240852 4.3055878 5.15519 9.6211114 5.15519 15.3729498 0 13.5605805-10.640494 24.6959848-24.218453 25.8892958-4.410226 8.414022-13.3814776 14.173811-23.7313078 14.173811-4.0113731 0-7.81566-.865219-11.2275755-2.41485-1.7941575-.594562-3.5883149-.891843-5.3824723-.891843-2.507177 0-5.0143541.669998-7.5215311 2.009994v-.065413c-3.5055215 1.656571-7.4394506 2.585413-11.5956938 2.585413-10.9016401 0-20.273783-6.390338-24.3973352-15.541777-12.95452201-1.763021-22.9256313-12.6175206-22.9256313-25.7446308 0-5.8410491 1.97418087-11.232144 5.30694174-15.5725571.72025601-1.3120117 1.08038402-2.6240234 1.08038402-3.9360351 0-1.785-.56775969-3.57-1.70327907-5.355h.11118124c-1.86348069-3.5498739-2.91484515-7.5728422-2.91484515-11.8354369 0-14.25498 11.75813502-25.830052 26.32639442-25.9933953l-.0010356-.0017503c.0057885.0005276.0115748.0010516.017359.0015721.0985519-.0010472.1972322-.0015721.2960382-.0015721.5178999 0 1.0323479.0144222 1.5429453.0428775 1.5152298-.0772836 2.8582026-.4457167 4.0289183-1.1052992 1.4152346-.7973448 2.5787415-2.0201605 3.4905208-3.6684473.1217515-.2457638.2467737-.4896962.3750115-.7317433.00667-.0140539.0133242-.0281346.0199624-.0422421l.0012958.0021901c5.2176915-9.8127101 15.7243574-16.5167532 27.8356042-16.5167532 12.9790851 0 24.1153962 7.69922916 28.8744096 18.6727209.7413109.9676875 1.6046549 1.729112 2.5900326 2.2842749 1.1257907.6342717 2.4108718.9993104 3.8552437 1.095116.446453-.02171.895801-.0326943 1.347778-.0326943.203029 0 .405528.0022164.607472.0066259.024883-.002142.049805-.0043507.074767-.0066259l-.004875.00824c14.399149.3506931 25.961392 11.8511691 25.961392 25.9869056 0 4.0123709-.931552 7.8124229-2.595118 11.2054369zm-48.3396815-.5301122c-3.7953738 1.5928908-7.9778135 2.4751607-12.3714204 2.4751607-4.5967387 0-8.9623329-.9657366-12.8953411-2.7006354-1.5203922 3.3755901-3.7548482 6.3756337-6.5167631 8.8180383 1.9041054 2.0544443 3.4765138 4.40718 4.6347983 6.9777718 5.0872436.6923387 9.7144048 2.7867059 13.4583111 5.8701531 4.254413-4.0313515 9.8835832-6.6886608 16.1355337-7.238119 1.069723-2.0408641 2.4077848-3.9255717 3.9687711-5.6098059-2.7002667-2.3878882-4.8963584-5.3087993-6.4138913-8.5925629z" fill="#ff8224"/><path d="m126.524499 59.22h.087941c-.122813.1741077-.239969.3482153-.351468.522323-.235194.453234-.483594.8988354-.744707 1.3363223-.602394 1.2704515-.903591 2.5409031-.903591 3.8113547 0 1.4835475.410712 2.967095 1.232136 4.4506424 3.240852 4.3055878 5.15519 9.6211114 5.15519 15.3729498 0 13.5605805-10.640494 24.6959848-24.218453 25.8892958-4.410226 8.414022-13.3814776 14.173811-23.7313078 14.173811-4.0113731 0-7.81566-.865219-11.2275755-2.41485-1.7941575-.594562-3.5883149-.891843-5.3824723-.891843-2.507177 0-5.0143541.669998-7.5215311 2.009994v-.065413c-3.5055215 1.656571-7.4394506 2.585413-11.5956938 2.585413-10.9016401 0-20.273783-6.390338-24.3973352-15.541777-12.95452201-1.763021-22.9256313-12.6175206-22.9256313-25.7446308 0-5.8410491 1.97418087-11.232144 5.30694174-15.5725571.72025601-1.3120117 1.08038402-2.6240234 1.08038402-3.9360351 0-1.785-.56775969-3.57-1.70327907-5.355h.11118124c-1.86348069-3.5498739-2.91484515-7.5728422-2.91484515-11.8354369 0-14.25498 11.75813502-25.830052 26.32639442-25.9933953l-.0010356-.0017503c.0057885.0005276.0115748.0010516.017359.0015721.0985519-.0010472.1972322-.0015721.2960382-.0015721.5178999 0 1.0323479.0144222 1.5429453.0428775 1.5152298-.0772836 2.8582026-.4457167 4.0289183-1.1052992 1.4152346-.7973448 2.5787415-2.0201605 3.4905208-3.6684473.1217515-.2457638.2467737-.4896962.3750115-.7317433.00667-.0140539.0133242-.0281346.0199624-.0422421l.0012958.0021901c5.2176915-9.8127101 15.7243574-16.5167532 27.8356042-16.5167532 12.9790851 0 24.1153962 7.69922916 28.8744096 18.6727209.7413109.9676875 1.6046549 1.729112 2.5900326 2.2842749 1.1257907.6342717 2.4108718.9993104 3.8552437 1.095116.446453-.02171.895801-.0326943 1.347778-.0326943.203029 0 .405528.0022164.607472.0066259.024883-.002142.049805-.0043507.074767-.0066259l-.004875.00824c14.399149.3506931 25.961392 11.8511691 25.961392 25.9869056 0 4.0123709-.931552 7.8124229-2.595118 11.2054369zm-48.3396815-.5301122c-3.7953738 1.5928908-7.9778135 2.4751607-12.3714204 2.4751607-4.5967387 0-8.9623329-.9657366-12.8953411-2.7006354-1.5203922 3.3755901-3.7548482 6.3756337-6.5167631 8.8180383 1.9041054 2.0544443 3.4765138 4.40718 4.6347983 6.9777718 5.0872436.6923387 9.7144048 2.7867059 13.4583111 5.8701531 4.254413-4.0313515 9.8835832-6.6886608 16.1355337-7.238119 1.069723-2.0408641 2.4077848-3.9255717 3.9687711-5.6098059-2.7002667-2.3878882-4.8963584-5.3087993-6.4138913-8.5925629z" fill="url(#c)"/><path d="m108.435407 65.2050014c3.153521 0 5.886796 2.1835047 6.58331 5.2591455.625483 2.7619505.938221 5.5239025.938221 8.2858545 0 2.7619521-.312738 5.5239041-.938214 8.2858562l-.000007-.0000016c-.696514 3.0756407-3.429789 5.2591454-6.58331 5.2591454-3.153522 0-5.886797-2.1835047-6.583311-5.2591454-.625483-2.7619505-.93822-5.5239025-.93822-8.2858546 0-2.761952.312737-5.523904.938213-8.2858561l.000007.0000016c.696514-3.0756408 3.429789-5.2591455 6.583311-5.2591455z" fill="#f1f6ff"/><path d="m106.555024 63.0000017c3.081964 0 5.744895 2.1535271 6.389601 5.1673046.754623 3.527564 1.13193 7.0551297 1.13193 10.5826954s-.377307 7.0551314-1.131922 10.5826971l-.000008-.0000017c-.644706 3.0137775-3.307637 5.1673046-6.389601 5.1673046s-5.744895-2.1535271-6.389601-5.1673046c-.7546227-3.527564-1.1319302-7.0551297-1.1319302-10.5826954s.3773075-7.0551314 1.1319222-10.5826972l.000008.0000018c.644706-3.0137775 3.307637-5.1673046 6.389601-5.1673046z" fill="#4b9aee"/><path d="m22.5645933 65.2050014c3.1535215 0 5.8867962 2.1835047 6.5833104 5.2591455.6254828 2.7619505.9382207 5.5239025.9382207 8.2858545 0 2.7619521-.3127379 5.5239041-.9382137 8.2858562l-.000007-.0000016c-.6965142 3.0756407-3.4297889 5.2591454-6.5833104 5.2591454s-5.8867962-2.1835047-6.5833104-5.2591454c-.6254828-2.7619505-.9382207-5.5239025-.9382207-8.2858546 0-2.761952.3127379-5.523904.9382137-8.2858561l.000007.0000016c.6965142-3.0756408 3.4297889-5.2591455 6.5833104-5.2591455z" fill="#f1f6ff"/><path d="m25.0717703 63.0000017c3.0819637 0 5.7448953 2.1535271 6.3896008 5.1673046.7546229 3.527564 1.1319303 7.0551297 1.1319303 10.5826954s-.3773074 7.0551314-1.1319223 10.5826971l-.000008-.0000017c-.6447055 3.0137775-3.3076371 5.1673046-6.3896008 5.1673046-3.0819636 0-5.7448952-2.1535271-6.3896008-5.1673046-.7546228-3.527564-1.1319303-7.0551297-1.1319303-10.5826954s.3773075-7.0551314 1.1319223-10.5826972l.000008.0000018c.6447056-3.0137775 3.3076372-5.1673046 6.3896008-5.1673046z" fill="#4b9aee"/><path d="m16.923445 28.98h96.526316c0 24.3557575-19.7442428 44.1-44.1000002 44.1h-8.3263158c-24.3557575 0-44.1-19.7442425-44.1-44.1z" transform="matrix(-1 0 0 -1 130.373206 102.06)"/><path d="m33.2267472 9.40410859 10.9918971 11.10292221-40.19293514 16.5296426 2.90928481-19.0791661c1.28815337-8.4477437 9.18065733-14.25173841 17.62840103-12.96358503 3.2865904.50115542 6.3243613 2.04757017 8.6633522 4.41018632z" fill="#f1f6ff" transform="matrix(.96592583 -.25881904 .25881904 .96592583 11.381018 31.421285)"/><path d="m29.0894326 13.250271 6.8097809 6.5470502-25.4629081 9.3898938 1.7246488-10.3303858c.9167232-5.4910331 6.111236-9.19924406 11.6022691-8.2825209 2.004569.334661 3.8611634 1.2674402 5.3262093 2.6759627z" fill="#4b9aee" transform="matrix(.96592583 -.25881904 .25881904 .96592583 11.207534 31.762826)"/><path d="m33.2267472 9.40410859 10.9918971 11.10292221-40.19293514 16.5296426 2.90928481-19.0791661c1.28815337-8.4477437 9.18065733-14.25173841 17.62840103-12.96358503 3.2865904.50115542 6.3243613 2.04757017 8.6633522 4.41018632z" fill="#f1f6ff" transform="matrix(-.96592583 -.25881904 -.25881904 .96592583 118.503197 31.421285)"/><path d="m29.0894326 13.250271 6.8097809 6.5470502-25.4629081 9.3898938 1.7246488-10.3303858c.9167232-5.4910331 6.111236-9.19924406 11.6022691-8.2825209 2.004569.334661 3.8611634 1.2674402 5.3262093 2.6759627z" fill="#4b9aee" transform="matrix(-.96592583 -.25881904 -.25881904 .96592583 118.676681 31.762826)"/><g transform="translate(23.191388 35.91)"><path d="m42.6220096 85.05c25.2703304 0 45.7559808-16.844433 45.7559808-40.9819547 0-24.1375218-13.9882185-45.3280453-45.7559808-45.3280453s-45.75598089 21.1905235-45.75598089 45.3280453c0 24.1375217 20.48565039 40.9819547 45.75598089 40.9819547z" fill="#ffdc59"/><use fill="url(#d)" xlink:href="#e"/><path d="m-13.8133939 70.6757714c-12.8819201-47.9571809 5.93290828-71.9357714 56.4444852-71.9357714 50.511577 0 69.7695887 23.9785905 57.7740367 71.9357714l-4.583784.0000009c-2.4355762 0-4.4100009-1.9744247-4.4100009-4.4100009 0-.2269517.0175194-.4535648.052402-.6778198 2.1775896-13.9993863-.0574071-28.3020368-6.70499-42.9079516-3.6313802-7.9787841-23.959712-13.04873033-42.2452067-13.04873033s-37.47733558 6.31631033-41.4460431 13.04873033c-8.41499051 14.2749876-11.2215965 28.5192817-8.41981804 42.7328824l.00000376-.0000007c.4710359 2.3895951-1.08426363 4.7085947-3.47385872 5.1796306-.2809184.0553745-.5665619.0832591-.8528859.0832591z" fill="#f1f6ff" mask="url(#r)"/><g mask="url(#r)"><g transform="translate(-3.502602 -1.89)"><path d="m29.6107196 10.71h33.4702582c16.3531515 0 29.61 13.2568486 29.61 29.61 0 .6191331-.0194187 1.2381139-.0582275 1.8560295l-1.2949811 20.6187378c-.9798828 15.6017323-13.9192991 27.7539706-29.5517724 27.7539706h-30.8802961c-15.6324733 0-28.57188962-12.1522383-29.55177246-27.7539706l-1.29498105-20.6187378c-1.02505677-16.3209933 11.37474971-30.3827452 27.69574301-31.4078019.6179155-.0388089 1.2368963-.0582276 1.8560294-.0582276zm-1.0938336 13.86c-.6727638 0-1.3451752.0307899-2.0151237.092273-12.1269178 1.1129221-21.05552539 11.845933-19.94260328 23.9728507l.96717027 10.5387379c1.04156652 11.349394 10.56063941 20.0348763 21.95772701 20.0348763h33.7235848c11.3970876 0 20.9161606-8.6854823 21.9577271-20.0348763l.9671703-10.5387379c.0614831-.6699485.0922729-1.3423599.0922729-2.0151237 0-12.1778787-9.8721212-22.05-22.05-22.05z" fill="#fff"/><path d="m0 0h24.1315789v4.40500669h-24.1315789zm0 7.56570664h24.1315789v7.54858676h-24.1315789zm0 10.70928666h24.1315789v4.4050067h-24.1315789z" fill="#4b9aee" transform="matrix(0 1 -1 0 57.151214 .377512)"/></g></g><path d="m17.4104785 145.015771c-5.7105419-47.9571805 2.6300521-71.935771 25.0217821-71.935771s30.9287869 23.9785905 25.6111709 71.935771c-2.2252417 0-4.0291564-1.803914-4.0291564-4.029156 0-.099321.0036725-.198609.0110099-.297658 1.0550408-14.24196.0824103-28.798279-2.9178745-43.668957-1.6097871-7.9787841-10.6213156-13.0487303-18.7272566-13.0487303-8.1059409 0-16.6136642 6.3163103-18.3729881 13.0487303-3.8956806 14.907634-5.0799182 29.781794-3.5527129 44.622479h-.0000021c.1730005 1.68114-1.0495878 3.184217-2.7307273 3.357217-.1040716.01071-.2086239.016075-.313245.016075z" fill="#fff" mask="url(#r)"/><ellipse cx="68.320574" cy="54.81" mask="url(#r)" opacity=".8" rx="7.521531" ry="3.78"/><ellipse cx="16.923445" cy="54.81" mask="url(#r)" opacity=".8" rx="7.521531" ry="3.78"/><g mask="url(#r)"><g transform="translate(7.521531 24.57)"><g fill-rule="evenodd" transform="matrix(-.9945219 .10452846 .10452846 .9945219 66.176511 .586433)"><use fill="#000" filter="url(#g)" xlink:href="#f"/><use fill="#fff" fill-rule="evenodd" xlink:href="#f"/><g mask="url(#s)"><ellipse cx="6.614521" cy="6.612243" fill="#4c160e" fill-rule="evenodd" rx="5.273858" ry="6.357535" transform="translate(14.394478 5.549758)"/></g></g><g fill-rule="evenodd" transform="matrix(.9945219 .10452846 -.10452846 .9945219 2.824472 .586433)"><use fill="#000" filter="url(#i)" xlink:href="#h"/><use fill="#fff" fill-rule="evenodd" xlink:href="#h"/><g mask="url(#t)"><ellipse cx="6.617955" cy="6.611751" fill="#4c160e" fill-rule="evenodd" rx="5.273858" ry="6.357535" transform="translate(14.394478 5.549758)"/></g></g><path d="m43.8284223 35.28c-2.4028711-.4137313-4.2902766-1.6737313-5.6622163-3.78-1.2479713 2.1629235-3.0717304 3.4229235-5.4712771 3.78h-3.8335413c-3.1314546 0-5.67-2.5385455-5.67-5.67s2.5385454-5.67 5.67-5.67h18.7461244c3.1314545 0 5.67 2.5385455 5.67 5.67s-2.5385455 5.67-5.67 5.67z"/><g fill-rule="evenodd"><g transform="translate(21.937799 27.09)"><use fill="#d53722" xlink:href="#j"/><path d="m6.02106074 12.4255082c3.17393787-3.78166223 8.19977176-5.69001971 12.26451916-2.92256943 2.7098316 1.84496683 4.3451008 5.65258443 4.9058077 11.42285283-3.0129503 3.9679821-5.1933093 6.0055033-6.5410769 6.1125635-5.4588886.4336278-9.24315058-1.9788549-10.62924996-2.9225694-2.84914369-1.9398163-3.17393787-7.9086154 0-11.6902775z" fill="#ec606e" mask="url(#u)"/></g><path d="m4.3441512 4.41c.85087117 0 4.43096842-2.09112779 4.43096842-3.12748523s-3.43744266-1.3003934-4.43096842-1.28159493-4.3441512.24523749-4.3441512 1.28159493 3.49328003 3.12748523 4.3441512 3.12748523z" fill="#4c160e" transform="translate(30.417957 19.449066)"/></g></g></g></g><g transform="translate(18.864 39.337653)"><g opacity=".7"><use fill="#4ea4ff" fill-rule="evenodd" xlink:href="#k"/><use fill="#000" filter="url(#l)" xlink:href="#k"/></g><path d="m72.4723778-14.0755169h8.1928108l.0594908 37.034346c-1.4445834.1280793-2.6307773.2509684-3.5585817.3686672s-2.4872972.3780664-4.6784785.7811028zm10.7136757 0h2.5208649l.0247913 36.8970289h-2.5208648z" fill="#f1f6ff" mask="url(#v)" opacity=".3" transform="matrix(.93358043 .35836795 -.35836795 .93358043 7.051692 -28.014441)"/><path d="m0 42.0018222c.2455148-27.8558823 15.7098161-41.78382353 46.392904-41.78382353 46.0246319 0-2.7677324 18.45273343-23.1422004 20.81089553-14.7463441 1.7067572-22.49657865 8.6977332-23.2507036 20.972928z" fill="#4b9aee" mask="url(#v)" opacity=".483533"/></g></g></g><g mask="url(#o)"><g fill-rule="evenodd" transform="matrix(.93358043 -.35836795 .35836795 .93358043 59 117.450623)"><use fill="#f1f6ff" transform="matrix(-.98162718 .190809 -.190809 -.98162718 20.638835 21.125234)" xlink:href="#m"/><path d="m2.76149316 10.1975798c3.17411443-1.11151719 5.56107324-1.66170789 7.16087643-1.65057211 1.59980321.01113578 3.90264211.59397084 6.90851681 1.74850521l-.0005384 4.0059012c-2.8398709-1.3470797-5.0515322-2.0261305-6.634984-2.0371525-1.58345171-.011022-4.06158814.6353845-7.43440926 1.9392194z" fill="#4b9aee" mask="url(#w)" opacity=".7" transform="matrix(-.9612617 .27563736 -.27563736 -.9612617 22.361281 19.705583)"/></g></g><g mask="url(#o)"><g fill-rule="evenodd" transform="matrix(.94551858 .32556815 -.32556815 .94551858 117.048287 109.832627)"><use fill="#f1f6ff" transform="matrix(.98162718 .190809 .190809 -.98162718 -2.530097 26.276063)" xlink:href="#n"/><path d="m1.19679037 12.7786121c3.24460462-1.1391733 5.6853305-1.7008659 7.32217764-1.6850778 1.63684719.0157881 3.99451279.6237633 7.07299689 1.8239256l.0100767 4.136248c-2.9091504-1.3985277-5.1737841-2.1056049-6.79390115-2.1212316-1.62011706-.0156268-4.15387486.6451679-7.6012734 1.9823839z" fill="#4b9aee" mask="url(#x)" opacity=".7" transform="matrix(-.99756405 -.06975647 .06975647 -.99756405 15.796657 28.698549)"/></g></g><g mask="url(#o)"><g transform="translate(64 97.666667)"><path d="m40.2483388 13.1125733 16.7279644 28.3088629c2.528671 4.2792893 1.1095144 9.7982316-3.1697749 12.3269026-1.3866894.8194073-2.9678696 1.2516612-4.5785639 1.2516612h-33.4559288c-4.9705628 0-9.00000005-4.0294373-9.00000005-9 0-1.6106942.43225389-3.1918744 1.25166125-4.5785638l16.7279644-28.3088629c2.528671-4.27928935 8.0476133-5.69844594 12.3269026-3.16977497 1.3070265.77233387 2.3974411 1.86274847 3.169775 3.16977497z" fill="#ffa900"/><path d="m32.1764147 51.3901717c-1.8408023 0-3.3333333-1.4923289-3.3333333-3.3333122 0-1.840814 1.492531-3.3333545 3.3333333-3.3333545 1.8409716 0 3.3333333 1.4925405 3.3333333 3.3333545 0 1.8409833-1.4923617 3.3333122-3.3333333 3.3333122zm3.2778262-23.4647828-1.073807 11.6860094c-.1159033 1.2613506-1.1738836 2.2265721-2.4405481 2.2265721-1.2666644 0-2.3246448-.9652215-2.4405481-2.2265721l-1.0738069-11.6860094c-.1783482-1.9409247 1.2505024-3.6589348 3.1914271-3.837283.10736-.0098651.2151156-.0148054.3229279-.0148054 1.9491016 0 3.5291605 1.580059 3.5291605 3.5291605 0 .1078123-.0049403.2155679-.0148054.3229279z" fill="#fff"/></g></g><g fill="#4b9aee" mask="url(#o)"><path d="m11.0130727 3.7105328 9.7931263-.71603178c3.3092125-.24195555 6.188003 2.24454748 6.4299586 5.55375996.0795788 1.08839488-.1388001 2.17791022-.6316886 3.15156172l-.7327314 1.4474368c-2.5271909 4.99221-7.46242 8.3168087-13.0383758 8.7832533l-1.8030947.150834c-4.68076682.3915594-8.79269966-3.0855302-9.18425909-7.766297-.01940949-.2320243-.02928274-.4647478-.0295948-.6975824-.00697352-5.20314546 4.00736165-9.52751519 9.19665949-9.9069346z" transform="matrix(-.92050485 -.39073113 -.39073113 .92050485 82.089951 105.919617)"/></g><g fill="#4b9aee" mask="url(#o)"><path d="m11.0130727 3.7105328 9.7931263-.71603178c3.3092125-.24195555 6.188003 2.24454748 6.4299586 5.55375996.0795788 1.08839488-.1388001 2.17791022-.6316886 3.15156172l-.7327314 1.4474368c-2.5271909 4.99221-7.46242 8.3168087-13.0383758 8.7832533l-1.8030947.150834c-4.68076682.3915594-8.79269966-3.0855302-9.18425909-7.766297-.01940949-.2320243-.02928274-.4647478-.0295948-.6975824-.00697352-5.20314546 4.00736165-9.52751519 9.19665949-9.9069346z" transform="matrix(.92050485 -.39073113 .39073113 .92050485 110.971174 105.919617)"/></g><g fill="#ffe90e"><path d="m121.323323 138c-3.248045-6.364994-7.022486-9.547491-11.323323-9.547491 8.187367-1.871755 11.961808-3.877492 11.323323-6.01721l-11.323323-16.435299 18.463291 10.073441c1.283781-.422471 1.925671-2.827018 1.925671-7.213641 1.247175 5.766636 3.020461 8.279224 8.611038 8.279224-8.532096 2.614216-14.424322 9.567875-17.676677 20.860976z" mask="url(#o)" transform="matrix(-.37460659 .92718385 -.92718385 -.37460659 284.254951 52.267615)"/><path d="m60.4799814 165.474518c-3.0240423-5.967182-6.538177-8.950772-10.5424042-8.950772 7.6227212-1.754771 11.136856-3.635149 10.5424042-5.641136l-10.5424042-15.408092 17.1899603 9.44385c1.1952444-.396066 1.7928666-2.650328 1.7928666-6.762788 1.1611625 5.406222 2.8121533 7.761773 8.0171731 7.761773-7.9436756 2.450828-13.4295408 8.969883-16.4575958 19.557165z" mask="url(#o)" transform="matrix(.30901699 -.95105652 .95105652 .30901699 -99.275483 164.308056)"/></g></g></svg>